<svg xmlns="http://www.w3.org/2000/svg" width="1103.729" height="815.787"><defs><linearGradient id="a" x1=".02" x2=".961" y2="1" gradientUnits="objectBoundingBox"><stop offset="0" stop-color="#00c973"/><stop offset="1" stop-color="#00ddb2"/></linearGradient><style>.b{isolation:isolate}.c{fill:#fff}</style></defs><path d="M0 0h1103.729v815.787H0z" fill="url(#a)"/><g class="b"><g class="b"><path class="c" d="M139.988 168.918h-11.336v25.379h-10.26v-62.548h21.6c14.85 0 22.14 8.46 22.14 18.63-.004 8.909-5.854 18.539-22.144 18.539zm0-8.37c8.01 0 11.61-3.869 11.61-10.169 0-6.481-3.6-10.26-11.61-10.26h-11.336v20.429zM193.447 195.106c-14.129 0-24.838-10.079-24.838-25.648s11.159-25.56 25.289-25.56 25.289 9.991 25.289 25.56-11.52 25.648-25.74 25.648zm0-8.909c7.65 0 15.21-5.49 15.21-16.739s-7.29-16.649-14.94-16.649c-7.739 0-14.669 5.4-14.669 16.649s6.66 16.739 14.399 16.739zM256.896 143.898c13.049 0 23.309 10.081 23.309 25.38s-10.26 25.828-23.309 25.828a22.422 22.422 0 01-17.28-8.008v30.778h-10.259v-73.167h10.259v7.29a21.635 21.635 0 0117.28-8.101zm-2.25 8.911c-7.65 0-15.03 6.029-15.03 16.649 0 10.709 7.38 16.739 15.03 16.739 7.739 0 15.119-6.21 15.119-16.919s-7.38-16.469-15.119-16.469zM317.915 143.898c13.049 0 23.309 10.081 23.309 25.38s-10.26 25.828-23.309 25.828a22.421 22.421 0 01-17.279-8.008v30.778h-10.26v-73.167h10.26v7.29a21.634 21.634 0 0117.279-8.101zm-2.25 8.911c-7.649 0-15.029 6.029-15.029 16.649 0 10.709 7.38 16.739 15.029 16.739 7.74 0 15.12-6.21 15.12-16.919s-7.38-16.469-15.12-16.469zM350.046 131.569a6.493 6.493 0 016.57-6.569 6.473 6.473 0 016.479 6.569 6.472 6.472 0 01-6.479 6.57 6.492 6.492 0 01-6.57-6.57zm1.35 13.14h10.256v49.588h-10.259zM410.344 166.578c0-9.09-4.95-13.769-12.42-13.769-7.56 0-12.509 4.679-12.509 13.769v27.719h-10.263v-49.588h10.26v5.67a19.078 19.078 0 0114.759-6.481c11.61 0 20.339 7.291 20.339 21.15v29.249h-10.169zM451.564 195.106c-11.88 0-20.249-7.019-20.7-16.018h10.62c.36 4.05 4.23 7.379 9.9 7.379 5.939 0 9.089-2.52 9.089-5.94 0-9.719-28.8-4.139-28.8-22.319 0-7.919 7.38-14.31 19.08-14.31 11.249 0 18.629 6.031 19.169 15.93h-10.26c-.36-4.319-3.689-7.289-9.269-7.289-5.491 0-8.37 2.249-8.37 5.579 0 9.99 27.989 4.41 28.529 22.32 0 8.369-7.289 14.668-18.988 14.668z"/></g></g><g class="b"><g class="b"><path class="c" d="M131.397 279.618h-11.639l-2 5.679h-4.759l9.958-27.835h5.279l9.958 27.835h-4.8zm-5.8-16.637l-4.559 12.917h9.079zM151.398 262.9a9.378 9.378 0 017.638 3.56v-3.2h4.6v22.036h-4.6v-3.279a9.484 9.484 0 01-7.718 3.639c-5.719 0-10.318-4.679-10.318-11.478s4.599-11.278 10.398-11.278zm.96 3.96c-3.4 0-6.679 2.56-6.679 7.319s3.279 7.518 6.679 7.518c3.439 0 6.678-2.679 6.678-7.438 0-4.72-3.239-7.399-6.678-7.399zM191.157 285.297h-11.118v-27.8h10.6c5.879 0 9 3.239 9 7.158a6.5 6.5 0 01-4.719 6.36 6.912 6.912 0 015.36 6.8c-.004 4.243-3.444 7.482-9.123 7.482zm-.92-24.076h-5.639v7.959h5.639c2.959 0 4.759-1.4 4.759-3.959 0-2.521-1.8-4-4.759-4zm.36 11.678h-6v8.678h6.159c3.08 0 4.959-1.559 4.959-4.239.001-2.759-2.079-4.439-5.118-4.439zM217.476 262.9c5.839 0 10.358 4.48 10.358 11.279s-4.559 11.478-10.358 11.478a9.366 9.366 0 01-7.679-3.559v3.2h-4.559v-29.6h4.559v10.841a9.421 9.421 0 017.679-3.639zm-1 3.96c-3.4 0-6.679 2.679-6.679 7.4 0 4.759 3.28 7.438 6.679 7.438 3.44 0 6.719-2.759 6.719-7.518s-3.279-7.32-6.719-7.32zM255.435 257.139c5.8 0 10.8 2.92 12.918 8.358h-5.479a7.767 7.767 0 00-7.439-4.359c-5.519 0-9.518 3.92-9.518 10.2s4 10.238 9.518 10.238a7.765 7.765 0 007.439-4.359h5.479c-2.119 5.439-7.118 8.319-12.918 8.319a13.879 13.879 0 01-14.2-14.2 13.9 13.9 0 0114.2-14.197zM282.952 262.9c5.4 0 8.918 2.68 10.158 7.32h-4.919a5.15 5.15 0 00-5.239-3.48c-3.679 0-6.119 2.72-6.119 7.519 0 4.839 2.44 7.558 6.119 7.558a5.034 5.034 0 005.239-3.479h4.919c-1.24 4.319-4.759 7.319-10.158 7.319-6.319 0-10.8-4.479-10.8-11.4.006-6.877 4.485-11.357 10.8-11.357zM331.913 271.499c0 8.559-5.839 13.8-14.758 13.8h-9.078v-27.8h9.078c8.919.003 14.758 5.401 14.758 14zm-14.761 10.078c6.559 0 10.079-3.759 10.079-10.078 0-6.358-3.52-10.278-10.079-10.278h-4.519v20.356zM345.352 262.9a10.153 10.153 0 017.6 3.44v-10.638h4.6v29.6h-4.6v-3.319a9.135 9.135 0 01-7.639 3.679c-5.8 0-10.4-4.679-10.4-11.478s4.603-11.284 10.439-11.284zm.92 3.96c-3.4 0-6.679 2.56-6.679 7.319s3.28 7.518 6.679 7.518c3.439 0 6.679-2.679 6.679-7.438.001-4.72-3.237-7.399-6.676-7.399zM389.314 261.181h-10.8v8.159h9.6v3.719h-9.6v8.518h10.8v3.72h-15.362v-27.835h15.358zM404.394 285.657c-6.319 0-11-4.479-11-11.4s4.479-11.359 11-11.359c6.279 0 10.718 4.36 10.718 10.839a14.067 14.067 0 01-.16 2.24h-16.837a6.061 6.061 0 006.279 5.838 5.333 5.333 0 005.2-3.079h4.919c-1.24 3.841-4.72 6.921-10.119 6.921zm-6.242-13.358h12.2c-.08-3.4-2.76-5.559-6.159-5.559a6 6 0 00-6.041 5.559zM429.994 257.502h16.358v3.719h-11.8v8.2h9.2v3.719h-9.2v12.158h-4.56zM451.152 266.98h-2.6v-3.719h2.6v-1.56c0-5.079 2.6-7.279 8.359-7.279v3.8c-2.8 0-3.76.96-3.76 3.479v1.56h4.08v3.719h-4.08v18.317h-4.6zM499.869 265.5h-5.478a7.9 7.9 0 00-7.439-4.2c-5.519 0-9.518 3.92-9.518 10.038s4 10.079 9.518 10.079c5.039 0 8.2-3.04 8.878-7.719h-10.438v-3.639h15.318v3.559a13.7 13.7 0 01-13.758 11.921 13.879 13.879 0 01-14.2-14.2 13.9 13.9 0 0114.2-14.2c5.8 0 10.8 2.923 12.917 8.361zM514.072 262.9a9.332 9.332 0 017.639 3.56v-3.2h4.6v22.4c0 6-3.88 10.518-10.759 10.518-5.879 0-10.238-2.919-10.8-7.8h4.52c.679 2.28 3.119 3.84 6.278 3.84 3.519 0 6.159-2.16 6.159-6.559v-3.679a9.46 9.46 0 01-7.639 3.679c-5.8 0-10.4-4.679-10.4-11.478s4.604-11.281 10.402-11.281zm.96 3.96c-3.4 0-6.678 2.56-6.678 7.319s3.279 7.518 6.678 7.518c3.44 0 6.679-2.679 6.679-7.438 0-4.72-3.239-7.399-6.679-7.399zM560.352 273.139h-13.078v12.158h-4.56v-27.8h4.56v11.918h13.078v-11.918h4.558v27.8h-4.558zM570.912 255.702h4.56v10.118a8.736 8.736 0 016.839-2.92c4.919 0 8.758 3.24 8.758 9.4v13h-4.517v-12.321c0-4.04-2.2-6.119-5.519-6.119-3.359 0-5.559 2.079-5.559 6.119v12.318h-4.56zM607.272 257.502h4.559v27.8h-4.559zM617.232 257.422a2.886 2.886 0 012.92-2.92 2.876 2.876 0 012.878 2.92 2.875 2.875 0 01-2.878 2.917 2.885 2.885 0 01-2.92-2.917zm.6 5.839h4.56v22.036h-4.56zM649.352 257.502h4.6v20.037c0 5.039-3.4 8.039-8.2 8.039s-8.2-3-8.2-8.039h4.6c.039 2.319 1.159 4 3.6 4s3.6-1.68 3.6-4zM665.91 263.261v26.355c0 4.48-2.4 6.159-6.318 6.159h-2.36v-3.836h1.559c1.92 0 2.56-.68 2.56-2.32v-26.355zm-5.159-5.839a2.886 2.886 0 012.92-2.92 2.876 2.876 0 012.879 2.92 2.875 2.875 0 01-2.879 2.919 2.885 2.885 0 01-2.919-2.919zM686.87 272.859v12.438h-4.559v-27.8h4.559v12.678l10.8-12.678h5.72l-12.078 13.917 12.278 13.878h-5.959zM707.63 255.702h4.56v17.2l8-9.638h6.318l-10.156 11.035 10.158 11h-6.158l-8.159-9.479v9.479h-4.56zM744.752 257.502v24.115h9.4v3.68h-13.958v-27.8zM757.952 255.702h4.56v29.6h-4.56zM778.908 257.502h4.92l9.758 21.8 9.719-21.8h4.879v27.8h-4.559v-19.037l-8.479 19.037h-3.16l-8.518-19.037v19.037h-4.56zM845.423 272.979c0-4.04-2.2-6.119-5.52-6.119-3.359 0-5.558 2.079-5.558 6.119v12.318h-4.52v-12.318c0-4.04-2.2-6.119-5.518-6.119-3.36 0-5.56 2.079-5.56 6.119v12.318h-4.559v-22.036h4.559v2.519a8.4 8.4 0 016.52-2.88c3.478 0 6.4 1.481 7.918 4.36a8.628 8.628 0 017.678-4.36c5.16 0 9.08 3.24 9.08 9.4v13h-4.52z"/></g><g class="b"><path class="c" d="M137.475 317.462v27.835h-4.559l-13.718-20.758v20.757h-4.559v-27.835h4.559l13.718 20.716v-20.716zM159.116 332.979c0-4.04-2.2-6.119-5.519-6.119-3.359 0-5.559 2.079-5.559 6.119v12.318h-4.559v-22.036h4.559v2.519a8.482 8.482 0 016.559-2.88c5.159 0 9.039 3.24 9.039 9.4v13h-4.52zM192.516 345.577a13.912 13.912 0 01-14.2-14.238 13.9 13.9 0 0114.2-14.2 13.856 13.856 0 0114.2 14.2 13.866 13.866 0 01-14.2 14.238zm0-3.96c5.519 0 9.519-4 9.519-10.278s-4-10.2-9.519-10.2-9.518 3.92-9.518 10.2 3.999 10.278 9.518 10.278zM220.752 345.657c-6.279 0-11.038-4.479-11.038-11.4s4.959-11.359 11.238-11.359 11.238 4.44 11.238 11.359a11.037 11.037 0 01-11.438 11.4zm0-3.96c3.4 0 6.759-2.439 6.759-7.438s-3.239-7.4-6.639-7.4c-3.439 0-6.518 2.4-6.518 7.4s2.963 7.438 6.398 7.438zM256.715 334.019h-5.039v11.278h-4.559v-27.8h9.6c6.6 0 9.839 3.759 9.839 8.278-.004 3.964-2.604 8.244-9.841 8.244zm0-3.719c3.56 0 5.16-1.72 5.16-4.52 0-2.88-1.6-4.559-5.16-4.559h-5.039v9.079zM283.152 322.9c5.8 0 10.359 4.48 10.359 11.279s-4.559 11.478-10.359 11.478a9.964 9.964 0 01-7.678-3.559v13.677h-4.559v-32.514h4.559v3.239a9.614 9.614 0 017.678-3.6zm-1 3.96c-3.4 0-6.679 2.679-6.679 7.4 0 4.759 3.28 7.438 6.679 7.438 3.439 0 6.719-2.759 6.719-7.518s-3.277-7.32-6.719-7.32zM329.073 343.257l6.679 7.079h-5.8l-4.88-5.279a14.129 14.129 0 01-3.959.52 13.912 13.912 0 01-14.2-14.238 13.9 13.9 0 0114.2-14.2 13.856 13.856 0 0114.2 14.2 13.79 13.79 0 01-6.24 11.918zm-7.959-1.64c5.519 0 9.518-4 9.518-10.278s-4-10.2-9.518-10.2-9.518 3.92-9.518 10.2 3.999 10.278 9.518 10.278zM348.834 322.9a9.294 9.294 0 017.6 3.56v-3.2h4.6v32.514h-4.6v-13.677a9.752 9.752 0 01-7.759 3.559c-5.679 0-10.278-4.679-10.278-11.478s4.598-11.278 10.437-11.278zm.92 3.96c-3.4 0-6.679 2.56-6.679 7.319s3.28 7.518 6.679 7.518c3.44 0 6.679-2.679 6.679-7.438 0-4.72-3.239-7.399-6.681-7.399zM387.033 317.502c6.6 0 9.839 3.8 9.839 8.318a7.912 7.912 0 01-6.439 7.959l6.879 11.518h-5.439l-6.4-11.118h-3.48v11.118h-4.559v-27.8zm0 3.719h-5.039v9.318h5.039c3.56 0 5.16-1.959 5.16-4.719 0-2.799-1.6-4.599-5.16-4.599zM407.274 345.297h-4.559v-22.036h4.559v3.2a7.18 7.18 0 016.6-3.56v4.72h-1.159c-3.36 0-5.44 1.4-5.44 6.079zM437.633 345.577c-5.56 0-9.839-3.04-9.839-7.959h4.88c.2 2.279 1.8 4.119 4.959 4.119 3.2 0 5-1.719 5-4.079 0-6.719-14.758-2.359-14.758-12.6 0-4.88 3.88-7.919 9.559-7.919 5.319 0 9.078 2.8 9.478 7.558h-5.039c-.16-1.88-1.8-3.6-4.679-3.679-2.64-.08-4.679 1.2-4.679 3.879 0 6.28 14.718 2.36 14.718 12.518-.001 4.162-3.402 8.162-9.6 8.162zM460.632 345.657c-5.279 0-9-3.12-9.2-7.119h4.718c.161 1.8 1.88 3.279 4.4 3.279 2.64 0 4.039-1.12 4.039-2.639 0-4.32-12.8-1.84-12.8-9.918 0-3.52 3.28-6.36 8.48-6.36 5 0 8.278 2.68 8.518 7.08h-4.559c-.161-1.92-1.64-3.24-4.12-3.24-2.439 0-3.719 1-3.719 2.48 0 4.439 12.438 1.96 12.677 9.918.004 3.719-3.235 6.519-8.434 6.519zM482.952 317.502h19.4v3.719h-7.4v24.076h-4.559v-24.076h-7.441zM507.673 326.98h-2.6v-3.719h2.6v-5.48h4.6v5.48h5.359v3.719h-5.359v12.2c0 1.639.639 2.319 2.559 2.319h2.8v3.8h-3.6c-3.919 0-6.358-1.64-6.358-6.119zM532.194 317.502h4.558v17.717c0 4.319 2.44 6.358 6.279 6.358 3.879 0 6.319-2.039 6.319-6.358v-17.717h4.559v17.637c0 7.079-5.119 10.438-10.918 10.438-5.839 0-10.8-3.359-10.8-10.438zM579.789 345.297h-4.559v-2.64a8.2 8.2 0 01-6.519 2.96c-5.159 0-9.078-3.24-9.078-9.4v-12.958h4.519v12.28c0 4.04 2.2 6.119 5.519 6.119 3.359 0 5.559-2.079 5.559-6.119v-12.277h4.559zM615.352 317.502h4.8l-10.438 27.8h-5.279l-10.479-27.8h4.879l8.239 23.115zM626.231 323.261l6.239 17.957 6.238-17.957h4.84l-8.4 22.036h-5.439l-8.358-22.036zM655.152 317.502h4.838l5.76 22.636 6.238-22.636h5.12l5.8 22.516 5.8-22.516h4.879l-8.238 27.8h-5.159l-5.839-21.036-6.2 21.036-5.12.04zM694.752 323.261h4.639l4.6 17.717 4.679-17.717h4.76l4.478 17.636 4.56-17.636h4.479l-6.838 22.036h-4.8l-4.439-16.277-4.439 16.277h-4.8zM750.752 335.219l-5.879 10.078h-5.079l8.638-13.878-8.678-13.917h5.119l6.319 10.158 5.919-10.158h5.079l-8.678 13.917 8.638 13.878h-5.119zM773.788 337.818l-4.479 7.479h-4.757l7.118-10.838-7.118-11.2h5.158l4.76 7.478 4.479-7.478h4.759l-7.119 10.878 7.119 11.158h-5.159zM795.109 317.502h5.079l6.439 13.638 6.439-13.638h5.039l-9.2 17.717v10.078h-4.553v-10.078zM836.826 323.261h4.719l-13.518 32.394h-4.718l4.478-10.718-8.677-21.676h5.079l6.2 16.8zM872.704 321.061l-12.918 20.278h12.918v3.959h-18.316v-3.56l12.878-20.276h-12.878v-3.959h18.316zM891.745 326.98l-10 14.6h10v3.72h-15.277v-3.72l10.038-14.6h-10.038v-3.719h15.277z"/></g></g><g><g class="b"><g class="b"><path class="c" d="M123.14 460.29h12.42l9.99 30.6q1.26 3.87 2.205 6.975t1.935 6.975h.27q.99-3.24 2.025-6.93t2.025-7.02l9.63-30.6h12.42l4.68 56.7h-9.36q-.722-9-1.4-18.135t-1.026-18.315l-.36-10.35h-.18q-1.53 5.582-3.2 11.34t-3.465 11.07l-8.01 24.39h-8.19l-8.1-24.481q-1.261-3.867-2.2-7.019t-1.711-5.8q-.765-2.653-1.4-4.995t-1.17-4.5h-.27q-.27 7.652-.81 15.569t-.99 15.211l-1.08 16.02h-9.18zM219.62 474.509h9.27v42.481h-7.11l-1.17-5.13h-.36a22.775 22.775 0 01-5.67 4.185 17.241 17.241 0 01-8.28 1.845q-6.75 0-10.8-3.78t-4.05-11.34v-28.261h9.27v27.27q0 4.952 2.295 6.93a8.187 8.187 0 005.535 1.98 12.676 12.676 0 006.21-1.485 18.253 18.253 0 004.86-3.915zM249.949 501.87v15.12h-9.18V453h9.18v39.24l16.11-17.731h11.34l-17.1 17.911 17.91 24.57h-10.89l-13.41-19.08zM308.719 481.35h-12.06v22.95q0 3.152 1.484 4.23a6.676 6.676 0 004.006 1.08 19.558 19.558 0 003.825-.4 26.082 26.082 0 003.555-.946l1.44 6.841a27.97 27.97 0 01-4.635 1.3 29.5 29.5 0 01-5.985.585q-6.842 0-9.855-2.835t-3.016-8.415v-24.39h-6.48v-6.841h6.48V461.1h9.181v13.409h12.06zM319.159 478.29a41.1 41.1 0 017.964-3.375 30.124 30.124 0 018.505-1.125 25.473 25.473 0 016.616.81 13.388 13.388 0 015.174 2.61 11.924 11.924 0 013.375 4.815 19.652 19.652 0 011.216 7.335v27.63h-7.471l-.99-4.59h-.27a14.968 14.968 0 01-5.849 4.185 20.1 20.1 0 01-7.381 1.3q-6.391 0-10.3-3.42a11.473 11.473 0 01-3.915-9.09 12.213 12.213 0 011.439-6.075 12.239 12.239 0 014.05-4.275 19.478 19.478 0 016.21-2.565 34.285 34.285 0 017.921-.855h7.2v-3.24q0-4.05-2.159-5.625a9.917 9.917 0 00-5.941-1.575 21.008 21.008 0 00-5.264.765 30.342 30.342 0 00-6.705 2.835zm23.58 19.44l-5.671.09q-6.39.181-9 2.25a6.081 6.081 0 00-2.61 4.86 6.621 6.621 0 00.585 2.97 5.107 5.107 0 001.576 1.89 6.384 6.384 0 002.294 1.035 11.223 11.223 0 002.655.315 12.112 12.112 0 005.535-1.4 12.875 12.875 0 004.636-4.005z"/></g></g><g class="b"><g class="b"><path class="c" d="M122.92 572.79H127l9.8 25.2h-4.48l-2.52-6.6h-9.88l-2.48 6.6H113zM121 588.11h7.64l-1.48-4.08q-.681-1.68-1.18-3.14t-1.06-3.34h-.08q-.6 1.759-1.12 3.26t-1.2 3.26zM139.76 580.79a18.3 18.3 0 013.54-1.5 13.38 13.38 0 013.78-.5 11.32 11.32 0 012.94.36 5.957 5.957 0 012.3 1.16 5.291 5.291 0 011.5 2.14 8.732 8.732 0 01.54 3.26v12.28h-3.32l-.44-2.04h-.12a6.653 6.653 0 01-2.6 1.86 8.934 8.934 0 01-3.28.58 6.711 6.711 0 01-4.58-1.52 5.1 5.1 0 01-1.74-4.04 5.435 5.435 0 01.64-2.7 5.449 5.449 0 011.8-1.9 8.625 8.625 0 012.76-1.14 15.256 15.256 0 013.52-.38h3.2v-1.44a2.9 2.9 0 00-.96-2.5 4.4 4.4 0 00-2.64-.7 9.328 9.328 0 00-2.34.34 13.423 13.423 0 00-2.98 1.26zm10.48 8.64l-2.52.04a6.918 6.918 0 00-4 1 2.7 2.7 0 00-1.16 2.16 2.936 2.936 0 00.26 1.32 2.271 2.271 0 00.7.84 2.829 2.829 0 001.02.46 5.03 5.03 0 001.18.14 5.384 5.384 0 002.46-.62 5.717 5.717 0 002.06-1.78zM176.84 572.79a9.711 9.711 0 016.04 1.66 5.666 5.666 0 012.16 4.78 5.259 5.259 0 01-.38 2.06 5.216 5.216 0 01-1 1.56 5.464 5.464 0 01-1.46 1.1 8.264 8.264 0 01-1.76.68 7.494 7.494 0 012.1.7 6.02 6.02 0 011.7 1.28 5.818 5.818 0 011.14 1.86 6.692 6.692 0 01.42 2.44 6.078 6.078 0 01-.68 2.86 6.78 6.78 0 01-1.9 2.239 9.1 9.1 0 01-2.9 1.461 12.53 12.53 0 01-3.72.52h-7.8v-25.2zm-3.76 10.36h2.88a10 10 0 001.82-.16 3.873 3.873 0 001.48-.58 3.135 3.135 0 001-1.12 3.612 3.612 0 00.38-1.74 2.9 2.9 0 00-1.2-2.58 5.665 5.665 0 00-3.24-.82h-3.12zm0 11.48h3a9.153 9.153 0 002.04-.22 5.027 5.027 0 001.68-.7 3.461 3.461 0 001.14-1.26 4.055 4.055 0 00.42-1.941 3.557 3.557 0 00-.48-1.9 3.738 3.738 0 00-1.28-1.26 5.593 5.593 0 00-1.84-.68 11.447 11.447 0 00-2.16-.2h-2.52zM208.16 588.55a11.632 11.632 0 01-.681 4.1 9.323 9.323 0 01-1.859 3.1 8.055 8.055 0 01-2.76 1.96 8.469 8.469 0 01-3.381.68 8.64 8.64 0 01-3.2-.54 8.037 8.037 0 01-2.52-1.62h-.08l-.36 1.76h-2.96v-28.44h4.079v11.64a7.647 7.647 0 012.64-1.8 8.229 8.229 0 013.121-.6 7.159 7.159 0 015.819 2.58 10.93 10.93 0 012.142 7.18zm-4.28.08a8.012 8.012 0 00-1.28-4.8 4.157 4.157 0 00-3.561-1.76 5.109 5.109 0 00-2.54.64 7.943 7.943 0 00-2.06 1.68v9a5.8 5.8 0 001.7 1.36 4.669 4.669 0 002.22.52 5.56 5.56 0 002.079-.4 4.929 4.929 0 001.761-1.2 5.886 5.886 0 001.22-2.06 8.709 8.709 0 00.461-2.98zM233.199 594.95a13.133 13.133 0 003.26-.34 13.488 13.488 0 002.46-.9l.92 3.32a14.464 14.464 0 01-2.96.979 18.963 18.963 0 01-4.12.381 13.552 13.552 0 01-4.86-.86 10.981 10.981 0 01-3.92-2.521 11.843 11.843 0 01-2.62-4.079 14.936 14.936 0 01-.96-5.54 15.265 15.265 0 01.92-5.46 11.614 11.614 0 012.58-4.1 11.035 11.035 0 013.96-2.56 14.042 14.042 0 015.06-.88 16.9 16.9 0 014.14.42 12.43 12.43 0 012.86 1.1l-1 3.24a21.554 21.554 0 00-2.58-.96 10.32 10.32 0 00-2.9-.36 10.135 10.135 0 00-3.26.52 6.729 6.729 0 00-2.68 1.68 8.351 8.351 0 00-1.82 2.979 12.535 12.535 0 00-.68 4.381 12.9 12.9 0 00.66 4.38 8.224 8.224 0 001.76 2.96 6.732 6.732 0 002.6 1.68 9.315 9.315 0 003.18.54zM251.879 595.27a7.736 7.736 0 002.26-.3 11.52 11.52 0 001.78-.7l.84 2.96a9.377 9.377 0 01-2.32.84 13.126 13.126 0 01-3 .32 12.022 12.022 0 01-3.9-.62 8.866 8.866 0 01-3.16-1.84 8.609 8.609 0 01-2.12-3.06 10.9 10.9 0 01-.78-4.28 10.953 10.953 0 01.72-4.06 8.735 8.735 0 012.04-3.1 8.926 8.926 0 013.16-1.96 11.576 11.576 0 014.04-.68 15.973 15.973 0 012.5.2 10.439 10.439 0 012.78.92l-.92 3a8 8 0 00-3.92-1.04 6.061 6.061 0 00-4.48 1.72 6.6 6.6 0 00-1.72 4.88 8.417 8.417 0 00.54 3.22 5.778 5.778 0 001.42 2.1 5.17 5.17 0 001.98 1.14 7.6 7.6 0 002.26.34zM278.398 572.79a16.255 16.255 0 015.08.76 11.106 11.106 0 014 2.26 10.206 10.206 0 012.621 3.76 13.634 13.634 0 01.939 5.26 14.78 14.78 0 01-1.12 6.06 11.124 11.124 0 01-3.02 4.08 11.926 11.926 0 01-4.44 2.3 19.485 19.485 0 01-5.339.72h-7.121v-25.2zm-4.12 21.76h2.48a15.2 15.2 0 003.58-.42 7.759 7.759 0 003.1-1.52 7.705 7.705 0 002.181-2.98 12.109 12.109 0 00.819-4.8 8.3 8.3 0 00-2.38-6.38 8.976 8.976 0 00-6.379-2.22h-3.4zM307.838 569.55h4.116v28.44h-3.24l-.48-2.08h-.16a7.516 7.516 0 01-2.32 1.84 7.445 7.445 0 01-3.32.64 7.753 7.753 0 01-3.06-.62 7.48 7.48 0 01-2.6-1.86 9.211 9.211 0 01-1.82-3.08 12.178 12.178 0 01-.68-4.24 13.156 13.156 0 01.58-4.04 8.822 8.822 0 011.68-3.08 7.44 7.44 0 012.7-1.98 9.011 9.011 0 013.64-.7 8.557 8.557 0 012.72.44 6.513 6.513 0 012.24 1.24zm0 14.24a5.186 5.186 0 00-4.04-1.92 5.647 5.647 0 00-2 .36 4.571 4.571 0 00-1.72 1.16 5.657 5.657 0 00-1.2 2.04 9.139 9.139 0 00-.44 3.04 9.94 9.94 0 00.42 3.08 6.593 6.593 0 001.1 2.12 4.067 4.067 0 001.58 1.22 4.743 4.743 0 001.86.38 4.967 4.967 0 002.54-.64 5.932 5.932 0 001.9-1.8zM326.678 572.79h15.6v3.44h-11.324v6.96h10.28v3.4h-10.28v7.96h11.44v3.44h-15.72zM362.238 589.27h-13.24v.16a5.5 5.5 0 001.68 4.36 6.47 6.47 0 004.44 1.48 13.149 13.149 0 002.74-.261 12 12 0 002.46-.819l.8 3a13.709 13.709 0 01-2.76.86 17 17 0 01-3.52.34 13.262 13.262 0 01-3.88-.56 8.7 8.7 0 01-3.22-1.76 8.381 8.381 0 01-2.18-3.04 10.979 10.979 0 01-.8-4.4 11.723 11.723 0 01.66-4.02 8.955 8.955 0 011.88-3.12 8.2 8.2 0 012.96-2 10.266 10.266 0 013.86-.7 8.919 8.919 0 013.34.6 7.243 7.243 0 012.56 1.7 7.566 7.566 0 011.64 2.68 10.109 10.109 0 01.58 3.5zm-4.24-2.88a6.527 6.527 0 00-.24-1.8 4.281 4.281 0 00-.72-1.46 3.5 3.5 0 00-1.26-1 4.213 4.213 0 00-1.86-.38 4.371 4.371 0 00-3.26 1.28 5.807 5.807 0 00-1.54 3.44zM390.918 572.79v3.44h-10.921v7.68h10.04v3.4h-10.04v10.68h-4.279v-25.2zM402.154 569.39a9.825 9.825 0 012.52.34 11.2 11.2 0 012.28.86l-.84 2.8a12.981 12.981 0 00-1.46-.52 5.454 5.454 0 00-1.5-.2 3.056 3.056 0 00-2.54.98 5.548 5.548 0 00-.78 3.38v2.08h5.44v3.04h-5.44v15.84h-4.08v-15.84h-2.8v-3.04h2.8v-3.2a6.565 6.565 0 011.68-4.82 6.339 6.339 0 014.72-1.7zM429.438 572.39a16.364 16.364 0 017.359 1.48l-.96 3.16a13.662 13.662 0 00-2.9-1 14.112 14.112 0 00-3.021-.32 10.107 10.107 0 00-3.259.52 7.039 7.039 0 00-2.72 1.68 8.238 8.238 0 00-1.881 3 12.765 12.765 0 00-.7 4.52q0 4.68 2.12 7.14a7.491 7.491 0 006 2.46 16.752 16.752 0 002.34-.14 9.261 9.261 0 001.859-.46v-6.64h-4.559v-3.281h8.6v12.361a22.946 22.946 0 01-3.6 1.08 22.015 22.015 0 01-4.68.44 14.452 14.452 0 01-4.96-.84 11.381 11.381 0 01-4.04-2.48 11.43 11.43 0 01-2.7-4.061 14.757 14.757 0 01-.98-5.579 15.219 15.219 0 01.96-5.6 11.546 11.546 0 012.659-4.1 11.08 11.08 0 014.021-2.5 14.689 14.689 0 015.042-.84zM442.278 585.43a6.513 6.513 0 01.58-2.8 5.96 5.96 0 011.619-2.1 7.107 7.107 0 012.48-1.3 10.644 10.644 0 013.121-.44 10.374 10.374 0 012.519.32h8.12v2.84h-1.4l-2.96-.4a5.9 5.9 0 011.079 1.76 5.544 5.544 0 01.4 2.08 6.6 6.6 0 01-.559 2.78 5.934 5.934 0 01-1.58 2.08 6.877 6.877 0 01-2.46 1.3 10.789 10.789 0 01-3.16.44 11.869 11.869 0 01-2.041-.16 2.507 2.507 0 00-1.08.76 1.6 1.6 0 00-.32.96 1.179 1.179 0 00.561 1.12 3.264 3.264 0 001.6.32h4.76a7.489 7.489 0 014.86 1.42 4.938 4.938 0 011.741 4.06 5.718 5.718 0 01-.7 2.82 6.4 6.4 0 01-2 2.16 9.864 9.864 0 01-3.139 1.38 16.347 16.347 0 01-4.12.48 12.773 12.773 0 01-6.641-1.48 4.788 4.788 0 01-2.439-4.36 3.415 3.415 0 01.919-2.4 6.123 6.123 0 012.44-1.561 4.087 4.087 0 01-1.159-1.139 3.082 3.082 0 01-.441-1.74 3.265 3.265 0 01.76-2.18 5.2 5.2 0 012-1.42 6.02 6.02 0 01-2.4-2.06 6.057 6.057 0 01-.96-3.54zm4.559 12.76a2.818 2.818 0 00-1.84 2.64 2.728 2.728 0 001.3 2.44 7.654 7.654 0 004.061.84 10.024 10.024 0 002.639-.3 5.97 5.97 0 001.781-.78 3.12 3.12 0 001.019-1.08 2.61 2.61 0 00.321-1.24 2.023 2.023 0 00-1.021-2.02 6.165 6.165 0 00-2.7-.5zm6.88-12.72a3.751 3.751 0 00-1-2.86 3.7 3.7 0 00-2.639-.94 3.734 3.734 0 00-2.661.92 3.613 3.613 0 00-.98 2.76 3.682 3.682 0 001 2.84 3.75 3.75 0 002.641.92 3.734 3.734 0 002.66-.92 3.559 3.559 0 00.979-2.72zM473.996 597.99v-25.2h4.281v10.4h11.16v-10.4h4.279v25.2h-4.279v-11.28h-11.16v11.28zM503.554 597.99h-4.12v-28.44h4.12v11.72a13.623 13.623 0 012.82-1.761 7.989 7.989 0 013.42-.719 7.507 7.507 0 012.8.48 5.39 5.39 0 011.981 1.32 5.363 5.363 0 011.16 2 8.068 8.068 0 01.38 2.52v12.88h-4.121v-11.96a4.317 4.317 0 00-.879-3.04 3.383 3.383 0 00-2.561-.92 5.878 5.878 0 00-2.54.62 9.808 9.808 0 00-2.46 1.7zM535.116 572.79v25.2h-4.281v-25.2zM543.275 574.43a2.284 2.284 0 01-1.72-.66 2.283 2.283 0 01-.641-1.66 2.285 2.285 0 01.641-1.66 2.28 2.28 0 011.72-.66 2.3 2.3 0 011.7.66 2.256 2.256 0 01.66 1.66 2.238 2.238 0 01-.66 1.68 2.339 2.339 0 01-1.7.64zm-2.08 23.56v-18.88h4.12v18.88zM565.675 572.79v20.6a29.156 29.156 0 01-.32 4.78 7.262 7.262 0 01-1.4 3.26 6.445 6.445 0 01-3.2 2.3 13.711 13.711 0 01-3.96.66v-3.4a5.868 5.868 0 002-.38 4.021 4.021 0 001.44-.98 3.494 3.494 0 00.94-1.86 12.736 12.736 0 00.22-2.42v-22.56zM571.554 579.11h4.12v16.08a27.286 27.286 0 01-.3 4.2 12.19 12.19 0 01-1.06 3.48 9.588 9.588 0 01-2.08 2.8 11.425 11.425 0 01-3.4 2.12l-1.84-2.96a14.07 14.07 0 002.1-1.3 5.152 5.152 0 001.4-1.66 8.222 8.222 0 00.8-2.5 22.784 22.784 0 00.26-3.78zm2.08-4.68a2.284 2.284 0 01-1.72-.66 2.287 2.287 0 01-.64-1.66 2.252 2.252 0 01.66-1.66 2.3 2.3 0 011.7-.66 2.3 2.3 0 011.7.66 2.252 2.252 0 01.66 1.66 2.234 2.234 0 01-.66 1.68 2.338 2.338 0 01-1.7.64zM590.833 597.99v-25.2h4.281v11.12l9.96-11.12h5.319l-10.08 11.12 10.881 14.08h-5.361l-8.6-11.28-2.12 2.28v9zM618.074 591.27v6.72h-4.08v-28.44h4.08v17.44l7.16-7.88h5.04l-7.6 7.96 7.96 10.92h-4.84l-5.961-8.481zM642.873 572.79h4.281v21.68h10.559v3.52h-14.84zM660.993 597.99v-28.44h4.04v28.44zM681.432 572.79h5.522l4.439 13.6q.561 1.72.98 3.1t.861 3.1h.12q.439-1.44.9-3.081t.9-3.119l4.279-13.6h5.521l2.08 25.2h-4.161q-.32-4-.62-8.06t-.46-8.14l-.16-4.6h-.08q-.68 2.48-1.42 5.04t-1.54 4.92l-3.559 10.84h-3.641l-3.6-10.88q-.561-1.719-.979-3.12t-.761-2.58q-.339-1.179-.62-2.22t-.52-2h-.12q-.12 3.4-.36 6.92t-.439 6.76l-.481 7.12h-4.08zM716.312 597.99h-4.12v-18.88h3.2l.561 2.52a10.9 10.9 0 012.839-2.08 7.878 7.878 0 013.56-.76 6.281 6.281 0 013.34.8 5.153 5.153 0 011.98 2.24 10.3 10.3 0 013.02-2.24 8.306 8.306 0 013.66-.8 5.784 5.784 0 014.46 1.62 6.493 6.493 0 011.5 4.58v13h-4.12v-12.36a4.125 4.125 0 00-.739-2.64 2.932 2.932 0 00-2.42-.92 6.429 6.429 0 00-4.721 2.28v13.64h-4.12v-12.36a4.125 4.125 0 00-.739-2.64 2.932 2.932 0 00-2.42-.92 6.306 6.306 0 00-4.721 2.4zM755.033 572.79h3.8l10.561 15.08q.719 1.041 1.359 2.08t1.08 1.88h.08q-.2-2.96-.2-5.9v-13.14h4.12v25.2h-3.8l-10.281-14.6q-.759-1.08-1.479-2.34t-1.24-2.26h-.079q.2 3.12.2 6.18v13.02h-4.12zM785.592 597.99h-4.12v-18.88h3.24l.561 2.52a11.193 11.193 0 012.939-2.1 7.991 7.991 0 013.5-.74 6.28 6.28 0 014.641 1.64 6.335 6.335 0 011.64 4.68v12.88h-4.121v-12.36a3.816 3.816 0 00-.839-2.6 3.174 3.174 0 00-2.521-.96 5.711 5.711 0 00-2.54.62 8.6 8.6 0 00-2.38 1.78zM823.591 572.39a13.348 13.348 0 014.8.84 10.445 10.445 0 013.8 2.48 11.408 11.408 0 012.5 4.08 16.129 16.129 0 01.9 5.6 15.5 15.5 0 01-.92 5.54 11.547 11.547 0 01-2.559 4.079 10.878 10.878 0 01-3.861 2.521 13.239 13.239 0 01-4.82.86 13.348 13.348 0 01-4.8-.84 10.433 10.433 0 01-3.8-2.48 11.407 11.407 0 01-2.5-4.061 16.069 16.069 0 01-.9-5.619 15.529 15.529 0 01.92-5.54 11.554 11.554 0 012.561-4.08 10.89 10.89 0 013.859-2.52 13.217 13.217 0 014.82-.86zm-7.559 13a13.628 13.628 0 00.6 4.26 8.943 8.943 0 001.62 3.02 6.343 6.343 0 002.4 1.78 7.5 7.5 0 002.939.58 7.357 7.357 0 002.92-.58 6.06 6.06 0 002.34-1.78 9.088 9.088 0 001.561-3.02 14.115 14.115 0 00.58-4.26 13.922 13.922 0 00-.6-4.34 8.661 8.661 0 00-1.62-3 6.241 6.241 0 00-2.4-1.74 7.747 7.747 0 00-2.94-.56 7.373 7.373 0 00-2.92.58 6.076 6.076 0 00-2.34 1.78 9.059 9.059 0 00-1.559 3.02 14.022 14.022 0 00-.581 4.26zM857.631 588.35a11.5 11.5 0 01-.74 4.24 9.143 9.143 0 01-2.02 3.16 8.748 8.748 0 01-3 1.96 10.038 10.038 0 01-3.72.68 10.431 10.431 0 01-3.7-.64 8.491 8.491 0 01-2.96-1.86 8.333 8.333 0 01-1.96-3.02 11.3 11.3 0 01-.7-4.12 11.317 11.317 0 01.74-4.241 9.225 9.225 0 012.02-3.119 8.5 8.5 0 013-1.94 10.273 10.273 0 013.72-.66 10.734 10.734 0 013.7.62 8.435 8.435 0 012.96 1.82 8.154 8.154 0 011.96 3 11.321 11.321 0 01.7 4.12zm-4.28.2a9.346 9.346 0 00-.44-3.06 5.991 5.991 0 00-1.16-2.06 4.3 4.3 0 00-1.64-1.16 5.227 5.227 0 00-1.92-.36 5.691 5.691 0 00-1.88.32 4.1 4.1 0 00-1.64 1.08 5.344 5.344 0 00-1.14 2.04 10.4 10.4 0 00-.42 3.2 9.359 9.359 0 00.44 3.04 6.186 6.186 0 001.16 2.1 4.389 4.389 0 001.66 1.2 5.035 5.035 0 001.9.38 5.671 5.671 0 001.88-.32 4.01 4.01 0 001.64-1.1 5.529 5.529 0 001.14-2.08 10.6 10.6 0 00.423-3.22z"/></g><g class="b"><path class="c" d="M115.92 632.79h8.24a12.366 12.366 0 013.7.52 8.256 8.256 0 012.84 1.5 6.8 6.8 0 011.84 2.4 7.657 7.657 0 01.66 3.26 8.1 8.1 0 01-.72 3.539 6.756 6.756 0 01-2 2.481 8.727 8.727 0 01-3.02 1.46 14.174 14.174 0 01-3.78.48h-3.48v9.56h-4.28zm4.28 12.24h2.28a14.434 14.434 0 002.5-.2 5.776 5.776 0 001.98-.7 3.592 3.592 0 001.32-1.36 4.526 4.526 0 00.48-2.22 4.362 4.362 0 00-.44-2.041 3.715 3.715 0 00-1.2-1.359 5.3 5.3 0 00-1.721-.76 8.386 8.386 0 00-2.04-.24h-3.16zM145.079 658.39a8.41 8.41 0 01-2.319-.32 6.345 6.345 0 01-1.92-.88v10h-4.08v-28.32h3.319l.521 2.36a10.732 10.732 0 012.52-1.74 7.161 7.161 0 013.24-.7 7.5 7.5 0 015.92 2.44q2.16 2.441 2.16 6.92a12.122 12.122 0 01-.78 4.54 9.11 9.11 0 01-2.081 3.2 8.383 8.383 0 01-3 1.88 10.141 10.141 0 01-3.5.62zm.281-16.36a4.974 4.974 0 00-2.7.74 7.191 7.191 0 00-1.82 1.54v9.72a6 6 0 003.719 1.24 5.985 5.985 0 002.041-.36 4.657 4.657 0 001.8-1.2 6.088 6.088 0 001.28-2.18 9.722 9.722 0 00.48-3.26 7.831 7.831 0 00-1.18-4.54 4.1 4.1 0 00-3.62-1.7zM178.879 632.39a13.357 13.357 0 014.8.84 10.459 10.459 0 013.8 2.48 11.4 11.4 0 012.5 4.08 16.13 16.13 0 01.9 5.6 14.119 14.119 0 01-1.8 7.32 14.04 14.04 0 01-5.52 5.08l-5.2 2.92a8.319 8.319 0 012.04.32q.96.28 1.96.62t2.06.62a9.353 9.353 0 002.38.28 6.194 6.194 0 001.8-.28 5.05 5.05 0 001.639-.84l1.6 3.04a8.111 8.111 0 01-2.32 1.1 9.3 9.3 0 01-2.76.42 11.111 11.111 0 01-2.92-.38q-1.4-.381-2.76-.84t-2.66-.84a9.263 9.263 0 00-2.62-.38 7.129 7.129 0 00-2.1.3 9.764 9.764 0 00-2.02.9l-1.641-3 6.28-3.6a11.784 11.784 0 01-3.92-1.36 10.242 10.242 0 01-3.02-2.6 11.91 11.91 0 01-1.96-3.8 16.489 16.489 0 01-.7-5 15.507 15.507 0 01.921-5.54 11.538 11.538 0 012.56-4.08 10.892 10.892 0 013.859-2.52 13.214 13.214 0 014.822-.86zm-7.56 13a14.748 14.748 0 00.56 4.28 9.244 9.244 0 001.52 3.06 6.22 6.22 0 002.3 1.84 6.807 6.807 0 002.9.62 7.029 7.029 0 002.959-.64 7.085 7.085 0 002.46-1.88 9 9 0 001.661-3.06 13.515 13.515 0 00.6-4.22 13.956 13.956 0 00-.6-4.34 8.713 8.713 0 00-1.621-3 6.246 6.246 0 00-2.4-1.74 7.758 7.758 0 00-2.941-.56 7.378 7.378 0 00-2.92.58 6.069 6.069 0 00-2.34 1.78 9.1 9.1 0 00-1.56 3.02 14.085 14.085 0 00-.578 4.26zM207.554 656.75a5.639 5.639 0 01-2.22 1.259 9.432 9.432 0 01-2.74.381 8.865 8.865 0 01-3.62-.7 7.562 7.562 0 01-2.7-2 8.817 8.817 0 01-1.7-3.1 13.124 13.124 0 01-.58-4.04 12.516 12.516 0 01.58-3.9 8.857 8.857 0 011.7-3.08 7.905 7.905 0 012.74-2.04 8.818 8.818 0 013.7-.74 8.423 8.423 0 012.8.54 5.759 5.759 0 012.44 1.58l.4-1.8h3.32v28.08h-4.12zm0-12.72a6.4 6.4 0 00-1.72-1.521 4.427 4.427 0 00-2.36-.639 5.762 5.762 0 00-2.04.36 4.246 4.246 0 00-1.68 1.16 6.014 6.014 0 00-1.16 2.04 9 9 0 00-.44 3 7.735 7.735 0 001.46 5.12 4.6 4.6 0 003.66 1.72 5.474 5.474 0 002.48-.54 5.981 5.981 0 001.8-1.34zM226.399 632.79h8.68a10.021 10.021 0 013.54.58 7.318 7.318 0 012.58 1.6 6.538 6.538 0 011.56 2.42 8.683 8.683 0 01.52 3.04 7.127 7.127 0 01-.46 2.64 7.332 7.332 0 01-1.18 2.02 8.069 8.069 0 01-1.62 1.48 8.961 8.961 0 01-1.82.98l6.48 10.44h-4.84l-5.56-9.68h-3.72v9.68h-4.16zm4.16 12.12h2.72a9.429 9.429 0 002.2-.24 5.279 5.279 0 001.76-.76 3.57 3.57 0 001.18-1.34 4.3 4.3 0 00.42-1.98 4.166 4.166 0 00-1.28-3.34 5.491 5.491 0 00-3.68-1.1h-3.32zM247.838 657.99v-18.88h3.116l.6 3.64a6.555 6.555 0 012.2-2.82 5.957 5.957 0 013.68-1.14 7.514 7.514 0 011.66.16 5.622 5.622 0 011.26.44l-.76 3.44a5.577 5.577 0 00-1.1-.4 5.742 5.742 0 00-1.42-.16 4.961 4.961 0 00-3.68 1.5 6.228 6.228 0 00-1.48 4.54v9.68zM279.918 632.39a16.093 16.093 0 017.2 1.52l-1 3.4a18.328 18.328 0 00-3.1-1.18 11.035 11.035 0 00-2.86-.38 5.589 5.589 0 00-3.4.92 3.006 3.006 0 00-1.24 2.56 2.871 2.871 0 00.96 2.279 8.87 8.87 0 003.12 1.521l2.48.8a9.881 9.881 0 014.8 2.9 6.6 6.6 0 011.52 4.3 6.963 6.963 0 01-.64 3 6.564 6.564 0 01-1.82 2.32 8.7 8.7 0 01-2.86 1.5 12.112 12.112 0 01-3.72.54 21.854 21.854 0 01-4.06-.381 15.8 15.8 0 01-3.94-1.3l1-3.36a17.627 17.627 0 003.36 1.26 13.813 13.813 0 003.44.42 6.166 6.166 0 003.52-.92 3.072 3.072 0 001.36-2.72 3.241 3.241 0 00-.94-2.28 9.023 9.023 0 00-3.66-1.88l-2.36-.76a11.159 11.159 0 01-4.34-2.461 5.72 5.72 0 01-1.58-4.3 6.78 6.78 0 012.24-5.32q2.24-1.999 6.52-1.998zM303.518 642.95a12.379 12.379 0 00-2.38-.86 9.475 9.475 0 00-2.18-.26 4.328 4.328 0 00-2.54.62 1.946 1.946 0 00-.86 1.66 1.8 1.8 0 00.64 1.38 7.125 7.125 0 002.64 1.14l1.2.36a9.851 9.851 0 013.94 2.08 4.535 4.535 0 011.34 3.439 5.217 5.217 0 01-2 4.261 8.468 8.468 0 01-5.48 1.62 17.076 17.076 0 01-3.5-.34 13.228 13.228 0 01-2.9-.94l.96-3.12a14.352 14.352 0 002.48.92 10.288 10.288 0 002.72.36 5.054 5.054 0 002.68-.6 2.019 2.019 0 00.96-1.84 1.768 1.768 0 00-.86-1.66 13.809 13.809 0 00-2.66-1.06l-1.24-.36a9.045 9.045 0 01-3.74-2.12 4.664 4.664 0 01-1.22-3.36 4.781 4.781 0 01.52-2.24 5.223 5.223 0 011.44-1.72 6.814 6.814 0 012.22-1.12 9.709 9.709 0 012.86-.4 16.842 16.842 0 013.02.28 12.15 12.15 0 012.86.88zM335.477 632.79v3.52h-7.6v21.68h-4.28v-21.68h-7.48v-3.52zM348.837 642.15h-5.36v10.2a2.2 2.2 0 00.66 1.88 2.965 2.965 0 001.78.48 8.688 8.688 0 001.7-.18 11.668 11.668 0 001.58-.42l.64 3.04a12.469 12.469 0 01-2.06.58 13.094 13.094 0 01-2.66.26q-3.041 0-4.38-1.26a4.891 4.891 0 01-1.34-3.74v-10.84h-2.88v-3.04h2.88v-5.96h4.08v5.96h5.36zM362.476 632.79h4.281v15.08q0 3.76 1.4 5.44a5.511 5.511 0 004.48 1.68 5.192 5.192 0 004.42-1.82 7.782 7.782 0 001.379-4.82v-15.56h4.281v15.36q0 5.24-2.62 7.74t-7.46 2.5a10.558 10.558 0 01-7.46-2.5q-2.7-2.5-2.7-7.94zM400.676 639.11h4.12v18.88h-3.16l-.52-2.28h-.162a10.115 10.115 0 01-2.52 1.86 7.666 7.666 0 01-3.68.82 6.752 6.752 0 01-4.8-1.68 6.57 6.57 0 01-1.8-5.04v-12.56h4.12v12.12a3.906 3.906 0 001.02 3.08 3.637 3.637 0 002.46.88 5.633 5.633 0 002.76-.66 8.131 8.131 0 002.16-1.74zM420.954 632.79l4.881 13.8c.161.454.34.96.541 1.52s.407 1.14.62 1.74.419 1.2.619 1.8.381 1.153.541 1.66h.08q.2-.761.48-1.62t.559-1.74q.281-.879.56-1.68t.52-1.4l5.121-14.08h4.439l-9.6 25.2h-4.361l-9.519-25.2zM454.154 639.11h4.359l-6.92 18.88h-4.319l-6.92-18.88h4.439l3.76 11.76.84 3.92h.16l.84-3.88zM472.635 632.79l3.8 13.84q.118.52.319 1.34t.38 1.72q.18.9.341 1.8t.279 1.62h.08q.12-.72.281-1.62t.36-1.8q.2-.9.4-1.7t.361-1.36l3.96-13.84h4.08l4 13.76q.159.48.359 1.32t.4 1.76q.2.921.379 1.86t.3 1.62h.08q.12-.72.3-1.6t.36-1.779q.182-.9.38-1.74t.361-1.44l3.6-13.76h4.321l-7.08 25.2h-4.482l-3.72-13.481q-.441-1.679-.82-3.2t-.819-3.32h-.08q-.441 1.8-.8 3.28t-.8 3.16l-3.6 13.56h-4.4l-7.239-25.2zM502.794 639.11h4.36l2.96 11.24.72 4.48h.16l.88-4.48 2.92-11.24h4.4l3.04 11.24.84 4.48h.16l.84-4.48 2.88-11.24h4.2l-5.56 18.88h-4.76l-2.96-11.12-.88-4.64-.92 4.64-3.04 11.12h-4.6zM546.194 632.79l5.76 9.48 6-9.48h4.76l-8.2 12.4 8.6 12.8h-4.96l-6.28-9.88-6.2 9.88h-4.8l8.36-12.8-8-12.4zM575.234 648.39l6.64 9.6h-4.72l-2.8-4.12-1.64-2.8-1.52 2.76-2.72 4.16h-4.64l6.6-9.6-6.24-9.28h4.6l2.64 4.04 1.56 2.72 1.48-2.72 2.44-4.04h4.48zM596.393 632.79l6 10.8 6-10.8h4.6l-8.64 14.68v10.52h-4.28v-10.52l-8.4-14.68zM612.554 639.11h4.44l3.8 10.2 1.361 4.52h.08l1.32-4.56 3.44-10.16h4.2l-7.16 20.16a16.968 16.968 0 01-3.06 5.54 11.105 11.105 0 01-4.86 3.18l-1.76-3.24a10.2 10.2 0 003.479-2.18 8.6 8.6 0 002.2-3.7l.32-.92zM659.994 632.79v2.52l-13.281 19.32h13.52v3.36h-18.679v-2.88l13.04-18.96h-12.52v-3.36zM676.713 641.55l-9.64 13.4h9.839v3.04h-14.679v-2.56l9.6-13.28h-9v-3.04h13.881z"/></g></g></g></svg>