<svg xmlns="http://www.w3.org/2000/svg" xmlns:xlink="http://www.w3.org/1999/xlink" width="1103.729" height="815.787" viewBox="0 0 1103.729 815.787"><defs><style>.a{fill:url(#a);}.b{isolation:isolate;}.c{fill:#fff;}</style><linearGradient id="a" x1="0.02" x2="0.961" y2="1" gradientUnits="objectBoundingBox"><stop offset="0" stop-color="#00c973"/><stop offset="1" stop-color="#00ddb2"/></linearGradient></defs><g transform="translate(-193 -2907)"><path class="a" d="M0,0H1103.729V815.787H0Z" transform="translate(193 2907)"/><g transform="translate(1255.652 3703.439)"><g class="b"><g class="b"><path class="c" d="M-922.664-627.521H-934v25.379h-10.26V-664.69h21.6c14.85,0,22.14,8.46,22.14,18.63C-900.524-637.151-906.374-627.521-922.664-627.521Zm0-8.37c8.01,0,11.61-3.869,11.61-10.169,0-6.481-3.6-10.26-11.61-10.26H-934v20.429Z"/><path class="c" d="M-869.205-601.333c-14.129,0-24.838-10.079-24.838-25.648s11.159-25.56,25.289-25.56,25.289,9.991,25.289,25.56S-854.985-601.333-869.205-601.333Zm0-8.909c7.65,0,15.21-5.49,15.21-16.739s-7.29-16.649-14.94-16.649c-7.739,0-14.669,5.4-14.669,16.649S-876.944-610.242-869.205-610.242Z"/><path class="c" d="M-805.756-652.541c13.049,0,23.309,10.081,23.309,25.38s-10.26,25.828-23.309,25.828a22.422,22.422,0,0,1-17.28-8.008v30.778h-10.259V-651.73h10.259v7.29A21.635,21.635,0,0,1-805.756-652.541Zm-2.25,8.911c-7.65,0-15.03,6.029-15.03,16.649,0,10.709,7.38,16.739,15.03,16.739,7.739,0,15.119-6.21,15.119-16.919S-800.267-643.63-808.006-643.63Z"/><path class="c" d="M-744.737-652.541c13.049,0,23.309,10.081,23.309,25.38s-10.26,25.828-23.309,25.828a22.421,22.421,0,0,1-17.279-8.008v30.778h-10.26V-651.73h10.26v7.29A21.634,21.634,0,0,1-744.737-652.541Zm-2.25,8.911c-7.649,0-15.029,6.029-15.029,16.649,0,10.709,7.38,16.739,15.029,16.739,7.74,0,15.12-6.21,15.12-16.919S-739.247-643.63-746.987-643.63Z"/><path class="c" d="M-712.606-664.87a6.493,6.493,0,0,1,6.57-6.569,6.473,6.473,0,0,1,6.479,6.569,6.472,6.472,0,0,1-6.479,6.57A6.492,6.492,0,0,1-712.606-664.87Zm1.35,13.14H-701v49.588h-10.259Z"/><path class="c" d="M-652.308-629.861c0-9.09-4.95-13.769-12.42-13.769-7.56,0-12.509,4.679-12.509,13.769v27.719H-687.5V-651.73h10.26v5.67a19.078,19.078,0,0,1,14.759-6.481c11.61,0,20.339,7.291,20.339,21.15v29.249h-10.169Z"/><path class="c" d="M-611.088-601.333c-11.88,0-20.249-7.019-20.7-16.018h10.62c.36,4.05,4.23,7.379,9.9,7.379,5.939,0,9.089-2.52,9.089-5.94,0-9.719-28.8-4.139-28.8-22.319,0-7.919,7.38-14.31,19.08-14.31,11.249,0,18.629,6.031,19.169,15.93h-10.26c-.36-4.319-3.689-7.289-9.269-7.289-5.491,0-8.37,2.249-8.37,5.579,0,9.99,27.989,4.41,28.529,22.32C-592.1-607.632-599.389-601.333-611.088-601.333Z"/></g></g><g class="b"><g class="b"><path class="c" d="M-931.255-516.821h-11.639l-2,5.679h-4.759l9.958-27.835h5.279l9.958,27.835h-4.8Zm-5.8-16.637-4.559,12.917h9.079Z"/><path class="c" d="M-911.254-533.539a9.378,9.378,0,0,1,7.638,3.56v-3.2h4.6v22.036h-4.6v-3.279a9.484,9.484,0,0,1-7.718,3.639c-5.719,0-10.318-4.679-10.318-11.478S-917.053-533.539-911.254-533.539Zm.96,3.96c-3.4,0-6.679,2.56-6.679,7.319s3.279,7.518,6.679,7.518c3.439,0,6.678-2.679,6.678-7.438C-903.616-526.9-906.855-529.579-910.294-529.579Z"/><path class="c" d="M-871.495-511.142h-11.118v-27.8h10.6c5.879,0,9,3.239,9,7.158a6.5,6.5,0,0,1-4.719,6.36,6.912,6.912,0,0,1,5.36,6.8C-862.376-514.381-865.816-511.142-871.495-511.142Zm-.92-24.076h-5.639v7.959h5.639c2.959,0,4.759-1.4,4.759-3.959C-867.656-533.739-869.456-535.218-872.415-535.218Zm.36,11.678h-6v8.678h6.159c3.08,0,4.959-1.559,4.959-4.239C-866.936-521.86-869.016-523.54-872.055-523.54Z"/><path class="c" d="M-845.176-533.539c5.839,0,10.358,4.48,10.358,11.279s-4.559,11.478-10.358,11.478a9.366,9.366,0,0,1-7.679-3.559v3.2h-4.559v-29.6h4.559V-529.9A9.421,9.421,0,0,1-845.176-533.539Zm-1,3.96c-3.4,0-6.679,2.679-6.679,7.4,0,4.759,3.28,7.438,6.679,7.438,3.44,0,6.719-2.759,6.719-7.518S-842.736-529.579-846.176-529.579Z"/><path class="c" d="M-807.217-539.3c5.8,0,10.8,2.92,12.918,8.358h-5.479a7.767,7.767,0,0,0-7.439-4.359c-5.519,0-9.518,3.92-9.518,10.2s4,10.238,9.518,10.238a7.765,7.765,0,0,0,7.439-4.359h5.479c-2.119,5.439-7.118,8.319-12.918,8.319a13.879,13.879,0,0,1-14.2-14.2A13.9,13.9,0,0,1-807.217-539.3Z"/><path class="c" d="M-779.7-533.539c5.4,0,8.918,2.68,10.158,7.32h-4.919a5.15,5.15,0,0,0-5.239-3.48c-3.679,0-6.119,2.72-6.119,7.519,0,4.839,2.44,7.558,6.119,7.558a5.034,5.034,0,0,0,5.239-3.479h4.919c-1.24,4.319-4.759,7.319-10.158,7.319-6.319,0-10.8-4.479-10.8-11.4C-790.494-529.059-786.015-533.539-779.7-533.539Z"/><path class="c" d="M-730.739-524.94c0,8.559-5.839,13.8-14.758,13.8h-9.078v-27.8h9.078C-736.578-538.937-730.739-533.539-730.739-524.94ZM-745.5-514.862c6.559,0,10.079-3.759,10.079-10.078,0-6.358-3.52-10.278-10.079-10.278h-4.519v20.356Z"/><path class="c" d="M-717.3-533.539a10.153,10.153,0,0,1,7.6,3.44v-10.638h4.6v29.6h-4.6v-3.319a9.135,9.135,0,0,1-7.639,3.679c-5.8,0-10.4-4.679-10.4-11.478S-723.136-533.539-717.3-533.539Zm.92,3.96c-3.4,0-6.679,2.56-6.679,7.319s3.28,7.518,6.679,7.518c3.439,0,6.679-2.679,6.679-7.438C-709.7-526.9-712.938-529.579-716.377-529.579Z"/><path class="c" d="M-673.338-535.258h-10.8v8.159h9.6v3.719h-9.6v8.518h10.8v3.72H-688.7v-27.835h15.358Z"/><path class="c" d="M-658.258-510.782c-6.319,0-11-4.479-11-11.4s4.479-11.359,11-11.359c6.279,0,10.718,4.36,10.718,10.839a14.067,14.067,0,0,1-.16,2.24h-16.837a6.061,6.061,0,0,0,6.279,5.838,5.333,5.333,0,0,0,5.2-3.079h4.919C-649.379-513.862-652.859-510.782-658.258-510.782ZM-664.5-524.14h12.2c-.08-3.4-2.76-5.559-6.159-5.559A6,6,0,0,0-664.5-524.14Z"/><path class="c" d="M-632.658-538.937H-616.3v3.719h-11.8v8.2h9.2v3.719h-9.2v12.158h-4.56Z"/><path class="c" d="M-611.5-529.459h-2.6v-3.719h2.6v-1.56c0-5.079,2.6-7.279,8.359-7.279v3.8c-2.8,0-3.76.96-3.76,3.479v1.56h4.08v3.719h-4.08v18.317h-4.6Z"/><path class="c" d="M-562.783-530.939h-5.478a7.9,7.9,0,0,0-7.439-4.2c-5.519,0-9.518,3.92-9.518,10.038s4,10.079,9.518,10.079c5.039,0,8.2-3.04,8.878-7.719H-577.26v-3.639h15.318v3.559A13.7,13.7,0,0,1-575.7-510.9a13.879,13.879,0,0,1-14.2-14.2,13.9,13.9,0,0,1,14.2-14.2C-569.9-539.3-564.9-536.377-562.783-530.939Z"/><path class="c" d="M-548.58-533.539a9.332,9.332,0,0,1,7.639,3.56v-3.2h4.6v22.4c0,6-3.88,10.518-10.759,10.518-5.879,0-10.238-2.919-10.8-7.8h4.52c.679,2.28,3.119,3.84,6.278,3.84,3.519,0,6.159-2.16,6.159-6.559v-3.679a9.46,9.46,0,0,1-7.639,3.679c-5.8,0-10.4-4.679-10.4-11.478S-554.378-533.539-548.58-533.539Zm.96,3.96c-3.4,0-6.678,2.56-6.678,7.319s3.279,7.518,6.678,7.518c3.44,0,6.679-2.679,6.679-7.438C-540.941-526.9-544.18-529.579-547.62-529.579Z"/><path class="c" d="M-502.3-523.3h-13.078v12.158h-4.56v-27.8h4.56v11.918H-502.3v-11.918h4.558v27.8H-502.3Z"/><path class="c" d="M-491.74-540.737h4.56v10.118a8.736,8.736,0,0,1,6.839-2.92c4.919,0,8.758,3.24,8.758,9.4v13H-476.1V-523.46c0-4.04-2.2-6.119-5.519-6.119-3.359,0-5.559,2.079-5.559,6.119v12.318h-4.56Z"/><path class="c" d="M-455.38-538.937h4.559v27.8h-4.559Z"/><path class="c" d="M-445.42-539.017a2.886,2.886,0,0,1,2.92-2.92,2.876,2.876,0,0,1,2.878,2.92A2.875,2.875,0,0,1-442.5-536.1,2.885,2.885,0,0,1-445.42-539.017Zm.6,5.839h4.56v22.036h-4.56Z"/><path class="c" d="M-413.3-538.937h4.6V-518.9c0,5.039-3.4,8.039-8.2,8.039s-8.2-3-8.2-8.039h4.6c.039,2.319,1.159,4,3.6,4s3.6-1.68,3.6-4Z"/><path class="c" d="M-396.742-533.178v26.355c0,4.48-2.4,6.159-6.318,6.159h-2.36V-504.5h1.559c1.92,0,2.56-.68,2.56-2.32v-26.355Zm-5.159-5.839a2.886,2.886,0,0,1,2.92-2.92,2.876,2.876,0,0,1,2.879,2.92,2.875,2.875,0,0,1-2.879,2.919A2.885,2.885,0,0,1-401.9-539.017Z"/><path class="c" d="M-375.782-523.58v12.438h-4.559v-27.8h4.559v12.678l10.8-12.678h5.72l-12.078,13.917,12.278,13.878h-5.959Z"/><path class="c" d="M-355.022-540.737h4.56v17.2l8-9.638h6.318L-346.3-522.14l10.158,11H-342.3l-8.159-9.479v9.479h-4.56Z"/><path class="c" d="M-317.9-538.937v24.115h9.4v3.68h-13.958v-27.8Z"/><path class="c" d="M-304.7-540.737h4.56v29.6h-4.56Z"/><path class="c" d="M-283.744-538.937h4.92l9.758,21.8,9.719-21.8h4.879v27.8h-4.559v-19.037l-8.479,19.037h-3.16l-8.518-19.037v19.037h-4.56Z"/><path class="c" d="M-217.229-523.46c0-4.04-2.2-6.119-5.52-6.119-3.359,0-5.558,2.079-5.558,6.119v12.318h-4.52V-523.46c0-4.04-2.2-6.119-5.518-6.119-3.36,0-5.56,2.079-5.56,6.119v12.318h-4.559v-22.036h4.559v2.519a8.4,8.4,0,0,1,6.52-2.88c3.478,0,6.4,1.481,7.918,4.36a8.628,8.628,0,0,1,7.678-4.36c5.16,0,9.08,3.24,9.08,9.4v13h-4.52Z"/></g><g class="b"><path class="c" d="M-925.177-478.977v27.835h-4.559L-943.454-471.9v20.757h-4.559v-27.835h4.559l13.718,20.716v-20.716Z"/><path class="c" d="M-903.536-463.46c0-4.04-2.2-6.119-5.519-6.119-3.359,0-5.559,2.079-5.559,6.119v12.318h-4.559v-22.036h4.559v2.519a8.482,8.482,0,0,1,6.559-2.88c5.159,0,9.039,3.24,9.039,9.4v13h-4.52Z"/><path class="c" d="M-870.136-450.862a13.912,13.912,0,0,1-14.2-14.238,13.9,13.9,0,0,1,14.2-14.2,13.856,13.856,0,0,1,14.2,14.2A13.866,13.866,0,0,1-870.136-450.862Zm0-3.96c5.519,0,9.519-4,9.519-10.278s-4-10.2-9.519-10.2-9.518,3.92-9.518,10.2S-875.655-454.822-870.136-454.822Z"/><path class="c" d="M-841.9-450.782c-6.279,0-11.038-4.479-11.038-11.4s4.959-11.359,11.238-11.359,11.238,4.44,11.238,11.359A11.037,11.037,0,0,1-841.9-450.782Zm0-3.96c3.4,0,6.759-2.439,6.759-7.438s-3.239-7.4-6.639-7.4c-3.439,0-6.518,2.4-6.518,7.4S-845.335-454.742-841.9-454.742Z"/><path class="c" d="M-805.937-462.42h-5.039v11.278h-4.559v-27.8h9.6c6.6,0,9.839,3.759,9.839,8.278C-796.1-466.7-798.7-462.42-805.937-462.42Zm0-3.719c3.56,0,5.16-1.72,5.16-4.52,0-2.88-1.6-4.559-5.16-4.559h-5.039v9.079Z"/><path class="c" d="M-779.5-473.539c5.8,0,10.359,4.48,10.359,11.279s-4.559,11.478-10.359,11.478a9.964,9.964,0,0,1-7.678-3.559v13.677h-4.559v-32.514h4.559v3.239A9.614,9.614,0,0,1-779.5-473.539Zm-1,3.96c-3.4,0-6.679,2.679-6.679,7.4,0,4.759,3.28,7.438,6.679,7.438,3.439,0,6.719-2.759,6.719-7.518S-777.058-469.579-780.5-469.579Z"/><path class="c" d="M-733.579-453.182l6.679,7.079h-5.8l-4.88-5.279a14.129,14.129,0,0,1-3.959.52,13.912,13.912,0,0,1-14.2-14.238,13.9,13.9,0,0,1,14.2-14.2,13.856,13.856,0,0,1,14.2,14.2A13.79,13.79,0,0,1-733.579-453.182Zm-7.959-1.64c5.519,0,9.518-4,9.518-10.278s-4-10.2-9.518-10.2-9.518,3.92-9.518,10.2S-747.057-454.822-741.538-454.822Z"/><path class="c" d="M-713.818-473.539a9.294,9.294,0,0,1,7.6,3.56v-3.2h4.6v32.514h-4.6v-13.677a9.752,9.752,0,0,1-7.759,3.559c-5.679,0-10.278-4.679-10.278-11.478S-719.657-473.539-713.818-473.539Zm.92,3.96c-3.4,0-6.679,2.56-6.679,7.319s3.28,7.518,6.679,7.518c3.44,0,6.679-2.679,6.679-7.438C-706.219-466.9-709.458-469.579-712.9-469.579Z"/><path class="c" d="M-675.619-478.937c6.6,0,9.839,3.8,9.839,8.318a7.912,7.912,0,0,1-6.439,7.959l6.879,11.518h-5.439l-6.4-11.118h-3.48v11.118h-4.559v-27.8Zm0,3.719h-5.039v9.318h5.039c3.56,0,5.16-1.959,5.16-4.719C-670.459-473.418-672.059-475.218-675.619-475.218Z"/><path class="c" d="M-655.378-451.142h-4.559v-22.036h4.559v3.2a7.18,7.18,0,0,1,6.6-3.56v4.72h-1.159c-3.36,0-5.44,1.4-5.44,6.079Z"/><path class="c" d="M-625.019-450.862c-5.56,0-9.839-3.04-9.839-7.959h4.88c.2,2.279,1.8,4.119,4.959,4.119,3.2,0,5-1.719,5-4.079,0-6.719-14.758-2.359-14.758-12.6,0-4.88,3.88-7.919,9.559-7.919,5.319,0,9.078,2.8,9.478,7.558h-5.039c-.16-1.88-1.8-3.6-4.679-3.679-2.64-.08-4.679,1.2-4.679,3.879,0,6.28,14.718,2.36,14.718,12.518C-615.42-454.862-618.821-450.862-625.019-450.862Z"/><path class="c" d="M-602.02-450.782c-5.279,0-9-3.12-9.2-7.119h4.718c.161,1.8,1.88,3.279,4.4,3.279,2.64,0,4.039-1.12,4.039-2.639,0-4.32-12.8-1.84-12.8-9.918,0-3.52,3.28-6.36,8.48-6.36,5,0,8.278,2.68,8.518,7.08h-4.559c-.161-1.92-1.64-3.24-4.12-3.24-2.439,0-3.719,1-3.719,2.48,0,4.439,12.438,1.96,12.677,9.918C-593.582-453.582-596.821-450.782-602.02-450.782Z"/><path class="c" d="M-579.7-478.937h19.4v3.719h-7.4v24.076h-4.559v-24.076H-579.7Z"/><path class="c" d="M-554.979-469.459h-2.6v-3.719h2.6v-5.48h4.6v5.48h5.359v3.719h-5.359v12.2c0,1.639.639,2.319,2.559,2.319h2.8v3.8h-3.6c-3.919,0-6.358-1.64-6.358-6.119Z"/><path class="c" d="M-530.458-478.937h4.558v17.717c0,4.319,2.44,6.358,6.279,6.358,3.879,0,6.319-2.039,6.319-6.358v-17.717h4.559V-461.3c0,7.079-5.119,10.438-10.918,10.438-5.839,0-10.8-3.359-10.8-10.438Z"/><path class="c" d="M-482.863-451.142h-4.559v-2.64a8.2,8.2,0,0,1-6.519,2.96c-5.159,0-9.078-3.24-9.078-9.4v-12.958h4.519V-460.9c0,4.04,2.2,6.119,5.519,6.119,3.359,0,5.559-2.079,5.559-6.119v-12.277h4.559Z"/><path class="c" d="M-447.3-478.937h4.8l-10.438,27.8h-5.279l-10.479-27.8h4.879l8.239,23.115Z"/><path class="c" d="M-436.421-473.178l6.239,17.957,6.238-17.957h4.84l-8.4,22.036h-5.439l-8.358-22.036Z"/><path class="c" d="M-407.5-478.937h4.838l5.76,22.636,6.238-22.636h5.12l5.8,22.516,5.8-22.516h4.879l-8.238,27.8h-5.159l-5.839-21.036-6.2,21.036-5.12.04Z"/><path class="c" d="M-367.9-473.178h4.639l4.6,17.717,4.679-17.717h4.76l4.478,17.636,4.56-17.636h4.479l-6.838,22.036h-4.8l-4.439-16.277-4.439,16.277h-4.8Z"/><path class="c" d="M-311.9-461.22l-5.879,10.078h-5.079l8.638-13.878-8.678-13.917h5.119l6.319,10.158,5.919-10.158h5.079l-8.678,13.917,8.638,13.878h-5.119Z"/><path class="c" d="M-288.864-458.621l-4.479,7.479H-298.1l7.118-10.838-7.118-11.2h5.158l4.76,7.478,4.479-7.478h4.759l-7.119,10.878,7.119,11.158h-5.159Z"/><path class="c" d="M-267.543-478.937h5.079l6.439,13.638,6.439-13.638h5.039l-9.2,17.717v10.078H-258.3V-461.22Z"/><path class="c" d="M-225.826-473.178h4.719l-13.518,32.394h-4.718l4.478-10.718-8.677-21.676h5.079l6.2,16.8Z"/><path class="c" d="M-189.948-475.378-202.866-455.1h12.918v3.959h-18.316v-3.56l12.878-20.276h-12.878v-3.959h18.316Z"/><path class="c" d="M-170.907-469.459l-10,14.6h10v3.72h-15.277v-3.72l10.038-14.6h-10.038v-3.719h15.277Z"/></g></g></g><g transform="translate(1242.954 4021.279)"><g class="b"><g class="b"><path class="c" d="M-926.814-653.989h12.42l9.99,30.6q1.26,3.87,2.205,6.975t1.935,6.975h.27q.99-3.24,2.025-6.93t2.025-7.02l9.63-30.6h12.42l4.68,56.7h-9.36q-.722-9-1.4-18.135T-881-633.739l-.36-10.35h-.18q-1.53,5.582-3.2,11.34t-3.465,11.07l-8.01,24.39h-8.19l-8.1-24.481q-1.261-3.867-2.2-7.019t-1.711-5.8q-.765-2.653-1.4-4.995t-1.17-4.5h-.27q-.27,7.652-.81,15.569t-.99,15.211l-1.08,16.02h-9.18Z"/><path class="c" d="M-830.334-639.77h9.27v42.481h-7.11l-1.17-5.13h-.36a22.775,22.775,0,0,1-5.67,4.185,17.241,17.241,0,0,1-8.28,1.845q-6.75,0-10.8-3.78t-4.05-11.34V-639.77h9.27V-612.5q0,4.952,2.295,6.93a8.187,8.187,0,0,0,5.535,1.98,12.676,12.676,0,0,0,6.21-1.485,18.253,18.253,0,0,0,4.86-3.915Z"/><path class="c" d="M-800.005-612.409v15.12h-9.18v-63.99h9.18v39.24l16.11-17.731h11.34l-17.1,17.911,17.91,24.57h-10.89l-13.41-19.08Z"/><path class="c" d="M-741.235-632.929h-12.06v22.95q0,3.152,1.484,4.23a6.676,6.676,0,0,0,4.006,1.08,19.558,19.558,0,0,0,3.825-.4,26.082,26.082,0,0,0,3.555-.946l1.44,6.841a27.97,27.97,0,0,1-4.635,1.3,29.5,29.5,0,0,1-5.985.585q-6.842,0-9.855-2.835t-3.016-8.415v-24.39h-6.48v-6.841h6.48v-13.409h9.181v13.409h12.06Z"/><path class="c" d="M-730.795-635.989a41.1,41.1,0,0,1,7.964-3.375,30.124,30.124,0,0,1,8.505-1.125,25.473,25.473,0,0,1,6.616.81,13.388,13.388,0,0,1,5.174,2.61,11.924,11.924,0,0,1,3.375,4.815,19.652,19.652,0,0,1,1.216,7.335v27.63h-7.471l-.99-4.59h-.27a14.968,14.968,0,0,1-5.849,4.185,20.1,20.1,0,0,1-7.381,1.3q-6.391,0-10.3-3.42a11.473,11.473,0,0,1-3.915-9.09,12.213,12.213,0,0,1,1.439-6.075,12.239,12.239,0,0,1,4.05-4.275,19.478,19.478,0,0,1,6.21-2.565,34.285,34.285,0,0,1,7.921-.855h7.2v-3.24q0-4.05-2.159-5.625a9.917,9.917,0,0,0-5.941-1.575,21.008,21.008,0,0,0-5.264.765,30.342,30.342,0,0,0-6.705,2.835Zm23.58,19.44-5.671.09q-6.39.181-9,2.25a6.081,6.081,0,0,0-2.61,4.86,6.621,6.621,0,0,0,.585,2.97,5.107,5.107,0,0,0,1.576,1.89,6.384,6.384,0,0,0,2.294,1.035,11.223,11.223,0,0,0,2.655.315,12.112,12.112,0,0,0,5.535-1.4,12.875,12.875,0,0,0,4.636-4.005Z"/></g></g><g class="b"><g class="b"><path class="c" d="M-927.034-541.489h4.08l9.8,25.2h-4.48l-2.52-6.6h-9.88l-2.48,6.6h-4.44Zm-1.92,15.32h7.64l-1.48-4.08q-.681-1.68-1.18-3.14t-1.06-3.34h-.08q-.6,1.759-1.12,3.26t-1.2,3.26Z"/><path class="c" d="M-910.194-533.489a18.3,18.3,0,0,1,3.54-1.5,13.38,13.38,0,0,1,3.78-.5,11.32,11.32,0,0,1,2.94.36,5.957,5.957,0,0,1,2.3,1.16,5.291,5.291,0,0,1,1.5,2.14,8.732,8.732,0,0,1,.54,3.26v12.28h-3.32l-.44-2.04h-.12a6.653,6.653,0,0,1-2.6,1.86,8.934,8.934,0,0,1-3.28.58,6.711,6.711,0,0,1-4.58-1.52,5.1,5.1,0,0,1-1.74-4.04,5.435,5.435,0,0,1,.64-2.7,5.449,5.449,0,0,1,1.8-1.9,8.625,8.625,0,0,1,2.76-1.14,15.256,15.256,0,0,1,3.52-.38h3.2v-1.44a2.9,2.9,0,0,0-.96-2.5,4.4,4.4,0,0,0-2.64-.7,9.328,9.328,0,0,0-2.34.34,13.423,13.423,0,0,0-2.98,1.26Zm10.48,8.64-2.52.04a6.918,6.918,0,0,0-4,1,2.7,2.7,0,0,0-1.16,2.16,2.936,2.936,0,0,0,.26,1.32,2.271,2.271,0,0,0,.7.84,2.829,2.829,0,0,0,1.02.46,5.03,5.03,0,0,0,1.18.14,5.384,5.384,0,0,0,2.46-.62,5.717,5.717,0,0,0,2.06-1.78Z"/><path class="c" d="M-873.114-541.489a9.711,9.711,0,0,1,6.04,1.66,5.666,5.666,0,0,1,2.16,4.78,5.259,5.259,0,0,1-.38,2.06,5.216,5.216,0,0,1-1,1.56,5.464,5.464,0,0,1-1.46,1.1,8.264,8.264,0,0,1-1.76.68,7.494,7.494,0,0,1,2.1.7,6.02,6.02,0,0,1,1.7,1.28,5.818,5.818,0,0,1,1.14,1.86,6.692,6.692,0,0,1,.42,2.44,6.078,6.078,0,0,1-.68,2.86,6.78,6.78,0,0,1-1.9,2.239,9.1,9.1,0,0,1-2.9,1.461,12.53,12.53,0,0,1-3.72.52h-7.8v-25.2Zm-3.76,10.36h2.88a10,10,0,0,0,1.82-.16,3.873,3.873,0,0,0,1.48-.58,3.135,3.135,0,0,0,1-1.12,3.612,3.612,0,0,0,.38-1.74,2.9,2.9,0,0,0-1.2-2.58,5.665,5.665,0,0,0-3.24-.82h-3.12Zm0,11.48h3a9.153,9.153,0,0,0,2.04-.22,5.027,5.027,0,0,0,1.68-.7,3.461,3.461,0,0,0,1.14-1.26,4.055,4.055,0,0,0,.42-1.941,3.557,3.557,0,0,0-.48-1.9,3.738,3.738,0,0,0-1.28-1.26,5.593,5.593,0,0,0-1.84-.68,11.447,11.447,0,0,0-2.16-.2h-2.52Z"/><path class="c" d="M-841.794-525.729a11.632,11.632,0,0,1-.681,4.1,9.323,9.323,0,0,1-1.859,3.1,8.055,8.055,0,0,1-2.76,1.96,8.469,8.469,0,0,1-3.381.68,8.64,8.64,0,0,1-3.2-.54,8.037,8.037,0,0,1-2.52-1.62h-.08l-.36,1.76h-2.96v-28.44h4.079v11.64a7.647,7.647,0,0,1,2.64-1.8,8.229,8.229,0,0,1,3.121-.6,7.159,7.159,0,0,1,5.819,2.58A10.93,10.93,0,0,1-841.794-525.729Zm-4.28.08a8.012,8.012,0,0,0-1.28-4.8,4.157,4.157,0,0,0-3.561-1.76,5.109,5.109,0,0,0-2.54.64,7.943,7.943,0,0,0-2.06,1.68v9a5.8,5.8,0,0,0,1.7,1.36,4.669,4.669,0,0,0,2.22.52,5.56,5.56,0,0,0,2.079-.4,4.929,4.929,0,0,0,1.761-1.2,5.886,5.886,0,0,0,1.22-2.06A8.709,8.709,0,0,0-846.074-525.649Z"/><path class="c" d="M-816.755-519.329a13.133,13.133,0,0,0,3.26-.34,13.488,13.488,0,0,0,2.46-.9l.92,3.32a14.464,14.464,0,0,1-2.96.979,18.963,18.963,0,0,1-4.12.381,13.552,13.552,0,0,1-4.86-.86,10.981,10.981,0,0,1-3.92-2.521,11.843,11.843,0,0,1-2.62-4.079,14.936,14.936,0,0,1-.96-5.54,15.265,15.265,0,0,1,.92-5.46,11.614,11.614,0,0,1,2.58-4.1,11.035,11.035,0,0,1,3.96-2.56,14.042,14.042,0,0,1,5.06-.88,16.9,16.9,0,0,1,4.14.42,12.43,12.43,0,0,1,2.86,1.1l-1,3.24a21.554,21.554,0,0,0-2.58-.96,10.32,10.32,0,0,0-2.9-.36,10.135,10.135,0,0,0-3.26.52,6.729,6.729,0,0,0-2.68,1.68,8.351,8.351,0,0,0-1.82,2.979,12.535,12.535,0,0,0-.68,4.381,12.9,12.9,0,0,0,.66,4.38,8.224,8.224,0,0,0,1.76,2.96,6.732,6.732,0,0,0,2.6,1.68A9.315,9.315,0,0,0-816.755-519.329Z"/><path class="c" d="M-798.075-519.009a7.736,7.736,0,0,0,2.26-.3,11.52,11.52,0,0,0,1.78-.7l.84,2.96a9.377,9.377,0,0,1-2.32.84,13.126,13.126,0,0,1-3,.32,12.022,12.022,0,0,1-3.9-.62,8.866,8.866,0,0,1-3.16-1.84,8.609,8.609,0,0,1-2.12-3.06,10.9,10.9,0,0,1-.78-4.28,10.953,10.953,0,0,1,.72-4.06,8.735,8.735,0,0,1,2.04-3.1,8.926,8.926,0,0,1,3.16-1.96,11.576,11.576,0,0,1,4.04-.68,15.973,15.973,0,0,1,2.5.2,10.439,10.439,0,0,1,2.78.92l-.92,3a8,8,0,0,0-3.92-1.04,6.061,6.061,0,0,0-4.48,1.72,6.6,6.6,0,0,0-1.72,4.88,8.417,8.417,0,0,0,.54,3.22,5.778,5.778,0,0,0,1.42,2.1,5.17,5.17,0,0,0,1.98,1.14A7.6,7.6,0,0,0-798.075-519.009Z"/><path class="c" d="M-771.556-541.489a16.255,16.255,0,0,1,5.08.76,11.106,11.106,0,0,1,4,2.26,10.206,10.206,0,0,1,2.621,3.76,13.634,13.634,0,0,1,.939,5.26,14.78,14.78,0,0,1-1.12,6.06,11.124,11.124,0,0,1-3.02,4.08,11.926,11.926,0,0,1-4.44,2.3,19.485,19.485,0,0,1-5.339.72h-7.121v-25.2Zm-4.12,21.76h2.48a15.2,15.2,0,0,0,3.58-.42,7.759,7.759,0,0,0,3.1-1.52,7.705,7.705,0,0,0,2.181-2.98,12.109,12.109,0,0,0,.819-4.8,8.3,8.3,0,0,0-2.38-6.38,8.976,8.976,0,0,0-6.379-2.22h-3.4Z"/><path class="c" d="M-742.116-544.729H-738v28.44h-3.24l-.48-2.08h-.16a7.516,7.516,0,0,1-2.32,1.84,7.445,7.445,0,0,1-3.32.64,7.753,7.753,0,0,1-3.06-.62,7.48,7.48,0,0,1-2.6-1.86,9.211,9.211,0,0,1-1.82-3.08,12.178,12.178,0,0,1-.68-4.24,13.156,13.156,0,0,1,.58-4.04,8.822,8.822,0,0,1,1.68-3.08,7.44,7.44,0,0,1,2.7-1.98,9.011,9.011,0,0,1,3.64-.7,8.557,8.557,0,0,1,2.72.44,6.513,6.513,0,0,1,2.24,1.24Zm0,14.24a5.186,5.186,0,0,0-4.04-1.92,5.647,5.647,0,0,0-2,.36,4.571,4.571,0,0,0-1.72,1.16,5.657,5.657,0,0,0-1.2,2.04,9.139,9.139,0,0,0-.44,3.04,9.94,9.94,0,0,0,.42,3.08,6.593,6.593,0,0,0,1.1,2.12,4.067,4.067,0,0,0,1.58,1.22,4.743,4.743,0,0,0,1.86.38,4.967,4.967,0,0,0,2.54-.64,5.932,5.932,0,0,0,1.9-1.8Z"/><path class="c" d="M-723.276-541.489h15.6v3.44H-719v6.96h10.28v3.4H-719v7.96h11.44v3.44h-15.72Z"/><path class="c" d="M-687.716-525.009h-13.24v.16a5.5,5.5,0,0,0,1.68,4.36,6.47,6.47,0,0,0,4.44,1.48,13.149,13.149,0,0,0,2.74-.261,12,12,0,0,0,2.46-.819l.8,3a13.709,13.709,0,0,1-2.76.86,17,17,0,0,1-3.52.34,13.262,13.262,0,0,1-3.88-.56,8.7,8.7,0,0,1-3.22-1.76,8.381,8.381,0,0,1-2.18-3.04,10.979,10.979,0,0,1-.8-4.4,11.723,11.723,0,0,1,.66-4.02,8.955,8.955,0,0,1,1.88-3.12,8.2,8.2,0,0,1,2.96-2,10.266,10.266,0,0,1,3.86-.7,8.919,8.919,0,0,1,3.34.6,7.243,7.243,0,0,1,2.56,1.7,7.566,7.566,0,0,1,1.64,2.68,10.109,10.109,0,0,1,.58,3.5Zm-4.24-2.88a6.527,6.527,0,0,0-.24-1.8,4.281,4.281,0,0,0-.72-1.46,3.5,3.5,0,0,0-1.26-1,4.213,4.213,0,0,0-1.86-.38,4.371,4.371,0,0,0-3.26,1.28,5.807,5.807,0,0,0-1.54,3.44Z"/><path class="c" d="M-659.036-541.489v3.44h-10.921v7.68h10.04v3.4h-10.04v10.68h-4.279v-25.2Z"/><path class="c" d="M-647.8-544.889a9.825,9.825,0,0,1,2.52.34,11.2,11.2,0,0,1,2.28.86l-.84,2.8a12.981,12.981,0,0,0-1.46-.52,5.454,5.454,0,0,0-1.5-.2,3.056,3.056,0,0,0-2.54.98,5.548,5.548,0,0,0-.78,3.38v2.08h5.44v3.04h-5.44v15.84h-4.08v-15.84H-657v-3.04h2.8v-3.2a6.565,6.565,0,0,1,1.68-4.82A6.339,6.339,0,0,1-647.8-544.889Z"/><path class="c" d="M-620.516-541.889a16.364,16.364,0,0,1,7.359,1.48l-.96,3.16a13.662,13.662,0,0,0-2.9-1,14.112,14.112,0,0,0-3.021-.32,10.107,10.107,0,0,0-3.259.52,7.039,7.039,0,0,0-2.72,1.68,8.238,8.238,0,0,0-1.881,3,12.765,12.765,0,0,0-.7,4.52q0,4.68,2.12,7.14a7.491,7.491,0,0,0,6,2.46,16.752,16.752,0,0,0,2.34-.14,9.261,9.261,0,0,0,1.859-.46v-6.64h-4.559v-3.281h8.6v12.361a22.946,22.946,0,0,1-3.6,1.08,22.015,22.015,0,0,1-4.68.44,14.452,14.452,0,0,1-4.96-.84,11.381,11.381,0,0,1-4.04-2.48,11.43,11.43,0,0,1-2.7-4.061,14.757,14.757,0,0,1-.98-5.579,15.219,15.219,0,0,1,.96-5.6,11.546,11.546,0,0,1,2.659-4.1,11.08,11.08,0,0,1,4.021-2.5A14.689,14.689,0,0,1-620.516-541.889Z"/><path class="c" d="M-607.676-528.849a6.513,6.513,0,0,1,.58-2.8,5.96,5.96,0,0,1,1.619-2.1,7.107,7.107,0,0,1,2.48-1.3,10.644,10.644,0,0,1,3.121-.44,10.374,10.374,0,0,1,2.519.32h8.12v2.84h-1.4l-2.96-.4a5.9,5.9,0,0,1,1.079,1.76,5.544,5.544,0,0,1,.4,2.08,6.6,6.6,0,0,1-.559,2.78,5.934,5.934,0,0,1-1.58,2.08,6.877,6.877,0,0,1-2.46,1.3,10.789,10.789,0,0,1-3.16.44c-.374,0-.727-.013-1.061-.04s-.659-.067-.98-.12a2.507,2.507,0,0,0-1.08.76,1.6,1.6,0,0,0-.32.96,1.179,1.179,0,0,0,.561,1.12,3.264,3.264,0,0,0,1.6.32h4.76a7.489,7.489,0,0,1,4.86,1.42,4.938,4.938,0,0,1,1.741,4.06,5.718,5.718,0,0,1-.7,2.82,6.4,6.4,0,0,1-2,2.16,9.864,9.864,0,0,1-3.139,1.38,16.347,16.347,0,0,1-4.12.48,12.773,12.773,0,0,1-6.641-1.48,4.788,4.788,0,0,1-2.439-4.36,3.415,3.415,0,0,1,.919-2.4,6.123,6.123,0,0,1,2.44-1.561,4.087,4.087,0,0,1-1.159-1.139,3.082,3.082,0,0,1-.441-1.74,3.265,3.265,0,0,1,.76-2.18,5.2,5.2,0,0,1,2-1.42,6.02,6.02,0,0,1-2.4-2.06A6.057,6.057,0,0,1-607.676-528.849Zm4.559,12.76a2.818,2.818,0,0,0-1.84,2.64,2.728,2.728,0,0,0,1.3,2.44,7.654,7.654,0,0,0,4.061.84,10.024,10.024,0,0,0,2.639-.3,5.97,5.97,0,0,0,1.781-.78,3.12,3.12,0,0,0,1.019-1.08,2.61,2.61,0,0,0,.321-1.24,2.023,2.023,0,0,0-1.021-2.02,6.165,6.165,0,0,0-2.7-.5Zm6.88-12.72a3.751,3.751,0,0,0-1-2.86,3.7,3.7,0,0,0-2.639-.94,3.734,3.734,0,0,0-2.661.92,3.613,3.613,0,0,0-.98,2.76,3.682,3.682,0,0,0,1,2.84,3.75,3.75,0,0,0,2.641.92,3.734,3.734,0,0,0,2.66-.92A3.559,3.559,0,0,0-596.237-528.809Z"/><path class="c" d="M-575.958-516.289v-25.2h4.281v10.4h11.16v-10.4h4.279v25.2h-4.279v-11.28h-11.16v11.28Z"/><path class="c" d="M-546.4-516.289h-4.12v-28.44h4.12v11.72a13.623,13.623,0,0,1,2.82-1.761,7.989,7.989,0,0,1,3.42-.719,7.507,7.507,0,0,1,2.8.48,5.39,5.39,0,0,1,1.981,1.32,5.363,5.363,0,0,1,1.16,2,8.068,8.068,0,0,1,.38,2.52v12.88h-4.121v-11.96a4.317,4.317,0,0,0-.879-3.04,3.383,3.383,0,0,0-2.561-.92,5.878,5.878,0,0,0-2.54.62,9.808,9.808,0,0,0-2.46,1.7Z"/><path class="c" d="M-514.838-541.489v25.2h-4.281v-25.2Z"/><path class="c" d="M-506.679-539.849a2.284,2.284,0,0,1-1.72-.66,2.283,2.283,0,0,1-.641-1.66,2.285,2.285,0,0,1,.641-1.66,2.28,2.28,0,0,1,1.72-.66,2.3,2.3,0,0,1,1.7.66,2.256,2.256,0,0,1,.66,1.66,2.238,2.238,0,0,1-.66,1.68A2.339,2.339,0,0,1-506.679-539.849Zm-2.08,23.56v-18.88h4.12v18.88Z"/><path class="c" d="M-484.279-541.489v20.6a29.156,29.156,0,0,1-.32,4.78,7.262,7.262,0,0,1-1.4,3.26,6.445,6.445,0,0,1-3.2,2.3,13.711,13.711,0,0,1-3.96.66v-3.4a5.868,5.868,0,0,0,2-.38,4.021,4.021,0,0,0,1.44-.98,3.494,3.494,0,0,0,.94-1.86,12.736,12.736,0,0,0,.22-2.42v-22.56Z"/><path class="c" d="M-478.4-535.169h4.12v16.08a27.286,27.286,0,0,1-.3,4.2,12.19,12.19,0,0,1-1.06,3.48,9.588,9.588,0,0,1-2.08,2.8,11.425,11.425,0,0,1-3.4,2.12l-1.84-2.96a14.07,14.07,0,0,0,2.1-1.3,5.152,5.152,0,0,0,1.4-1.66,8.222,8.222,0,0,0,.8-2.5,22.784,22.784,0,0,0,.26-3.78Zm2.08-4.68a2.284,2.284,0,0,1-1.72-.66,2.287,2.287,0,0,1-.64-1.66,2.252,2.252,0,0,1,.66-1.66,2.3,2.3,0,0,1,1.7-.66,2.3,2.3,0,0,1,1.7.66,2.252,2.252,0,0,1,.66,1.66,2.234,2.234,0,0,1-.66,1.68A2.338,2.338,0,0,1-476.32-539.849Z"/><path class="c" d="M-459.121-516.289v-25.2h4.281v11.12l9.96-11.12h5.319l-10.08,11.12,10.881,14.08h-5.361l-8.6-11.28-2.12,2.28v9Z"/><path class="c" d="M-431.88-523.009v6.72h-4.08v-28.44h4.08v17.44l7.16-7.88h5.04l-7.6,7.96,7.96,10.92h-4.84l-5.961-8.481Z"/><path class="c" d="M-407.081-541.489h4.281v21.68h10.559v3.52h-14.84Z"/><path class="c" d="M-388.961-516.289v-28.44h4.04v28.44Z"/><path class="c" d="M-368.522-541.489H-363l4.439,13.6q.561,1.72.98,3.1t.861,3.1h.12q.439-1.44.9-3.081t.9-3.119l4.279-13.6H-345l2.08,25.2h-4.161q-.32-4-.62-8.06t-.46-8.14l-.16-4.6h-.08q-.68,2.48-1.42,5.04t-1.54,4.92l-3.559,10.84h-3.641l-3.6-10.88q-.561-1.719-.979-3.12t-.761-2.58q-.339-1.179-.62-2.22t-.52-2h-.12q-.12,3.4-.36,6.92t-.439,6.76l-.481,7.12h-4.08Z"/><path class="c" d="M-333.642-516.289h-4.12v-18.88h3.2l.561,2.52a10.9,10.9,0,0,1,2.839-2.08,7.878,7.878,0,0,1,3.56-.76,6.281,6.281,0,0,1,3.34.8,5.153,5.153,0,0,1,1.98,2.24,10.3,10.3,0,0,1,3.02-2.24,8.306,8.306,0,0,1,3.66-.8,5.784,5.784,0,0,1,4.46,1.62,6.493,6.493,0,0,1,1.5,4.58v13h-4.12v-12.36a4.125,4.125,0,0,0-.739-2.64,2.932,2.932,0,0,0-2.42-.92,6.429,6.429,0,0,0-4.721,2.28v13.64h-4.12v-12.36a4.125,4.125,0,0,0-.739-2.64,2.932,2.932,0,0,0-2.42-.92,6.306,6.306,0,0,0-4.721,2.4Z"/><path class="c" d="M-294.921-541.489h3.8l10.561,15.08q.719,1.041,1.359,2.08t1.08,1.88h.08q-.2-2.96-.2-5.9v-13.14h4.12v25.2h-3.8l-10.281-14.6q-.759-1.08-1.479-2.34t-1.24-2.26H-291q.2,3.12.2,6.18v13.02h-4.12Z"/><path class="c" d="M-264.362-516.289h-4.12v-18.88h3.24l.561,2.52a11.193,11.193,0,0,1,2.939-2.1,7.991,7.991,0,0,1,3.5-.74,6.28,6.28,0,0,1,4.641,1.64,6.335,6.335,0,0,1,1.64,4.68v12.88h-4.121v-12.36a3.816,3.816,0,0,0-.839-2.6,3.174,3.174,0,0,0-2.521-.96,5.711,5.711,0,0,0-2.54.62,8.6,8.6,0,0,0-2.38,1.78Z"/><path class="c" d="M-226.363-541.889a13.348,13.348,0,0,1,4.8.84,10.445,10.445,0,0,1,3.8,2.48,11.408,11.408,0,0,1,2.5,4.08,16.129,16.129,0,0,1,.9,5.6,15.5,15.5,0,0,1-.92,5.54,11.547,11.547,0,0,1-2.559,4.079,10.878,10.878,0,0,1-3.861,2.521,13.239,13.239,0,0,1-4.82.86,13.348,13.348,0,0,1-4.8-.84,10.433,10.433,0,0,1-3.8-2.48,11.407,11.407,0,0,1-2.5-4.061,16.069,16.069,0,0,1-.9-5.619,15.529,15.529,0,0,1,.92-5.54,11.554,11.554,0,0,1,2.561-4.08,10.89,10.89,0,0,1,3.859-2.52A13.217,13.217,0,0,1-226.363-541.889Zm-7.559,13a13.628,13.628,0,0,0,.6,4.26,8.943,8.943,0,0,0,1.62,3.02,6.343,6.343,0,0,0,2.4,1.78,7.5,7.5,0,0,0,2.939.58,7.357,7.357,0,0,0,2.92-.58,6.06,6.06,0,0,0,2.34-1.78,9.088,9.088,0,0,0,1.561-3.02,14.115,14.115,0,0,0,.58-4.26,13.922,13.922,0,0,0-.6-4.34,8.661,8.661,0,0,0-1.62-3,6.241,6.241,0,0,0-2.4-1.74,7.747,7.747,0,0,0-2.94-.56,7.373,7.373,0,0,0-2.92.58,6.076,6.076,0,0,0-2.34,1.78,9.059,9.059,0,0,0-1.559,3.02A14.022,14.022,0,0,0-233.922-528.889Z"/><path class="c" d="M-192.323-525.929a11.5,11.5,0,0,1-.74,4.24,9.143,9.143,0,0,1-2.02,3.16,8.748,8.748,0,0,1-3,1.96,10.038,10.038,0,0,1-3.72.68,10.431,10.431,0,0,1-3.7-.64,8.491,8.491,0,0,1-2.96-1.86,8.333,8.333,0,0,1-1.96-3.02,11.3,11.3,0,0,1-.7-4.12,11.317,11.317,0,0,1,.74-4.241,9.225,9.225,0,0,1,2.02-3.119,8.5,8.5,0,0,1,3-1.94,10.273,10.273,0,0,1,3.72-.66,10.734,10.734,0,0,1,3.7.62,8.435,8.435,0,0,1,2.96,1.82,8.154,8.154,0,0,1,1.96,3A11.321,11.321,0,0,1-192.323-525.929Zm-4.28.2a9.346,9.346,0,0,0-.44-3.06,5.991,5.991,0,0,0-1.16-2.06,4.3,4.3,0,0,0-1.64-1.16,5.227,5.227,0,0,0-1.92-.36,5.691,5.691,0,0,0-1.88.32,4.1,4.1,0,0,0-1.64,1.08,5.344,5.344,0,0,0-1.14,2.04,10.4,10.4,0,0,0-.42,3.2,9.359,9.359,0,0,0,.44,3.04,6.186,6.186,0,0,0,1.16,2.1,4.389,4.389,0,0,0,1.66,1.2,5.035,5.035,0,0,0,1.9.38,5.671,5.671,0,0,0,1.88-.32,4.01,4.01,0,0,0,1.64-1.1,5.529,5.529,0,0,0,1.14-2.08A10.6,10.6,0,0,0-196.6-525.729Z"/></g><g class="b"><path class="c" d="M-934.034-481.489h8.24a12.366,12.366,0,0,1,3.7.52,8.256,8.256,0,0,1,2.84,1.5,6.8,6.8,0,0,1,1.84,2.4,7.657,7.657,0,0,1,.66,3.26,8.1,8.1,0,0,1-.72,3.539,6.756,6.756,0,0,1-2,2.481,8.727,8.727,0,0,1-3.02,1.46,14.174,14.174,0,0,1-3.78.48h-3.48v9.56h-4.28Zm4.28,12.24h2.28a14.434,14.434,0,0,0,2.5-.2,5.776,5.776,0,0,0,1.98-.7,3.592,3.592,0,0,0,1.32-1.36,4.526,4.526,0,0,0,.48-2.22,4.362,4.362,0,0,0-.44-2.041,3.715,3.715,0,0,0-1.2-1.359,5.3,5.3,0,0,0-1.721-.76,8.386,8.386,0,0,0-2.04-.24h-3.16Z"/><path class="c" d="M-904.875-455.889a8.41,8.41,0,0,1-2.319-.32,6.345,6.345,0,0,1-1.92-.88v10h-4.08v-28.32h3.319l.521,2.36a10.732,10.732,0,0,1,2.52-1.74,7.161,7.161,0,0,1,3.24-.7,7.5,7.5,0,0,1,5.92,2.44q2.16,2.441,2.16,6.92a12.122,12.122,0,0,1-.78,4.54,9.11,9.11,0,0,1-2.081,3.2,8.383,8.383,0,0,1-3,1.88A10.141,10.141,0,0,1-904.875-455.889Zm.281-16.36a4.974,4.974,0,0,0-2.7.74,7.191,7.191,0,0,0-1.82,1.54v9.72a6,6,0,0,0,3.719,1.24,5.985,5.985,0,0,0,2.041-.36,4.657,4.657,0,0,0,1.8-1.2,6.088,6.088,0,0,0,1.28-2.18,9.722,9.722,0,0,0,.48-3.26,7.831,7.831,0,0,0-1.18-4.54A4.1,4.1,0,0,0-904.594-472.249Z"/><path class="c" d="M-871.075-481.889a13.357,13.357,0,0,1,4.8.84,10.459,10.459,0,0,1,3.8,2.48,11.4,11.4,0,0,1,2.5,4.08,16.13,16.13,0,0,1,.9,5.6,14.119,14.119,0,0,1-1.8,7.32,14.04,14.04,0,0,1-5.52,5.08l-5.2,2.92a8.319,8.319,0,0,1,2.04.32q.96.28,1.96.62t2.06.62a9.353,9.353,0,0,0,2.38.28,6.194,6.194,0,0,0,1.8-.28,5.05,5.05,0,0,0,1.639-.84l1.6,3.04a8.111,8.111,0,0,1-2.32,1.1,9.3,9.3,0,0,1-2.76.42,11.111,11.111,0,0,1-2.92-.38q-1.4-.381-2.76-.84t-2.66-.84a9.263,9.263,0,0,0-2.62-.38,7.129,7.129,0,0,0-2.1.3,9.764,9.764,0,0,0-2.02.9l-1.641-3,6.28-3.6a11.784,11.784,0,0,1-3.92-1.36,10.242,10.242,0,0,1-3.02-2.6,11.91,11.91,0,0,1-1.96-3.8,16.489,16.489,0,0,1-.7-5,15.507,15.507,0,0,1,.921-5.54,11.538,11.538,0,0,1,2.56-4.08,10.892,10.892,0,0,1,3.859-2.52A13.214,13.214,0,0,1-871.075-481.889Zm-7.56,13a14.748,14.748,0,0,0,.56,4.28,9.244,9.244,0,0,0,1.52,3.06,6.22,6.22,0,0,0,2.3,1.84,6.807,6.807,0,0,0,2.9.62,7.029,7.029,0,0,0,2.959-.64,7.085,7.085,0,0,0,2.46-1.88,9,9,0,0,0,1.661-3.06,13.515,13.515,0,0,0,.6-4.22,13.956,13.956,0,0,0-.6-4.34,8.713,8.713,0,0,0-1.621-3,6.246,6.246,0,0,0-2.4-1.74,7.758,7.758,0,0,0-2.941-.56,7.378,7.378,0,0,0-2.92.58,6.069,6.069,0,0,0-2.34,1.78,9.1,9.1,0,0,0-1.56,3.02A14.085,14.085,0,0,0-878.635-468.889Z"/><path class="c" d="M-842.4-457.529a5.639,5.639,0,0,1-2.22,1.259,9.432,9.432,0,0,1-2.74.381,8.865,8.865,0,0,1-3.62-.7,7.562,7.562,0,0,1-2.7-2,8.817,8.817,0,0,1-1.7-3.1,13.124,13.124,0,0,1-.58-4.04,12.516,12.516,0,0,1,.58-3.9,8.857,8.857,0,0,1,1.7-3.08,7.905,7.905,0,0,1,2.74-2.04,8.818,8.818,0,0,1,3.7-.74,8.423,8.423,0,0,1,2.8.54,5.759,5.759,0,0,1,2.44,1.58l.4-1.8h3.32v28.08h-4.12Zm0-12.72a6.4,6.4,0,0,0-1.72-1.521,4.427,4.427,0,0,0-2.36-.639,5.762,5.762,0,0,0-2.04.36,4.246,4.246,0,0,0-1.68,1.16,6.014,6.014,0,0,0-1.16,2.04,9,9,0,0,0-.44,3,7.735,7.735,0,0,0,1.46,5.12,4.6,4.6,0,0,0,3.66,1.72,5.474,5.474,0,0,0,2.48-.54,5.981,5.981,0,0,0,1.8-1.34Z"/><path class="c" d="M-823.555-481.489h8.68a10.021,10.021,0,0,1,3.54.58,7.318,7.318,0,0,1,2.58,1.6,6.538,6.538,0,0,1,1.56,2.42,8.683,8.683,0,0,1,.52,3.04,7.127,7.127,0,0,1-.46,2.64,7.332,7.332,0,0,1-1.18,2.02,8.069,8.069,0,0,1-1.62,1.48,8.961,8.961,0,0,1-1.82.98l6.48,10.44h-4.84l-5.56-9.68h-3.72v9.68h-4.16Zm4.16,12.12h2.72a9.429,9.429,0,0,0,2.2-.24,5.279,5.279,0,0,0,1.76-.76,3.57,3.57,0,0,0,1.18-1.34,4.3,4.3,0,0,0,.42-1.98,4.166,4.166,0,0,0-1.28-3.34,5.491,5.491,0,0,0-3.68-1.1h-3.32Z"/><path class="c" d="M-802.116-456.289v-18.88H-799l.6,3.64a6.555,6.555,0,0,1,2.2-2.82,5.957,5.957,0,0,1,3.68-1.14,7.514,7.514,0,0,1,1.66.16,5.622,5.622,0,0,1,1.26.44l-.76,3.44a5.577,5.577,0,0,0-1.1-.4,5.742,5.742,0,0,0-1.42-.16,4.961,4.961,0,0,0-3.68,1.5,6.228,6.228,0,0,0-1.48,4.54v9.68Z"/><path class="c" d="M-770.036-481.889a16.093,16.093,0,0,1,7.2,1.52l-1,3.4a18.328,18.328,0,0,0-3.1-1.18,11.035,11.035,0,0,0-2.86-.38,5.589,5.589,0,0,0-3.4.92,3.006,3.006,0,0,0-1.24,2.56,2.871,2.871,0,0,0,.96,2.279,8.87,8.87,0,0,0,3.12,1.521l2.48.8a9.881,9.881,0,0,1,4.8,2.9,6.6,6.6,0,0,1,1.52,4.3,6.963,6.963,0,0,1-.64,3,6.564,6.564,0,0,1-1.82,2.32,8.7,8.7,0,0,1-2.86,1.5,12.112,12.112,0,0,1-3.72.54,21.854,21.854,0,0,1-4.06-.381,15.8,15.8,0,0,1-3.94-1.3l1-3.36a17.627,17.627,0,0,0,3.36,1.26,13.813,13.813,0,0,0,3.44.42,6.166,6.166,0,0,0,3.52-.92,3.072,3.072,0,0,0,1.36-2.72,3.241,3.241,0,0,0-.94-2.28,9.023,9.023,0,0,0-3.66-1.88l-2.36-.76a11.159,11.159,0,0,1-4.34-2.461,5.72,5.72,0,0,1-1.58-4.3,6.78,6.78,0,0,1,2.24-5.32Q-774.316-481.89-770.036-481.889Z"/><path class="c" d="M-746.436-471.329a12.379,12.379,0,0,0-2.38-.86,9.475,9.475,0,0,0-2.18-.26,4.328,4.328,0,0,0-2.54.62,1.946,1.946,0,0,0-.86,1.66,1.8,1.8,0,0,0,.64,1.38,7.125,7.125,0,0,0,2.64,1.14l1.2.36a9.851,9.851,0,0,1,3.94,2.08,4.535,4.535,0,0,1,1.34,3.439,5.217,5.217,0,0,1-2,4.261,8.468,8.468,0,0,1-5.48,1.62,17.076,17.076,0,0,1-3.5-.34,13.228,13.228,0,0,1-2.9-.94l.96-3.12a14.352,14.352,0,0,0,2.48.92,10.288,10.288,0,0,0,2.72.36,5.054,5.054,0,0,0,2.68-.6,2.019,2.019,0,0,0,.96-1.84,1.768,1.768,0,0,0-.86-1.66,13.809,13.809,0,0,0-2.66-1.06l-1.24-.36a9.045,9.045,0,0,1-3.74-2.12,4.664,4.664,0,0,1-1.22-3.36,4.781,4.781,0,0,1,.52-2.24,5.223,5.223,0,0,1,1.44-1.72,6.814,6.814,0,0,1,2.22-1.12,9.709,9.709,0,0,1,2.86-.4,16.842,16.842,0,0,1,3.02.28,12.15,12.15,0,0,1,2.86.88Z"/><path class="c" d="M-714.477-481.489v3.52h-7.6v21.68h-4.28v-21.68h-7.48v-3.52Z"/><path class="c" d="M-701.117-472.129h-5.36v10.2a2.2,2.2,0,0,0,.66,1.88,2.965,2.965,0,0,0,1.78.48,8.688,8.688,0,0,0,1.7-.18,11.668,11.668,0,0,0,1.58-.42l.64,3.04a12.469,12.469,0,0,1-2.06.58,13.094,13.094,0,0,1-2.66.26q-3.041,0-4.38-1.26a4.891,4.891,0,0,1-1.34-3.74v-10.84h-2.88v-3.04h2.88v-5.96h4.08v5.96h5.36Z"/><path class="c" d="M-687.478-481.489h4.281v15.08q0,3.76,1.4,5.44a5.511,5.511,0,0,0,4.48,1.68,5.192,5.192,0,0,0,4.42-1.82,7.782,7.782,0,0,0,1.379-4.82v-15.56h4.281v15.36q0,5.24-2.62,7.74t-7.46,2.5a10.558,10.558,0,0,1-7.46-2.5q-2.7-2.5-2.7-7.94Z"/><path class="c" d="M-649.278-475.169h4.12v18.88h-3.16l-.52-2.28H-649a10.115,10.115,0,0,1-2.52,1.86,7.666,7.666,0,0,1-3.68.82,6.752,6.752,0,0,1-4.8-1.68,6.57,6.57,0,0,1-1.8-5.04v-12.56h4.12v12.12a3.906,3.906,0,0,0,1.02,3.08,3.637,3.637,0,0,0,2.46.88,5.633,5.633,0,0,0,2.76-.66,8.131,8.131,0,0,0,2.16-1.74Z"/><path class="c" d="M-629-481.489l4.881,13.8c.161.454.34.96.541,1.52s.407,1.14.62,1.74.419,1.2.619,1.8.381,1.153.541,1.66h.08q.2-.761.48-1.62t.559-1.74q.281-.879.56-1.68t.52-1.4l5.121-14.08h4.439l-9.6,25.2H-624l-9.519-25.2Z"/><path class="c" d="M-595.8-475.169h4.359l-6.92,18.88h-4.319l-6.92-18.88h4.439l3.76,11.76.84,3.92h.16l.84-3.88Z"/><path class="c" d="M-577.319-481.489l3.8,13.84q.118.52.319,1.34t.38,1.72q.18.9.341,1.8t.279,1.62h.08q.12-.72.281-1.62t.36-1.8q.2-.9.4-1.7t.361-1.36l3.96-13.84h4.08l4,13.76q.159.48.359,1.32t.4,1.76q.2.921.379,1.86t.3,1.62h.08q.12-.72.3-1.6t.36-1.779q.182-.9.38-1.74t.361-1.44l3.6-13.76h4.321l-7.08,25.2H-559.4l-3.72-13.481q-.441-1.679-.82-3.2t-.819-3.32h-.08q-.441,1.8-.8,3.28t-.8,3.16l-3.6,13.56h-4.4l-7.239-25.2Z"/><path class="c" d="M-547.16-475.169h4.36l2.96,11.24.72,4.48h.16l.88-4.48,2.92-11.24h4.4l3.04,11.24.84,4.48h.16l.84-4.48,2.88-11.24h4.2l-5.56,18.88h-4.76l-2.96-11.12-.88-4.64-.92,4.64-3.04,11.12h-4.6Z"/><path class="c" d="M-503.76-481.489l5.76,9.48,6-9.48h4.76l-8.2,12.4,8.6,12.8h-4.96l-6.28-9.88-6.2,9.88h-4.8l8.36-12.8-8-12.4Z"/><path class="c" d="M-474.72-465.889l6.64,9.6h-4.72l-2.8-4.12-1.64-2.8-1.52,2.76-2.72,4.16h-4.64l6.6-9.6-6.24-9.28h4.6l2.64,4.04,1.56,2.72,1.48-2.72,2.44-4.04h4.48Z"/><path class="c" d="M-453.561-481.489l6,10.8,6-10.8h4.6l-8.64,14.68v10.52h-4.28v-10.52l-8.4-14.68Z"/><path class="c" d="M-437.4-475.169h4.44l3.8,10.2,1.361,4.52h.08l1.32-4.56,3.44-10.16h4.2l-7.16,20.16a16.968,16.968,0,0,1-3.06,5.54,11.105,11.105,0,0,1-4.86,3.18l-1.76-3.24a10.2,10.2,0,0,0,3.479-2.18,8.6,8.6,0,0,0,2.2-3.7l.32-.92Z"/><path class="c" d="M-389.96-481.489v2.52l-13.281,19.32h13.52v3.36H-408.4v-2.88l13.04-18.96h-12.52v-3.36Z"/><path class="c" d="M-373.241-472.729l-9.64,13.4h9.839v3.04h-14.679v-2.56l9.6-13.28h-9v-3.04h13.881Z"/></g></g></g></g></svg>