<svg xmlns="http://www.w3.org/2000/svg" width="897" height="552.646" viewBox="0 0 897 552.646"><defs><style>.a{fill:#36e3d8;}.b{fill:#01a8a6;}.c{fill:#009391;}.d{fill:#00cecc;}.e{fill:#78d8d1;}.f{fill:#fff;}.g{fill:#dffdfb;}.h{fill:#7ddad3;}.i{fill:#3176bb;}.j{fill:#b0d4ff;}.k{fill:#205b96;}.l{fill:#9f5722;}.m{fill:#233862;}.n{fill:#00b5b3;}.o{fill:#000b19;}.p{fill:#001a3a;}.q{fill:#ffc7a2;}.r{fill:#f7b388;}.s{fill:#1a5795;}.t{fill:#f29f6b;}.u{fill:#d54a41;}.v{fill:#e0e0e0;}.w{fill:#ffa30f;}.x{fill:#72390f;}.y{fill:none;stroke:#001a3a;stroke-width:2px;}</style></defs><g transform="translate(-175 -1374.706)"><path class="a" d="M603.415,534.443H39.291c-2.63-.743-4.038-1.163-4.05-1.167l0-.01c-.237-.824-5.886-20.521-12.471-51.147C18.82,463.768,15.3,445.087,12.3,426.592,8.553,403.478,5.616,380.6,3.573,358.586c-5.2-56.027-4.721-106.83,1.43-151,1.777-12.762,4.06-25.136,6.784-36.778A326.21,326.21,0,0,1,22,135.825a259.283,259.283,0,0,1,14.062-32.492A211.245,211.245,0,0,1,54.4,74.035,180.35,180.35,0,0,1,83.275,43.571,172.386,172.386,0,0,1,100.6,30.926a177.04,177.04,0,0,1,19.376-10.705A190.392,190.392,0,0,1,141.5,11.615,213.329,213.329,0,0,1,165.28,5.269,247.949,247.949,0,0,1,191.4,1.344C200.563.452,210.175,0,219.972,0a388.606,388.606,0,0,1,54.9,4.155c62.488,8.975,121.379,25.48,175.038,49.057a572.284,572.284,0,0,1,71.737,37.7A511.237,511.237,0,0,1,582.429,135.1a449.578,449.578,0,0,1,49.514,48.972A385.328,385.328,0,0,1,669.86,236.11a319.649,319.649,0,0,1,26,53.389,257.725,257.725,0,0,1,13.761,53.027,203.077,203.077,0,0,1,.27,58.342,167.778,167.778,0,0,1-16.854,52.98,163.653,163.653,0,0,1-34.47,45.007,185.461,185.461,0,0,1-23.995,18.7,215.1,215.1,0,0,1-28.583,15.725c-.856.391-1.723.784-2.576,1.167Z" transform="translate(190.417 1379.642)"/><g transform="translate(262.83 1374.706)"><g transform="translate(332.387 288.732)"><g transform="translate(83.649 120.27)"><path class="b" d="M1838.825,1591.737h.182a1.911,1.911,0,0,0,1.911-1.956l-2.9-125.588-8.536-1,7.279,126.593A2.065,2.065,0,0,0,1838.825,1591.737Z" transform="translate(-1829.485 -1463.198)"/></g><g transform="translate(133.387 120.27)"><path class="b" d="M1933.244,1591.737h.182a1.911,1.911,0,0,0,1.911-1.956l-2.9-125.588-8.535-1,7.278,126.593A2.065,2.065,0,0,0,1933.244,1591.737Z" transform="translate(-1923.904 -1463.198)"/></g><g transform="translate(3.384 120.27)"><path class="b" d="M1679.211,1591.737h-.182a1.912,1.912,0,0,1-1.911-1.956l2.9-125.588,8.535-1-7.278,126.593A2.065,2.065,0,0,1,1679.211,1591.737Z" transform="translate(-1677.118 -1463.198)"/></g><path class="c" d="M1847.411,1348.365v-86.059a27.418,27.418,0,0,0-27.418-27.418h-62a27.418,27.418,0,0,0-27.418,27.418v89.348Z" transform="translate(-1699.029 -1234.888)"/><path class="b" d="M13.586,0H127.949a0,0,0,0,1,0,0V13.586a0,0,0,0,1,0,0H0a0,0,0,0,1,0,0v0A13.586,13.586,0,0,1,13.586,0Z" transform="translate(148.383 127.063) rotate(180)"/><path class="d" d="M6.793,0h89.16a6.793,6.793,0,0,1,6.793,6.793v0a6.793,6.793,0,0,1-6.793,6.793H6.793A6.793,6.793,0,0,1,0,6.793v0A6.793,6.793,0,0,1,6.793,0Z" transform="translate(102.745 127.063) rotate(180)"/></g><g transform="translate(39.094 0)"><rect class="e" width="357.439" height="233.291"/><g transform="translate(6.804 7.753)"><rect class="f" width="343.684" height="219.385"/><g transform="translate(40.462 67.503)"><path class="g" d="M1412.733,984.341h-86.643V876.148l14.692-13.244h71.951Z" transform="translate(-1326.089 -862.904)"/><path class="h" d="M1326.089,876.148h14.22l.472-13.244Z" transform="translate(-1326.089 -862.904)"/><rect class="e" width="27.742" height="1.321" transform="translate(29.45 10.531)"/><rect class="e" width="40.803" height="1.321" transform="translate(22.92 14.494)"/><rect class="e" width="67.751" height="1.699" transform="translate(10.257 39.948)"/><rect class="e" width="67.751" height="1.699" transform="translate(10.257 45.106)"/><rect class="e" width="67.751" height="1.699" transform="translate(10.257 50.265)"/><rect class="e" width="67.751" height="1.698" transform="translate(10.257 55.423)"/><rect class="e" width="67.751" height="1.698" transform="translate(10.257 71.296)"/><rect class="e" width="67.751" height="1.699" transform="translate(10.257 76.454)"/><rect class="e" width="67.751" height="1.699" transform="translate(10.257 82.436)"/></g><g transform="translate(160.048 28.16)"><rect class="i" width="41.586" height="36.662" transform="translate(0 2.896) rotate(-3.993)"/><path class="f" d="M1308.312,750.653a1.821,1.821,0,1,1,1.943,1.689A1.82,1.82,0,0,1,1308.312,750.653Z" transform="translate(-1288.923 -742.456)"/></g><g transform="translate(249.58 46.947)"><rect class="e" width="41.586" height="36.662" transform="translate(0 4.475) rotate(-6.177)"/><path class="f" d="M1186.054,747.831a1.584,1.584,0,1,1,1.745,1.4A1.584,1.584,0,0,1,1186.054,747.831Z" transform="translate(-1166.422 -740.485)"/></g><g transform="translate(282.259 154.585) rotate(13)"><rect class="i" width="41.586" height="36.662" transform="translate(0 8.672) rotate(-12.037)"/><path class="f" d="M.722,2.912a1.583,1.583,0,1,1,2.189-.467A1.583,1.583,0,0,1,.722,2.912Z" transform="translate(19.785 7.597)"/></g><g transform="translate(218.99 91.379)"><path class="g" d="M993.236,777.972H953.655V751.378l10.959-10.068h28.622Z" transform="translate(-953.444 -741.309)"/><path class="e" d="M953.254,751.378h10.811l.359-10.068Z" transform="translate(-953.254 -741.309)"/><path class="f" d="M991.5,746.579a1.3,1.3,0,1,1,1.3,1.3A1.3,1.3,0,0,1,991.5,746.579Z" transform="translate(-971.353 -743.187)"/></g></g></g><g transform="translate(7.581 289.066)"><g transform="translate(53.301 120.271)"><path class="j" d="M1157.385,1592.374h-.182a1.911,1.911,0,0,1-1.911-1.955l2.9-125.589,8.536-1-7.279,126.592A2.064,2.064,0,0,1,1157.385,1592.374Z" transform="translate(-1155.292 -1463.835)"/></g><g transform="translate(3.562 120.271)"><path class="b" d="M1062.966,1592.374h-.182a1.911,1.911,0,0,1-1.911-1.955l2.9-125.589,8.535-1-7.279,126.592A2.065,2.065,0,0,1,1062.966,1592.374Z" transform="translate(-1060.873 -1463.835)"/></g><g transform="translate(133.565 120.271)"><path class="b" d="M1317,1592.374h.182a1.911,1.911,0,0,0,1.911-1.955l-2.9-125.589-8.535-1,7.278,126.592A2.065,2.065,0,0,0,1317,1592.374Z" transform="translate(-1307.659 -1463.835)"/></g><path class="c" d="M1054.111,1349v-86.059a27.419,27.419,0,0,1,27.419-27.419h62a27.419,27.419,0,0,1,27.419,27.419v89.348Z" transform="translate(-1054.111 -1235.523)"/><path class="b" d="M0,0H127.949a0,0,0,0,1,0,0V13.586a0,0,0,0,1,0,0H13.586A13.586,13.586,0,0,1,0,0V0A0,0,0,0,1,0,0Z" transform="translate(0 113.478)"/><rect class="d" width="102.745" height="13.586" rx="6.793" transform="translate(45.638 113.478)"/></g><path class="k" d="M1257.79,1407.957c-8.883,15.46-20.055,21.428-20.055,21.428h-46.478S1264.566,1396.164,1257.79,1407.957Z" transform="translate(-1111.43 -1026.857)"/><path class="l" d="M1248.8,1602.665a4.3,4.3,0,0,0-.766,4.6.037.037,0,0,0,.012.023c1.109,3.063,4.771,6.484,9.025,9.9.544.439,1.027.838,1.449,1.207.11.1.221.194.325.292.086.075.168.154.25.226,3.967,3.657,2.474,4.495,9.6,11.915,8.126,8.455,13.722,8.608,15.313,7.838,1.346-.657-1.389-5.141-4.421-10.181-.147-.243-.291-.489-.441-.735-.4-.67-.8-1.35-1.206-2.023-3.553-6.067-2.64-8.913-1.8-17.94.684-7.336,11.413-40.985,11.413-40.985l-15.573-2.683s-4.689,26.794-9.857,30.921c-2.763,2.2-5.856,2.227-8.511,3.858q-.282.17-.553.349A20.42,20.42,0,0,0,1248.8,1602.665Z" transform="translate(-1138.136 -1101.951)"/><path class="m" d="M1248.8,1633.906a4.3,4.3,0,0,0-.766,4.6.037.037,0,0,0,.012.023c1.358,3.06,4.927,6.464,9.04,9.869.537.446,1.011.856,1.434,1.239.11.1.221.194.325.292.086.075.168.154.25.226,3.967,3.657,2.474,4.495,9.6,11.915,8.126,8.456,13.722,8.608,15.313,7.838,1.346-.656-1.389-5.141-4.421-10.181a34.632,34.632,0,0,1-14.486-10.674c-4.893-6.244-8.156-14.267-11.488-18.914q-.282.17-.553.349A20.416,20.416,0,0,0,1248.8,1633.906Z" transform="translate(-1138.136 -1133.192)"/><path class="l" d="M1476.981,1588.68c.962,4.807,7.814,4.005,15.469,2.134s5.836.354,16.731-.852,14.2-5.269,14.528-6.889c.3-1.438-5.086-1.945-10.861-2.61-.726-.081-1.456-.171-2.185-.261-6.519-.818-11.294-5.025-17.216-8.48-5.609-3.273-13.98-16.607-13.98-16.607l-14.942,1.184s7.841,11.909,10.874,17.087c1.784,3.045,1.689,7.073,1.467,10.183A19.176,19.176,0,0,0,1476.981,1588.68Z" transform="translate(-1240.745 -1097.693)"/><path class="m" d="M1503.434,1613.585c7.655-1.871,5.836.353,16.731-.852s14.2-5.269,14.528-6.889c.3-1.438-5.086-1.945-10.861-2.61l-.054.111a30.715,30.715,0,0,1-15.6,4.85c-7.392.18-15.221-1.938-20.326-1.855a19.167,19.167,0,0,0,.115,5.111C1488.926,1616.258,1495.778,1615.456,1503.434,1613.585Z" transform="translate(-1251.728 -1120.463)"/><path class="k" d="M1333.421,1415.946l-13.968,37.586-18.236,49.077a29.549,29.549,0,0,1-9.688-.885,42.033,42.033,0,0,1-9.37-4.56s5.064-52.7,14.51-82.944c2.421-7.764,5.134-14.045,8.128-17.579C1319.44,1379.334,1333.421,1415.946,1333.421,1415.946Z" transform="translate(-1154.446 -1020.501)"/><path class="i" d="M1231.143,1317.4c-9.151-2.952-35.251.838-61.469,5.971l-5.489-9.054-56.631-4.423s-18.687,41.441-8.456,67.846c1.5,3.881,4.491,6.37,9.584,6.453,0,0,.825,0,.827,0s33.705-.02,44.65-.02c28.163,0,59.6-19.359,63.67-20.173,6.657-1.332,9.32,11.982,15.977,25.963s62.577,61.91,62.577,61.91,8.594.085,12.145-1.246c3.818-1.432,5.215-3.292,5.215-3.292S1251.779,1324.062,1231.143,1317.4Z" transform="translate(-1066.37 -981.652)"/><path class="i" d="M1319.453,1473.5l-18.236,49.077a29.554,29.554,0,0,1-9.688-.886,42.026,42.026,0,0,1-9.37-4.56s5.064-52.7,14.51-82.944Z" transform="translate(-1154.446 -1040.466)"/><g transform="translate(48.11 343.608)"><g transform="translate(464.148 16.59)"><path class="n" d="M2024.5,1550.525h.241a2.609,2.609,0,0,0,2.526-2.738l-3.833-175.841-11.286-1.393,9.625,177.246A2.8,2.8,0,0,0,2024.5,1550.525Z" transform="translate(-2012.144 -1370.553)"/></g><g transform="translate(16.093 16.59)"><path class="n" d="M1164.366,1550.525h-.241a2.609,2.609,0,0,1-2.526-2.738l3.832-175.841,11.287-1.393-9.626,177.246A2.8,2.8,0,0,1,1164.366,1550.525Z" transform="translate(-1161.597 -1370.553)"/></g><path class="n" d="M10.609,0H486.645a10.609,10.609,0,0,1,10.609,10.609v0a10.609,10.609,0,0,1-10.609,10.609H10.61A10.61,10.61,0,0,1,0,10.609v0A10.609,10.609,0,0,1,10.609,0Z" transform="translate(0 0)"/></g><g transform="translate(409.927 94.074)"><path class="o" d="M2124.853,1697.128s1.341-8.482,4.446-13.524,22.866-1.834,22.866-1.834,3.952,2.751,4.8,15.588Z" transform="translate(-1994.646 -1238.786)"/><path class="o" d="M1940.56,1687.518c4.644-2.3,2-19.469,2-19.469s-21.636-14.055-24.612-3.294-20.554,15.593-30.561,16.911c-6.907.91-9.046,4.016-9.709,5.853Z" transform="translate(-1877.68 -1229.29)"/><path class="p" d="M2012.858,1356.853a59.985,59.985,0,0,0-1.787,9.49c-2.264,31.857-37.167,104.7-43.41,106.4-9.661,2.631-24.873-2.96-32.831-4.789-3.3-.76-5.523-3.16-4.789-5.595,17.285-57.333,23.638-139.891,25.948-188.77,1.168-24.619,7.025-41.626,7.025-41.626s85.13-16.388,85.635,4.343C2049.1,1254.648,2020.45,1326.591,2012.858,1356.853Z" transform="translate(-1902.391 -1023.495)"/><path class="o" d="M2036.294,1356.853l-56.869-83.266c1.168-24.619,7.025-41.626,7.025-41.626s85.13-16.388,85.634,4.343C2072.532,1254.648,2043.886,1326.591,2036.294,1356.853Z" transform="translate(-1925.827 -1023.495)"/><path class="p" d="M2050.174,1239.141l44.884,235.333s19.71,3.438,35.041.688c0,0,13.141-125.161,12.046-155.419s9.431-80.967-2.4-86.559S2050.174,1239.141,2050.174,1239.141Z" transform="translate(-1959.307 -1026.26)"/><path class="i" d="M2109.243,1109.037c.191,2.126-1.484,4.06-4,4.655-5.579,1.314-19.646,2.229-32.051,4.315a289.659,289.659,0,0,1-46.58,3.8c-30.63.158-42.226-8.414-42.226-8.414-1.32.02-12.231-5.186-10.414-29.936.615-8.384,14.137-19.011,14.565-32.443.387-12.086.647-26.443.672-43.477.033-20.489,39.09-42.533,39.811-42.533l.008.01c0,2.95,5.727,8.394,14.545,8.864,10.468.556,23.31-3.674,23.31-8.569,0-.05,18.924,24.581,25.645,50.825C2095.918,1029.345,2102.182,1028.99,2109.243,1109.037Z" transform="translate(-1923.148 -900.077)"/><path class="i" d="M2019.556,965.007s-36.319-.25-45.06,9.7-27.9,63.5-17.9,81.321,28.715-7.37,39.1-18.285S2019.556,965.007,2019.556,965.007Z" transform="translate(-1913.689 -900.078)"/><path class="q" d="M2079.4,940.666l.023,3.048s-1.13,9.534,14.839,10.927,27.821-1.781,27.388-9.138c-1.439-5.7-2.772-11.546-2.88-16.26a24.613,24.613,0,0,1,.569-5.709l-30.943-.454-9.115,1.094Z" transform="translate(-1973.083 -880.238)"/><path class="r" d="M2079.286,924.174l.118,16.491a33.768,33.768,0,0,0,11.071,1.809,36.439,36.439,0,0,0,28.008-13.232,24.807,24.807,0,0,1,.564-5.709l-30.713-.454Z" transform="translate(-1973.083 -880.238)"/><path class="q" d="M2113.13,880.308c1.341,19.253-27.854,14.806-38.376,13.844-2.961-.267-4.824-.574-4.824-.574-3.339-.723-5.2-4.99-6.067-10.579-1.718-11.06.453-27.3,2.754-31.449,3.467-6.249,10-13.007,34.515-8.13S2111.737,860.311,2113.13,880.308Z" transform="translate(-1965.492 -841.752)"/><path class="s" d="M1995.887,1040.764s-14.046,25.19-13.638,32.74a59.232,59.232,0,0,1,13.638,1.424C2006.868,1077.586,1995.887,1040.764,1995.887,1040.764Z" transform="translate(-1927.16 -935.927)"/><path class="s" d="M2071.712,1129.364c-5.93,19.335-82.985,29.327-97.562,31.357.615-8.384,14.137-19.011,14.565-32.443Z" transform="translate(-1923.331 -977.341)"/><path class="q" d="M2129.067,1123.964c.611,0,14.256-1.653,16.7-2.646s13.621-13.891,6.3-17.2-26.971,9.922-26.971,9.922Z" transform="translate(-1994.762 -965.657)"/><path class="i" d="M1974.644,1128.747s52.773,2.325,88.188-3.833c0,0,.894-8.309-10.236-12,0,0-55.2-9.5-68.458-6.854S1974.644,1128.747,1974.644,1128.747Z" transform="translate(-1923.331 -966.607)"/><path class="i" d="M2172.358,1029.447c-10.952,10.723-25.27,19.477-41.054,21.528l0,0a20.6,20.6,0,0,1-3.907-14.312,25.357,25.357,0,0,1,5.748-13.137,27.331,27.331,0,0,0,3.1-5.08c8.619-17.857,7.335-52.274,7.335-52.274s36.6,3.112,48.007,16.343C2198.572,990.614,2189.665,1012.493,2172.358,1029.447Z" transform="translate(-1995.797 -900.628)"/><path class="t" d="M2085.172,933.189c-3.676-.26-5.989-.559-5.989-.559-4.144-.7-6.458-4.863-7.532-10.309,7.772,1.219,11.333,5.043,12.817,6.673C2085.14,929.725,2085.276,931.368,2085.172,933.189Z" transform="translate(-1972.901 -880.398)"/><path class="q" d="M2056.939,941.279s-12.64-16.938-2.811-17.675,13.779,4.665,15.2,6.65-.371,10.937-.371,10.937Z" transform="translate(-1959.408 -880.453)"/><path class="i" d="M2108.479,1029.147a19.154,19.154,0,0,1-2.155,5.881,29.747,29.747,0,0,1-8.049,9l0,0c-32.829-12.033-39.473-53.353-40.584-76.055a138.254,138.254,0,0,1,0-15.244c14.81-3.982,18.972,2.937,18.972,2.937s17.486,33.766,26.557,55.833C2106.687,1019.942,2108.922,1026.677,2108.479,1029.147Z" transform="translate(-1962.768 -893.683)"/><path class="s" d="M2139.508,1037.306c-10.953,10.723-25.27,19.477-41.054,21.528l0,0c-32.83-12.033-39.473-53.353-40.585-76.055,0,0,15.535,45.752,36.678,61.743a25.069,25.069,0,0,0,11.96,5.312s26.662-6.119,32.254-11.881A2.791,2.791,0,0,1,2139.508,1037.306Z" transform="translate(-1962.946 -908.487)"/></g><g transform="translate(270.582 281.665)"><path class="p" d="M1661.083,1283.416h-82.8l-24.91-61.942h82.677Z" transform="translate(-1553.369 -1221.474)"/><path class="p" d="M1598.812,1334.478h109.344v2.413H1599.783Z" transform="translate(-1574.873 -1274.949)"/><path class="f" d="M1640.191,1276.725a2.869,2.869,0,0,1,2.812-3.943,5.65,5.65,0,0,1,5.073,3.943,2.869,2.869,0,0,1-2.812,3.943A5.649,5.649,0,0,1,1640.191,1276.725Z" transform="translate(-1594.379 -1245.754)"/></g><path class="i" d="M1120.841,1073.487l-29.911,11.16s8.372,60.755,9.089,83.956-11,43.33-11,43.33h78.215s10.764-63.182,8.611-85.427-16.983-45.291-17.7-45.845-18.657-4.624-18.657-4.624l-18.644-2.55Z" transform="translate(-1063.047 -869.778)"/><path class="u" d="M1235.546,1215.453s3.014,28.224,4.258,29.66,47.168,23.917,47.168,23.917l-66.734,4.547,15.308-58.123Z" transform="translate(-1125.144 -936.959)"/><path class="f" d="M1220.238,1087.1c7.414.16,9.429,12.284,11.172,21.292s-11.172-21.292-11.172-21.292Z" transform="translate(-1125.144 -876.222)"/><path class="f" d="M1147.183,1128.616c-4.066-14.591-25.913-55.22-25.913-55.22l-28.621,11.208s6.561,47.616,8.564,74.637l10.872,52.648h35.1s4.066-68.684,0-83.274Z" transform="translate(-1064.767 -869.735)"/><path class="v" d="M1121.2,1205.487c-5.262-7.123-10.409-14.964-5.4-31.334s5.5-22.245,3.745-37.075-9.725-38.51-25.272-39.228c0,0-.513,5.186-1.342,13.464,2.526,19.554,6.592,52.96,7.082,68.818.718,23.2-11,43.329-11,43.329l63.624,1.4s-26.175-12.249-31.438-19.375" transform="translate(-1063.047 -881.308)"/><path class="f" d="M1226.474,1130.016c-2.153-22.245-16.982-45.291-17.7-45.845-.443-.344-7.463-2.029-12.762-3.265,1.557,3.676,17.99,42.837,17.306,58.968-.718,16.933.021,75.57.021,75.57h4.523s10.764-63.183,8.611-85.427Z" transform="translate(-1113.68 -873.289)"/><path class="v" d="M1196.013,1080.906s12.605,32.367,14.605,41.476,2.406,53.619,2.406,53.619,5.8-38.809,4.121-50.29-4.066-21.855-4.066-21.855l-7.654-5.652s-1.447-15.391-2.26-15.59-7.152-1.708-7.152-1.708Z" transform="translate(-1113.68 -873.289)"/><path class="p" d="M35.074,8.625C30.436-5.369,11.426-2.06,2.813,16.556S7.38,47.623,15.367,43.061,35.074,8.625,35.074,8.625Z" transform="translate(27.092 141.809) rotate(-14)"/><path class="l" d="M1202.259,1311.73a9.859,9.859,0,0,0,1.834.351,2.208,2.208,0,0,0,2.052-.792l-12.386-6.015c-3.281-1.8-23.613,2.722-23.613,2.722l1.8,8.924s5.88,1.645,15.476-1.553c2.28-.76,6.887-2.361,8.637-1.891.286.076.637.192,1.03.33a16.907,16.907,0,0,0,3.315,3.278,4.165,4.165,0,0,0,2.3.492l-1.15-2.068c2.682,1,5.078,1.718,4.512.428A18.009,18.009,0,0,0,1202.259,1311.73Z" transform="translate(-1101.44 -979.263)"/><g transform="translate(66.56 281.099)"><g transform="translate(0)"><path class="p" d="M1214.609,1282.341h82.8l24.909-61.942h-82.677Z" transform="translate(-1189.041 -1220.398)"/><path class="p" d="M1275.416,1333.4H1166.072v2.414h108.374Z" transform="translate(-1166.072 -1273.874)"/></g><path class="f" d="M1324.892,1275.649a2.869,2.869,0,0,0-2.812-3.943,5.65,5.65,0,0,0-5.073,3.943,2.869,2.869,0,0,0,2.812,3.943A5.65,5.65,0,0,0,1324.892,1275.649Z" transform="translate(-1237.421 -1244.678)"/></g><path class="f" d="M1067.6,1094.673c-9.568,16.743-12.6,25.876-20.4,57.21s-10.933,45.592-2.322,49.709c7.126,3.408,59.006,18.968,65.3,17.052,2.87.163,7.276-14.66,7.276-14.66l-47.22-21.049s13.667-32.625,16.026-54.057-8.133-34.2-13.394-34.2Z" transform="translate(-1039.72 -879.804)"/><path class="w" d="M2094.107,808.8c11.584-.316,7.285-8.925,20.605-5.488,7,1.81,1.834,4.688,10.931,3.752s13.575-1.876,14.722,4.061,1.7,7.816,6.077,8.753,6.352,8.753,0,14.066-3.264,7.5-1.857,11.877-3.388,4.688-5.992,8.749,2.4,4.832-1.354,8.356a13.3,13.3,0,0,1-9.011,3.209l-15.789-30.273L2094.107,808.8Z" transform="translate(-1570.169 -729.104)"/><path class="w" d="M2058.03,814.279c-5.491-2.293-11.677-4.748-9.763,4.584.831,4.064,0,2.917-1.458,6.67s3.675,6.694,5.341,8.777-2.427,4.348.908,6.848,7.729-.926,10.835,0c9.272,2.767,8.126-4.527,13.335-6.042s7.763-1.284,8.751,2.051-3.647,14.3.313,13.262,4.85,7.813,5.915,12.817,3.781-3.454,3.605-9.173c-.269-8.774,1.909-12.459,5.141-14.914s4.608-24.775-11.02-25.609-15.726-2.343-22.395-3.752-7.006,5.526-9.509,4.481Z" transform="translate(-1547.665 -732.467)"/><path class="p" d="M21.387,5.259C18.559-3.274,6.968-1.256,1.715,10.1S4.5,29.039,9.37,26.258s12.017-21,12.017-21Z" transform="translate(70.169 115.676) rotate(45)"/><path class="p" d="M21.387,5.259C18.559-3.274,6.968-1.256,1.715,10.1S4.5,29.039,9.37,26.258s12.017-21,12.017-21Z" transform="matrix(0.208, 0.978, -0.978, 0.208, 104.287, 116.098)"/><path class="p" d="M15.068,3.705C13.075-2.306,4.909-.885,1.208,7.113S3.17,20.459,6.6,18.5,15.068,3.705,15.068,3.705Z" transform="translate(48.499 190.318) rotate(-83)"/><path class="p" d="M1153.572,940.345c22.63-12.45,43.887-5.85,51.5,11,7.111,15.741-2,49.563-35.765,43.67-34.927-6.1-37.837-13.677-37.571-24.691.212-8.8,5.508-21,21.835-29.981Z" transform="translate(-1085.321 -803.721)"/><path class="l" d="M1161.471,995.254s-6.27,32.011-13.2,37.62,15.949,32.661,23.87,25.73.551-22.1.551-22.1-4.289-2.641,2.971-19.47-12.285-29.37-12.285-29.37l-1.906,7.589Z" transform="translate(-1090.478 -829.166)"/><path class="x" d="M1174.3,987.665l-1.906,7.589s-.872,4.454-2.326,10.328c2.709,12.641,7.774,20.86,12.3,26.086.132-2.913,1.134-7.5,4.212-14.634,7.26-16.832-12.285-29.37-12.285-29.37Z" transform="translate(-1101.405 -829.166)"/><path class="l" d="M1215.672,994.751c-4.212,11.62-14.509,20.948-21.049,18.8-10.68-3.516-18.455-11.864-16.618-30.32,2.162-21.735,18.888-24.227,28.71-21.451s13.622,20.116,8.957,32.975Z" transform="translate(-1105.031 -816.478)"/><path class="l" d="M1176.136,999.841c-2.311,7.252-1.318,8.733-4.517,9.41s-6.119-2.5-7.065-6.953.881-8.623,4.079-9.3,8.885,2.5,7.5,6.846Z" transform="translate(-1098.676 -831.645)"/><path class="p" d="M1209.141,964.339c-12.514,22.245-37.379,18.977-52.487,11.323-12.318-6.238,35.141-29.875,35.141-29.875l17.346,18.552Z" transform="translate(-1094.089 -809.349)"/><path class="v" d="M1137.905,1073.4l-10.1,3.956,15.925,20.407-4.545,8.133s16.4,12.313,21.385,36.173a213.362,213.362,0,0,1,4.442,44.188s1.224-48.389-1.192-57.638c-4.683-17.94-25.913-55.22-25.913-55.22Z" transform="translate(-1081.402 -869.735)"/></g><line class="y" x2="795.414" transform="translate(175 1912.917)"/><path class="a" d="M107.268,93.435c8.813-86.471-157-151.9-92.21-12.865S98.454,179.906,107.268,93.435Z" transform="matrix(0.545, 0.839, -0.839, 0.545, 1013.392, 1715.488)"/></g></svg>