<svg xmlns="http://www.w3.org/2000/svg" width="106.335" height="102.05" viewBox="0 0 106.335 102.05"><defs><style>.a{fill:#fff;}.b{fill:#3075ba;}</style></defs><circle class="a" cx="50" cy="50" r="50"/><g transform="translate(20.408 22.776)"><path class="b" d="M-426.371,156.453a7.8,7.8,0,0,0-7.787,7.787,7.8,7.8,0,0,0,7.787,7.787,7.8,7.8,0,0,0,7.787-7.787A7.8,7.8,0,0,0-426.371,156.453Zm0,12.917a5.136,5.136,0,0,1-5.13-5.131,5.137,5.137,0,0,1,5.13-5.131,5.136,5.136,0,0,1,5.131,5.131A5.136,5.136,0,0,1-426.371,169.37Z" transform="translate(434.158 -156.453)"/><rect class="b" width="45.178" height="2.656" transform="translate(19.91 6.461)"/><path class="b" d="M-426.371,171.166a7.8,7.8,0,0,0-7.787,7.787,7.8,7.8,0,0,0,7.787,7.787,7.8,7.8,0,0,0,7.787-7.787A7.8,7.8,0,0,0-426.371,171.166Zm0,12.917a5.136,5.136,0,0,1-5.13-5.131,5.137,5.137,0,0,1,5.13-5.131,5.137,5.137,0,0,1,5.131,5.131A5.136,5.136,0,0,1-426.371,184.083Z" transform="translate(434.158 -151.625)"/><rect class="b" width="45.178" height="2.656" transform="translate(19.91 25.779)"/><path class="b" d="M-426.371,185.525a7.8,7.8,0,0,0-7.787,7.787,7.8,7.8,0,0,0,7.787,7.787,7.8,7.8,0,0,0,7.787-7.787A7.8,7.8,0,0,0-426.371,185.525Zm0,12.917a5.136,5.136,0,0,1-5.13-5.131,5.136,5.136,0,0,1,5.13-5.131,5.136,5.136,0,0,1,5.131,5.131A5.136,5.136,0,0,1-426.371,198.442Z" transform="translate(434.158 -146.914)"/><rect class="b" width="30.728" height="2.656" transform="translate(19.91 45.099)"/><path class="b" d="M-427.452,159.882a3.28,3.28,0,0,0-3.277,3.276,3.28,3.28,0,0,0,3.277,3.276,3.281,3.281,0,0,0,3.276-3.276A3.281,3.281,0,0,0-427.452,159.882Z" transform="translate(435.283 -155.328)"/><path class="b" d="M-362.718,208.249l-27.289-23.443v35.87l7.445-9.018,7.1,14.765,7.507-3.45-7.076-14.722Zm-8.805,13.438-2.677,1.231-7.766-16.153-5.384,6.521v-22.7l17.466,15h-9.374Z" transform="translate(448.645 -147.15)"/></g></svg>