<svg xmlns="http://www.w3.org/2000/svg" width="348.157" height="444.886" viewBox="0 0 348.157 444.886"><defs><style>.a{fill:#fff;}.b{fill:#3075ba;}.c,.e{fill:#3176bb;}.c{stroke:#3176bb;}.d{fill:#7df7ef;}</style></defs><g transform="translate(-1204.822 -5332)"><g transform="translate(1205 5337)"><circle class="a" cx="50" cy="50" r="50"/><g transform="translate(20.408 22.776)"><path class="b" d="M-426.371,156.453a7.8,7.8,0,0,0-7.787,7.787,7.8,7.8,0,0,0,7.787,7.787,7.8,7.8,0,0,0,7.787-7.787A7.8,7.8,0,0,0-426.371,156.453Zm0,12.917a5.136,5.136,0,0,1-5.13-5.131,5.137,5.137,0,0,1,5.13-5.131,5.136,5.136,0,0,1,5.131,5.131A5.136,5.136,0,0,1-426.371,169.37Z" transform="translate(434.158 -156.453)"/><rect class="b" width="45.178" height="2.656" transform="translate(19.91 6.461)"/><path class="b" d="M-426.371,171.166a7.8,7.8,0,0,0-7.787,7.787,7.8,7.8,0,0,0,7.787,7.787,7.8,7.8,0,0,0,7.787-7.787A7.8,7.8,0,0,0-426.371,171.166Zm0,12.917a5.136,5.136,0,0,1-5.13-5.131,5.137,5.137,0,0,1,5.13-5.131,5.137,5.137,0,0,1,5.131,5.131A5.136,5.136,0,0,1-426.371,184.083Z" transform="translate(434.158 -151.625)"/><rect class="b" width="45.178" height="2.656" transform="translate(19.91 25.779)"/><path class="b" d="M-426.371,185.525a7.8,7.8,0,0,0-7.787,7.787,7.8,7.8,0,0,0,7.787,7.787,7.8,7.8,0,0,0,7.787-7.787A7.8,7.8,0,0,0-426.371,185.525Zm0,12.917a5.136,5.136,0,0,1-5.13-5.131,5.136,5.136,0,0,1,5.13-5.131,5.136,5.136,0,0,1,5.131,5.131A5.136,5.136,0,0,1-426.371,198.442Z" transform="translate(434.158 -146.914)"/><rect class="b" width="30.728" height="2.656" transform="translate(19.91 45.099)"/><path class="b" d="M-427.452,159.882a3.28,3.28,0,0,0-3.277,3.276,3.28,3.28,0,0,0,3.277,3.276,3.281,3.281,0,0,0,3.276-3.276A3.281,3.281,0,0,0-427.452,159.882Z" transform="translate(435.283 -155.328)"/><path class="b" d="M-362.718,208.249l-27.289-23.443v35.87l7.445-9.018,7.1,14.765,7.507-3.45-7.076-14.722Zm-8.805,13.438-2.677,1.231-7.766-16.153-5.384,6.521v-22.7l17.466,15h-9.374Z" transform="translate(448.645 -147.15)"/></g></g><g transform="translate(1205.322 5672.434)"><g transform="translate(3.948 3.236)"><ellipse class="a" cx="50" cy="49.5" rx="50" ry="49.5" transform="translate(-0.271 0.33)"/></g><path class="c" d="M3569.7,600.307a27.772,27.772,0,1,0,27.765,27.766,27.8,27.8,0,0,0-27.765-27.766Zm0,57.254a29.481,29.481,0,1,1,29.475-29.488,29.52,29.52,0,0,1-29.475,29.488Z" transform="translate(-3517.885 -573.783)"/><path class="c" d="M3551.071,611.393a.851.851,0,0,1-.633-.281l-16.545-18.275a.854.854,0,0,1,1.267-1.147l16.545,18.275a.853.853,0,0,1-.061,1.206.84.84,0,0,1-.573.222Z" transform="translate(-3519.939 -576.041)"/><path class="c" d="M3581.965,613.571a.854.854,0,0,1-.55-1.507l16.1-13.591a.854.854,0,1,1,1.1,1.306l-16.1,13.591a.857.857,0,0,1-.551.2Z" transform="translate(-3505.042 -573.885)"/><path class="c" d="M3595,647.056a.849.849,0,0,1-.579-.229l-13.97-12.948a.853.853,0,0,1,1.159-1.252l13.969,12.948a.855.855,0,0,1-.58,1.481Z" transform="translate(-3505.335 -563.169)"/><path class="c" d="M3580.767,658.566a.854.854,0,0,1-.774-.493L3572,641a.854.854,0,1,1,1.547-.724l8,17.077a.853.853,0,0,1-.774,1.217Z" transform="translate(-3507.929 -560.851)"/><path class="c" d="M3528.5,658.34a.854.854,0,0,1-.535-1.52l25.471-20.424a.853.853,0,1,1,1.068,1.331l-25.47,20.424a.848.848,0,0,1-.535.189Z" transform="translate(-3521.831 -561.973)"/><path class="c" d="M3562.975,604.813h-.011a.855.855,0,0,1-.845-.865l.219-18.854a.857.857,0,0,1,.855-.845h.009a.856.856,0,0,1,.845.865l-.219,18.855a.855.855,0,0,1-.854.844Z" transform="translate(-3511.007 -578.288)"/><path class="c" d="M3563.989,581.422a2.42,2.42,0,1,0,2.426,2.415,2.417,2.417,0,0,0-2.426-2.415Zm0,6.55a4.13,4.13,0,1,1,4.134-4.135,4.135,4.135,0,0,1-4.134,4.135Z" transform="translate(-3511.714 -579.713)"/><path class="c" d="M3596.9,595.883a2.415,2.415,0,1,0,2.43,2.415,2.417,2.417,0,0,0-2.43-2.415Zm0,6.539a4.124,4.124,0,1,1,4.139-4.123,4.13,4.13,0,0,1-4.139,4.123Z" transform="translate(-3501.38 -575.172)"/><path class="c" d="M3533.631,588.781a2.415,2.415,0,1,0,2.426,2.413,2.416,2.416,0,0,0-2.426-2.413Zm0,6.54a4.125,4.125,0,1,1,4.133-4.127,4.13,4.13,0,0,1-4.133,4.127Z" transform="translate(-3521.246 -577.403)"/><path class="c" d="M3527.344,652.53a2.421,2.421,0,1,0,2.417,2.417,2.418,2.418,0,0,0-2.417-2.417Zm0,6.552a4.131,4.131,0,1,1,4.125-4.135,4.136,4.136,0,0,1-4.125,4.135Z" transform="translate(-3523.221 -557.385)"/><path class="c" d="M3580.706,654.257a2.415,2.415,0,1,0,2.412,2.414,2.422,2.422,0,0,0-2.412-2.414Zm0,6.537a4.123,4.123,0,1,1,4.121-4.123,4.135,4.135,0,0,1-4.121,4.123Z" transform="translate(-3506.468 -556.842)"/><path class="c" d="M3594.271,643.156a2.42,2.42,0,1,0,2.426,2.43,2.424,2.424,0,0,0-2.426-2.43Zm0,6.549a4.129,4.129,0,1,1,4.136-4.119,4.128,4.128,0,0,1-4.136,4.119Z" transform="translate(-3502.205 -560.328)"/><path class="c" d="M3568.284,605.8a20.867,20.867,0,1,0,20.861,20.86,20.888,20.888,0,0,0-20.861-20.86Zm0,43.662a22.8,22.8,0,1,1,22.791-22.8,22.827,22.827,0,0,1-22.791,22.8Z" transform="translate(-3516.23 -572.129)"/><path class="c" d="M3564.546,623.578a6.966,6.966,0,1,0-6.973-6.974A6.981,6.981,0,0,0,3564.546,623.578Zm0-12.223a5.275,5.275,0,0,1,4.745,2.975,5.289,5.289,0,0,1-3.419-1.162.851.851,0,0,0-1.219.155,5.257,5.257,0,0,1-5.215,2.01A5.272,5.272,0,0,1,3564.546,611.355Zm-4.1,5.784a6.9,6.9,0,0,0,5.039-2.155,7.045,7.045,0,0,0,4.294,1.03,5.257,5.257,0,0,1-5.231,5.855,5.273,5.273,0,0,1-5.247-4.825A6.857,6.857,0,0,0,3560.445,617.14Z" transform="translate(-3512.434 -570.313)"/><path class="c" d="M3570.6,621.128h-9.408a7.374,7.374,0,0,0-7.371,7.361v4a.854.854,0,1,0,1.708,0v-4a5.664,5.664,0,0,1,5.662-5.653h9.408a5.664,5.664,0,0,1,5.662,5.653v4a.854.854,0,1,0,1.708,0v-4A7.374,7.374,0,0,0,3570.6,621.128Z" transform="translate(-3513.613 -566.708)"/></g><g transform="translate(1204.835 5499.538)"><path class="d" d="M49.5,0C76.838,0,99,22.386,99,50s-22.162,50-49.5,50S0,77.614,0,50,22.162,0,49.5,0Z" transform="translate(0.165 12.462)"/><g transform="translate(19.929 0)"><path class="c" d="M4571.849-20.662a10.366,10.366,0,0,0-10.354,10.355A10.37,10.37,0,0,0,4571.849.057a10.374,10.374,0,0,0,10.361-10.364,10.369,10.369,0,0,0-10.361-10.355Zm0,22.236a11.889,11.889,0,0,1-11.87-11.881,11.885,11.885,0,0,1,11.87-11.872,11.889,11.889,0,0,1,11.877,11.872,11.893,11.893,0,0,1-11.877,11.881Zm-1.516,17.644h3.038l1.164-7.729a.751.751,0,0,1,.636-.636,20.808,20.808,0,0,0,4.395-1.169.763.763,0,0,1,.867.233l4.862,6.1,2.631-1.514L4585.07,7.23a.758.758,0,0,1,.229-.865,21.586,21.586,0,0,0,3.22-3.219.762.762,0,0,1,.868-.231l7.276,2.854,1.515-2.629-6.105-4.862a.765.765,0,0,1-.235-.865,21.826,21.826,0,0,0,1.183-4.4.758.758,0,0,1,.636-.632l7.716-1.161v-3.04l-7.716-1.163a.76.76,0,0,1-.637-.632,21.809,21.809,0,0,0-1.182-4.4.758.758,0,0,1,.235-.861l6.107-4.873-1.516-2.632-7.277,2.863a.746.746,0,0,1-.869-.231,20.667,20.667,0,0,0-3.215-3.214.752.752,0,0,1-.232-.866l2.855-7.283-2.631-1.52-4.862,6.115a.758.758,0,0,1-.867.233,21.191,21.191,0,0,0-4.4-1.181.754.754,0,0,1-.631-.635l-1.164-7.73h-3.038l-1.163,7.73a.757.757,0,0,1-.632.635,21.23,21.23,0,0,0-4.4,1.181.756.756,0,0,1-.869-.232l-4.868-6.119-2.633,1.522,2.863,7.281a.758.758,0,0,1-.233.871,20.366,20.366,0,0,0-3.21,3.212.746.746,0,0,1-.869.231l-7.281-2.863-1.521,2.632,6.116,4.872a.753.753,0,0,1,.232.866,21.353,21.353,0,0,0-1.18,4.4.755.755,0,0,1-.636.631l-7.727,1.154v3.049l7.727,1.161a.756.756,0,0,1,.636.632,21.487,21.487,0,0,0,1.18,4.4.756.756,0,0,1-.233.87l-6.114,4.862,1.522,2.63,7.28-2.855a.763.763,0,0,1,.868.231,20.91,20.91,0,0,0,3.215,3.216.762.762,0,0,1,.229.868l-2.862,7.276,2.631,1.517,4.872-6.107a.755.755,0,0,1,.866-.233,20.713,20.713,0,0,0,4.393,1.169.756.756,0,0,1,.638.636l1.163,7.729Zm3.69,1.515h-4.344a.754.754,0,0,1-.747-.645l-1.179-7.829a22.192,22.192,0,0,1-3.64-.969l-4.935,6.185a.758.758,0,0,1-.97.187l-3.763-2.167a.76.76,0,0,1-.326-.936l2.9-7.373a22.423,22.423,0,0,1-2.656-2.659l-7.378,2.891a.753.753,0,0,1-.932-.325l-2.175-3.761a.757.757,0,0,1,.183-.972l6.2-4.926a23.048,23.048,0,0,1-.974-3.637l-7.83-1.179a.756.756,0,0,1-.646-.747v-4.356a.756.756,0,0,1,.646-.748l7.83-1.169a22.921,22.921,0,0,1,.974-3.636l-6.2-4.937a.755.755,0,0,1-.183-.971l2.175-3.761a.755.755,0,0,1,.934-.328l7.373,2.9a21.867,21.867,0,0,1,2.658-2.661l-2.9-7.374a.757.757,0,0,1,.325-.934l3.763-2.174a.759.759,0,0,1,.973.183l4.933,6.2a22.474,22.474,0,0,1,3.64-.977l1.179-7.831a.755.755,0,0,1,.747-.647h4.344a.76.76,0,0,1,.75.647l1.177,7.831a22.371,22.371,0,0,1,3.639.977l4.926-6.2a.752.752,0,0,1,.973-.184l3.761,2.174a.758.758,0,0,1,.327.933l-2.894,7.377a22.249,22.249,0,0,1,2.664,2.66l7.371-2.9a.756.756,0,0,1,.935.329l2.166,3.761a.758.758,0,0,1-.185.97l-6.187,4.939a23.4,23.4,0,0,1,.978,3.634l7.818,1.179a.76.76,0,0,1,.646.75v4.346a.757.757,0,0,1-.646.747L4594.422-6.2a23.509,23.509,0,0,1-.977,3.636l6.188,4.927a.759.759,0,0,1,.185.971l-2.166,3.759a.76.76,0,0,1-.934.328l-7.374-2.891a23.058,23.058,0,0,1-2.663,2.659l2.895,7.375a.759.759,0,0,1-.328.934l-3.762,2.167a.759.759,0,0,1-.971-.187l-4.926-6.185a22.181,22.181,0,0,1-3.639.969l-1.177,7.829a.759.759,0,0,1-.75.645Z" transform="translate(-4540.808 71.487)"/><path class="c" d="M4567.7-29.218a.387.387,0,0,0-.379.377.383.383,0,0,0,.379.379.375.375,0,0,0,.378-.379.382.382,0,0,0-.378-.377Zm0,2.273a1.9,1.9,0,0,1-1.9-1.9,1.9,1.9,0,0,1,1.9-1.892,1.9,1.9,0,0,1,1.9,1.892,1.9,1.9,0,0,1-1.9,1.9Z" transform="translate(-4536.665 73.246)"/><path class="c" d="M4574.9-27.288a.366.366,0,0,0-.32.184.376.376,0,0,0-.039.293.367.367,0,0,0,.172.23.4.4,0,0,0,.521-.145.368.368,0,0,0,.038-.283.369.369,0,0,0-.172-.221.4.4,0,0,0-.2-.057Zm0,2.271a1.888,1.888,0,0,1-.944-.253,1.874,1.874,0,0,1-.881-1.158,1.883,1.883,0,0,1,.2-1.436,1.937,1.937,0,0,1,2.583-.682,1.856,1.856,0,0,1,.882,1.139,1.866,1.866,0,0,1-.189,1.442,1.907,1.907,0,0,1-1.646.948Z" transform="translate(-4535.473 73.569)"/><path class="c" d="M4580.171-22.023a.364.364,0,0,0-.2.054.36.36,0,0,0-.17.22.377.377,0,0,0,.036.288.352.352,0,0,0,.509.145.387.387,0,0,0,.182-.238.362.362,0,0,0-.036-.28.368.368,0,0,0-.325-.189Zm0,2.273a1.879,1.879,0,0,1-1.64-.961,1.87,1.87,0,0,1-.184-1.431,1.864,1.864,0,0,1,.877-1.144,1.95,1.95,0,0,1,2.588.691,1.877,1.877,0,0,1,.191,1.429,1.9,1.9,0,0,1-.889,1.159,1.881,1.881,0,0,1-.944.256Z" transform="translate(-4534.599 74.441)"/><path class="c" d="M4582.092-14.827a.374.374,0,0,0-.379.377.38.38,0,0,0,.379.38.377.377,0,0,0,.379-.38.374.374,0,0,0-.379-.377Zm0,2.271a1.9,1.9,0,0,1-1.894-1.894,1.9,1.9,0,0,1,1.894-1.894,1.9,1.9,0,0,1,1.9,1.894,1.9,1.9,0,0,1-1.9,1.894Z" transform="translate(-4534.28 75.631)"/><path class="c" d="M4580.158-7.634a.349.349,0,0,0-.311.177.389.389,0,0,0,.132.529.384.384,0,0,0,.515-.142.369.369,0,0,0,.039-.284.368.368,0,0,0-.174-.223.391.391,0,0,0-.2-.057Zm0,2.272a1.874,1.874,0,0,1-.947-.256,1.9,1.9,0,0,1-.687-2.588,1.932,1.932,0,0,1,2.581-.687,1.85,1.85,0,0,1,.884,1.139,1.866,1.866,0,0,1-.187,1.443,1.9,1.9,0,0,1-1.644.949Z" transform="translate(-4534.598 76.826)"/><path class="c" d="M4574.9-2.369a.371.371,0,0,0-.193.054.37.37,0,0,0-.135.508.376.376,0,0,0,.51.148.39.39,0,0,0,.185-.239.379.379,0,0,0-.037-.282.376.376,0,0,0-.329-.189Zm0,2.273a1.9,1.9,0,0,1-1.64-.949,1.893,1.893,0,0,1,.683-2.582,1.946,1.946,0,0,1,2.595.687,1.872,1.872,0,0,1,.19,1.43,1.89,1.89,0,0,1-.887,1.16,1.866,1.866,0,0,1-.941.254Z" transform="translate(-4535.472 77.698)"/><path class="c" d="M4567.7-.44a.387.387,0,0,0-.379.377.383.383,0,0,0,.379.38.374.374,0,0,0,.378-.38.382.382,0,0,0-.378-.377Zm0,2.273a1.9,1.9,0,0,1-1.9-1.9,1.9,1.9,0,0,1,1.9-1.892,1.9,1.9,0,0,1,1.9,1.892,1.9,1.9,0,0,1-1.9,1.9Z" transform="translate(-4536.665 78.015)"/><path class="c" d="M4560.509-2.369a.371.371,0,0,0-.322.188.386.386,0,0,0-.04.293.361.361,0,0,0,.174.227.393.393,0,0,0,.522-.143.358.358,0,0,0,.038-.275.382.382,0,0,0-.184-.235.369.369,0,0,0-.188-.054Zm0,2.273a1.889,1.889,0,0,1-.946-.254,1.867,1.867,0,0,1-.878-1.148,1.889,1.889,0,0,1,.2-1.444,1.93,1.93,0,0,1,2.582-.683,1.888,1.888,0,0,1,.886,1.156,1.875,1.875,0,0,1-.192,1.427,1.909,1.909,0,0,1-1.646.947Z" transform="translate(-4537.857 77.698)"/><path class="c" d="M4555.25-7.634a.375.375,0,0,0-.191.051.36.36,0,0,0-.177.22.371.371,0,0,0,.041.288.371.371,0,0,0,.512.147.38.38,0,0,0,.14-.521.366.366,0,0,0-.324-.185Zm0,2.272a1.9,1.9,0,0,1-1.641-.95,1.878,1.878,0,0,1-.191-1.449A1.862,1.862,0,0,1,4554.3-8.9a1.965,1.965,0,0,1,2.583.694,1.9,1.9,0,0,1-.7,2.59,1.868,1.868,0,0,1-.941.254Z" transform="translate(-4538.729 76.826)"/><path class="c" d="M4553.314-14.827a.382.382,0,0,0-.376.377.383.383,0,0,0,.376.38.375.375,0,0,0,.379-.38.372.372,0,0,0-.379-.377Zm0,2.271a1.9,1.9,0,0,1-1.894-1.894,1.9,1.9,0,0,1,1.894-1.894,1.9,1.9,0,0,1,1.9,1.894,1.9,1.9,0,0,1-1.9,1.894Z" transform="translate(-4539.049 75.631)"/><path class="c" d="M4555.243-22.023a.366.366,0,0,0-.321.189.377.377,0,0,0-.041.288.366.366,0,0,0,.177.228.377.377,0,0,0,.516-.141.372.372,0,0,0,.038-.287.361.361,0,0,0-.17-.223.381.381,0,0,0-.2-.055Zm0,2.273a1.887,1.887,0,0,1-.947-.258,1.878,1.878,0,0,1-.877-1.151,1.886,1.886,0,0,1,.194-1.438,1.939,1.939,0,0,1,2.581-.687,1.859,1.859,0,0,1,.881,1.139,1.874,1.874,0,0,1-.187,1.442,1.9,1.9,0,0,1-1.646.952Z" transform="translate(-4538.729 74.441)"/><path class="c" d="M4560.515-27.288a.385.385,0,0,0-.2.052.346.346,0,0,0-.172.217.369.369,0,0,0,.038.29.378.378,0,0,0,.51.147.393.393,0,0,0,.184-.239.372.372,0,0,0-.037-.283.375.375,0,0,0-.328-.184Zm0,2.271a1.9,1.9,0,0,1-1.64-.951,1.877,1.877,0,0,1-.191-1.45,1.849,1.849,0,0,1,.886-1.135,1.966,1.966,0,0,1,2.582.69,1.883,1.883,0,0,1,.191,1.436,1.893,1.893,0,0,1-.89,1.158,1.862,1.862,0,0,1-.939.253Z" transform="translate(-4537.857 73.569)"/><path class="c" d="M4599.378-53.161a6.513,6.513,0,0,0-6.5,6.507,6.51,6.51,0,0,0,6.5,6.5,6.511,6.511,0,0,0,6.506-6.5,6.514,6.514,0,0,0-6.506-6.507Zm0,14.522a8.028,8.028,0,0,1-8.021-8.015,8.03,8.03,0,0,1,8.021-8.022,8.031,8.031,0,0,1,8.022,8.022,8.029,8.029,0,0,1-8.022,8.015Zm-.771,11.008h1.543l.722-4.824a.759.759,0,0,1,.631-.635,14.2,14.2,0,0,0,2.826-.754.761.761,0,0,1,.862.234l3.042,3.817,1.323-.767-1.785-4.539a.758.758,0,0,1,.228-.867,14.4,14.4,0,0,0,2.065-2.07.76.76,0,0,1,.863-.225l4.541,1.779.767-1.325-3.812-3.038a.757.757,0,0,1-.233-.871,13.484,13.484,0,0,0,.759-2.821.758.758,0,0,1,.636-.631l4.815-.725v-1.529l-4.815-.724a.758.758,0,0,1-.636-.631,13.359,13.359,0,0,0-.759-2.82.756.756,0,0,1,.233-.871l3.813-3.039-.765-1.325-4.542,1.786a.763.763,0,0,1-.865-.23A14.248,14.248,0,0,0,4608-57.35a.755.755,0,0,1-.228-.865l1.785-4.539-1.323-.767-3.042,3.814a.764.764,0,0,1-.862.234,14.275,14.275,0,0,0-2.826-.754.756.756,0,0,1-.631-.635l-.722-4.824h-1.543l-.724,4.824a.756.756,0,0,1-.63.635,14.225,14.225,0,0,0-2.825.754.766.766,0,0,1-.863-.235l-3.031-3.814-1.334.768,1.786,4.539a.754.754,0,0,1-.228.865,14.184,14.184,0,0,0-2.065,2.074.764.764,0,0,1-.865.23l-4.547-1.786-.763,1.325,3.813,3.04a.756.756,0,0,1,.234.868,13.412,13.412,0,0,0-.757,2.821.758.758,0,0,1-.635.631l-4.815.724v1.529l4.815.725a.758.758,0,0,1,.635.631,13.529,13.529,0,0,0,.757,2.823.753.753,0,0,1-.234.866l-3.812,3.04.764,1.331,4.546-1.785a.76.76,0,0,1,.863.227,14.388,14.388,0,0,0,2.067,2.068.756.756,0,0,1,.228.867l-1.786,4.538,1.334.768,3.031-3.815a.764.764,0,0,1,.862-.235,14.223,14.223,0,0,0,2.826.754.759.759,0,0,1,.63.635l.724,4.824Zm2.2,1.518h-2.848a.758.758,0,0,1-.75-.646l-.74-4.932a15.554,15.554,0,0,1-2.053-.548l-3.1,3.9a.757.757,0,0,1-.972.184l-2.465-1.421a.758.758,0,0,1-.327-.934l1.825-4.64a16.232,16.232,0,0,1-1.5-1.5l-4.649,1.824a.755.755,0,0,1-.934-.329l-1.413-2.462a.758.758,0,0,1,.184-.97l3.9-3.1a15.3,15.3,0,0,1-.552-2.061l-4.921-.74a.757.757,0,0,1-.646-.748v-2.835a.757.757,0,0,1,.646-.75l4.92-.74a15.024,15.024,0,0,1,.551-2.06l-3.894-3.1a.758.758,0,0,1-.184-.97l1.413-2.454a.759.759,0,0,1,.934-.33l4.648,1.824a15.323,15.323,0,0,1,1.5-1.508l-1.825-4.64a.758.758,0,0,1,.327-.934l2.465-1.422a.759.759,0,0,1,.972.185l3.1,3.9a15.105,15.105,0,0,1,2.053-.548l.74-4.931a.759.759,0,0,1,.75-.647h2.848a.759.759,0,0,1,.749.647l.738,4.931a15.165,15.165,0,0,1,2.056.548l3.11-3.9a.76.76,0,0,1,.972-.182l2.453,1.422a.756.756,0,0,1,.325.933l-1.825,4.64a15.481,15.481,0,0,1,1.5,1.508l4.641-1.824a.761.761,0,0,1,.933.328l1.42,2.455a.758.758,0,0,1-.184.972l-3.9,3.1a14.864,14.864,0,0,1,.554,2.061l4.921.74a.758.758,0,0,1,.646.75v2.835a.757.757,0,0,1-.646.748l-4.923.74a14.745,14.745,0,0,1-.553,2.061l3.9,3.1a.757.757,0,0,1,.184.972l-1.42,2.453a.759.759,0,0,1-.933.326l-4.643-1.817a15.756,15.756,0,0,1-1.5,1.5l1.825,4.64a.757.757,0,0,1-.325.933l-2.453,1.422a.759.759,0,0,1-.972-.184l-3.11-3.9a15.677,15.677,0,0,1-2.056.548l-.738,4.932a.758.758,0,0,1-.749.646Z" transform="translate(-4534.505 67.203)"/></g></g><g transform="translate(992 -1574)"><circle class="d" cx="51.5" cy="51.5" r="51.5" transform="translate(443 6910)"/><g transform="translate(473.78 6906)"><path class="e" d="M-119.407,182.336l11.04-11.04a7.279,7.279,0,0,0,2.146-5.178,7.281,7.281,0,0,0-2.146-5.181,7.335,7.335,0,0,0-10.361,0l-.679.674-.676-.674a7.282,7.282,0,0,0-5.181-2.143,7.277,7.277,0,0,0-5.181,2.143,7.278,7.278,0,0,0-2.146,5.181,7.274,7.274,0,0,0,2.146,5.178Zm-9.224-19.587a4.876,4.876,0,0,1,6.734,0l2.49,2.492,2.49-2.493a4.772,4.772,0,0,1,6.737,0,4.732,4.732,0,0,1,1.394,3.368,4.727,4.727,0,0,1-1.394,3.364l-9.227,9.227-9.224-9.227a4.717,4.717,0,0,1-1.4-3.364A4.722,4.722,0,0,1-128.631,162.749Z" transform="translate(180.171 -149.818)"/><path class="e" d="M-130.347,200.415l-8.425-3.89.507-.554a9.7,9.7,0,0,0,2.559-6.552v-6.527a8.836,8.836,0,0,0-8.827-8.824H-146.3a8.835,8.835,0,0,0-8.825,8.824v6.238a10.135,10.135,0,0,0,2.622,6.833l.5.556-8.5,3.9a7.92,7.92,0,0,0-4.56,7.154v5.268l.632.372a40.431,40.431,0,0,0,19,4.733,40.623,40.623,0,0,0,19.006-4.733l.63-.372v-5.268A7.924,7.924,0,0,0-130.347,200.415Zm-22.211-11.285v-1.889l.428-.1c3.713-.838,8.183-2.342,10.243-6.556l-2.366-1c-1.524,2.973-4.69,4.126-7.623,4.858l-.682.171v-1.725a6.266,6.266,0,0,1,6.26-6.259h1.765a6.223,6.223,0,0,1,6.2,5.667l.086.918-.849-.359c-.171-.072-.346-.15-.526-.235L-140.8,184.9a14.685,14.685,0,0,0,2.131.828l.4.116v3.574a7.075,7.075,0,0,1-2.26,5.212,7.124,7.124,0,0,1-4.916,1.929c-.147,0-.295,0-.443-.013A7.309,7.309,0,0,1-152.558,189.13Zm24.214,22.213-.3.152a39.043,39.043,0,0,1-16.767,3.884,39.229,39.229,0,0,1-16.765-3.886l-.306-.152v-3.77a5.34,5.34,0,0,1,3.072-4.827l9.911-4.55.227.1a9.319,9.319,0,0,0,3.217.808,9.481,9.481,0,0,0,4.561-.808l.229-.1,9.843,4.544a5.349,5.349,0,0,1,3.082,4.831Z" transform="translate(165.052 -142.704)"/><path class="e" d="M-141.631,159.736v43.142l11.9-10.3h33.906a7.074,7.074,0,0,0,7.066-7.065V152.67h-45.8A7.075,7.075,0,0,0-141.631,159.736Zm50.3,25.778a4.5,4.5,0,0,1-4.5,4.5h-34.863l-8.375,7.251V159.736a4.507,4.507,0,0,1,4.5-4.5h43.238Z" transform="translate(175.96 -152.67)"/></g></g><g transform="translate(283 -260.854)"><circle class="a" cx="49.5" cy="49.5" r="49.5" transform="translate(1152 5773.854)"/><g transform="translate(1169.972 5770.123)"><path class="c" d="M4226.209,343.95l5.019,18.749,6.8-1.82-5.018-18.749-6.8,1.82Zm4.455,20.524a.805.805,0,0,1-.4-.108.791.791,0,0,1-.371-.484l-5.43-20.289a.8.8,0,0,1,.564-.976l8.338-2.232a.8.8,0,0,1,.977.564l5.43,20.289a.8.8,0,0,1-.565.976l-8.337,2.232a.785.785,0,0,1-.206.028Z" transform="translate(-4224.437 -305.472)"/><path class="c" d="M4237.442,362.4l40.375,1.023a66.434,66.434,0,0,1-9.98-37.242l-34.45,21.068,4.054,15.151Zm41.943,2.656a.141.141,0,0,1-.023,0h-.021l-42.534-1.077a.8.8,0,0,1-.749-.59l-4.365-16.3a.8.8,0,0,1,.354-.887L4268.339,324a.8.8,0,0,1,1.208.758,63.873,63.873,0,0,0,10.369,38.9.8.8,0,0,1-.53,1.394Z" transform="translate(-4222.801 -309.199)"/><path class="c" d="M4271.574,314.02a5.717,5.717,0,0,0-1.484.193c-7.008,1.88-9.247,17.185-4.891,33.418,4.013,14.975,12.558,26.705,19.447,26.705h0a5.793,5.793,0,0,0,1.495-.195c7-1.881,9.234-17.186,4.879-33.419-4-14.974-12.544-26.7-19.446-26.7Zm13.072,61.909h0c-7.7,0-16.724-11.988-20.987-27.886-4.738-17.657-2.094-33.194,6.017-35.371a7.356,7.356,0,0,1,1.9-.246c7.716,0,16.738,11.986,20.985,27.882,4.74,17.657,2.1,33.194-6,35.372a7.36,7.36,0,0,1-1.909.249Z" transform="translate(-4216.094 -311.791)"/><path class="c" d="M4273.1,314.607c-4.093,5.565-4.609,18.044-1.208,30.734s10.083,23.237,16.4,26c4.1-5.543,4.611-18.017,1.207-30.72s-10.085-23.254-16.4-26.017Zm15.452,58.5a.776.776,0,0,1-.276-.05c-7.041-2.6-14.244-13.566-17.925-27.3s-2.924-26.84,1.878-32.618a.8.8,0,0,1,.889-.239c7.036,2.592,14.239,13.568,17.922,27.316s2.931,26.85-1.876,32.606a.8.8,0,0,1-.611.286Z" transform="translate(-4214.574 -311.696)"/><path class="c" d="M4270.9,337.437c.229,1.042.468,2.027.733,2.993.244.918.527,1.892.858,2.965a19.029,19.029,0,0,0,2.187-.441,14.691,14.691,0,0,0,5.4-2.595c1.136-.936,1.678-1.879,1.487-2.584-.264-.981-2.006-1.639-4.334-1.639a17.679,17.679,0,0,0-6.333,1.3Zm1.03,7.622a.8.8,0,0,1-.759-.557c-.428-1.348-.782-2.544-1.079-3.658-.321-1.186-.614-2.4-.886-3.718a.794.794,0,0,1,.448-.885,19.116,19.116,0,0,1,7.579-1.7c3.2,0,5.4,1.053,5.875,2.818.365,1.355-.35,2.857-2.013,4.229a16.313,16.313,0,0,1-6.01,2.906,19.52,19.52,0,0,1-3.082.56c-.025,0-.05,0-.074,0Z" transform="translate(-4214.313 -306.788)"/><path class="c" d="M4241.452,357.044l14.394,26.1,6.075-2.594-12.872-23.129-7.6-.381Zm14.044,27.918a.8.8,0,0,1-.7-.413l-15.434-27.988a.8.8,0,0,1,.023-.807.829.829,0,0,1,.715-.374l9.466.476a.8.8,0,0,1,.658.408l13.517,24.288a.81.81,0,0,1,.058.648.8.8,0,0,1-.441.473l-7.552,3.224a.8.8,0,0,1-.312.065Z" transform="translate(-4221.082 -302.073)"/><path class="c" d="M4239.785,349.979a.8.8,0,0,1-.206-1.567l24.967-6.7a.8.8,0,0,1,.412,1.54l-24.967,6.7a.8.8,0,0,1-.206.027Z" transform="translate(-4221.145 -305.171)"/><path class="c" d="M4294.687,332.91a.8.8,0,0,1-.205-1.567l8.25-2.207a.8.8,0,1,1,.412,1.54l-8.25,2.207a.851.851,0,0,1-.206.027Z" transform="translate(-4208.723 -308.017)"/><path class="c" d="M4304.617,340.765h-8.527a.8.8,0,1,1,0-1.6h8.527a.8.8,0,0,1,0,1.6Z" transform="translate(-4208.407 -305.741)"/><path class="c" d="M4303.531,351.316a.778.778,0,0,1-.206-.027l-8.239-2.207a.8.8,0,1,1,.413-1.54l8.239,2.207a.8.8,0,0,1-.207,1.567Z" transform="translate(-4208.586 -303.853)"/><path class="c" d="M4285.885,319.534a.8.8,0,0,1-.564-1.361l6.031-6.031a.8.8,0,1,1,1.129,1.128l-6.031,6.031a.8.8,0,0,1-.565.233Z" transform="translate(-4210.715 -311.909)"/><path class="c" d="M4291.213,325.672a.8.8,0,0,1-.4-1.489l7.4-4.264a.8.8,0,1,1,.794,1.382l-7.4,4.264a.794.794,0,0,1-.4.107Z" transform="translate(-4209.51 -310.12)"/></g></g><g transform="translate(284 119)"><circle class="d" cx="49.693" cy="49.693" r="49.693" transform="translate(1150.616 5558)"/><g transform="translate(1150.616 5576.038)"><g transform="translate(21.211)"><path class="e" d="M8224.139,2079.873a1.545,1.545,0,0,0,1.544-1.542v-11.446a1.119,1.119,0,0,1,1.118-1.119h7.1a1.118,1.118,0,0,1,1.117,1.119v11.446a1.544,1.544,0,0,0,3.088,0v-11.446a4.209,4.209,0,0,0-4.205-4.205h-7.1a4.209,4.209,0,0,0-4.205,4.205v11.446A1.543,1.543,0,0,0,8224.139,2079.873Z" transform="translate(-8222.596 -2041.381)"/><path class="e" d="M8380.234,1989.457a1.543,1.543,0,0,0,1.543-1.542v-23.869a1.121,1.121,0,0,1,1.118-1.119h5.323a1.122,1.122,0,0,1,1.122,1.119v23.869a1.543,1.543,0,0,0,3.086,0v-23.869a4.21,4.21,0,0,0-4.208-4.2H8382.9a4.209,4.209,0,0,0-4.2,4.2v23.869A1.544,1.544,0,0,0,8380.234,1989.457Z" transform="translate(-8359.836 -1950.966)"/><path class="e" d="M8538,1931.031a1.546,1.546,0,0,0,1.545-1.543v-38.9a1.121,1.121,0,0,1,1.118-1.12h6.211a1.122,1.122,0,0,1,1.121,1.12v38.663a1.542,1.542,0,0,0,3.085,0v-38.663a4.211,4.211,0,0,0-4.206-4.206h-6.211a4.21,4.21,0,0,0-4.205,4.206v38.9A1.545,1.545,0,0,0,8538,1931.031Z" transform="translate(-8501.073 -1886.378)"/></g><g transform="translate(0 43.317)"><path class="e" d="M8062.582,2279.646a1.567,1.567,0,0,1-1.263-2.492l4.868-6.642a5.066,5.066,0,0,1,3.942-2.1c16.813-.512,29.064-1.168,30.485-1.632,1.253-.49,13.659-6.561,21.764-10.557-1.133-2.406-3.272-2.51-5.63-1.3l-14.747,6.36-18.609.508c-2.821.073-6.065-.186-6.4-3.7a2.911,2.911,0,0,1,2.812-3.206l16.2-.513c3.772-.115,3.5-6.2-.183-6.089-.071,0-8.025.277-14.932.849-2.622.222-5.9-.459-10.35-1a10.926,10.926,0,0,0-9.7,4.788l-.106.163-10.894,14.868a1.565,1.565,0,1,1-2.524-1.851l10.847-14.8a14.009,14.009,0,0,1,12.751-6.274c4.322.525,7.522,1.166,9.716.985,6.462-.535,14.733-.861,15.269-.861,7.841,0,7.876,12.12.2,12.352l-15.934.5c.269.68,1.3.7,3.148.654l18-.492,14.1-6.079c3.945-2.026,7.968-1.15,9.827,2.875a3.045,3.045,0,0,1-1.346,4c-2.095,1.033-20.348,10.03-22.159,10.738-2.014.788-18.248,1.435-31.513,1.839a1.953,1.953,0,0,0-1.512.824l-4.869,6.643A1.561,1.561,0,0,1,8062.582,2279.646Z" transform="translate(-8047.01 -2244.948)"/></g></g></g></g></svg>