<svg xmlns="http://www.w3.org/2000/svg" width="124.3" height="34.566" viewBox="0 0 124.3 34.566"><defs><style>.a{fill:#02a09e;}</style></defs><g transform="translate(-302.388 -268.276)"><g transform="translate(302.388 268.276)"><g transform="translate(40.823 1.053)"><path class="a" d="M379.208,285.3a8.1,8.1,0,0,1-2.682-1.26l1.184-2.627a8.041,8.041,0,0,0,2.3,1.142,8.664,8.664,0,0,0,2.671.431,4.264,4.264,0,0,0,2.2-.443,1.332,1.332,0,0,0,.711-1.172,1.125,1.125,0,0,0-.421-.9,3.182,3.182,0,0,0-1.076-.569q-.657-.216-1.777-.474a24.527,24.527,0,0,1-2.821-.818,4.585,4.585,0,0,1-1.885-1.314,3.548,3.548,0,0,1-.786-2.412,4.2,4.2,0,0,1,.711-2.38,4.783,4.783,0,0,1,2.143-1.689,8.725,8.725,0,0,1,3.5-.625,11.6,11.6,0,0,1,2.822.345,8.341,8.341,0,0,1,2.412.991l-1.077,2.648a8.415,8.415,0,0,0-4.177-1.183,3.923,3.923,0,0,0-2.165.472,1.448,1.448,0,0,0-.7,1.25,1.22,1.22,0,0,0,.808,1.152,12.765,12.765,0,0,0,2.465.743,24.583,24.583,0,0,1,2.822.818,4.676,4.676,0,0,1,1.884,1.292,3.466,3.466,0,0,1,.786,2.39,4.116,4.116,0,0,1-.721,2.358,4.844,4.844,0,0,1-2.165,1.692,8.855,8.855,0,0,1-3.511.624A12.347,12.347,0,0,1,379.208,285.3Z" transform="translate(-376.526 -270.188)"/><path class="a" d="M411.394,277.963a4.907,4.907,0,0,1,1.443,3.865v6.613h-3.144V287q-.949,1.617-3.533,1.617a5.479,5.479,0,0,1-2.315-.452,3.46,3.46,0,0,1-1.5-1.249,3.256,3.256,0,0,1-.517-1.809,3.015,3.015,0,0,1,1.217-2.541,6.182,6.182,0,0,1,3.758-.927h2.671a2.146,2.146,0,0,0-.667-1.691,2.942,2.942,0,0,0-2-.591,5.856,5.856,0,0,0-1.819.291,4.818,4.818,0,0,0-1.519.786l-1.206-2.347a7.279,7.279,0,0,1,2.272-1.035,10.222,10.222,0,0,1,2.724-.365A6.029,6.029,0,0,1,411.394,277.963Zm-2.865,7.99a2.183,2.183,0,0,0,.948-1.173v-1.185h-2.3q-2.067,0-2.067,1.357a1.207,1.207,0,0,0,.505,1.023,2.278,2.278,0,0,0,1.389.378A2.922,2.922,0,0,0,408.529,285.953Z" transform="translate(-387.897 -273.107)"/><path class="a" d="M445.628,277.963a5.224,5.224,0,0,1,1.281,3.845v6.633h-3.36v-6.116a3.136,3.136,0,0,0-.57-2.056,2.008,2.008,0,0,0-1.627-.68,2.393,2.393,0,0,0-1.872.766,3.287,3.287,0,0,0-.689,2.27v5.816h-3.36v-6.116q0-2.735-2.2-2.736a2.37,2.37,0,0,0-1.852.766,3.287,3.287,0,0,0-.689,2.27v5.816h-3.36V276.854h3.209v1.336a4.25,4.25,0,0,1,1.584-1.12,5.319,5.319,0,0,1,2.056-.387,4.982,4.982,0,0,1,2.217.484,3.931,3.931,0,0,1,1.594,1.41,4.738,4.738,0,0,1,1.8-1.4,5.657,5.657,0,0,1,2.379-.494A4.666,4.666,0,0,1,445.628,277.963Z" transform="translate(-399.357 -273.107)"/><path class="a" d="M476.554,277.963A4.906,4.906,0,0,1,478,281.828v6.613h-3.145V287q-.95,1.617-3.532,1.617a5.476,5.476,0,0,1-2.315-.452,3.457,3.457,0,0,1-1.5-1.249,3.247,3.247,0,0,1-.517-1.809,3.015,3.015,0,0,1,1.216-2.541,6.186,6.186,0,0,1,3.759-.927h2.672a2.147,2.147,0,0,0-.668-1.691,2.942,2.942,0,0,0-2-.591,5.859,5.859,0,0,0-1.82.291,4.812,4.812,0,0,0-1.519.786l-1.205-2.347a7.259,7.259,0,0,1,2.272-1.035,10.218,10.218,0,0,1,2.723-.365A6.025,6.025,0,0,1,476.554,277.963Zm-2.864,7.99a2.187,2.187,0,0,0,.949-1.173v-1.185h-2.306q-2.068,0-2.067,1.357a1.21,1.21,0,0,0,.505,1.023,2.281,2.281,0,0,0,1.39.378A2.922,2.922,0,0,0,473.69,285.953Z" transform="translate(-417.178 -273.107)"/><path class="a" d="M498.84,285.929a3.436,3.436,0,0,1-1.215.549,6.159,6.159,0,0,1-1.52.183,4.51,4.51,0,0,1-3.2-1.056,4.031,4.031,0,0,1-1.132-3.1v-4.759h-1.787v-2.584h1.787V272.34h3.36v2.821h2.885v2.584h-2.885v4.716a1.588,1.588,0,0,0,.377,1.132,1.4,1.4,0,0,0,1.067.4,2.149,2.149,0,0,0,1.356-.431Z" transform="translate(-427.512 -271.155)"/><path class="a" d="M517.7,277.963a4.906,4.906,0,0,1,1.443,3.865v6.613H516V287q-.948,1.617-3.533,1.617a5.48,5.48,0,0,1-2.315-.452,3.454,3.454,0,0,1-1.5-1.249,3.247,3.247,0,0,1-.517-1.809,3.016,3.016,0,0,1,1.217-2.541,6.184,6.184,0,0,1,3.758-.927h2.672a2.14,2.14,0,0,0-.669-1.691,2.939,2.939,0,0,0-2-.591,5.864,5.864,0,0,0-1.82.291,4.812,4.812,0,0,0-1.519.786l-1.205-2.347a7.283,7.283,0,0,1,2.272-1.035,10.226,10.226,0,0,1,2.724-.365A6.028,6.028,0,0,1,517.7,277.963Zm-2.865,7.99a2.187,2.187,0,0,0,.949-1.173v-1.185H513.48q-2.067,0-2.067,1.357a1.21,1.21,0,0,0,.505,1.023,2.281,2.281,0,0,0,1.39.378A2.922,2.922,0,0,0,514.837,285.953Z" transform="translate(-435.668 -273.107)"/><g transform="translate(0 19.116)"><path class="a" d="M385.816,304.9v11.117h-1.159v-5.129H377.7v5.129h-1.175V304.9H377.7v4.956h6.955V304.9Z" transform="translate(-376.526 -304.905)"/><path class="a" d="M415.387,315.006v1.016h-7.861V304.906h7.622v1.018H408.7v3.954h5.749v1H408.7v4.13h6.686Z" transform="translate(-390.456 -304.905)"/><path class="a" d="M439.894,313.053H433.7l-1.333,2.97h-1.224l5.081-11.117h1.16l5.081,11.117h-1.238Zm-.429-.954-2.668-5.97-2.667,5.97Z" transform="translate(-401.069 -304.905)"/><path class="a" d="M462.605,304.9h1.176v10.1h6.225v1.016h-7.4V304.9Z" transform="translate(-415.207 -304.905)"/><path class="a" d="M487.882,305.923h-3.906V304.9h8.987v1.018h-3.906v10.1h-1.176v-10.1Z" transform="translate(-424.81 -304.905)"/><path class="a" d="M520.546,304.9v11.117h-1.159v-5.129h-6.955v5.129h-1.176V304.9h1.176v4.956h6.955V304.9Z" transform="translate(-437.069 -304.905)"/></g></g><circle class="a" cx="2.824" cy="2.824" r="2.824" transform="translate(13.376 23.71)"/><path class="a" d="M336.953,285.533a16.9,16.9,0,0,0-.088-1.72,17.313,17.313,0,1,0,.042,2.934c0-.03,0-.059.007-.089.023-.363.039-.729.039-1.1v-.015A.081.081,0,0,1,336.953,285.533Zm-34.039.026a16.755,16.755,0,0,1,14.574-16.609,7.494,7.494,0,0,1,4.621,1.16,10.127,10.127,0,0,1,4.509,7.482h-.783c-1.776-4.584-5.941-6.079-8.645-6.564a7.771,7.771,0,0,0-7.332,2.719,5.772,5.772,0,0,0-1.15,3.9c.575,4.325,5.413,5.985,5.413,5.985l5.185,2.382c8.175,3.407,9.821,8,9.658,11.434-.035.419-.389,2.632-3.868,3.953a16.737,16.737,0,0,1-22.182-15.845Zm18.5-9.012a2.825,2.825,0,1,1-2.824-2.825A2.825,2.825,0,0,1,321.412,276.547Z" transform="translate(-302.388 -268.276)"/></g><path class="a" d="M320,322.085s-7.794-2.034-7.278-8.71a5.439,5.439,0,0,0,1.175,6.432l2.576,1.173,2,1.105" transform="translate(-4.385 -20.266)"/><path class="a" d="M312.837,313.375s3.365,9.206,11.336,9.206l-2.061.241-3.476-.947-2.446-.912-1.976-2.048-1.377-1.394-.43-2.065" transform="translate(-4.502 -20.266)"/></g></svg>