<svg xmlns="http://www.w3.org/2000/svg" width="525.112" height="462.638" viewBox="0 0 525.112 462.638"><defs><style>.a{fill:#36e3d8;}.b{fill:#6a3008;}.c{fill:#ffa30f;}.d{fill:#7e3d10;}.e{fill:#572503;}.f{fill:#b26631;}.g{fill:#2b478b;}.h{fill:#b8fcf6;}.i{fill:#dffdfb;}.j{fill:#d1854f;}.k{fill:#ea8700;}.l{fill:#f3f8ff;}.m{fill:#02a09e;}.n{fill:none;stroke:#001a3a;stroke-width:2px;}</style></defs><g transform="translate(-172.507 -7864.363)"><path class="a" d="M473.617,401.775H51.232c-9.34-38.489-17.6-75.444-24.559-109.839-8.737-43.2-15.427-82.448-19.885-116.664C-4.592,87.9-1.654,32.529,15.521,10.686a28.516,28.516,0,0,1,9.371-7.933A26.007,26.007,0,0,1,36.838,0,44.122,44.122,0,0,1,52.433,3.247,97.9,97.9,0,0,1,71.319,13.369a210.99,210.99,0,0,1,22.4,17.57c8.145,7.221,16.939,15.831,26.138,25.59,10.673,11.324,21.561,21.937,32.358,31.545,10.365,9.222,20.94,17.779,31.433,25.432a349.015,349.015,0,0,0,30.435,19.907,300.583,300.583,0,0,0,29.365,14.97A270.444,270.444,0,0,0,271.673,159a255.59,255.59,0,0,0,27.008,6.858,254.91,254.91,0,0,0,25.723,3.684c7.959.728,16.157,1.1,24.367,1.1,26.406,0,50.082-3.7,71.732-7.7,3.428-.634,6.866-1.286,9.9-1.861,16.541-3.136,30.826-5.844,42.488-5.844a46.041,46.041,0,0,1,15.021,2.134,25.544,25.544,0,0,1,11.225,7.415c5.523,6.3,8.771,16.1,9.931,29.984,1.205,14.423.2,33.572-3.084,58.539C498.389,311.1,487.5,361.051,473.618,401.774Z" transform="translate(172.508 7924.228)"/><g transform="translate(275.811 7864.363)"><path class="b" d="M896.837,2834.128s-25.148,50.308-50.695,85.037c-10.162,13.821-20.392,25.174-29.12,29.909-8.545,4.632-15.778,11.831-21.762,19.806-15.5,20.653-22.656,46.508-22.656,46.508l-65.323-98.824s2.229-96.6,10.072-112.76c11.431-23.548,16.953-71.126,21.344-80.6,3.258-7.027,12.561-43.323,13.454-45.991.387-1.149,3.483-2.912,7.5-2.909,3.226,0,8.7,3.119,10.085,9.526,6.985,32.388-1.423,53.751-1.327,54.7,2.464,24.891-4.944,43.369.25,48.261.194.182.553.1,1.061-.229,9-5.783,64.9-87.266,71.781-89.025,7.27-1.855,55.332,136.588,55.332,136.588Z" transform="translate(-624.051 -2638.393)"/><path class="c" d="M739,3172.87s-.89,43.916-3.436,103.063H570.792c37.664-80.316,70.407-147.914,70.407-147.914s93.818,2.865,97.8,44.851Z" transform="translate(-570.792 -2815.431)"/><path class="d" d="M1070.139,2641.974l-20.228,29.656-19.85,29.1a4.543,4.543,0,0,1-4.128,1.822c-4.761-.452-10.656-7.323-15.247-11.125l-.468-.384a14.33,14.33,0,0,1-1.9-20.117l30.339-36.674v0l9-10.876a14.329,14.329,0,0,1,20.117-1.9l.468.383a14.334,14.334,0,0,1,1.9,20.121Z" transform="translate(-740.24 -2616.503)"/><path class="b" d="M1063.271,2681.9l-19.85,29.1a4.544,4.544,0,0,1-4.128,1.822l12.723-68.3c.027.383,2.189,31.028,11.255,37.378Z" transform="translate(-753.601 -2626.77)"/><path class="e" d="M883.487,3071.955c-10.162,13.822-20.392,25.174-29.12,29.909-8.545,4.632-15.779,11.831-21.763,19.805-6.884-3.208-14.733-6.973-22.4-10.7a12.776,12.776,0,0,1-.55-22.719c.089-.048.177-.095.263-.145,8.574-4.9,17.357-22.228,17.357-22.228l56.216,6.079Z" transform="translate(-661.394 -2791.184)"/><path class="f" d="M776.731,2681.541l-5.293,21.368s4.627,1.893,7.6.423,5.4-20.641-2.305-21.791Z" transform="translate(-649.084 -2641.216)"/><path class="g" d="M943.873,2906.282H830.062a20.415,20.415,0,0,1-20.355-20.355V2635.766a20.414,20.414,0,0,1,20.355-20.354H943.873a20.413,20.413,0,0,1,20.352,20.354v250.162a20.414,20.414,0,0,1-20.352,20.355Z" transform="translate(-664.016 -2615.412)"/><path class="h" d="M961.468,2642.3v244.364a15.061,15.061,0,0,1-14.96,15.071H837.226a15.059,15.059,0,0,1-14.958-15.071V2642.3a15.059,15.059,0,0,1,14.958-15.071H946.508a15.06,15.06,0,0,1,14.96,15.071Z" transform="translate(-668.919 -2620.025)"/><path class="i" d="M946.508,2627.234,838.578,2901.74h-1.352a15.059,15.059,0,0,1-14.958-15.071V2642.3a15.059,15.059,0,0,1,14.958-15.071Z" transform="translate(-668.919 -2620.025)"/><path class="g" d="M940.3,2632.8H894.626a6.784,6.784,0,0,1-6.763-6.765v-1.063a6.783,6.783,0,0,1,6.763-6.764H940.3a6.783,6.783,0,0,1,6.763,6.764v1.063a6.783,6.783,0,0,1-6.763,6.765Z" transform="translate(-694.513 -2616.503)"/><path class="d" d="M1068.2,2823.225l-3.016,1.147-20.286,7.709a12.9,12.9,0,0,1-1.437.456,13.856,13.856,0,0,1-16.383-8.463l-.3-.778a13.857,13.857,0,0,1,8.007-17.824l18.913-7.186,1.374-.523,3.015-1.146a13.852,13.852,0,0,1,17.82,8.007l.3.779a13.856,13.856,0,0,1-8.007,17.822Z" transform="translate(-748.367 -2685.768)"/><path class="j" d="M1055.243,2830.92c-3.386,1.283-9.515,3.56-12.792,4.03-.927.134-2.638-.37-4.231-2.117a12.492,12.492,0,0,1-2.551-4.6,14.588,14.588,0,0,1-.695-2.937,12.407,12.407,0,0,1,.111-3.493,3.486,3.486,0,0,1,1.936-2.492s.011,0,.016-.007a80.074,80.074,0,0,1,12.3-4.824,5.344,5.344,0,0,1,6.631,2.963l.425,1.164,2.179,5.962a5.109,5.109,0,0,1-3.33,6.352Z" transform="translate(-751.888 -2692.998)"/><path class="f" d="M1056.572,2833.055c-3.385,1.283-9.515,3.56-12.792,4.03-.927.134-2.638-.371-4.231-2.117-.171-.4-.328-.816-.475-1.264a14.579,14.579,0,0,1-.695-2.937,12.467,12.467,0,0,1,.111-3.493,3.491,3.491,0,0,1,1.935-2.492c.005,0,.013,0,.016-.007a79.93,79.93,0,0,1,12.3-4.823,5.825,5.825,0,0,1,4.977.789l2.179,5.963a5.11,5.11,0,0,1-3.33,6.352Z" transform="translate(-753.216 -2695.133)"/><path class="d" d="M1062.623,2875.2l-15.641,4.259a8.983,8.983,0,0,1-11-6.289l-.484-1.771a8.983,8.983,0,0,1,6.29-10.995l15.644-4.26a8.982,8.982,0,0,1,10.993,6.29l.484,1.771a8.984,8.984,0,0,1-6.291,11Z" transform="translate(-752 -2709.224)"/><path class="j" d="M1055.936,2877.958c-2.874.767-8.068,2.121-10.791,2.269-.99.055-2.973-.783-4.267-3.386a10.506,10.506,0,0,1-.8-2.206,10.324,10.324,0,0,1-.349-2.3,8.918,8.918,0,0,1,.349-2.677,2.766,2.766,0,0,1,1.77-1.787c.005,0,.01,0,.013-.007a69.85,69.85,0,0,1,10.45-2.915c2.392-.419,4.661.73,5.22,2.7l.4,1.409,1.2,4.23c.557,1.958-.856,4.042-3.2,4.665Z" transform="translate(-753.77 -2712.749)"/><path class="f" d="M1056.469,2879.462c-2.874.767-8.068,2.12-10.791,2.269-.99.055-2.973-.783-4.267-3.386a9.869,9.869,0,0,1-.314-2.157,8.93,8.93,0,0,1,.349-2.678,2.778,2.778,0,0,1,1.767-1.787c.008,0,.013,0,.016-.007a69.444,69.444,0,0,1,10.449-2.91,4.725,4.725,0,0,1,4.79,1.761l1.2,4.23c.557,1.959-.855,4.042-3.2,4.665Z" transform="translate(-754.305 -2714.252)"/><path class="k" d="M659.946,3154.428s32.2,30.839,53.9,42.746l16.434-11.657v17.194s32.321,5.718,42.516,0v-46.892l-90.78-45.507-22.074,44.116Z" transform="translate(-605.58 -2808.523)"/><path class="l" d="M681.2,3065.876s-20.447,30.591-40.769,63.3c0,0,42.827,29.46,66.045,38.1l30.456-34.881-4.348,41.988s26.953,9.823,39.457,7.259c0,0-.79-38.09-.782-63.048,0,0-74.092-20.767-90.06-52.717Z" transform="translate(-597.964 -2791.184)"/><path class="c" d="M715.532,3189.962a5.07,5.07,0,1,1,5.022,5.115,5.07,5.07,0,0,1-5.022-5.115Z" transform="translate(-627.27 -2837.642)"/><path class="d" d="M1066.725,2769.584c-.111.041-.222.078-.338.115l-20.508,5.266c-9.019,2.316-18.343-2.563-20.722-10.843l-1.22-4.242c-2.289-7.949,2.628-16.263,11.007-18.958l6.771-1.739,13.739-3.527c9.016-2.317,18.343,2.562,20.722,10.842l1.22,4.242c2.256,7.842-2.5,16.033-10.671,18.843Z" transform="translate(-747.39 -2662.107)"/><path class="j" d="M1066.741,2768.971l-9.964,4.49-.063.015a10.229,10.229,0,0,1-1.2.248c-.166.027-.338.045-.5.064a1.33,1.33,0,0,1-.211,0,1.585,1.585,0,0,1-1.376-2.239,9.9,9.9,0,0,0,.565-6.755l-.238-.869a.127.127,0,0,0-.008-.026l-.771-2.829a10.618,10.618,0,0,0-3.613-5.506c-.2-.167-.414-.323-.628-.471a2.862,2.862,0,0,1,.837-5.094c.021-.007.04-.012.063-.019l10.933-1.653c2.7-.734,5.308,1.346,6.044,4.049l.879,3.222,1.87,6.87c.734,2.707.093,5.767-2.611,6.5Z" transform="translate(-756.805 -2667.219)"/><path class="f" d="M1067.926,2771.817l-9.964,4.491-.063.015c-.233.044-.964.167-1.92.315a1.585,1.585,0,0,1-1.376-2.239,9.906,9.906,0,0,0,.565-6.756l-.238-.868a.116.116,0,0,0-.008-.026l-.771-2.829a10.612,10.612,0,0,0-3.613-5.506,2.791,2.791,0,0,1,1.569-1.117c.018-.007.042-.01.063-.018l10.935-1.654a4.973,4.973,0,0,1,5.562,2.822l1.87,6.87c.734,2.708.093,5.767-2.611,6.5Z" transform="translate(-757.989 -2670.066)"/><g transform="translate(189.885 103.573)"><ellipse class="m" cx="5.825" cy="5.825" rx="5.825" ry="5.825" transform="translate(27.59 48.905)"/><path class="m" d="M373.684,303.871a34.872,34.872,0,0,0-.181-3.548,35.711,35.711,0,1,0,.087,6.051c0-.062.01-.123.014-.184.048-.75.079-1.5.079-2.265v-.031A.183.183,0,0,1,373.684,303.871Zm-70.209.055a34.559,34.559,0,0,1,30.061-34.259,15.458,15.458,0,0,1,9.531,2.393c9.1,6.355,9.3,15.433,9.3,15.433h-1.615c-3.664-9.455-12.255-12.539-17.832-13.539a16.028,16.028,0,0,0-15.124,5.608,11.9,11.9,0,0,0-2.372,8.051c1.187,8.922,11.166,12.346,11.166,12.346l10.694,4.912c16.862,7.028,20.257,16.5,19.921,23.584-.072.864-.8,5.429-7.979,8.154a34.523,34.523,0,0,1-45.753-32.683Zm38.154-18.589a5.826,5.826,0,1,1-5.825-5.828A5.826,5.826,0,0,1,341.629,285.336Z" transform="translate(-302.388 -268.276)"/></g></g><line class="n" x2="520.463" transform="translate(177.157 8326.001)"/></g></svg>