<svg xmlns="http://www.w3.org/2000/svg" width="27.004" height="20.25" viewBox="0 0 27.004 20.25"><defs><style>.a{fill:#111821;}</style></defs><path class="a" d="M-1211.9,505.671c-1.534-4.174-14.142-6.912-15.368-5.105s5.509,4.148,5.509,4.148a10.331,10.331,0,0,0,1.734,5.29c1.639,2.1,5.527,2.43,5.527,2.43l-.708,1.043c-7.62-.228-7.588-7.761-7.588-7.761s-15.106-1.667-15.106,1.344c0,1.372,3.5,1.455,6.32,1.5a4.488,4.488,0,0,1,1.537-.044c.123,0,.248,0,.371,0l.267,0a21.581,21.581,0,0,1,2.919.234c.2.031.4.063.6.1l.141.025c.183.031.417.071.667.131l-.057-.005.068.162-.029.1c0,.03-.293-.015-.3.013-.411.008-.825.034-1.234.077l-.127-.027-.034,0-.672.048a9.836,9.836,0,0,0-2.252.292,1.065,1.065,0,0,0-.791,1.131c0,1.141,1.4,1.553,2.373,1.729.364.066.733.11,1.1.142q.314.027.63.041c.141.007.417-.056.447.139a.421.421,0,0,1-.373.459q-.4.011-.8.041a13.8,13.8,0,0,0-1.888.032,2.189,2.189,0,0,0-1.324.671,1.141,1.141,0,0,0-.221.7c0,.529.353.934,1.049,1.2a8.574,8.574,0,0,0,2.391.472h.533c.34.019.511.028.893.038.134.044.237.1.227.137.026.289-.084.336-.238.373-.236.017-1.1.021-1.1.021-1.664.185-3.3.5-3.3,1.482,0,.538.549.944,1.68,1.24.277.073.576.134.882.187h-.007a14.864,14.864,0,0,0,4.752.323h.038q.554,0,1.151-.011l.193,0,.006-.041c.6-.027,1.231-.059,1.91-.095C-1209.192,519.534-1210.369,509.845-1211.9,505.671Z" transform="translate(1237.904 -500)"/></svg>