<svg xmlns="http://www.w3.org/2000/svg" width="28.865" height="29.974" viewBox="0 0 28.865 29.974"><defs><style>.a{fill:#111821;isolation:isolate;}</style></defs><path class="a" d="M5372.29,596.019s2.225-7.146,0-7.146-7.731,12.417-5.271,16.166,9.372,10.191,16.4,1.874,7.38-11.245,6.326-11.831-5.487,6.6-6.256,6.214,1.09-2.631,3.593-6.8,1.088-4.408.325-3.96-5.906,8.45-6.8,7.873,7.058-10.009,5.71-11.292-7.7,9.5-8.726,9.047,6.8-9.368,5.069-10.395-8.918,9.945-8.918,9.945,6.159,4.363,1.668,11.036h-1.284s2.117-3.529,1.411-6.16A10,10,0,0,0,5372.29,596.019Z" transform="translate(-5360.613 641.839) rotate(-13)"/></svg>