<svg xmlns="http://www.w3.org/2000/svg" width="20.413" height="29.01" viewBox="0 0 20.413 29.01"><defs><style>.a{fill:#111821;}</style></defs><g transform="translate(-5644.337 -850.516)"><path class="a" d="M5662.651,875.293l-3.7-4.376-.976,2.143h-6.854l-.977-2.143-3.65,4.317a5.878,5.878,0,0,1-.4-.613,22.527,22.527,0,0,1-1.674-4.479,2.82,2.82,0,0,1,.372-2.151,8.784,8.784,0,0,1,2.1-2.332,2.052,2.052,0,0,0,.816-1.676,17.277,17.277,0,0,1,3.884-10.771,24.7,24.7,0,0,1,2.223-2.242c.667-.616.775-.592,1.468-.009a16.794,16.794,0,0,1,5.376,8.221,20.078,20.078,0,0,1,.741,5.077,1.585,1.585,0,0,0,.584,1.206,23.147,23.147,0,0,1,2.05,2.134,2.958,2.958,0,0,1,.593,2.818A25.367,25.367,0,0,1,5662.651,875.293Zm-8.106-13.091a2.055,2.055,0,1,0-2.156-2.052A2.021,2.021,0,0,0,5654.545,862.2Z" transform="translate(-0.001 0)"/><path class="a" d="M5652.2,860.562c.969-.071,1.229.113,1.35.865a2.74,2.74,0,0,1-.515,2.031,8.591,8.591,0,0,1-2.7,2.522,7.263,7.263,0,0,1-3.1-3.328,2.728,2.728,0,0,1-.084-1.37c.108-.691.4-.818,1.267-.684a2.414,2.414,0,0,0,1.25,2.026,1.008,1.008,0,0,0,1.288.019A2.3,2.3,0,0,0,5652.2,860.562Z" transform="translate(4.217 13.547)"/></g></svg>