<svg xmlns="http://www.w3.org/2000/svg" width="252.849" height="203.523" viewBox="0 0 252.849 203.523"><defs><style>.a{fill:#231f20;}</style></defs><g transform="translate(0.022 0.03)"><g transform="translate(-0.022 -0.03)"><path class="a" d="M75.617,14.113a4.166,4.166,0,0,0-3.956.49,3.5,3.5,0,0,0-1.068,3.221c.4,3.238-1.365,4.744-3.1,6.2a22.529,22.529,0,0,0-1.75,1.54c-.7.735-4.131,4.569-2.8,7.859a.438.438,0,0,1,0,.21q.718.315,1.418.683c.945.525,1.873,1.085,2.748,1.663a9.907,9.907,0,0,1,3.956-7.632c.543-.42,1.085-.788,1.61-1.155,1.873-1.243,2.836-1.978,2.678-3.868a5.724,5.724,0,0,1,2.171-5.059,6.687,6.687,0,0,1,6.407-.735c2.066.735,5.566-.28,7.894-2.258a65.519,65.519,0,0,0-6.634-4.744s0,.105,0,.14C83,13.063,78.681,15.059,75.617,14.113Zm26.467,27.149a5.951,5.951,0,0,0-5.444-.875,5.426,5.426,0,0,0-2.853,4.166c-.648,3.046-3.2,4.586-5.671,6.056-2.748,1.75-5.129,3.133-5.059,6.459a71.488,71.488,0,0,1,29.862-11.535c-.56-1.575-1.155-3.1-1.75-4.569A7.842,7.842,0,0,1,102.084,41.263ZM83.249,19.417a4.6,4.6,0,0,0-4.359.508,3.5,3.5,0,0,0-1.348,3.221c.263,3.2-1.75,4.569-3.606,5.794a15.981,15.981,0,0,0-1.47,1.033,7.352,7.352,0,0,0-2.993,7.474s0,.088,0,.14a36.916,36.916,0,0,1,3.273,2.871,9.277,9.277,0,0,1,4.516-6.424,9.436,9.436,0,0,1,.875-.578c1.855-1.208,2.906-1.978,2.836-3.973a6.109,6.109,0,0,1,3.063-5.426,7,7,0,0,1,7-.3c1.75.963,5.689.508,8.175-1.505a63.314,63.314,0,0,0-5.794-5.689h0C90.513,19.172,86.05,20.415,83.249,19.417ZM37.353,4.8a2.731,2.731,0,0,0-1.54,1.75A3.5,3.5,0,0,0,36.53,9.6c1.3,1.75.77,3.973.21,6.319-.928,4.008-2.1,8.98,3.991,14.669a1.839,1.839,0,0,1,.123.193,26.536,26.536,0,0,1,2.906-.525c-3.921-6.494-1.89-11.29-.385-14.844.805-1.873,1.435-3.361.91-4.446a5.636,5.636,0,0,1-.3-4.691,4.849,4.849,0,0,1,2.976-2.7c2.573-.84,2.818-1.383,3.168-3.606a54.842,54.842,0,0,0-8.752.945h0C40.959,2.648,40.486,3.523,37.353,4.8Zm59.3,28.007a6.109,6.109,0,0,0-5.514-.63,5.251,5.251,0,0,0-2.486,4.184c-.473,3.221-2.766,4.674-4.779,5.951l-.91.578c-.455.315-4.324,3.011-3.623,6.634a30.021,30.021,0,0,1,1.908,5.006c.91-2.836,3.5-4.376,5.794-5.776s4.236-2.556,4.691-4.709a7.439,7.439,0,0,1,4.079-5.514,8,8,0,0,1,7.352,1.015,5.846,5.846,0,0,0,6.879-.3,1.313,1.313,0,0,1,.228-.105,70.351,70.351,0,0,0-3.763-7,9.225,9.225,0,0,1-9.855.735Zm-6.6-7.229a4.9,4.9,0,0,0-4.866.245,4.1,4.1,0,0,0-2.118,3.5c.123,3.273-1.943,4.6-3.781,5.794l-.823.543c-3.063,2.1-4.219,4.5-3.5,7.107v.105a31.35,31.35,0,0,1,2.521,3.5,10.958,10.958,0,0,1,4.254-5.251l.945-.6c1.96-1.243,3.5-2.206,3.833-4.481a7,7,0,0,1,3.623-5.759,8.034,8.034,0,0,1,7.439.665,7.159,7.159,0,0,0,7.649-.7h.123a62.156,62.156,0,0,0-4.8-6.442C97.673,26.279,92.789,27.084,90.058,25.579Zm-82.27,3.5c1.628.525,2.013,2.241,2.433,4.079.84,3.746,2.048,8.875,13.058,10.03h.088a25.347,25.347,0,0,1,1.75-2.626C13.7,37.412,13.3,30.813,13.074,26.8c0-1.75-.175-2.836-.788-3.133A5.111,5.111,0,0,1,9.8,20.748a50.482,50.482,0,0,0-3.676,5.829l-.263.525a1.033,1.033,0,0,1,.228.315,3.046,3.046,0,0,0,1.7,1.645Zm21.32-10.258c-.4,4.026-.875,9.05,6.389,13.653h.088a28.482,28.482,0,0,1,2.941-.945c-6.092-6.232-4.8-11.815-3.833-15.929.473-2.03.858-3.641.14-4.586a5.654,5.654,0,0,1-1.068-4.831,4.866,4.866,0,0,1,2.731-3.2,7.142,7.142,0,0,0,2.381-1.453,52.111,52.111,0,0,0-8.752,2.941,1.085,1.085,0,0,1-.14.42v.158a7.107,7.107,0,0,1-2.416,2.608,2.416,2.416,0,0,0-.875,1.855,4.2,4.2,0,0,0,1.33,3.168c1.523,1.505,1.313,3.746,1.085,6.127ZM13.214,21.833c1.75.84,1.75,2.818,1.96,4.9.228,3.991.525,9.452,11.448,12.1a28,28,0,0,1,2.066-2.048c-8.752-4.219-8.752-10.5-8.752-14.634,0-2.276,0-3.693-.928-4.271a5.986,5.986,0,0,1-2.626-4.516A49.712,49.712,0,0,0,11.657,18.4a2.293,2.293,0,0,0,0,1.47,3.116,3.116,0,0,0,1.558,1.96Zm44.391-14a3.1,3.1,0,0,0-2.4,1.365,3.623,3.623,0,0,0-.455,3.081c.63,1.908-.455,3.5-1.593,5.076-1.75,2.608-4.079,5.829-1.75,12.621a1.75,1.75,0,0,1,0,.3c1.138.123,2.276.315,3.413.543a10.993,10.993,0,0,1,1.4-9.137,18.869,18.869,0,0,1,2.416-3.2c1.243-1.4,1.873-2.171,1.593-3.063a5.251,5.251,0,0,1,1.1-5.251,5.409,5.409,0,0,1,5.111-1.75c2.888.508,5.129-2.433,6.2-4.254h0c-1.19-.473-2.4-.91-3.606-1.313-1.61-.543-3.238-.98-4.884-1.365h0c-.77,2.136-2.241,6.109-6.547,6.319Zm8.49,2.7a3.343,3.343,0,0,0-3.168,1.1,3.291,3.291,0,0,0-.683,3.2c.665,2.048-.7,3.588-2.013,5.094a14.914,14.914,0,0,0-2.153,2.853,8.752,8.752,0,0,0-.875,8.49.875.875,0,0,1,0,.228,32.226,32.226,0,0,1,3.4,1.138c-.438-3.8,2.591-7.334,3.641-8.455.63-.648,1.278-1.208,1.855-1.75,1.645-1.383,2.626-2.206,2.363-4.324a5.549,5.549,0,0,1,1.75-5.076,6.144,6.144,0,0,1,5.916-.893c1.96.6,5.251-.718,7.159-2.748a74.2,74.2,0,0,0-8.752-4.429,2.013,2.013,0,0,1-.105.3C72.116,9.16,69.141,11.015,66.095,10.525ZM164.732,50.61c-2.486-1.47-5.041-3.011-5.671-6.056a5.444,5.444,0,0,0-2.871-4.166,5.916,5.916,0,0,0-5.426.875,7.877,7.877,0,0,1-8.962-.28,44.451,44.451,0,0,0-1.75,4.639,70.84,70.84,0,0,1,29.757,11.8C170.018,53.831,167.567,52.325,164.732,50.61ZM47.628,5.641a2.713,2.713,0,0,0-1.75,1.505,3.606,3.606,0,0,0,.228,2.976c.945,1.943,0,3.991-.858,6.179-1.54,3.606-3.273,7.684.683,13.636a.735.735,0,0,1,0,.175h3.151a14,14,0,0,1,2.206-14c1.068-1.505,1.61-2.346,1.33-3.221a5.654,5.654,0,0,1,.718-4.954,5.146,5.146,0,0,1,4.008-2.276c2.363-.105,3.5-1.855,4.586-4.639a53.511,53.511,0,0,0-9.7-1,.385.385,0,0,1,0,.14C51.759,3.121,51.216,4.451,47.628,5.641Zm-27.447,10.5c1.89,1.225,1.89,3.5,1.873,6.021,0,4.236,0,9.487,8.385,13.146h.088a26.1,26.1,0,0,1,2.906-1.75C26.1,28.415,26.64,22.533,27.025,18.577c.21-2.241.3-3.641-.49-4.394A6.249,6.249,0,0,1,24.522,9.4a4.709,4.709,0,0,1,.928-2.626,47.419,47.419,0,0,0-6.529,4.481,3.028,3.028,0,0,0-.438,1.75,3.921,3.921,0,0,0,1.7,3.151Zm219.644,10.7c-.228,4.008-.63,10.608-12.043,13.758a25.351,25.351,0,0,1,1.75,2.626h.105c11.063-1.138,12.253-6.284,13.058-10.047.4-1.838.805-3.5,2.433-4.079a3.011,3.011,0,0,0,1.75-1.61,1.033,1.033,0,0,1,.228-.315c-.088-.175-.158-.35-.263-.525a50.382,50.382,0,0,0-3.658-5.829,5.146,5.146,0,0,1-2.5,2.923C239.948,24,239.825,25.089,239.825,26.839ZM219.048,6.1a5.654,5.654,0,0,1-1.068,4.831c-.7.945-.333,2.556.158,4.586.963,4.114,2.258,9.7-3.851,15.929a28.777,28.777,0,0,1,2.976,1.1h0c7.264-4.6,6.774-9.627,6.389-13.653-.228-2.381-.438-4.621,1.12-6.127A4.131,4.131,0,0,0,226.084,9.6a2.4,2.4,0,0,0-.858-1.855,7,7,0,0,1-2.416-2.608V4.976a1.173,1.173,0,0,1-.123-.42,54.263,54.263,0,0,0-8.752-2.941A7.247,7.247,0,0,0,216.3,2.981,4.8,4.8,0,0,1,219.048,6.1Zm6.774,12.5c.385,3.956.928,9.837-6.407,14.984a26.094,26.094,0,0,1,2.906,1.75h0c8.4-3.658,8.385-8.91,8.367-13.146,0-2.468,0-4.8,1.873-6.021a3.886,3.886,0,0,0,1.75-3.063,3.116,3.116,0,0,0-.438-1.75,48.488,48.488,0,0,0-6.582-4.481,4.709,4.709,0,0,1,.928,2.626,6.319,6.319,0,0,1-1.96,4.8C225.524,14.954,225.612,16.354,225.822,18.595Zm7,3.588c0,4.184,0,10.415-8.752,14.634a28.269,28.269,0,0,1,2.083,2.013c10.905-2.643,11.22-8.1,11.448-12.1.105-2.083.228-4.061,1.943-4.9a3.011,3.011,0,0,0,1.54-1.96,2.17,2.17,0,0,0,0-1.47,47.663,47.663,0,0,0-4.744-5.006,6.039,6.039,0,0,1-2.626,4.516C232.911,18.49,232.824,19.907,232.824,22.183Zm15.929,18.922c-1.418,3.343-3.711,8.752-13.566,8.752a20.776,20.776,0,0,1-3.046-.158,28.285,28.285,0,0,1,.683,2.836h.088c11.815,2.871,14.651-1.523,16.717-4.744a6.477,6.477,0,0,1,2.766-2.871,52.752,52.752,0,0,0-1.225-6.6,3.729,3.729,0,0,1-.945.4c-.473.14-.928,1.243-1.418,2.381ZM244.621,33.6c-.858,3.816-2.311,10.117-14.2,11.57.368.77.7,1.558,1,2.346a1.033,1.033,0,0,1,.333,0C243.2,48.79,245.3,43.888,246.827,40.3c.718-1.75,1.348-3.168,2.836-3.5a1.523,1.523,0,0,0,.683-.333l.473.665A51.642,51.642,0,0,0,248,29.412a4.884,4.884,0,0,1-2.363,1.75c-.438.035-.683,1.155-.963,2.433Zm-94.961,5.881a8,8,0,0,1,7.352-1.015,7.509,7.509,0,0,1,4.044,5.654c.455,2.171,2.521,3.4,4.691,4.709s4.866,2.923,5.776,5.776a31.629,31.629,0,0,1,1.908-5.006c.718-3.641-3.151-6.319-3.606-6.634l-.91-.578c-2.031-1.278-4.306-2.731-4.8-5.951a5.251,5.251,0,0,0-2.486-4.184,6.074,6.074,0,0,0-5.5.63,9.26,9.26,0,0,1-9.872-.84,66.86,66.86,0,0,0-3.746,7,1.313,1.313,0,0,1,.228.105,5.811,5.811,0,0,0,6.914.333ZM168.9,17.527a6.722,6.722,0,0,1,6.337.823,5.671,5.671,0,0,1,2.153,5.059c-.158,1.89.823,2.626,2.678,3.868.543.368,1.085.735,1.61,1.155a9.8,9.8,0,0,1,3.886,7.544,32.11,32.11,0,0,1,2.766-1.663c.473-.245.928-.473,1.4-.683v-.21c1.33-3.291-2.1-7.124-2.8-7.859a19.566,19.566,0,0,0-1.75-1.54c-1.75-1.453-3.5-2.958-3.081-6.2a3.5,3.5,0,0,0-1.085-3.221,4.166,4.166,0,0,0-3.956-.49c-3.063.945-7.369-1.05-9.487-3.5a.979.979,0,0,1,0-.14,69.706,69.706,0,0,0-6.512,4.709C163.349,17.159,166.832,18.174,168.9,17.527Zm-7.124,6.319a6.879,6.879,0,0,1,7,.3,6.091,6.091,0,0,1,3.116,5.426c0,2,.98,2.766,2.836,3.973l.875.578a9.3,9.3,0,0,1,4.5,6.424,37.155,37.155,0,0,1,3.291-2.871.385.385,0,0,1,0-.14,7.352,7.352,0,0,0-2.976-7.474c-.49-.385-.98-.718-1.47-1.033-1.75-1.225-3.868-2.591-3.606-5.794a3.623,3.623,0,0,0-1.348-3.221,4.6,4.6,0,0,0-4.359-.508c-2.818,1-7.282-.245-10.17-2.818h0a65.8,65.8,0,0,0-5.811,5.689c2.433,1.89,6.354,2.346,8.122,1.383Zm44.093-20.2a4.849,4.849,0,0,1,2.976,2.7,5.689,5.689,0,0,1-.28,4.691c-.525,1.085.105,2.573.91,4.446,1.505,3.5,3.5,8.35-.4,14.844a26.85,26.85,0,0,1,2.923.525.718.718,0,0,1,.123-.193c6.092-5.689,4.919-10.66,3.973-14.669-.56-2.346-1.085-4.586.228-6.319a3.5,3.5,0,0,0,.7-3.046,2.678,2.678,0,0,0-1.54-1.75c-3.116-1.348-3.658-2.223-3.973-3.816h0a56.661,56.661,0,0,0-8.752-.928C203.066,2.263,203.311,2.806,205.867,3.646ZM155.192,31.04a8,8,0,0,1,7.422-.665,7,7,0,0,1,3.693,5.759c.35,2.276,1.89,3.238,3.851,4.481l.945.6a10.958,10.958,0,0,1,4.254,5.251,33.648,33.648,0,0,1,2.5-3.5s0,0,0-.105c.788-2.608-.368-5.006-3.5-7.107l-.823-.543c-1.75-1.19-3.921-2.521-3.8-5.794a4.078,4.078,0,0,0-2.1-3.5,4.866,4.866,0,0,0-4.831-.333c-2.713,1.505-7.632.665-10.5-1.75a65.166,65.166,0,0,0-4.814,6.459h.14a7.159,7.159,0,0,0,7.562.753ZM195.329,5.694a5.251,5.251,0,0,1,4.026,2.276,5.706,5.706,0,0,1,.718,4.954c-.28.875.245,1.75,1.313,3.221a14,14,0,0,1,2.223,14h3.151v-.175c3.973-5.951,2.223-10.03.7-13.636-.945-2.188-1.75-4.236-.875-6.179a3.623,3.623,0,0,0,.245-2.976,2.748,2.748,0,0,0-1.75-1.505c-3.5-1.19-4.149-2.521-4.621-5.479V.023a53.318,53.318,0,0,0-9.645,1.033C191.811,3.838,192.984,5.589,195.329,5.694Zm-8.962,2.713a5.451,5.451,0,0,1,6.232,7c-.3.893.35,1.75,1.593,3.063a17.961,17.961,0,0,1,2.4,3.2,10.94,10.94,0,0,1,1.4,9.137,34.012,34.012,0,0,1,3.5-.543.875.875,0,0,1,0-.3c2.311-6.792,0-10.012-1.75-12.621-1.138-1.628-2.206-3.168-1.593-5.076a3.5,3.5,0,0,0-.455-3.116,3.046,3.046,0,0,0-2.4-1.365c-4.289-.21-5.759-4.184-6.547-6.3h0c-1.645.385-3.273.823-4.884,1.365q-1.75.613-3.623,1.313h0C181.256,5.974,183.5,8.932,186.367,8.407ZM176.6,12.118a6.144,6.144,0,0,1,5.916.893,5.5,5.5,0,0,1,1.75,5.076C184,20.2,185,21.028,186.63,22.411a18.6,18.6,0,0,1,1.873,1.75c1.05,1.12,4.079,4.656,3.641,8.455,1.12-.455,2.258-.823,3.378-1.155a.93.93,0,0,1,0-.21,8.752,8.752,0,0,0-.858-8.49,15.753,15.753,0,0,0-2.1-2.888c-1.313-1.505-2.678-3.046-2.013-5.094a3.343,3.343,0,0,0-.683-3.2,3.5,3.5,0,0,0-3.133-1.05c-3.046.56-6.021-1.3-8.35-5.251a.682.682,0,0,1-.105-.3A74.428,74.428,0,0,0,169.528,9.4C171.3,11.4,174.657,12.713,176.6,12.118Zm33.136,74.656a12.411,12.411,0,0,1-7.264-3.5,2.433,2.433,0,0,0-1.54-.788c-1.068,0-1.505,1.47-.63,3.291a16.244,16.244,0,0,0,10.012,7.684,8.052,8.052,0,0,1-.98-2.731,7.334,7.334,0,0,1,.4-3.956ZM223,87.894a9.54,9.54,0,0,1-2.241-5.076c-.788.578-1.628,1.1-2.486,1.61a5.654,5.654,0,0,0,.245,5.251,8.927,8.927,0,0,0,6.827,4.394h0a23.069,23.069,0,0,0,4.586-1.645A15.019,15.019,0,0,1,223,87.894Zm-6.319,2.871a7.947,7.947,0,0,1-.98-4.971,13.829,13.829,0,0,1-3.5.91,4.516,4.516,0,0,0-.823,3.781,5.024,5.024,0,0,0,3.116,4.061,29.651,29.651,0,0,0,4.516.35,11.729,11.729,0,0,0,1.75-.088A11.15,11.15,0,0,1,216.685,90.765Zm8.227-11.535c-.63.665-1.33,1.313-2.031,1.925a7,7,0,0,0,1.75,5.409,12.078,12.078,0,0,0,8.192,4.341,35.956,35.956,0,0,0,4.534-3.361,15.841,15.841,0,0,1-8.21-2.748A10.765,10.765,0,0,1,224.912,79.23ZM236.534,81.3a15.124,15.124,0,0,1-8.192-6.407,25.2,25.2,0,0,1-1.75,2.4,8.6,8.6,0,0,0,3.746,5.864,12.988,12.988,0,0,0,9.277,2.223h.21a41.663,41.663,0,0,0,2.976-3.361h-1.365a15.754,15.754,0,0,1-4.9-.718ZM230.9,70.04c-.4.928-.84,1.75-1.33,2.731a13.058,13.058,0,0,0,7.614,6.477,10.888,10.888,0,0,0,7.352.123h.105a40.561,40.561,0,0,0,2.731-4.621,12.551,12.551,0,0,1-4.569.875C239.615,75.641,235.572,74.363,230.9,70.04ZM119.9,173.105v-5.059a39.507,39.507,0,0,0-7.964,5.636,59.512,59.512,0,0,1,7.964-.578ZM232.473,65.279a28.015,28.015,0,0,1-.788,2.7c8.56,8.262,14.406,5.251,16.927,3.938h0a49.021,49.021,0,0,0,2.083-5.759,10.643,10.643,0,0,1-7.212,2.748,22.371,22.371,0,0,1-11.01-3.623ZM117.628,184.185a9.6,9.6,0,0,1-1.75-.105,8.355,8.355,0,0,0-1.593-.123,1.033,1.033,0,0,1-1.05-1.033,1.05,1.05,0,0,1,1.05-1.05,15.6,15.6,0,0,1,1.75.123c1.75.175,2.958.21,3.886-.77v-6H119.8c-5.671,0-10.047.718-11.8,1.75a1.173,1.173,0,0,1-.525.14,1.05,1.05,0,0,1-.543-1.96,9.922,9.922,0,0,1,1.3-.578,36.339,36.339,0,0,1,11.623-8.752c0-3.5,0-6.109,0-7.142a22.757,22.757,0,0,1-2.871-1.75,6.179,6.179,0,0,0-3.186-1.768,1.05,1.05,0,0,1-1.05-1.05,1.033,1.033,0,0,1,1.05-1.033,7.684,7.684,0,0,1,4.411,2,13.268,13.268,0,0,0,5.251,2.678h.63l1.068.105v-71.3c0-12.078-.455-31.088-2.118-33.976-1.978-3.4-4.306-4.919-7.562-4.919a13.268,13.268,0,0,0-2.118.175,70.788,70.788,0,0,0-28.6,10.5,12.253,12.253,0,0,1,6.879,7,1.038,1.038,0,0,1-1.978.63,10.853,10.853,0,0,0-7.369-6.249h0A35.534,35.534,0,0,0,77.193,58.7c-1.418-.193-2.783-.315-4.079-.438a35.849,35.849,0,0,1-6.214-.893,30.055,30.055,0,0,1-10.03-5.251,73.117,73.117,0,0,1,4.411,7.7l.788,1.523c6.179,11.885,12.253,11.605,17.959,11.325h2.626A1.033,1.033,0,0,1,83.7,73.7a1.05,1.05,0,0,1-1.05,1.05,24.6,24.6,0,0,0-2.521.088c-.858.088-1.873,0-2.836,0-5.409,0-11.308-1.435-17.084-12.551-.263-.473-.525-1-.788-1.54A61.265,61.265,0,0,0,50.306,46.9c-.875-.7-1.75-1.4-2.731-2.136-.665-.525-1.313-1-1.925-1.435l-.4-.28c-.473-.333-.91-.648-1.348-.928l-.49-.315-1.1-.683-.508-.3c-.315-.193-.63-.35-.928-.508l-.6-.21a8.21,8.21,0,0,0-.84-.368h-.385a6.7,6.7,0,0,0-.858-.263H38a4.568,4.568,0,0,0-.928-.105h0a2.5,2.5,0,0,0-.753.14,1.05,1.05,0,0,0-.28.14h0a2.083,2.083,0,0,0-.613.665.28.28,0,0,0,0,.123,3.816,3.816,0,0,0-.21.385l-.105.245a3.5,3.5,0,0,0-.14.385,1.941,1.941,0,0,1-.123.385c-.035.14,0,.21-.088.315a1.564,1.564,0,0,0-.123.56c-2.591,12.9.928,20.865,4.341,25.294a21.2,21.2,0,0,0,9.277,7,2.715,2.715,0,0,1,.368,0h.123c2.871.158,5.251.21,7.3.263,4.709.105,7.579.175,10.065,1.4a10.7,10.7,0,0,1,1.12.455h0a.175.175,0,0,1,.088,0l.42.3a1.068,1.068,0,0,1,.368,1.225h0a2.346,2.346,0,0,1-.105.98,31.508,31.508,0,0,0-1.75,6.6c0,.718-.158,1.435-.193,2.136v.473h0c0,.805,0,2.363-.193,4.586-.525,9.872-1.628,33.5.665,46.631h-.14c.438,2.888.91,5.251,1.243,6.652l.14.578A92.773,92.773,0,0,0,88.5,188.544c7,7.894,16.1,13.391,24.278,14.7a14.933,14.933,0,0,0,2.573.245c3.221,0,4.726-1.418,4.726-4.446v-15.3A5.9,5.9,0,0,1,117.628,184.185ZM120.8,61.515a1.033,1.033,0,0,1,1.033-1.05,1.05,1.05,0,0,1,1.05,1.05v3.711a1.05,1.05,0,0,1-1.05,1.05,1.033,1.033,0,0,1-1.033-1.05Zm-1.33,20.323a1.05,1.05,0,1,1,2.1,0v3.711a1.05,1.05,0,1,1-2.1,0Zm0,10.5a1.05,1.05,0,1,1,2.1,0v3.781a1.05,1.05,0,1,1-2.1,0Zm0,9.767a1.05,1.05,0,1,1,2.1,0V105.8a1.05,1.05,0,1,1-2.1,0Zm0,9.575a1.05,1.05,0,1,1,2.1,0v3.868a1.05,1.05,0,1,1-2.1,0Zm0,9.575a1.05,1.05,0,1,1,2.1,0v3.711a1.05,1.05,0,1,1-2.1,0Zm0,9.592a1.05,1.05,0,0,1,2.1,0v3.693a1.05,1.05,0,0,1-2.1,0Zm-2.171-78a1.05,1.05,0,1,1,2.1,0v3.711a1.05,1.05,0,1,1-2.1,0Zm-.648,17.5a1.05,1.05,0,1,1,2.1,0v3.711a1.05,1.05,0,1,1-2.1,0Zm-3.641-9.067a1.05,1.05,0,1,1,2.1,0V65a1.05,1.05,0,0,1-2.1,0Zm0,19.255a1.05,1.05,0,1,1,2.1,0v3.711a1.05,1.05,0,0,1-2.1,0Zm-3.728-27.359a1.05,1.05,0,1,1,2.083,0v3.711a1.05,1.05,0,1,1-2.083,0Zm-.158,17.189a1.05,1.05,0,1,1,2.1,0v3.711a1.05,1.05,0,0,1-2.1,0Zm-1.505,9.8v3.711a1.033,1.033,0,0,1-1.033,1.05,1.05,1.05,0,0,1-1.05-1.05V80.175a1.05,1.05,0,0,1,1.05-1.05,1.033,1.033,0,0,1,1.033,1.05Zm-2.468-18.4a1.05,1.05,0,1,1,2.1,0v3.711a1.05,1.05,0,1,1-2.1,0Zm-4.079-6.739a1.05,1.05,0,0,1,1.05-1.05,1.033,1.033,0,0,1,1.033,1.05v3.711a1.033,1.033,0,0,1-1.033,1.05,1.05,1.05,0,0,1-1.05-1.05Zm0,15.334a1.05,1.05,0,0,1,1.05-1.05,1.033,1.033,0,0,1,1.033,1.05v3.711a1.015,1.015,0,0,1-1.033,1.033,1.033,1.033,0,0,1-1.05-1.033ZM99.9,80.542v3.711a1.05,1.05,0,0,1-1.05,1.05,1.033,1.033,0,0,1-1.033-1.05V80.542a1.033,1.033,0,0,1,1.033-1.05A1.05,1.05,0,0,1,99.9,80.542ZM97.305,62.653a1.05,1.05,0,1,1,2.1,0v3.711a1.05,1.05,0,0,1-2.1,0ZM95.852,71.09v3.693a1.05,1.05,0,0,1-2.1,0V71.09a1.05,1.05,0,0,1,2.1,0Zm-3.5-13.023a1.05,1.05,0,1,1,2.1,0v3.711a1.05,1.05,0,0,1-2.1,0ZM90.093,81a1.05,1.05,0,0,1,1.05-1.05A1.033,1.033,0,0,1,92.176,81v3.693a1.033,1.033,0,0,1-1.033,1.05,1.05,1.05,0,0,1-1.05-1.05Zm-4.5-7a1.033,1.033,0,0,1,1.033-1.05A1.05,1.05,0,0,1,87.678,74v2.836a1.05,1.05,0,0,1-1.05,1.05,1.033,1.033,0,0,1-1.033-1.05Zm-3.308,8.472a1.05,1.05,0,1,1,2.1,0v3.711a1.05,1.05,0,1,1-2.1,0Zm-4.1-4.691a1.05,1.05,0,1,1,2.1,0v2.766a1.05,1.05,0,0,1-2.1,0Zm-2.608,8.262a1.05,1.05,0,0,1,2.1,0V89.75a1.05,1.05,0,1,1-2.1,0Zm-3.868-6.844a1.05,1.05,0,1,1,2.1,0V82.03a1.05,1.05,0,1,1-2.1,0Zm.473,20.725a.98.98,0,0,1,0-.21.3.3,0,0,1,.123-.228,5.986,5.986,0,0,1,1.243-1.75.893.893,0,0,1,.228-.158c4.184-4.271,13.146-6.372,17.907-6.9,5.374-.613,21.933,0,22.651,0h.105a1.05,1.05,0,0,1,1.05,1.05V97.5h0c-.158,27.429-2.048,44.3-2.065,44.478a.613.613,0,0,1,0,.245l-2.486,6.722a1.05,1.05,0,0,1-1,.7,1.244,1.244,0,0,1-.35,0,1.068,1.068,0,0,1-.63-1.348l2.451-6.617c.175-1.558,1.873-17.732,2.118-43.393-4.709-.508-26.046-2.4-39.472,2.748a7.964,7.964,0,0,0-.245,3.781,4.621,4.621,0,0,0,2.241,3.588,1.043,1.043,0,0,1-.438,2,1.208,1.208,0,0,1-.42-.088,6.6,6.6,0,0,1-3.413-5.269,10.03,10.03,0,0,1,.368-5.129Zm22.756,27.447a14.511,14.511,0,0,0,5.846-2.836,12.638,12.638,0,0,1,6.809-2.906,1.05,1.05,0,0,1,1.05,1.05,1.033,1.033,0,0,1-1.05,1.033,11.1,11.1,0,0,0-5.636,2.556,16.209,16.209,0,0,1-6.739,3.186h-.14a1.033,1.033,0,0,1-1.033-.893,1.05,1.05,0,0,1,.91-1.19ZM83.284,114.693a.858.858,0,0,1-.245-.805.84.84,0,0,1,.578-.63,21.7,21.7,0,0,0,2.416-1,18.2,18.2,0,0,1,7.719-2.171,10.1,10.1,0,0,1,1.925.175,19.692,19.692,0,0,1,10.012,4.814,10.5,10.5,0,0,0,1.523,1.12c1.418.718,1.383,1.558,1.3,1.873s-.368,1-1.645,1h-.228a11.343,11.343,0,0,0-3.5.63,25.1,25.1,0,0,1-8.14,1.12h-.753c-4.2-.017-8.262-3.711-10.94-6.126Zm25.049-2.643c0-2.8-1.96-4.849-5.846-6.109-7.369-2.363-18.134-.613-19.482,1.26a1.063,1.063,0,0,1-1.75-1.208c2.311-3.238,14.546-4.376,21.81-2.048,4.779,1.54,7.317,4.341,7.317,8.1a1.05,1.05,0,0,1-2.1,0ZM69.316,89.295a1.033,1.033,0,0,1,1.033-1.05,1.05,1.05,0,0,1,1.05,1.05v3.851a1.05,1.05,0,0,1-1.05,1.05,1.033,1.033,0,0,1-1.033-1.05ZM75.652,113.1a1.05,1.05,0,0,1,0,2.1c-4.376,0-4.936.175-4.936,3.256,0,5.251,6.3,18.239,17.959,18.239,7.719,0,11.238-3.046,14.651-5.986a21.128,21.128,0,0,1,5.654-3.921,1.033,1.033,0,0,1,1.365.56,1.015,1.015,0,0,1-.56,1.365,19.919,19.919,0,0,0-5.094,3.5c-3.5,3.046-7.527,6.512-16.016,6.512-12.428,0-20.042-13.181-20.042-20.34,0-5.146,3.151-5.146,7.019-5.146Zm-3.238,26.256a1.05,1.05,0,0,1-2.1,0v-3.571a1.05,1.05,0,1,1,2.1,0Zm4.779,4.2a1.05,1.05,0,1,1-2.1,0v-3.763a1.05,1.05,0,1,1,2.1,0Zm3.186,11.36a1.05,1.05,0,0,1-2.1,0v-3.291a1.05,1.05,0,1,1,2.1,0Zm1.908-8.4a1.05,1.05,0,0,1-2.1,0v-3.693a1.05,1.05,0,0,1,2.1,0Zm4.166,10.87a1.05,1.05,0,0,1-2.1,0v-3.693a1.05,1.05,0,0,1,2.1,0Zm1.278-8.577a1.05,1.05,0,0,1-1.05-1.05V144.03a1.05,1.05,0,0,1,2.1,0v3.711a1.05,1.05,0,0,1-1.05,1.068Zm2.853,17.5a1.05,1.05,0,0,1-2.1,0V162.55a1.05,1.05,0,0,1,2.1,0Zm2.083-8.875a1.05,1.05,0,0,1-1.05,1.05,1.033,1.033,0,0,1-1.033-1.05v-3.746a1.033,1.033,0,0,1,1.033-1.05,1.05,1.05,0,0,1,1.05,1.05Zm1.3-8.857a1.033,1.033,0,0,1-1.033-1.05v-3.763a1.015,1.015,0,0,1,1.033-1.033,1.033,1.033,0,0,1,1.05,1.033v3.711a1.05,1.05,0,0,1-1.05,1.05Zm2.853,18.467a1.033,1.033,0,0,1-1.033,1.05,1.05,1.05,0,0,1-1.05-1.05v-3.711a1.033,1.033,0,0,1,1.05-1.033,1.015,1.015,0,0,1,1.033,1.033Zm2.433-10.783a1.033,1.033,0,0,1-1.033,1.05,1.05,1.05,0,0,1-1.05-1.05v-3.711a1.033,1.033,0,0,1,1.05-1.033,1.015,1.015,0,0,1,1.033,1.033Zm.543-10.958V141.65a1.05,1.05,0,1,1,2.1,0v3.658a1.05,1.05,0,0,1-2.1,0Zm2.556,19.062a1.05,1.05,0,0,1-1.05,1.05,1.033,1.033,0,0,1-1.033-1.05v-3.676a1.033,1.033,0,0,1,1.033-1.05,1.05,1.05,0,0,1,1.05,1.05Zm2.731-10.5a1.05,1.05,0,0,1-2.1,0v-3.606a1.05,1.05,0,1,1,2.1,0Zm1.155-16.314a1.05,1.05,0,1,1,2.1,0v3.711a1.05,1.05,0,1,1-2.1,0Zm7.212-41.538v-3.5c-3.378-.105-16.979-.49-21.548,0S80.308,94.808,76.4,97.767c13.776-3.8,32.138-2.188,37.092-1.663Zm71.645-18.835.473-.14.14-.088h0a7.894,7.894,0,0,1,1.12-.455c2.486-1.225,5.356-1.3,10.065-1.4,2.083,0,4.429-.105,7.3-.263h.123a2.714,2.714,0,0,1,.368,0,20.48,20.48,0,0,0,7.667-5.129h0a21.63,21.63,0,0,0,1.488-1.75c.263-.333.525-.683.77-1.033h0c.263-.385.525-.805.788-1.225l.193-.315c.228-.4.455-.84.683-1.278v-.158c.228-.473.455-.963.665-1.488a1.417,1.417,0,0,1,.193-.455c.07-.158.3-.788.42-1.208a7.171,7.171,0,0,1,.245-.7l.315-1.173a5.1,5.1,0,0,1,.228-.963c.07-.333.193-.893.28-1.348a1.869,1.869,0,0,0,0-.718c0-.228.123-.858.175-1.3V50.085a3.24,3.24,0,0,0,0-.4,11.581,11.581,0,0,0-.14-2.188h0a45.085,45.085,0,0,0-.718-4.849,9.019,9.019,0,0,0-.228-.928c0-.088,0-.175,0-.245a3.35,3.35,0,0,0-.175-.473c-.053-.14,0-.175-.105-.263l-.175-.333-.105-.175a2.24,2.24,0,0,0-.28-.368h0a1.383,1.383,0,0,0-.263-.21h-.105l-.263-.123a2.293,2.293,0,0,0-.735-.14h0a5.251,5.251,0,0,0-.84.088h-.245a6.285,6.285,0,0,0-.84.245h-.193a12.537,12.537,0,0,0-1.173.508l-.21.105-1.26.683h-.123c-.508.3-1.033.63-1.575.98l-.175.123c-.525.35-1.068.718-1.645,1.138h-.105c-.63.455-1.3.963-1.978,1.488-.963.735-1.855,1.435-2.731,2.136a60.337,60.337,0,0,0-9.12,13.863c-.263.525-.525,1.05-.788,1.523-5.776,11.115-11.675,12.551-17.1,12.551h-2.818c-.928,0-1.75-.088-2.521-.088a1.05,1.05,0,0,1-1.05-1.05,1.033,1.033,0,0,1,.3-.735,1.05,1.05,0,0,1,.753-.315h7.037c4.411-.368,8.927-2.433,13.548-11.343.263-.473.508-.98.77-1.505a72,72,0,0,1,4.656-7.719,30.055,30.055,0,0,1-10.03,5.251,35.85,35.85,0,0,1-6.214.893,60.37,60.37,0,0,0-7.3,1c-.648.14-1.278.28-1.925.473h0a10.87,10.87,0,0,0-7.352,6.337,1.033,1.033,0,0,1-1.313.683,1.05,1.05,0,0,1-.683-1.313A12.358,12.358,0,0,1,167.83,58.5a69.492,69.492,0,0,0-28.847-11.01,83.425,83.425,0,0,0-18.642-.753A12.253,12.253,0,0,1,125,51.573c2.5,4.306,2.416,31.91,2.4,35.009v59.077a18.677,18.677,0,0,0,5.776-1.138,1.05,1.05,0,1,1,1.12,1.75,19.15,19.15,0,0,1-6.9,1.47v8.28a10.992,10.992,0,0,0,3.5-1.75,16.717,16.717,0,0,1,9.767-3.291,3.781,3.781,0,0,0,.683-2.276,2.993,2.993,0,0,0-1.3-2.468,1.015,1.015,0,0,1-.228-1.453,1.033,1.033,0,0,1,1.453-.245,5.251,5.251,0,0,1,1.75,6.161c-.368,1.155-1.138,2.381-2.206,2.381H140.7a14.459,14.459,0,0,0-8.752,2.976,12.253,12.253,0,0,1-4.586,2.118v.858a1.033,1.033,0,0,1-.123.455,1.068,1.068,0,0,1-.893.735,12.673,12.673,0,0,1-4.411-.525v5.654c.613.193,1.365.84,1.75,2.731a9.4,9.4,0,0,1-.175,5.006h3.308c4.551,0,12.708.263,16.156,2.031a1.033,1.033,0,0,1,.473,1.4,1.068,1.068,0,0,1-.945.578.945.945,0,0,1-.473-.123c-2.206-1.12-7.877-1.75-15.211-1.75h-4.411a9.242,9.242,0,0,1-.333,6.722c0,7.544.105,14.616.105,17.137a8.28,8.28,0,0,1-.385,2.573h1.75c18.9-.193,23.333-1.75,29.6-9.855a34.815,34.815,0,0,0,3.991-6.809,75.931,75.931,0,0,1,8.752-14.126l.263-.368c9.522-12.831,15.754-22,16.524-24.506,4.359-10.923,3.938-42.973,3.816-53.511V90.1a32.12,32.12,0,0,0-2.118-11.4,1.033,1.033,0,0,1,0-.875.98.98,0,0,1,.77-.56ZM139.21,99.342l.508,42.465a1.05,1.05,0,0,1-1.033,1.068h0a1.033,1.033,0,0,1-1.033-1.033l-.63-52.04a1.033,1.033,0,0,1,1.033-1.05h22.756c5.251,0,13.706,2.993,16.839,8.612a.945.945,0,0,1,.508.263A8.752,8.752,0,0,1,180,105.048a6.634,6.634,0,0,1-3.5,5.146,1.3,1.3,0,0,1-.438.088h0a.315.315,0,0,0-.122.088,1.3,1.3,0,0,1-.438,0,1.05,1.05,0,0,1-.438-1.82,4.1,4.1,0,0,0,1.978-2.888,9.277,9.277,0,0,0-.735-6.284C154.054,96.191,140.226,99.132,139.21,99.342Zm10.5,20.358a11.326,11.326,0,0,0-3.5-.63h-.175c-1.348,0-1.645-.683-1.75-1s-.105-1.155,1.3-1.873a10.5,10.5,0,0,0,1.54-1.138,19.85,19.85,0,0,1,10.012-4.761,10.5,10.5,0,0,1,1.943-.175A18.2,18.2,0,0,1,166.8,112.3a20.41,20.41,0,0,0,2.416,1,.84.84,0,0,1,.315,1.435c-2.678,2.381-6.722,6.074-10.905,6.074h-.753a25.189,25.189,0,0,1-8.14-1.1Zm7.912,8.857a1.05,1.05,0,0,1-1.05.893h-.14a16.244,16.244,0,0,1-6.722-3.186,11.168,11.168,0,0,0-5.636-2.556,1.033,1.033,0,0,1-1.05-1.033,1.05,1.05,0,0,1,1.05-1.05,12.831,12.831,0,0,1,6.809,2.906,14.459,14.459,0,0,0,5.829,2.836,1.068,1.068,0,0,1,.928,1.19Zm11.045-21.3c-1.348-1.873-12.113-3.623-19.465-1.26-3.886,1.26-5.864,3.308-5.864,6.109a1.05,1.05,0,0,1-1.05,1.05,1.033,1.033,0,0,1-1.033-1.05c0-3.763,2.521-6.564,7.3-8.1,7.247-2.328,19.5-1.19,21.828,2.048a1.063,1.063,0,1,1-1.75,1.208ZM163,138.937c-8.49,0-12.481-3.5-16.016-6.512a19.622,19.622,0,0,0-5.094-3.5,1.033,1.033,0,0,1-.56-1.365,1.05,1.05,0,0,1,1.365-.56,21.215,21.215,0,0,1,5.671,3.921c3.4,2.941,7,5.986,14.634,5.986,11.675,0,17.959-12.953,17.959-18.239,0-3.081-.56-3.256-4.936-3.256a1.05,1.05,0,0,1,0-2.1c3.938,0,7,0,7,5.356.053,7.089-7.562,20.27-20.007,20.27Zm32.453-61.265a38.229,38.229,0,0,0-7.142.525h0l-.63.193-.6.42h-.175a34.256,34.256,0,0,1,1.855,7.107l.438-.105c7.772,0,6.809-6.232,12.778-8.385-2.416.105-4.621.158-6.512.193ZM174.814,97c-3.221-3.833-9.89-6.127-14-6.127H139.105l.088,6.337C141.906,96.646,154.649,94.406,174.814,97ZM51.9,82.573a2.486,2.486,0,0,0-1.54.788,12.253,12.253,0,0,1-7.264,3.5,7.177,7.177,0,0,1,.4,4.044,8.035,8.035,0,0,1-.963,2.731,16.3,16.3,0,0,0,9.995-7.842C53.4,84.043,52.984,82.573,51.9,82.573Zm-30.755-14.6c-.3-.875-.56-1.75-.788-2.7A22.283,22.283,0,0,1,9.311,68.99,10.5,10.5,0,0,1,2.1,66.241,50.971,50.971,0,0,0,4.112,71.79H4.2C6.738,73.208,12.6,76.236,21.144,67.974ZM15.648,79.3a13.076,13.076,0,0,0,7.632-6.477,28.006,28.006,0,0,1-1.33-2.783c-4.674,4.271-8.752,5.549-11.92,5.549a13.111,13.111,0,0,1-4.569-.858,44.862,44.862,0,0,0,2.731,4.6h.123a10.853,10.853,0,0,0,7.334-.035Zm10.5-2.013c-.613-.77-1.19-1.575-1.75-2.4A15,15,0,0,1,16.3,81.3a15.614,15.614,0,0,1-4.831.788H10.081c.945,1.173,1.925,2.293,2.976,3.361h.158a13.023,13.023,0,0,0,9.277-2.223,8.507,8.507,0,0,0,3.781-5.934ZM19.779,63.161h0c-.158-.945-.28-1.908-.35-2.871a20.462,20.462,0,0,1-8.542,2.171A13.811,13.811,0,0,1,.4,56.912l-.123-.14a54.771,54.771,0,0,0,.98,6.144,5.041,5.041,0,0,1,1.435,1.068C4.917,66,9.031,69.742,19.849,63.161Zm221.955-.718a20.393,20.393,0,0,1-8.525-2.171,17.616,17.616,0,0,1-.35,2.871h0c10.818,6.582,14.931,2.836,17.137.823a5.252,5.252,0,0,1,1.435-1.068,51.079,51.079,0,0,0,1-6.144l-.14.14A13.776,13.776,0,0,1,241.8,62.443Zm-239.809-7c2.626,2.888,7,7.7,17.5,2.486a20.306,20.306,0,0,1,.175-3.256,29.863,29.863,0,0,1-6.477.823A12.253,12.253,0,0,1,1.4,48.93a10.5,10.5,0,0,0-1.225-1.75,53.9,53.9,0,0,0-.158,6.6,8.227,8.227,0,0,1,1.943,1.733Zm1.19-7.7c2.153,3.291,4.954,7.684,16.752,4.8h.088c.193-1,.4-1.96.683-2.923-1.068.105-2.1.158-3.028.158-9.872,0-12.148-5.339-13.566-8.752-.49-1.138-.963-2.241-1.47-2.363a3.5,3.5,0,0,1-.945-.4A49.748,49.748,0,0,0,.4,44.851a6.354,6.354,0,0,1,2.748,2.958Zm62.63,31.053-.543-.385L64.87,78.3l-.455-.105H61.334l-3.921-.123c-1.873,0-3.991,0-6.494-.21,5.969,2.153,5.024,8.385,12.778,8.385l.438.105a32.4,32.4,0,0,1,.963-5.006,1.682,1.682,0,0,1,.14-.455A7.454,7.454,0,0,1,65.745,78.792ZM3.114,36.782c1.505.333,2.153,1.75,2.853,3.5,1.523,3.588,3.623,8.49,15.071,7.212a.648.648,0,0,1,.315,0q.455-1.208,1-2.363C10.519,43.783,9.031,37.412,8.173,33.6c-.3-1.278-.543-2.4-1.033-2.556a4.919,4.919,0,0,1-2.346-1.75,50.2,50.2,0,0,0-2.608,7l.245.105a1.575,1.575,0,0,0,.683.385Zm249.559,10.5a10.5,10.5,0,0,0-1.225,1.75,12.358,12.358,0,0,1-11.763,6.634,30.125,30.125,0,0,1-6.494-.823,29.008,29.008,0,0,1,.193,3.256c10.5,5.251,14.861.4,17.5-2.486a7.894,7.894,0,0,1,1.89-1.75,57.762,57.762,0,0,0-.105-6.582ZM37.143,85.794a7.842,7.842,0,0,1-1,4.971,10.975,10.975,0,0,1-4.061,4.044c.578,0,1.155.088,1.75.088a29.653,29.653,0,0,0,4.516-.35,5.006,5.006,0,0,0,3.081-4.061,4.516,4.516,0,0,0-.823-3.781A13.706,13.706,0,0,1,37.143,85.794Zm-8.927.77a7,7,0,0,0,1.75-5.409,26.554,26.554,0,0,1-1.943-1.925,10.94,10.94,0,0,1-4.236,5.636,15.946,15.946,0,0,1-8.3,2.678,34.693,34.693,0,0,0,4.481,3.291,12.148,12.148,0,0,0,8.245-4.271Zm6.109,3.186A5.706,5.706,0,0,0,34.57,84.5a23.61,23.61,0,0,1-2.5-1.61,9.4,9.4,0,0,1-2.293,5.006,14.879,14.879,0,0,1-7,4.6,23.071,23.071,0,0,0,4.586,1.645h0a8.927,8.927,0,0,0,6.967-4.394Z" transform="translate(0.022 0.03)"/></g></g></svg>