<svg xmlns="http://www.w3.org/2000/svg" viewBox="0 0 225.8 279.05"><defs><style>.cls-1{fill:#fff;}.cls-2{fill:none;}.cls-3{fill:#171717;}</style></defs><g id="Layer_2" data-name="Layer 2"><g id="Layer_1-2" data-name="Layer 1"><path class="cls-1" d="M94.23,87.1S92.86,103.7,84.85,116s-35.47,45.72-30.47,66h.38s1.61-12.07,3.43-16.81,11.52-25.35,19.74-35.87c8.72-11.16,17.37-25.67,18.25-39.82Z"/><path class="cls-1" d="M75.64,79.27c-.44.53-.13,6.49-.18,7.31-.15,2.69-.38,5.38-.69,8a132.78,132.78,0,0,1-8.14,32.83c-3.94,10.1-9.6,19.38-12.73,29.82-2.07,6.9-3.78,16.18-.92,24l.43-1s-1.73-11.67,5.44-29.94c3.86-9.85,9.22-19,12.53-29a121.87,121.87,0,0,0,6-31.76c.14-2.61.19-5.22.22-7.83a3.66,3.66,0,0,0-.3-1.86,1.27,1.27,0,0,0-1.61-.61Z"/><path class="cls-1" d="M59.18,73s4.36,36.31,5.68,44.83c1.42,9.21,2.61,18,3.3,26.89s-3.86,17.4-8,25.31c-.47.9-5.83,10.44-5.35,10.79l1.38,1c1,.58,11.35-22.29,12.06-24.51a43.5,43.5,0,0,0,2.27-13.61c-.05-5-1.17-9.88-1.84-14.79-1-7.08-1.94-14.17-2.53-21.29-.86-10.34-3.28-20.48-3.67-30.84,0-.8-.61-1.37-.64-2.17Z"/><path class="cls-1" d="M172.71,209.13a48.59,48.59,0,0,0-1.94,4.81c-.42,1.5-5.09,1.36-5.09,1.36s-1.14-5.9,0-10.71,5.87.59,5.87.59Z"/><path class="cls-1" d="M53.31,181.29S45.1,169.76,41.25,171s-3.85,4.33-.28,9.16,11.15,5,11.15,5l1-.75S42.61,181.22,40.87,176a1.9,1.9,0,0,1,2.45-2.41,18.71,18.71,0,0,1,3.62,3.11c2.09,2.43,5.6,6.8,5.6,6.8Z"/><path class="cls-1" d="M56.85,183.07s7-10.82,10.82-9.17-.24,10.21-10.82,10.44v1s6.88.63,9.68-1.78,6.36-7.9,4.2-11.08-11.08.64-14.52,9.29Z"/><path class="cls-1" d="M70,183.18c24-1.69,68.94-4.56,70.46-5.48a4.35,4.35,0,0,0-2.85,2.71c-.09.28-.1.56.17.68,1.4.68,5.83,7.49,10.32,10.24,0,.32-.39-.49-.36-.24a3,3,0,0,1,1.46,2.17c.6.41,1.41.86,2.53,1.54,3.06,1.85,4,9.69,3.47,12.8-1,6.35-4.44,9.81-7,15.6a8.9,8.9,0,0,0-1.06,4.34,9.12,9.12,0,0,0,1.46,3.74c.36.62.85,1.31,1.57,1.33a.67.67,0,0,0,.42-.12c.45-.37-.1-1-.52-1.42a4.92,4.92,0,0,1-1.21-4.52c.41-2.18,1.77-4.13,2.74-6.1s1.92-4,2.82-6,2.85-5.23,2.92-7.59a34.64,34.64,0,0,0,.18,6.05s4,.51,5.15-2.33a17.4,17.4,0,0,1,1.88-3.84l1.07.44,1,.4c.21,2.22,4.82,6.51,9.11,7.24,4.57,7.27,3.15,29,1.29,39.65,0,0-31.86,2.69-28.67,10.81,2.62,6.67,32.18,20.25,46.94,10.11,10.19-7,29.65-3.75,30.49-12.7s-21.13-9.86-21.13-9.86c.27-13.21,3.41-34.94,3.41-38.84,0-4.29-4.68-18.39-8.31-26,0,0-.67-9-3.07-12l-8.78-2.9c-.06,0-.52-.32-.58-.37-4.18-3.75-10.23-8.94-15.44-10-7.7-1.59-25.13,6.39-26.72,7.26s-4.83,6.82-4.83,6.82c-.14.2.17.43.07.44-16.95,1.53-77.47,3.54-82.74,5.12-.36-.81-1.17-2.42-2.36-2.31,0-.15-1.54.41-1.54.26-.33.14,0,.05-.44.06,0,.13-.74.32-.72.45-1.83.48-1,1.51-1.05,3.69l-50.87.38s.18.27.53.74a1.9,1.9,0,0,0-.44,1.2c-.11,11.28-.51,68,2.05,68.71.73.21,8.12.33,18.7.32,18.35,0,46.3-.49,65.78-1.72l3.61-.25c10.79-.78,18.25-1.83,18.68-3.23,1.62-5.27,3.25-61.3,0-65.77l-52.47-.24s.12.51,0-.14m102.47-2c.15,2.36-1.36,3.81-1.66,4.38-.59,1.11-4.25-3.65-4.73-4.48-1.45-.84-1.11-.9-2.57-2.1-.29-.24-2.91-1.49-2.44-1.82,4-2.87,2.7-3.55,3.54-3.51,2.73.13,5-1.16,5.4-.91s8.27-3.07,8.51-2.64c.85,1.14,3.23,3.25,3.44,3.71S159.5,181.68,159.55,182.47Z"/><path class="cls-1" d="M169,190.39v0Z"/><path class="cls-2" d="M170.1,176c-.21-.47-3.65-3.48-4.5-4.62-.24-.43-8.06,2.89-8.51,2.64s-2.67,1-5.4.91c-.84,0-2.93,3.11-3.32,3.79-.29.5,1.93,1.3,2.22,1.54,1.46,1.2,1.12,1.26,2.57,2.1.48.83,4.14,5.59,4.73,4.48a15,15,0,0,0,1.33-6C159.17,180,170.37,176.6,170.1,176Z"/><path class="cls-3" d="M70.92,185h0l-32.32-.21a.5.5,0,0,1-.5-.5.51.51,0,0,1,.5-.5h0l32.32.21a.49.49,0,0,1,.49.5A.5.5,0,0,1,70.92,185Z"/><path class="cls-3" d="M58.19,184.69a.5.5,0,0,1-.07-1,13.93,13.93,0,0,0,8.47-4.36.5.5,0,0,1,.7-.09.51.51,0,0,1,.08.71,14.66,14.66,0,0,1-9.11,4.73Z"/><path class="cls-3" d="M65.5,185a.5.5,0,0,1-.18-1c1.29-.49,3.52-3.08,4.27-4a.5.5,0,0,1,.7-.08.5.5,0,0,1,.09.7c-.12.15-2.89,3.66-4.71,4.35A.35.35,0,0,1,65.5,185Z"/><path class="cls-3" d="M81.69,218.52a.52.52,0,0,1-.38-.17.51.51,0,0,1,0-.71c7.72-6.75,25.87-23.49,27.56-33.09a.5.5,0,1,1,1,.17c-1.68,9.56-18.19,25.2-27.88,33.68A.52.52,0,0,1,81.69,218.52Z"/><path class="cls-3" d="M53.68,236.35c-1.1,0-1.87-.06-2-.06-5.63-1.28-13.18-6.71-22.52-16.17a.5.5,0,0,1,0-.71.49.49,0,0,1,.7,0c9.21,9.32,16.59,14.66,22,15.88h0c.06,0,6.75.51,9.45-1.65l1.21-.94c2.76-2.13,9.2-7.11,16.49-13.32a.5.5,0,1,1,.65.76c-7.3,6.23-13.77,11.22-16.53,13.35l-1.2.93C59.89,236.08,56,236.35,53.68,236.35Z"/><path class="cls-3" d="M27.38,217.88a.52.52,0,0,1-.36-.16A405.87,405.87,0,0,1,.1,184.93a.49.49,0,0,1,.11-.7.5.5,0,0,1,.69.11c.14.18,13.43,18.38,26.85,32.7a.49.49,0,0,1,0,.7A.52.52,0,0,1,27.38,217.88Z"/><path class="cls-3" d="M21.35,257h-.08a.5.5,0,0,1-.42-.57c9.11-56.61,24.66-71.58,25.32-72.19a.49.49,0,0,1,.7,0,.5.5,0,0,1,0,.71c-.16.15-16,15.43-25,71.62A.49.49,0,0,1,21.35,257Z"/><path class="cls-3" d="M18.67,257.78h-.05a.51.51,0,0,1-.45-.55c3.88-38.65,19.5-65.77,24.19-73.16a.5.5,0,0,1,.84.54c-4.66,7.34-20.18,34.28-24,72.72A.51.51,0,0,1,18.67,257.78Z"/><path class="cls-3" d="M90.21,255.75h0a.5.5,0,0,1-.5-.5c0-12.58-18.6-70.23-18.79-70.81a.5.5,0,0,1,1-.31c.77,2.38,18.84,58.38,18.84,71.12A.5.5,0,0,1,90.21,255.75Z"/><path class="cls-3" d="M87.12,254.38h0a.51.51,0,0,1-.48-.53c.7-13.22-19-68.49-19.24-69a.51.51,0,0,1,.31-.64.5.5,0,0,1,.64.31c.81,2.28,20,56,19.29,69.43A.5.5,0,0,1,87.12,254.38Z"/><path class="cls-3" d="M41.16,223.44a1.73,1.73,0,0,1-1.48-1c-1.08-1.78-1.14-6.28,1.22-9.58,3-4.23,5.07-7.77,5.11-11.3,0-.72,0-1.56-.09-2.54-.21-4.16-.51-9.86,2.56-14.68a.5.5,0,1,1,.84.53c-2.89,4.55-2.61,10.07-2.4,14.1,0,1,.09,1.85.09,2.6,0,3.79-2.14,7.49-5.29,11.87-2.1,2.92-2.1,7-1.19,8.48.22.36.45.52.71.48s.27-.77.17-2c-.17-2.26-.47-6.05,2.71-9.56,4.6-5.09,4.62-11.85,4.28-17.79a11.7,11.7,0,0,1,3.13-8.84.5.5,0,1,1,.69.73,10.89,10.89,0,0,0-2.82,8.05c.35,6.14.32,13.15-4.54,18.52-2.89,3.19-2.62,6.58-2.45,8.82.12,1.52.22,2.84-1,3Z"/><path class="cls-3" d="M51.54,185a.5.5,0,0,1-.49-.39c-.38-1.7-.3-2.8.26-3.57s1.61-1.21,3.48-1.39a2.81,2.81,0,0,1,2.24.7c1.42,1.28,1.43,3.86,1.43,4a.49.49,0,0,1-.49.5h0a.51.51,0,0,1-.5-.5s0-2.25-1.1-3.23a1.79,1.79,0,0,0-1.48-.44c-1.52.15-2.38.45-2.76,1s-.4,1.39-.09,2.76a.49.49,0,0,1-.38.59Z"/><path class="cls-3" d="M151.19,195.29a.48.48,0,0,1-.26-.07c-4.36-2.64-4.28-8.12-4.24-10.19v-.4c0-2.25-.51-5.38-4.95-6.55a2.74,2.74,0,0,0-1-.08h-.65a.51.51,0,0,1-.5-.5.5.5,0,0,1,.5-.5h.65a3.55,3.55,0,0,1,1.24.11c5.7,1.5,5.7,6,5.7,7.52v.42c0,2.09.17,7.41,4,9.75.24.14,0,0-.11.25A.49.49,0,0,1,151.19,195.29Z"/><path class="cls-3" d="M156.43,212.07l-.13,0a.51.51,0,0,1-.35-.62,33.12,33.12,0,0,0,.87-8.79,15.23,15.23,0,0,0-2.64-7.11,9.59,9.59,0,0,0-1.8-1.57,10.13,10.13,0,0,1-2.25-2.06,8.93,8.93,0,0,1-1.48-6.07,11.19,11.19,0,0,0-1.78-6.78.5.5,0,1,1,.81-.59,12,12,0,0,1,2,7.44,7.91,7.91,0,0,0,1.3,5.43,9.35,9.35,0,0,0,2,1.83,10.06,10.06,0,0,1,2,1.76,16.09,16.09,0,0,1,2.84,7.56,34.17,34.17,0,0,1-.9,9.23A.49.49,0,0,1,156.43,212.07Z"/><path class="cls-3" d="M177.92,211.61a.5.5,0,0,1-.46-.31,3,3,0,0,0-3.37-1.42c-1.61.24-5.65-.87-9.39-2.58-2.68-1.23-7.29-3.71-8.09-6.58a.5.5,0,0,1,.35-.61.48.48,0,0,1,.61.35c1.17,4.19,13.69,8.83,16.38,8.43a4,4,0,0,1,4.43,2,.5.5,0,0,1-.27.66A.65.65,0,0,1,177.92,211.61Z"/><path class="cls-3" d="M200.06,187.18c0-.16-.05-.33-.07-.5a6,6,0,0,1-.1-.74c-3.16-6.05-6.95-10.54-11.92-13.8a.5.5,0,0,0-.69.14c-.15.23-.13.34.1.49,5.3,3.49,9.28,8.63,12.54,15.48A5.5,5.5,0,0,1,200.06,187.18Z"/><path class="cls-3" d="M204.69,252.28a50.43,50.43,0,0,1-1.85,10.46,6.83,6.83,0,0,1-6.42,5.25c-1.07,0-2.16,0-3.27.05-6.59.15-13.4.31-17.57-4.74a83.3,83.3,0,0,1,1.47-9,4.2,4.2,0,0,0-1,.28.21.21,0,0,1-.08,0,77.63,77.63,0,0,0-1.42,8.87v.19l.12.15c3.72,4.65,9.29,5.31,15,5.31,1.15,0,2.31,0,3.46,0s2.19-.05,3.25-.05a7.86,7.86,0,0,0,7.39-6,50.87,50.87,0,0,0,1.87-10.49A5.11,5.11,0,0,1,204.69,252.28Z"/><path class="cls-3" d="M136.45,181.81l-.17,0a.5.5,0,0,1-.3-.64,7.43,7.43,0,0,1,4-4.1.5.5,0,0,1,.35.93,6.52,6.52,0,0,0-3.36,3.51A.48.48,0,0,1,136.45,181.81Z"/><path class="cls-3" d="M177.26,192.26h-.08c-1.25-.2-12.22-1.92-13.36-2.34a8.54,8.54,0,0,1-1.25-.62,8,8,0,0,0-2.6-1l-.6-.1c-1.56-.23-2.32-.47-5.51-4.15-3.5-4-6.11-5.09-6.14-5.1a.5.5,0,0,1,.36-.93c.12,0,2.85,1.12,6.54,5.38,3.07,3.55,3.68,3.63,4.9,3.81l.64.1a9.07,9.07,0,0,1,2.9,1.15,8.15,8.15,0,0,0,1.11.55c.79.3,8.31,1.53,13.17,2.29a.49.49,0,0,1,.41.57A.5.5,0,0,1,177.26,192.26Z"/><path class="cls-3" d="M168,190.74a.49.49,0,0,1-.48-.37.5.5,0,0,1,.35-.61c2.65-.7,5.71-1.9,6-2.62.39-.9.13-5.1-.14-7.69-1.09-.77-6.37-4.56-8.38-7.46-1.86.65-9.93,3.4-13.48,3.45-.81.93-4,4.42-6.28,4.24a.49.49,0,0,1-.46-.53.53.53,0,0,1,.54-.47c1.67.11,4.6-2.89,5.59-4.06l.16-.18h.24c3.57.08,13.62-3.48,13.72-3.52l.38-.14.22.35c1.86,3,8.45,7.58,8.51,7.63l.16.17.05.19c.08.7.72,6.94.09,8.41s-5.68,2.93-6.68,3.2Z"/><path class="cls-3" d="M165.6,171.89a.48.48,0,0,1-.46-.32,9.56,9.56,0,0,1-.72-3.45.52.52,0,0,1,.56-.43.5.5,0,0,1,.44.56,8.46,8.46,0,0,0,.65,3,.5.5,0,0,1-.29.65Z"/><path class="cls-3" d="M168,190.74a.48.48,0,0,1-.32-.11.51.51,0,0,1-.06-.71,28.32,28.32,0,0,0,3.1-4.38,10.2,10.2,0,0,0,.4-3.8.5.5,0,1,1,1-.08,10.83,10.83,0,0,1-.47,4.27,28.1,28.1,0,0,1-3.26,4.64A.5.5,0,0,1,168,190.74Z"/><path class="cls-3" d="M174.57,186.87a.54.54,0,0,1-.3-.1c-.51-.38-2.09-1.33-2.7-.69a.5.5,0,1,1-.72-.69c1.32-1.39,3.75.37,4,.58a.5.5,0,0,1-.3.9Z"/><path class="cls-3" d="M157.89,187.71a.39.39,0,0,1-.18,0,.49.49,0,0,1-.28-.64s1.21-3.11,1.63-4.69,8.17-6.68,9.72-7.66a.49.49,0,0,1,.68.15.5.5,0,0,1-.15.69c-4.37,2.78-9,6.18-9.28,7.08-.44,1.64-1.62,4.66-1.67,4.79A.51.51,0,0,1,157.89,187.71Z"/><path class="cls-3" d="M172.71,214.67a.39.39,0,0,1-.18,0,11.24,11.24,0,0,1-6.4-6.89.51.51,0,0,1,.35-.62.49.49,0,0,1,.61.35,10.43,10.43,0,0,0,5.8,6.23.5.5,0,0,1-.18,1Z"/><path class="cls-3" d="M177.21,215.8c-.44,0-.93,0-1.49,0a.51.51,0,0,1-.49-.51.5.5,0,0,1,.51-.49c3.13.06,3.92-.67,3.92-.67a.51.51,0,0,1,.7,0,.5.5,0,0,1,0,.69C180.27,215,179.57,215.64,177.21,215.8Z"/><path class="cls-3" d="M65.06,130.56a.63.63,0,0,1-.19,0,.52.52,0,0,1-.27-.66c1.52-3.7,3.41-9.08,3.43-9.13a.51.51,0,0,1,.64-.31.49.49,0,0,1,.3.64c0,.05-1.91,5.45-3.44,9.18A.5.5,0,0,1,65.06,130.56Z"/><path class="cls-3" d="M65.93,136.23a.43.43,0,0,1-.19,0,.49.49,0,0,1-.27-.65c.51-1.22,1.17-2.63,1.81-4s1.43-3.08,1.94-4.32a.5.5,0,1,1,.93.37c-.52,1.27-1.25,2.85-2,4.38-.64,1.36-1.29,2.77-1.8,4A.49.49,0,0,1,65.93,136.23Z"/><path class="cls-3" d="M64.73,145.49a.48.48,0,0,1-.26-.07.49.49,0,0,1-.16-.69l7-11.2a.5.5,0,1,1,.84.53l-7,11.2A.51.51,0,0,1,64.73,145.49Z"/><path class="cls-3" d="M67.81,146.91a.42.42,0,0,1-.24-.07.5.5,0,0,1-.2-.68l3.22-5.7a.53.53,0,0,1,.68-.27.49.49,0,0,1,.19.68l-3.21,5.78A.51.51,0,0,1,67.81,146.91Z"/><path class="cls-3" d="M56.57,181.12h-.11a.52.52,0,0,1-.39-.61c.12-.6,3.44-4.89,6.21-8.39A.5.5,0,0,1,63,172a.51.51,0,0,1,.08.71c-2.76,3.49-5.81,7.49-6,8A.48.48,0,0,1,56.57,181.12Z"/><path class="cls-3" d="M55.2,180.55a.53.53,0,0,1-.28-.07c-.36-.24-.59-.39.83-4.15a.49.49,0,0,1,.64-.29.5.5,0,0,1,.29.64,22.89,22.89,0,0,0-1,3,.49.49,0,0,1,0,.66A.63.63,0,0,1,55.2,180.55Z"/><path class="cls-3" d="M53.75,180.79a.5.5,0,0,1-.49-.38c-1-4.16,1.31-14.76,1.41-15.21a.5.5,0,0,1,1,.22c0,.11-2.42,10.82-1.42,14.75a.5.5,0,0,1-.36.61Z"/><path class="cls-1" d="M76.66,67.26a47.51,47.51,0,0,0,10-21.83c1.49-9.14.2-19.43-4.52-27.49C68.17-6,32.67,10.35,33.67,35.41c0,0,1.41,35.58,22.13,40.27C64.21,77.58,71.35,73.53,76.66,67.26Z"/><path class="cls-3" d="M60,76.66a19.84,19.84,0,0,1-4.3-.49C34.85,71.45,33.17,35.76,33.17,35.41,32.6,21,43.66,10.17,54.88,6.89c11.44-3.34,21.79.69,27.7,10.8,4.52,7.74,6.19,17.88,4.58,27.82A48.1,48.1,0,0,1,77.05,67.58h0C73.36,71.93,67.6,76.66,60,76.66ZM62.57,6.74a26.37,26.37,0,0,0-7.4,1.11C44.31,11,33.62,21.5,34.17,35.39c0,.35,1.62,35.25,21.74,39.8,9.27,2.1,16.2-3.33,20.37-8.26h0a46.91,46.91,0,0,0,9.89-21.58c1.58-9.71,0-19.61-4.46-27.16S70.49,6.74,62.57,6.74ZM76.66,67.26h0Z"/><path class="cls-1" d="M116.59,84.15a50.47,50.47,0,0,0,13.85-21.4c3-9.38,3.18-20.38-.54-29.57A26.14,26.14,0,0,0,104,17C90.52,17.7,77.72,30.64,76.3,44.1c0,0-4,37.6,17.08,45.7C101.92,93.09,110,89.92,116.59,84.15Z"/><path class="cls-3" d="M100.41,91.64a20,20,0,0,1-7.21-1.37c-8.76-3.38-14.55-12.43-16.73-26.18a85.93,85.93,0,0,1-.67-20c1.48-14,14.66-26.85,28.22-27.58A26.8,26.8,0,0,1,130.37,33c3.56,8.83,3.76,19.73.54,29.91a50.91,50.91,0,0,1-14,21.63h0C112.92,88.05,107.18,91.64,100.41,91.64Zm5.08-74.21c-.47,0-.94,0-1.42,0C91,18.17,78.22,30.64,76.8,44.15a84.35,84.35,0,0,0,.65,19.78c1.49,9.33,5.48,21.31,16.1,25.4,9.44,3.64,17.56-1,22.71-5.55A50,50,0,0,0,130,62.6c3.15-10,3-20.62-.52-29.23A25.73,25.73,0,0,0,105.49,17.43Z"/><path class="cls-1" d="M124.78,41.68c.54,1.13,1,2.28,1.5,3.45"/><path class="cls-3" d="M126.28,45.63a.51.51,0,0,1-.47-.32c-.45-1.15-1-2.31-1.48-3.42a.5.5,0,0,1,.23-.67.51.51,0,0,1,.67.24c.55,1.13,1.06,2.31,1.52,3.49a.5.5,0,0,1-.29.65Z"/><path class="cls-1" d="M106,23.5c7.39,2.61,12.6,7.31,16.6,14.17"/><path class="cls-3" d="M122.58,38.18a.5.5,0,0,1-.43-.25c-4.09-7-9.28-11.46-16.34-14a.49.49,0,0,1-.3-.63.51.51,0,0,1,.64-.31c7.29,2.58,12.65,7.15,16.86,14.39a.51.51,0,0,1-.18.69A.59.59,0,0,1,122.58,38.18Z"/><path class="cls-1" d="M99.87,92.85s.87,3.7-.69,5.18a.31.31,0,0,1-.47-.08c-.26-.43-.78-1.16-1.53-1.19-1.12,0-2,.87-3.06,1.07-1.54.3-1.92-.51-2.56-1.63-.87-1.54-2.36-1.18-3.72-.26C86,97.19,89,89.37,92.77,89.69S99.13,90.88,99.87,92.85Z"/><path class="cls-3" d="M99,98.61h-.11a.84.84,0,0,1-.6-.4c-.2-.34-.62-.92-1.12-.94a3.22,3.22,0,0,0-1.54.5,5.33,5.33,0,0,1-1.4.56c-1.84.35-2.41-.67-3-1.74l-.07-.14a1.42,1.42,0,0,0-.9-.76,2.93,2.93,0,0,0-2.11.68.82.82,0,0,1-1,.07c-.15-.13-.62-.5.09-2.27.84-2.12,3-5.21,5.65-5,4.37.36,6.76,1.47,7.52,3.48l0,.06c0,.17.92,4-.84,5.66A.77.77,0,0,1,99,98.61ZM97.1,96.26h.1A2.36,2.36,0,0,1,99,97.48c.9-1.14.6-3.56.39-4.48-.62-1.59-2.74-2.49-6.66-2.82a4,4,0,0,0-3,1.69,9.38,9.38,0,0,0-1.87,3.49,3.51,3.51,0,0,1,2.63-.65A2.37,2.37,0,0,1,92,96l.07.14c.59,1,.83,1.46,2,1.25a4.85,4.85,0,0,0,1.13-.47A4.39,4.39,0,0,1,97.1,96.26Z"/><path class="cls-3" d="M90.82,97.37a.5.5,0,0,1-.5-.5c0-3.59,3.6-7,3.76-7.17a.49.49,0,0,1,.7,0,.5.5,0,0,1,0,.71s-3.44,3.29-3.44,6.44A.5.5,0,0,1,90.82,97.37Z"/><path class="cls-1" d="M97,97.17a10.8,10.8,0,0,0,.15-6.43"/><path class="cls-3" d="M97,97.67a.57.57,0,0,1-.18,0,.51.51,0,0,1-.29-.65,10.24,10.24,0,0,0,.14-6.1.51.51,0,0,1,.33-.63.5.5,0,0,1,.62.34,11.16,11.16,0,0,1-.15,6.75A.51.51,0,0,1,97,97.67Z"/><path class="cls-1" d="M81.3,84.68s1.74,3.38.58,5.2a.3.3,0,0,1-.47,0,2.14,2.14,0,0,0-1.77-.78c-1.1.23-1.75,1.33-2.71,1.78-1.43.66-2,0-2.88-1-1.22-1.28-2.58-.57-3.67.65-1.48,1.66-.48-6.65,3.27-7.26S80.1,83,81.3,84.68Z"/><path class="cls-3" d="M75.91,91.67a3,3,0,0,1-2.12-1.27l-.1-.11a1.5,1.5,0,0,0-1.06-.52,2.93,2.93,0,0,0-1.88,1.16.83.83,0,0,1-1,.33c-.17-.08-.72-.33-.46-2.22.31-2.26,1.7-5.78,4.28-6.2,4.33-.7,6.92-.21,8.14,1.56l0,0c.08.15,1.86,3.66.56,5.7a.76.76,0,0,1-.57.35.82.82,0,0,1-.68-.24c-.28-.28-.82-.74-1.31-.64a3.34,3.34,0,0,0-1.38.87,5.39,5.39,0,0,1-1.22.87A2.92,2.92,0,0,1,75.91,91.67Zm-3.26-2.9a2.4,2.4,0,0,1,1.76.83l.11.12c.82.86,1.16,1.22,2.2.73a4.42,4.42,0,0,0,1-.72,4.15,4.15,0,0,1,1.83-1.09,2.36,2.36,0,0,1,2,.74c.59-1.32-.29-3.59-.71-4.44-1-1.39-3.26-1.74-7.14-1.11A4,4,0,0,0,71.2,86.2a9.31,9.31,0,0,0-1,3.84,3.53,3.53,0,0,1,2.4-1.27Z"/><path class="cls-3" d="M73.49,91.28A.49.49,0,0,1,73,90.9c-.87-3.48,1.79-7.69,1.9-7.86a.5.5,0,1,1,.84.54s-2.54,4-1.77,7.08a.51.51,0,0,1-.37.61Z"/><path class="cls-1" d="M79.54,89.58a10.74,10.74,0,0,0-1.42-6.27"/><path class="cls-3" d="M79.54,90.08h-.06a.49.49,0,0,1-.43-.55,10.49,10.49,0,0,0-1.35-6,.48.48,0,0,1,.17-.68.49.49,0,0,1,.68.17A11.21,11.21,0,0,1,80,89.64.51.51,0,0,1,79.54,90.08Z"/><path class="cls-1" d="M65.34,76.13s2,3.22,1,5.13a.31.31,0,0,1-.47.07,2.12,2.12,0,0,0-1.83-.62c-1.07.32-1.63,1.47-2.54,2-1.37.79-2,.15-3-.71C57.25,80.83,56,81.66,55,83c-1.34,1.78-1-6.59,2.62-7.52S64,74.51,65.34,76.13Z"/><path class="cls-3" d="M54.64,83.72a.73.73,0,0,1-.23,0c-.18-.07-.75-.27-.65-2.17.11-2.28,1.19-5.9,3.72-6.54,4.25-1.08,6.87-.81,8.24.84l0,.06c.09.14,2.18,3.48,1.06,5.62a.76.76,0,0,1-.55.4.83.83,0,0,1-.69-.18c-.3-.26-.89-.67-1.36-.52a3.23,3.23,0,0,0-1.3,1,5.32,5.32,0,0,1-1.14,1c-1.63.94-2.5.16-3.42-.66l-.12-.1A1.4,1.4,0,0,0,57.15,82a2.85,2.85,0,0,0-1.77,1.32A.94.94,0,0,1,54.64,83.72Zm2.63-2.78a2.46,2.46,0,0,1,1.64.69l.11.1c.89.79,1.26,1.12,2.26.55a4.82,4.82,0,0,0,.92-.81,4,4,0,0,1,1.73-1.24,2.36,2.36,0,0,1,2.1.56c.47-1.37-.6-3.56-1.1-4.36-1.1-1.3-3.39-1.46-7.21-.49a3.94,3.94,0,0,0-2.31,2.57,9.44,9.44,0,0,0-.64,3.91A3.56,3.56,0,0,1,57.05,81Z"/><path class="cls-3" d="M58.09,83.38a.51.51,0,0,1-.47-.33c-1.17-3.39,1.12-7.82,1.22-8a.5.5,0,0,1,.67-.21.5.5,0,0,1,.21.68s-2.18,4.23-1.15,7.21a.51.51,0,0,1-.31.64Z"/><path class="cls-1" d="M64,81.16a10.83,10.83,0,0,0-2-6.13"/><path class="cls-3" d="M64,81.66h0a.5.5,0,0,1-.48-.52,10.44,10.44,0,0,0-1.86-5.81.49.49,0,0,1,.11-.7.5.5,0,0,1,.69.11,11.28,11.28,0,0,1,2.06,6.44A.51.51,0,0,1,64,81.66Z"/><path class="cls-1" d="M101,73.36a56.18,56.18,0,0,0,11.86-25.9c1.77-10.84.24-23-5.36-32.61A29.25,29.25,0,0,0,75.71,1.22C61.16,4.44,49.42,20.69,50,35.57c0,0,1.67,42.22,26.25,47.79C86.25,85.62,94.71,80.8,101,73.36Z"/><path class="cls-3" d="M81.23,84.42a23,23,0,0,1-5.08-.58C51.63,78.29,49.58,37.34,49.51,35.6,48.9,20.23,61.09,4,75.6.73A29.8,29.8,0,0,1,108,14.6c5.36,9.17,7.33,21.18,5.42,32.94a57.06,57.06,0,0,1-12,26.15h0C97,78.83,90.23,84.42,81.23,84.42ZM50.5,35.55h0a94.51,94.51,0,0,0,4,21.88C57.61,67.48,64,80.06,76.37,82.87c11,2.5,19.3-4,24.27-9.83h0a55.82,55.82,0,0,0,11.75-25.66c1.88-11.54,0-23.3-5.3-32.28A28.78,28.78,0,0,0,75.82,1.71C61.74,4.83,49.91,20.64,50.5,35.55ZM101,73.36h0Z"/><path class="cls-1" d="M79.67,7.78c7.82.47,14.12,3.55,19.85,9.06"/><path class="cls-3" d="M99.52,17.34a.54.54,0,0,1-.35-.14c-5.85-5.63-12.06-8.47-19.53-8.92a.5.5,0,0,1-.47-.53.49.49,0,0,1,.53-.47c7.72.47,14.13,3.39,20.17,9.2a.5.5,0,0,1-.35.86Z"/><path class="cls-3" d="M152.62,175.51a.55.55,0,0,1-.25-.07c-.22-.13-2.16-1.27-2.67-2.46a.5.5,0,0,1,.92-.4,6.38,6.38,0,0,0,2.25,2,.51.51,0,0,1,.18.69A.5.5,0,0,1,152.62,175.51Z"/><path class="cls-3" d="M156.37,268a.41.41,0,0,1-.21-.05c-3.24-1.54-4.7-3-4.48-4.4.44-2.75,7.48-3.73,8.29-3.84a.5.5,0,0,1,.56.44.51.51,0,0,1-.43.56c-2.75.35-7.19,1.48-7.43,3-.08.51.32,1.63,3.92,3.34a.5.5,0,0,1-.22,1Z"/><path class="cls-3" d="M161.18,270.44a.54.54,0,0,1-.21-.05l-2.29-1a.49.49,0,0,1-.25-.66.5.5,0,0,1,.66-.25l2.3,1a.5.5,0,0,1-.21,1Z"/></g></g></svg>