<svg xmlns="http://www.w3.org/2000/svg" viewBox="0 0 156.6 150.22"><defs><style>.cls-1{fill:#fff;}</style></defs><g id="Layer_2" data-name="Layer 2"><g id="Layer_1-2" data-name="Layer 1"><path class="cls-1" d="M142.46,13.45a.49.49,0,0,1-.44-.26.51.51,0,0,1,.16-.66A6.54,6.54,0,0,0,145.36,8c.47-3.6-2.57-7.09-2.6-7.13a.5.5,0,0,1,0-.69.49.49,0,0,1,.69,0c5.19,5,11.34.7,12.22,0l.1-.08a.51.51,0,0,1,.7.09.5.5,0,0,1-.09.7l0,0c-4.41,3.39.13,11.23.17,11.3a.49.49,0,0,1-.13.66.51.51,0,0,1-.67-.07c-3.38-3.83-13,.54-13.06.58A.41.41,0,0,1,142.46,13.45Zm2.65-10.91a9.43,9.43,0,0,1,1.24,5.55,6.61,6.61,0,0,1-1.49,3.39c2.72-.91,7-1.92,9.9-.58-.93-2.15-2.06-5.76-.76-8.59A10,10,0,0,1,145.11,2.54Z"/><path class="cls-1" d="M115.9,150.22h-.08a.5.5,0,0,1-.42-.52c.15-2.35-3.92-4.36-5.49-4.94a.5.5,0,0,1-.31-.61.48.48,0,0,1,.57-.35,3.64,3.64,0,0,0,3-.54c1.61-1.24,1.79-3.84,1.8-3.86a.49.49,0,0,1,.49-.47h0a.49.49,0,0,1,.48.49c.09,4,4.25,4.77,4.85,4.85h.08a.5.5,0,0,1,.42.56.52.52,0,0,1-.55.44h0c-3-.4-4.35,4.53-4.37,4.58A.5.5,0,0,1,115.9,150.22Zm-3.58-5.46A9.08,9.08,0,0,1,116,148a7,7,0,0,1,2.71-3.33,6,6,0,0,1-3.22-3,5.33,5.33,0,0,1-1.67,2.36A3.76,3.76,0,0,1,112.32,144.76Z"/><path class="cls-1" d="M7.21,108.91a.51.51,0,0,1-.17,0,.5.5,0,0,1-.32-.59c1-4-6.4-8.41-6.47-8.45a.5.5,0,0,1-.2-.65.52.52,0,0,1,.63-.25,5.27,5.27,0,0,0,4.5,0c2.62-1.34,3.56-5,3.56-5a.51.51,0,0,1,.59-.37.49.49,0,0,1,.39.57c-.91,5.76,4.76,7.88,5.63,8.17l.11,0a.49.49,0,0,1,.32.62.5.5,0,0,1-.62.33l-.05,0c-4.28-1.37-7.42,5.3-7.45,5.37A.49.49,0,0,1,7.21,108.91Zm-4.3-8.46c1.82,1.39,4.23,3.63,4.78,6.07,1-1.59,2.82-3.81,5.17-4.34A8.34,8.34,0,0,1,8.73,96.6a7.69,7.69,0,0,1-3.08,3.24A5.48,5.48,0,0,1,2.91,100.45Z"/></g></g></svg>