<svg id="Layer_1" data-name="Layer 1" xmlns="http://www.w3.org/2000/svg" viewBox="0 0 252.57 203.28"><defs><style>.cls-1{fill:#231f20;}</style></defs><g id="Group_12" data-name="Group 12"><g id="Group_7" data-name="Group 7"><path id="Path_16" data-name="Path 16" class="cls-1" d="M158.88,111.71h-.08a9,9,0,0,0-1.64.15,18,18,0,0,0-9.14,4.51c-.44.36-.82.68-1.18.94a15.52,15.52,0,0,1,3.16.63,22.86,22.86,0,0,0,7.31,1h1.09c3-.08,6.18-2.6,8.58-4.75l-1.19-.53A16.69,16.69,0,0,0,158.88,111.71Z"/></g><g id="Group_8" data-name="Group 8"><path id="Path_17" data-name="Path 17" class="cls-1" d="M104.57,116.42a18,18,0,0,0-9.19-4.56,11.1,11.1,0,0,0-1.63-.15h-.08a16.77,16.77,0,0,0-6.92,1.94c-.4.19-.8.37-1.19.53,2.39,2.14,5.57,4.68,8.6,4.75h1.08a22.87,22.87,0,0,0,7.3-1,14.25,14.25,0,0,1,3.17-.63C105.35,117.06,105,116.75,104.57,116.42Z"/></g></g></svg>