<svg xmlns="http://www.w3.org/2000/svg" viewBox="0 0 232.7 254.12"><defs><style>.cls-1{fill:#fff;}.cls-2{fill:#171717;}.cls-3{fill:#ededed;}</style></defs><g id="Layer_2" data-name="Layer 2"><g id="Layer_1-2" data-name="Layer 1"><path class="cls-1" d="M188.34,106.06s-5.69-9-12.6-8.36S161.41,89,159.24,87.17s-8.05-.31-9.29-2.47-.81-3.75-3.59-4.4-5.56,4.9-7.86,3.76-.32-7.2-5.56-5.4-4.25,22.42-13.25,25.2-21.06,33.87-21.06,33.87l83.72-3.28Z"/><path class="cls-1" d="M181.14,133l34-1.86s4.57-14.86-7.66-21S191,91.84,191,91.84,175,110.94,181.14,133Z"/><path class="cls-2" d="M180.77,133.48l-.11-.39c-6.12-22,9.75-41.38,9.91-41.57l.57-.68.29.84c0,.12,4.33,12.08,16.23,18,12.47,6.22,8,21.39,7.92,21.55l-.11.33Zm10-40.65c-2.67,3.55-14.38,20.54-9.3,39.61l33.19-1.82a23.79,23.79,0,0,0,.64-7.7c-.5-5.74-3.24-9.89-8.14-12.33C196.79,105.39,192,95.72,190.82,92.83Z"/><path class="cls-2" d="M198.75,129.35a.51.51,0,0,1-.41-.2c-5-6.8-.23-15.6,0-16l.18-.32.36.07c4.72,1,8,3.09,9.73,6.17a12.69,12.69,0,0,1,.83,9.57.5.5,0,0,1-.63.31.5.5,0,0,1-.32-.63s1.56-4.7-.75-8.77c-1.55-2.74-4.48-4.61-8.69-5.58-.79,1.63-3.93,9,.13,14.56a.5.5,0,0,1-.11.69A.46.46,0,0,1,198.75,129.35Z"/><path class="cls-2" d="M202.25,127.16c-3.07,0-5.62-1.62-5.94-4a4.26,4.26,0,0,1,1.48-3.7,8.41,8.41,0,0,1,9.08-1.27,4.25,4.25,0,0,1,2.44,3.15c.37,2.63-2.24,5.18-5.83,5.68A8.69,8.69,0,0,1,202.25,127.16Zm1.15-8.72a8.56,8.56,0,0,0-1.12.08,6.93,6.93,0,0,0-3.8,1.72,3.29,3.29,0,0,0-1.18,2.83c.29,2.09,3,3.43,6,3s5.28-2.47,5-4.55a3.3,3.3,0,0,0-1.91-2.41A6.57,6.57,0,0,0,203.4,118.44Z"/><path class="cls-1" d="M123.65,138.27S137.77,97.81,148,84c0,0-2.94-15.11,19.55-24,0,0,.87-25.29,3.47-27.26s5.83,5.73,5.88,8.21-1.55,17.22,1.07,18.21,6,1.14,6.76-1.45c1.06-3.53-.82-23.64,0-26.61,1.74-6.24,7.16-3.31,7.16-.68S194,58.63,195,58.63s5.85,1.71,6.15-2.53S209.37,24.9,215,24.9c3.31,0,1.76,5.21,1.26,7-.78,2.68-1.84,5.46-2.68,8.19a63.89,63.89,0,0,0-1.75,8.64c-.14.87-2.21,10.57-1.42,10.83a14.79,14.79,0,0,0,2.64.2s8.79-20.34,15.43-20.7c.46,0,1.58.84,1.5,1.3a99,99,0,0,1-4.17,13,45.46,45.46,0,0,1-4.49,8.05s10.93-.69,10.93,5.74a1.25,1.25,0,0,1-1,1.28c-2.44.35-11.7,2.23-12,3.17-.55,1.52-2.9,8.35-6.35,9.68s-32.33,5.48-35.91,10-10.74,35.29-11.27,45.11S123.65,138.27,123.65,138.27Z"/><path class="cls-2" d="M151.54,141.8c-11.93,0-27.06-2.86-28-3l-.57-.1.19-.55c.15-.4,14.16-40.37,24.26-54.22C147.18,82,146.21,68,167,59.7c.18-4.92,1.07-25.35,3.66-27.31a1.93,1.93,0,0,1,2.12-.2c2.38,1.15,4.52,6.6,4.56,8.79,0,.56,0,1.67-.14,3.08-.22,3.84-.83,14,.89,14.67A6.79,6.79,0,0,0,183,59a2.15,2.15,0,0,0,1.16-1.4c.54-1.79.27-8.48,0-14.39s-.44-10.73,0-12.2c1.13-4.07,3.62-4.19,4.64-4.05a4,4,0,0,1,3.5,3.5c0,3,2,25.35,2.89,27.69l.56.09c1.11.2,3,.52,4-.3a2.41,2.41,0,0,0,.83-1.87c.31-4.36,8.18-31.67,14.34-31.67a2.3,2.3,0,0,1,2,.89c1.23,1.64.27,5-.2,6.62s-1,3.15-1.51,4.66c-.41,1.21-.83,2.42-1.2,3.63a50.53,50.53,0,0,0-1.48,7.08l-.24,1.5c0,.13-.09.47-.19.95-1.3,6.56-1.5,8.74-1.4,9.35a13.71,13.71,0,0,0,2,.14c1.18-2.66,9.24-20.34,15.73-20.7a2.55,2.55,0,0,1,1.64.91,1.18,1.18,0,0,1,.39,1,99.92,99.92,0,0,1-4.21,13.16,43.19,43.19,0,0,1-4,7.34c2,0,6.48.27,8.88,2.53a4.9,4.9,0,0,1,1.59,3.73,1.76,1.76,0,0,1-1.47,1.78c-2.9.41-11,2.16-11.69,2.91l0,.12c-2,5.59-4.23,8.88-6.57,9.78a83,83,0,0,1-8.33,1.85c-9.33,1.85-25,4.94-27.37,8-3.39,4.29-10.61,34.6-11.16,44.82a3.83,3.83,0,0,1-1.6,2.89C162.1,141.16,157.18,141.8,151.54,141.8Zm-27.23-3.91c4.42.8,33,5.74,39.56.63a2.85,2.85,0,0,0,1.21-2.16c.53-9.66,7.57-40.59,11.38-45.39,2.45-3.09,14.62-5.71,28-8.35,4-.8,7.19-1.43,8.16-1.8,2.06-.79,4.08-3.88,6-9.19l.07-.19C219.2,69.91,231,68,231.09,68a.77.77,0,0,0,.61-.79,3.88,3.88,0,0,0-1.27-3c-2.78-2.61-9.07-2.24-9.13-2.24l-1.05.07.61-.86a45.2,45.2,0,0,0,4.44-7.94,99.12,99.12,0,0,0,4.14-12.95,2.16,2.16,0,0,0-1-.72c-6.24.34-14.89,20.2-15,20.4l-.13.3H213a13.5,13.5,0,0,1-2.8-.23c-.58-.19-1.09-.36.91-10.46.09-.46.16-.79.18-.92l.24-1.48a52.48,52.48,0,0,1,1.52-7.23c.37-1.21.79-2.43,1.21-3.65.51-1.5,1-3,1.46-4.53.38-1.32,1.32-4.59.39-5.83A1.35,1.35,0,0,0,215,25.4c-5.12,0-13,26.39-13.34,30.74a3.42,3.42,0,0,1-1.21,2.59c-1.4,1.09-3.52.72-4.78.5a5.34,5.34,0,0,0-.66-.1c-.6,0-1.07,0-2.41-13.55-.67-6.8-1.21-13.83-1.21-15.12A3,3,0,0,0,188.71,28c-1.6-.22-2.9,1-3.55,3.33-.36,1.32-.14,6.69.07,11.89.25,6.28.52,12.77-.07,14.72a3.18,3.18,0,0,1-1.68,2c-1.38.68-3.52.59-5.73-.24-2-.75-2.09-6.31-1.53-15.66.08-1.39.14-2.48.13-3,0-1.9-2.07-7-4-7.92a1,1,0,0,0-1.09.09c-1.75,1.33-2.94,17.2-3.27,26.88v.33l-.3.12c-11.46,4.52-16.08,10.67-17.94,15a15.8,15.8,0,0,0-1.31,8.37l0,.22-.13.18C139,97,126.05,133,124.31,137.89Z"/><path class="cls-2" d="M159.64,74.42a.59.59,0,0,1-.23,0,.5.5,0,0,1-.22-.68c.11-.21,11.22-20.69,48.1-11.42a.5.5,0,0,1,.36.6.51.51,0,0,1-.61.37c-18.87-4.75-30.64-1.52-37.18,2-7.08,3.83-9.75,8.84-9.78,8.89A.5.5,0,0,1,159.64,74.42Z"/><path class="cls-2" d="M200.41,76.21a.5.5,0,0,1-.11-1c.16,0,16.13-3.6,22.42-5.54a.51.51,0,0,1,.63.33.5.5,0,0,1-.33.62c-6.34,2-22.34,5.53-22.5,5.57Z"/><path class="cls-2" d="M195,66.06a25.65,25.65,0,0,1-10.52-2.68.5.5,0,0,1-.21-.67.49.49,0,0,1,.67-.21c.08,0,8.09,4.15,14.32,1.86,5.32-2,15.41-3.51,22-3.44a.5.5,0,1,1,0,1h0c-6.53-.08-16.46,1.47-21.69,3.38A13.26,13.26,0,0,1,195,66.06Z"/><path class="cls-2" d="M150.74,83.6a.51.51,0,0,1-.5-.44.5.5,0,0,1,.44-.56c.36,0,8.95-1,11-1a.5.5,0,0,1,.5.5.5.5,0,0,1-.5.5c-2,0-10.84,1-10.93,1Z"/><path class="cls-2" d="M156.23,86h-4.74a.5.5,0,0,1-.5-.5.51.51,0,0,1,.5-.5h4.74a.51.51,0,0,1,.5.5A.5.5,0,0,1,156.23,86Z"/><path class="cls-1" d="M159.66,20c1.79-5.12,6-9.73,9.94-13.17C174,3.07,179.57.47,185.35.5a19.87,19.87,0,0,1,17.26,10.69c4.69,9.31,2.14,19-6,25.35-13.35,10.42-32,10.23-37.34-7.77A14,14,0,0,1,159.66,20Z"/><path class="cls-2" d="M178,44a20.79,20.79,0,0,1-6.4-1c-6.21-2-10.62-6.89-12.76-14.14a14.57,14.57,0,0,1,.37-9.06h0c1.93-5.51,6.55-10.32,10.09-13.38A24.85,24.85,0,0,1,185.35,0a20.35,20.35,0,0,1,17.7,11c4.74,9.39,2.4,19.34-6.1,26C191.06,41.53,184.23,44,178,44ZM160.14,20.19a13.49,13.49,0,0,0-.36,8.44c2,6.92,6.22,11.58,12.11,13.47,7.34,2.36,16.71.08,24.45-6,8.09-6.32,10.32-15.8,5.82-24.73A19.35,19.35,0,0,0,185.35,1h-.1a23.82,23.82,0,0,0-15.32,6.23c-3.44,3-7.94,7.64-9.79,13Z"/><path class="cls-2" d="M179.69,39.84h0A17.64,17.64,0,0,1,169.46,36a16.7,16.7,0,0,1-3-3.23.5.5,0,1,1,.81-.58,15.4,15.4,0,0,0,2.81,3,16.56,16.56,0,0,0,9.62,3.6.49.49,0,0,1,.46.53A.49.49,0,0,1,179.69,39.84Z"/><path class="cls-2" d="M164.67,28.77a.51.51,0,0,1-.47-.33A19.68,19.68,0,0,1,163,23.65a.51.51,0,0,1,.46-.54.52.52,0,0,1,.54.46,18.39,18.39,0,0,0,1.12,4.52.49.49,0,0,1-.29.64A.47.47,0,0,1,164.67,28.77Z"/><path class="cls-1" d="M97.94,88.31,92.73,97.4S103,88,110,95.25s-3.45,23.09-13.55,25.57c0,0,0-5.58,8.5-6.77,9.18-1.29,15.44,2.16,11.84,9.47s-4.18,10-4.18,10h6.28s5.51-11,5.13-13.11c-.3-1.68-4.9-9.87-15.4-10.13-2.52-.06-5.39-.92-8.82.11-13.86,4.17-5.25,12.52-2.15,12.37s20.48-8.71,18.59-24.62C114.55,83.87,97.94,88.31,97.94,88.31Z"/><path class="cls-2" d="M96.77,123.25a4.92,4.92,0,0,1-4.41-2.8,6.48,6.48,0,0,1,.59-6.76c1.49-2.1,5.58-5.39,16.15-3.86a.5.5,0,0,1,.43.56.51.51,0,0,1-.57.43c-10-1.45-13.84,1.53-15.2,3.45a5.5,5.5,0,0,0-.51,5.72,4,4,0,0,0,3.52,2.26c3.56,0,8.81-3,12.77-7.4,2.64-2.91,7-8.95,6.2-16.68-.35-3.62-1.72-6.31-4.08-8-4.58-3.28-11.43-1.73-11.5-1.71a.5.5,0,0,1-.23-1c.3-.07,7.36-1.68,12.31,1.87,2.6,1.86,4.12,4.79,4.5,8.72.58,6-1.71,12.2-6.46,17.44C106.15,120.08,100.59,123.25,96.77,123.25Z"/><path class="cls-2" d="M93.73,121.6a.5.5,0,0,1-.5-.5.5.5,0,0,1,.5-.5c6.29,0,10.62-4.41,12.64-7,3.65-4.75,5.46-10.84,4.4-14.81a.5.5,0,1,1,1-.25c1.14,4.25-.74,10.69-4.57,15.67C103.48,119,98.71,121.6,93.73,121.6Z"/><path class="cls-2" d="M96.45,121.32h-.07a.51.51,0,0,1-.42-.57,8.68,8.68,0,0,1,3.17-5.32,8.87,8.87,0,0,1,6.83-1.37.5.5,0,0,1,.42.57.51.51,0,0,1-.57.42,7.91,7.91,0,0,0-6.07,1.18A7.78,7.78,0,0,0,97,120.89.51.51,0,0,1,96.45,121.32Z"/><path class="cls-2" d="M119.24,131.58a.54.54,0,0,1-.3-.1.51.51,0,0,1-.11-.7c3.51-4.87,4.65-9.09,3.37-12.54-2-5.28-9-7-9.09-7.06a.51.51,0,0,1-.37-.6.49.49,0,0,1,.6-.37c.31.07,7.66,1.89,9.8,7.68,1.4,3.78.22,8.32-3.5,13.48A.52.52,0,0,1,119.24,131.58Z"/><path class="cls-2" d="M114.21,132a.5.5,0,0,1-.35-.86,20.1,20.1,0,0,0,3.9-6.42,4.64,4.64,0,0,0,0-3.79c-1.58-3.69-7.46-5.89-7.52-5.91a.5.5,0,0,1-.3-.64.51.51,0,0,1,.64-.3c.26.1,6.35,2.37,8.1,6.45a5.61,5.61,0,0,1,0,4.59,21.31,21.31,0,0,1-4.12,6.74A.54.54,0,0,1,114.21,132Z"/><path class="cls-2" d="M24.49,154.43h0l-12.69-1a.5.5,0,0,1-.46-.54.51.51,0,0,1,.54-.46l12.68,1A.5.5,0,0,1,25,154,.49.49,0,0,1,24.49,154.43Z"/><path class="cls-2" d="M14.13,149.11h0l-4.66-.39a.51.51,0,0,1-.46-.54.52.52,0,0,1,.54-.46l4.67.39a.5.5,0,0,1,.45.54A.49.49,0,0,1,14.13,149.11Z"/><path class="cls-3" d="M56.51,61.17a17.31,17.31,0,0,0-12,.94,14.73,14.73,0,0,0-1.89-4.76c-1.67-2.51-5.06-8.46-9.5-8.49,0,0-16.79-6.31-32.6,3.53L1.81,56.8s20.67-8.44,30.67-3.3c4.74,2.43,7,6.89,8.12,10.9-.56.42-1.13.87-1.7,1.38-8.75,7.79-2.37,12.57-1.36,12.37a8,8,0,0,0,2.06-.84s-2.91-4.56,1.92-7.41a22.77,22.77,0,0,1,0,2.87A25.78,25.78,0,0,1,40,76.93c-.4.38.87,2.25,2.24,1.3s3.83-4.14,3.33-9.26c0-.47-.09-.91-.14-1.36,3.31-1.84,6.37-3.09,9-2,3.65,1.53,6.54,6.48,7.42,14.49l3.92-4.06S63.8,62,56.51,61.17Z"/><path class="cls-2" d="M41.53,78.84a3.69,3.69,0,0,1-1.81-.49l-.16-.15L39.45,78a3.29,3.29,0,0,1-2.36.56c-1.26-.25-2.27-1.41-3-3.46-2-5.44,4.25-9.69,5.78-10.63-.15-.62-.31-1.28-.49-2-2.62-10.12-11.26-9.84-17.57-9.63-.94,0-1.82.06-2.63.05h-.09c-6.17,0-17,4.26-17.1,4.3l-.51.2L0,52.27l.16-.2c.17-.21,2-2.2,13.32-4.65,13.26-2.89,23.56.19,29,8.65,5.66,8.82,3.35,18.6,1.92,21a3.44,3.44,0,0,1-2.13,1.7A3.17,3.17,0,0,1,41.53,78.84Zm-1.2-1.29a2.29,2.29,0,0,0,3.2-1c1.55-2.58,3.21-12-1.9-19.93-7-10.91-20.51-9.83-27.94-8.22-9.12,2-11.9,3.66-12.57,4.16l1,3.58c2.27-.86,11.3-4.17,17-4.17h.31c.74,0,1.54,0,2.38-.05,6.27-.21,15.75-.52,18.57,10.38,2.93,11.3,1.55,14,0,15l-.09.09Zm-.22-12c-1.73,1.14-6.65,4.86-5.08,9.25.6,1.67,1.38,2.64,2.25,2.82A2.29,2.29,0,0,0,39,77.17a5.51,5.51,0,0,1,1.89-7.56C40.69,68.46,40.45,67.12,40.11,65.55ZM41,70.76a4.7,4.7,0,0,0-1.68,2.49,4.75,4.75,0,0,0,.44,3.26C40.23,76.2,41.42,75.43,41,70.76Z"/><path class="cls-2" d="M65.78,76.55a.51.51,0,0,1-.5-.5,20.11,20.11,0,0,0-1.65-6.47l-.15-.41a12.55,12.55,0,0,0-7.17-7.55C53,60.15,47.93,61.07,45,62.81a.5.5,0,1,1-.5-.86c3.12-1.84,8.47-2.9,12.23-1.24a13.61,13.61,0,0,1,7.7,8.11l.15.41A20.45,20.45,0,0,1,66.28,76a.5.5,0,0,1-.49.51Z"/><path class="cls-2" d="M61.86,80.61a.5.5,0,0,1-.5-.43l0-.26C60.6,73.86,59,69.62,56.5,67.3c-3.7-3.46-10.64.57-10.71.62a.5.5,0,0,1-.5-.86c.31-.19,7.65-4.47,11.9-.49,2.64,2.48,4.37,6.93,5.14,13.23l0,.25a.5.5,0,0,1-.44.56Z"/><path class="cls-1" d="M116.58,60.89A18.87,18.87,0,0,0,111,43.62s-.1,0-.09.05c.42,2.79-.94,14.95-4.25,15,0,0-.08,0-.07-.05a44,44,0,0,0,.61-5.83c.42-5.55-2.85-9.12-6.06-13.19-.67-.86-2.91-3.07-3.88-4.58a.25.25,0,0,0-.46.13l.5,8.7s0,.08-.08,0c-1.79-1.15-5.07-3.72-5.6-3.82a.05.05,0,0,0-.06.07c.66,1.88.23,7.77.12,9.06,0,.07-.08.07-.11,0C88.71,41.56,77,32.87,77,32.87a1.5,1.5,0,0,0,.18.86c8.74,11.26,4.62,30.43,4,33.09,0,.07-.1.05-.11,0-.7-5.94-6-8.39-7-8.79,0,0-.09,0-.06.08,5.63,9.63-17.7,26.66-17.75,26.7h0C18.45,115.71,26.38,138.92,26.41,139h0l13.4,28.87a.07.07,0,0,0,.06,0H71.3c.59-.46,30.24-23.38,22.43-29.74s-5-18.41-5.67-19.3-4.61,3.51-5.13,4.24a.06.06,0,0,1-.11,0c-.61-2.51.35-5.46,1.16-7.89a84.51,84.51,0,0,1,3.47-8.74C91.69,97.31,99.59,89.61,104.89,81,108.89,74.59,115.29,68.56,116.58,60.89Z"/><path class="cls-2" d="M71.27,168.42H39.55l-.19-.32L26,139.23c-.35-1-7.63-24.07,30-54.83.25-.18,22.95-17,17.62-26.05L73.38,58l.23-.34a.56.56,0,0,1,.63-.15,12.29,12.29,0,0,1,6.86,7.12c1.06-5.72,3-21.15-4.32-30.63a1.49,1.49,0,0,1-.28-1,.45.45,0,0,0,0-.12l-.17-1.18,1,.69c.45.33,10.3,7.68,14,14.88.16-2.85.18-5.93-.22-7.07l-.1-.28.39-.49.34,0a14.32,14.32,0,0,1,3.11,2c.66.47,1.33,1,1.92,1.37l-.45-7.81a.75.75,0,0,1,.55-.75.74.74,0,0,1,.83.32A28.11,28.11,0,0,0,100.35,38c.49.53.9,1,1.14,1.28l.77,1c3,3.73,5.79,7.26,5.39,12.55,0,.39-.06.78-.08,1.18a39.1,39.1,0,0,1-.4,4,2.49,2.49,0,0,0,.42-.39c2.12-2.48,3.14-11.36,2.78-13.81l-.06-.34.34-.23a.55.55,0,0,1,.63.08A19.49,19.49,0,0,1,117.07,61c-.92,5.48-4.38,10.12-7.72,14.6-1.4,1.87-2.84,3.81-4,5.74A124.26,124.26,0,0,1,98,91.52c-3.72,4.8-7.57,9.77-10.06,15.15a84.06,84.06,0,0,0-3.44,8.69c-.65,1.92-1.5,4.47-1.3,6.71,1.15-1.29,3.53-3.77,4.64-3.79a.78.78,0,0,1,.65.29c.26.33.26.91.19,2.54C88.49,125,88.18,133,94,137.8a3.94,3.94,0,0,1,1.5,3.29c-.14,8.93-23.7,27-23.94,27.22l-.13.11Zm-31.12-1h31c6.59-5,23.31-19.38,23.42-26.34a3,3,0,0,0-1.13-2.51c-6.25-5.09-5.92-13.47-5.77-17.5,0-.67.06-1.4,0-1.76-.93.36-3.66,3.17-4.34,4.1l-.19.26-.37,0a.57.57,0,0,1-.44-.43c-.65-2.71.41-5.86,1.18-8.16A86,86,0,0,1,87,106.25c2.55-5.49,6.42-10.5,10.18-15.35a123.85,123.85,0,0,0,7.3-10.12c1.21-2,2.67-3.92,4.08-5.81,3.27-4.38,6.65-8.92,7.54-14.17a18.61,18.61,0,0,0-4.66-16c.06,3.51-1,10.93-3.08,13.41a2.32,2.32,0,0,1-1.74.93h-.24l-.36-.39,0-.26a33.12,33.12,0,0,0,.52-4.58c0-.4.05-.8.08-1.19.37-4.91-2.32-8.28-5.17-11.86l-.78-1c-.22-.28-.62-.72-1.09-1.22-.75-.82-1.64-1.8-2.31-2.68l.47,8.13-.31.2a.54.54,0,0,1-.56,0c-.76-.48-1.75-1.2-2.71-1.89-.63-.46-1.4-1-2-1.41a47.77,47.77,0,0,1-.08,8.23l0,.4-.45.11a.56.56,0,0,1-.6-.37C89,43.73,81.82,37.41,78.46,34.66c7.74,11.63,3.69,30.13,3.19,32.27l-.1.41-.47,0a.57.57,0,0,1-.52-.5A10.48,10.48,0,0,0,75,59c3.55,10-17.49,25.5-18.42,26.18-37,30.31-30,52.73-29.65,53.67Zm42.38-44.6h0Zm-8.11-65Zm16.71-8.71ZM92,39.94h0Z"/><path class="cls-2" d="M51.2,120.34h-.05a.5.5,0,0,1-.45-.54c1-11.1,11.06-23.39,19.35-31.74a.5.5,0,0,1,.71,0,.51.51,0,0,1,0,.71C62.58,97,52.64,109.09,51.69,119.88A.5.5,0,0,1,51.2,120.34Z"/><path class="cls-2" d="M73.07,86.44a.53.53,0,0,1-.37-.15.51.51,0,0,1,0-.71c.27-.25.88-.86,1.51-1.48s1.54-1.53,1.85-1.81l1.17-1.06,3.24-3a.51.51,0,0,1,.71,0,.51.51,0,0,1,0,.71L77.93,82,76.76,83c-.3.27-1.07,1-1.81,1.77s-1.27,1.25-1.54,1.5A.5.5,0,0,1,73.07,86.44Z"/><path class="cls-2" d="M83.79,76.89a.48.48,0,0,1-.38-.18.49.49,0,0,1,.06-.7c2.12-1.77,2.22-1.78,2.38-1.8a.51.51,0,0,1,.56.44.5.5,0,0,1-.28.51c-.06,0-.44.3-2,1.62A.48.48,0,0,1,83.79,76.89Z"/><path class="cls-2" d="M61.88,121.73h0a.5.5,0,0,1-.49-.51c.15-7.29,4.5-14.11,8.12-18.55a58.05,58.05,0,0,1,7.86-7.94.5.5,0,1,1,.62.78c-.15.12-15.31,12.3-15.6,25.73A.51.51,0,0,1,61.88,121.73Z"/><path class="cls-2" d="M63.59,131.06a.49.49,0,0,1-.38-.18c-1.51-1.82-1.56-5.74-1.57-5.91a.5.5,0,0,1,.5-.5h0a.49.49,0,0,1,.5.49s.06,3.73,1.34,5.28a.49.49,0,0,1-.07.7A.47.47,0,0,1,63.59,131.06Z"/><polygon class="cls-1" points="2.43 134.91 14.78 157.68 14.78 235.74 68.59 253.62 207.78 243.32 208.31 154.43 224.61 128.41 91.8 133.29 72.05 161.47 53.29 134.37 2.43 134.91"/><path class="cls-2" d="M72.07,162l-57.33-3.79a.5.5,0,0,1-.46-.53.47.47,0,0,1,.53-.47L72.08,161l137.21-7a.46.46,0,0,1,.52.47.5.5,0,0,1-.47.53Z"/><path class="cls-2" d="M71.79,174.87h0a.49.49,0,0,1-.49-.51l.26-12.9a.5.5,0,0,1,.51-.49.52.52,0,0,1,.49.51l-.26,12.9A.51.51,0,0,1,71.79,174.87Z"/><path class="cls-2" d="M71.16,189.38h0a.5.5,0,0,1-.47-.53l.63-10.39a.47.47,0,0,1,.53-.46.5.5,0,0,1,.47.53l-.63,10.38A.5.5,0,0,1,71.16,189.38Z"/><path class="cls-2" d="M68.59,254.12h0a.5.5,0,0,1-.48-.52l2.25-59.84a.54.54,0,0,1,.52-.49.52.52,0,0,1,.48.52l-2.25,59.85A.5.5,0,0,1,68.59,254.12Z"/><path class="cls-2" d="M72.38,160.69h0a.49.49,0,0,1-.4-.21l-19-25.9-30.78-.09a.49.49,0,0,1-.49-.5.51.51,0,0,1,.5-.5l31,.09a.49.49,0,0,1,.4.21l18.7,25.55,19.92-27a.51.51,0,0,1,.38-.2l131.9-4.23a.5.5,0,1,1,0,1L93,133.13,72.79,160.48A.52.52,0,0,1,72.38,160.69Z"/><path class="cls-2" d="M24.49,154.43h0l-12.69-1a.5.5,0,0,1-.46-.54.51.51,0,0,1,.54-.46l12.68,1A.5.5,0,0,1,25,154,.49.49,0,0,1,24.49,154.43Z"/><path class="cls-2" d="M14.13,149.11h0l-4.66-.39a.51.51,0,0,1-.46-.54.52.52,0,0,1,.54-.46l4.67.39a.5.5,0,0,1,.45.54A.49.49,0,0,1,14.13,149.11Z"/></g></g></svg>