<svg xmlns="http://www.w3.org/2000/svg" viewBox="0 0 254.38 111.35"><defs><style>.cls-1{fill:#fff;}</style></defs><g id="Layer_2" data-name="Layer 2"><g id="Layer_1-2" data-name="Layer 1"><path class="cls-1" d="M141.86,10.32a.53.53,0,0,1-.44-.26.51.51,0,0,1,.16-.66,4.75,4.75,0,0,0,2.32-3.33C144.25,3.44,142,.86,142,.83a.51.51,0,0,1,0-.69.49.49,0,0,1,.69,0c3.81,3.65,8.34.5,9,0l.08-.06a.51.51,0,0,1,.7.1.49.49,0,0,1-.09.69l0,0c-3.21,2.46.13,8.24.16,8.3a.5.5,0,0,1-.8.58c-2.47-2.8-9.56.44-9.63.47A.54.54,0,0,1,141.86,10.32Zm2.27-8a7.09,7.09,0,0,1,.77,3.9,5,5,0,0,1-.9,2.27c2-.62,4.76-1.2,6.83-.42-.64-1.57-1.31-4-.57-6A7.61,7.61,0,0,1,144.13,2.3Z"/><path class="cls-1" d="M33.25,67l-.07,0a.51.51,0,0,1-.57-.37c-.53-2-4.54-2.58-6-2.62a.52.52,0,0,1-.49-.48.51.51,0,0,1,.44-.52,3.23,3.23,0,0,0,2.4-1.29A5.31,5.31,0,0,0,29.35,58a.51.51,0,0,1,.33-.6h0a.5.5,0,0,1,.62.31c1.2,3.37,4.92,2.83,5.45,2.74h.07a.49.49,0,0,1,.58.39.52.52,0,0,1-.39.59h0c-2.66.51-2.4,5-2.4,5.1A.49.49,0,0,1,33.25,67ZM28.77,63.3a8.22,8.22,0,0,1,3.88,1.64A6.33,6.33,0,0,1,34,61.47a5.45,5.45,0,0,1-3.45-1.55,4.78,4.78,0,0,1-.75,2.4A3.65,3.65,0,0,1,28.77,63.3Z"/><path class="cls-1" d="M6.24,111.35a.58.58,0,0,1-.19,0,.5.5,0,0,1-.29-.61c1-3.57-5.47-7.84-5.53-7.89a.5.5,0,0,1,.47-.87,4.78,4.78,0,0,0,4.06.18c2.41-1.11,3.4-4.37,3.41-4.41a.5.5,0,0,1,1,.25c-1.06,5.17,4,7.32,4.77,7.6l.09,0a.5.5,0,0,1,.29.64.48.48,0,0,1-.63.3h-.05c-3.8-1.42-6.9,4.49-6.93,4.56A.5.5,0,0,1,6.24,111.35Zm-3.46-7.86c1.57,1.33,3.55,3.38,4,5.55,1-1.38,2.65-3.23,4.73-3.66a7.59,7.59,0,0,1-3.44-5.08A7,7,0,0,1,5.18,103,5.07,5.07,0,0,1,2.78,103.49Z"/><path class="cls-1" d="M244.65,101.77a.47.47,0,0,1-.31-.11.5.5,0,0,1-.11-.66c2.15-3.4-3.31-9.74-3.36-9.81a.51.51,0,0,1,0-.68.52.52,0,0,1,.68,0,5.1,5.1,0,0,0,4.15,1.4c2.84-.43,4.82-3.51,4.84-3.54a.5.5,0,0,1,.67-.17.49.49,0,0,1,.2.66c-2.64,5,2,8.78,2.67,9.3l.08.06a.5.5,0,0,1,.11.69.52.52,0,0,1-.7.12l0,0c-3.52-2.59-8.49,2.6-8.54,2.65A.46.46,0,0,1,244.65,101.77Zm-1.47-9.17c1.25,1.85,2.75,4.63,2.52,7.05,1.44-1.15,3.77-2.61,6.08-2.41a8.1,8.1,0,0,1-2.07-6.38,7.51,7.51,0,0,1-3.84,2A5.37,5.37,0,0,1,243.18,92.6Z"/></g></g></svg>