<svg xmlns="http://www.w3.org/2000/svg" viewBox="0 0 154.36 242.53"><defs><style>.cls-1{fill:#fff;}.cls-2{fill:#171717;}</style></defs><g id="Layer_2" data-name="Layer 2"><g id="Layer_1-2" data-name="Layer 1"><path class="cls-1" d="M152.23,44.72l-29.34-38,0,.23-.33-.45c1.13-3.44,1-9.58-20.19-.57C76,17.11,64.35,33.41,72.9,37.81l-1,1.6c-2.06,1.92-8.05,7.91-10.21,14.65l-.25,0,.31-.21L56.87,55l-1.39-1.85a3.7,3.7,0,0,1,1.72-1.48c3.47-1.39,12.68-10.94,10-16.11a.85.85,0,0,0-1.2-.31C62.75,37.3,49.25,45,45.68,50,41.6,55.84,37.81,71,37,75.26s-2.58,16.93,0,23.37,1.93,15.45.42,22.32c-1.09,5-5.76,44.59-8,66.11-6.56.14-12.87,2.09-19.06,4.25-4.19,1.46-10,4.77-9.82,10.05.1,3.52,2.77,5.86,5.87,8.24L6.56,230C36.42,257.11,94,230,94,230V207l-.74-.69c6.83-4.76,5.55-13-1.78-16.61-6.87-3.35-15.35-3.92-22.79-3.49h0l-1-51.94a15,15,0,0,1,1.29-6c1.29-2.36,0-5.53,0-5.53l-.59-2.55c.32,0,1.23-.11,1.56-.16,8.19-1.19,5.9-14.22,10.48-17a16,16,0,0,0,4.69-4.56h0l3.81-6.52c3.28.47,8.5.54,13.72-4.93l4.58-5.52-.37.18.53-.37,1,1.37-.07,0,.09,0,1,.86h0c1.24,1.85,2.26,1.22,13-2.46s16.07-7.25,23.08-14.49c6.77-7,8.46-19.7,8.46-19.7ZM99.74,78.16l-5.8,3.92-2.69.6A23.23,23.23,0,0,0,93.91,76c.49-4.13-7-4.37-7-4.37L83.64,76h.57a18.6,18.6,0,0,0,2.65-4.38c2.26-6.46-7.13-7.87-7.13-7.87l0,.72c.32-3.48-1.4-4.94-4.45-5.16,1.86-6.84-.52-6.28-4.42-7.8L72.14,50l7.59-6.48.61,1L102.6,74.83Z"/><path class="cls-2" d="M119.43,69.59l-.21-.29L100.15,42.24l.06-.22c1.74-6.53,10.49-12.44,19.1-12.9,8-.45,15.86,5.49,18.53,14.08a17.33,17.33,0,0,1-1,13.83C132,65.92,120.27,69.36,119.77,69.5ZM101.24,42.05l18.59,26.38c2-.63,12-4.18,16.12-11.88a16.37,16.37,0,0,0,.94-13c-2.54-8.17-9.9-13.79-17.52-13.38C111.39,30.54,103,36.09,101.24,42.05Z"/><path class="cls-2" d="M123.27,60.14c-3.66,0-12.94-16.28-14.78-19.58l-.2-.35.3-.27c.25-.21,6-5.24,11.91-4.48A9.63,9.63,0,0,1,127.35,40c3.21,4.78,3.79,10.19,1.59,14.84-1.35,2.87-3.69,5.08-5.56,5.26Zm-13.71-19.7c4.18,7.43,11.36,18.7,13.66,18.7h.06c1.29-.12,3.4-1.81,4.76-4.68,1.2-2.55,2.6-7.72-1.52-13.86a8.69,8.69,0,0,0-6.14-4.15C115.66,35.84,110.81,39.43,109.56,40.44Z"/><path class="cls-2" d="M101.49,10.26a.48.48,0,0,1-.44-.28.5.5,0,0,1,.22-.67l.91-.44a32.83,32.83,0,0,1,8.71-3.12.5.5,0,0,1,.23,1,32.08,32.08,0,0,0-8.5,3l-.91.45A.42.42,0,0,1,101.49,10.26Z"/><path class="cls-2" d="M77.61,38.57c-.72,0-1.14,0-1.24,0a.5.5,0,0,1-.44-.56.5.5,0,0,1,.56-.44c.17,0,17.41,1.74,39.83-22.73a.5.5,0,0,1,.71,0,.51.51,0,0,1,0,.71C97.44,36.88,82,38.57,77.61,38.57Z"/><path class="cls-2" d="M74.14,38.56h-.09c-3.5-.64-4.45-2.71-4.63-4.32-.8-7.15,11.47-20.46,32.68-29.5,11.45-4.88,18.14-6,20.44-3.36,2,2.28-.36,6.37-.46,6.54a.5.5,0,0,1-.68.18.51.51,0,0,1-.18-.69s2.1-3.63.57-5.37c-1.1-1.25-5.07-2.44-19.3,3.62C80.53,15,69.75,28.2,70.41,34.12c.21,1.87,1.49,3,3.82,3.45a.5.5,0,0,1,.4.58A.49.49,0,0,1,74.14,38.56Z"/><path class="cls-2" d="M108.22,82.48a.5.5,0,0,1-.49-.43.49.49,0,0,1,.43-.56c.2,0,20.43-2.9,34.47-18.86a.48.48,0,0,1,.7,0,.49.49,0,0,1,0,.7c-14.3,16.25-34.88,19.16-35.09,19.19Z"/><path class="cls-2" d="M145.73,59.47a.49.49,0,0,1-.39-.81A30.33,30.33,0,0,0,151.69,44a.49.49,0,0,1,.53-.46.5.5,0,0,1,.46.54,30.67,30.67,0,0,1-6.56,15.22A.48.48,0,0,1,145.73,59.47Z"/><path class="cls-2" d="M109.37,84a.51.51,0,0,1-.4-.2l-33.51-45a.51.51,0,0,1,.1-.7.5.5,0,0,1,.7.1l33.51,45a.5.5,0,0,1-.1.7A.53.53,0,0,1,109.37,84Z"/><path class="cls-2" d="M54.13,76.52H54c-.47-.07-1-.46-1.73-4.3C51.23,66.7,68.84,55.86,69,55.75c.4-.24.45-.38.45-.39s-.21-.13-.36-.19a.5.5,0,0,1,.33-.94c.16.05,1,.37,1,1.06.05.47-.26.92-.93,1.32C66.7,58.31,52.47,67.83,53.28,72a13.9,13.9,0,0,0,.91,3.36c5.62-3.65,19.71-13.32,20.65-16.2.55-1.69,1-3.45.21-4.8-.58-1.06-1.83-1.83-3.83-2.35a.51.51,0,0,1-.36-.62.49.49,0,0,1,.61-.35c2.28.59,3.74,1.52,4.46,2.84.93,1.69.45,3.78-.14,5.59C74.57,63.23,57,74.78,54.61,76.3A.64.64,0,0,1,54.13,76.52Z"/><path class="cls-2" d="M47.63,206.91a35.42,35.42,0,0,1-8.09-.92,29.53,29.53,0,0,1-11.31-5.09l-.21-.17,0-.27c.29-3,7.31-73.5,8.8-80.32,1.86-8.51,1.71-16.74-.4-22-2.61-6.53-.9-19.29,0-23.66.68-3.37,4.36-18.33,8.67-24.46,4.09-5.82,20.7-15.2,21.41-15.6l.36-.21.27.33a5.38,5.38,0,0,1,.83,5C66.61,44.85,60.27,50.88,57.49,52,54.24,53.31,55,60.25,55,60.32a.5.5,0,0,1-1,.11c0-.31-.85-7.76,3.1-9.35,2.56-1,8.63-6.85,9.88-11.79a4.64,4.64,0,0,0-.39-3.8C64.05,37,49.54,45.41,45.91,50.57c-4.22,6-7.84,20.76-8.51,24.09-.86,4.28-2.54,16.78,0,23.08,3.15,7.88,1.36,18.44.45,22.62-1.43,6.54-8.27,75-8.76,79.92,1.95,1.45,17.34,11.88,39.31-.06L67.1,133.56a15.39,15.39,0,0,1,1.35-6.25c1.16-2.12,0-5.08,0-5.11a.5.5,0,0,1,.92-.38c.06.14,1.36,3.43,0,6a14.65,14.65,0,0,0-1.23,5.77l1.3,67.25-.27.15C60.87,205.5,53.54,206.91,47.63,206.91Z"/><path class="cls-2" d="M58.41,126.17a.43.43,0,0,1-.27-.08.5.5,0,0,1-.16-.69c1-1.47,4.29-2.8,4.66-2.94a.5.5,0,0,1,.65.28.51.51,0,0,1-.28.65c-.95.37-3.53,1.54-4.18,2.55A.51.51,0,0,1,58.41,126.17Z"/><path class="cls-2" d="M57.1,122.51a.5.5,0,0,1-.5-.42.51.51,0,0,1,.42-.57s4.27-.68,12.37-1.86c4.52-.66,5.9-5.43,7.23-10,.95-3.27,1.84-6.35,3.88-7.59,4.39-2.67,7.14-8.67,7.16-8.73a.51.51,0,0,1,.66-.25.49.49,0,0,1,.25.66c-.11.26-2.9,6.34-7.55,9.17-1.71,1-2.55,3.94-3.44,7-1.35,4.68-2.89,10-8,10.75-8.09,1.17-12.31,1.85-12.35,1.86Z"/><path class="cls-2" d="M52.75,115.48a.5.5,0,0,1-.47-.33c-2.19-6.26,1-16,1.16-16.43a.5.5,0,0,1,1,.31c0,.1-3.25,9.86-1.17,15.79a.49.49,0,0,1-.3.63A.51.51,0,0,1,52.75,115.48Z"/><path class="cls-2" d="M72.61,103.86a.53.53,0,0,1-.4-.19c-.6-.78-5.87-7.69-6-10.13a.5.5,0,0,1,1-.07c.13,1.81,4.26,7.53,5.84,9.59a.49.49,0,0,1-.39.8Z"/><path class="cls-2" d="M50.91,93.24A.48.48,0,0,1,50.5,93a.5.5,0,0,1,.13-.7C52.26,91.22,54.9,89,55,87.74a.51.51,0,0,1,.54-.45.51.51,0,0,1,.46.54c-.2,2.13-4.35,5-4.82,5.33A.48.48,0,0,1,50.91,93.24Z"/><path class="cls-2" d="M56.43,89.18,56.09,89c-.23-.15-.77-.48-1.08-4.71C54.64,79.24,67.44,69.92,69.22,69c1.52-.83,1.57-4,1.46-5.12a.5.5,0,0,1,1-.1c0,.2.42,4.78-2,6.09C67.56,71,55.7,80.05,56,84.22a16.41,16.41,0,0,0,.54,3.71C59,86.34,74.88,75.79,77.46,70.23c1.83-4,2.25-6.94,1.24-8.66a4,4,0,0,0-3.43-1.73.5.5,0,0,1-.46-.54.52.52,0,0,1,.54-.46,4.94,4.94,0,0,1,4.21,2.22c1.19,2,.78,5.33-1.19,9.59C75.46,76.92,57.46,88.52,56.7,89Z"/><path class="cls-2" d="M68.7,57h0a.5.5,0,0,1-.49-.51c.13-5.9,10.8-13.08,11.25-13.38a.51.51,0,0,1,.7.14A.5.5,0,0,1,80,44C79.9,44,69.32,51.16,69.2,56.54A.49.49,0,0,1,68.7,57Z"/><path class="cls-2" d="M61.44,62.13a.5.5,0,0,1-.48-.34c-1.49-4.65,0-10.3,4.33-16.35a49.69,49.69,0,0,1,7-7.76.51.51,0,0,1,.71.06.49.49,0,0,1-.06.7c-.14.13-14.41,12.5-11,23a.51.51,0,0,1-.33.63Z"/><path class="cls-2" d="M65.19,95.83l-.34-.33a7.27,7.27,0,0,1-2-5c0-2.3,1.17-4.57,3.45-6.74,2.73-2.59,7.81-7.42,7.74-8.34a.47.47,0,0,1-.32-.6.5.5,0,0,1,.64-.29.89.89,0,0,1,.65.67c.26,1.08-1.39,3-8,9.29-2.07,2-3.13,4-3.14,6a6.4,6.4,0,0,0,1.38,3.89C68,91.91,84.32,76.55,86.34,70.78a3.92,3.92,0,0,0-.22-3.6c-1.63-2.5-6.38-2.9-6.43-2.9a.5.5,0,1,1,.08-1c.21,0,5.28.44,7.19,3.35a4.9,4.9,0,0,1,.33,4.48c-2.28,6.5-21,23.67-21.75,24.4Z"/><path class="cls-2" d="M80.76,99l-.31,0c-.12,0-3-.46-4.27-2.5A4.37,4.37,0,0,1,76,92.58c1-2.85,3.7-6.63,5.89-9.67a24,24,0,0,0,2.68-4.12c-.08-.61-1.28-1.09-1.86-1.22a.5.5,0,0,1-.37-.6.5.5,0,0,1,.6-.38c.25.06,2.44.61,2.62,2.1.09.65-.67,1.77-2.86,4.8s-4.82,6.7-5.76,9.42a3.41,3.41,0,0,0,.13,3,5.24,5.24,0,0,0,3.27,2C84.79,91.51,93.05,79.08,93.42,76a2.13,2.13,0,0,0-.54-1.77c-1.54-1.7-5.66-1.61-5.7-1.61a.5.5,0,0,1,0-1c.19,0,4.62-.1,6.47,1.93a3.1,3.1,0,0,1,.79,2.56c-.49,4.21-13,21.9-13.48,22.65Z"/><path class="cls-2" d="M91.51,83.07a5.31,5.31,0,0,1-.68,0,.49.49,0,0,1-.43-.55A.5.5,0,0,1,91,82c5.19.62,11.19-7.68,11.25-7.76a.5.5,0,1,1,.81.58C102.76,75.2,97.08,83.07,91.51,83.07Z"/><path class="cls-2" d="M65.66,72.58a.53.53,0,0,1-.29-.1A4.51,4.51,0,0,1,63.85,69a.5.5,0,0,1,1,0A3.53,3.53,0,0,0,66,71.67a.51.51,0,0,1,.11.7A.49.49,0,0,1,65.66,72.58Z"/><path class="cls-2" d="M69.88,81.57a.51.51,0,0,1-.46-.3l-.71-1.61a.5.5,0,1,1,.91-.4l.72,1.61a.5.5,0,0,1-.26.66A.45.45,0,0,1,69.88,81.57Z"/><path class="cls-2" d="M79.06,88.29H79c-1.91-.24-3.93-2.61-4-2.71a.5.5,0,1,1,.77-.65c.51.6,2.11,2.2,3.38,2.36a.51.51,0,0,1,.43.56A.5.5,0,0,1,79.06,88.29Z"/><path class="cls-2" d="M91.34,92.73a12.22,12.22,0,0,1-5.93-1.44.49.49,0,0,1-.17-.68.5.5,0,0,1,.69-.17c.33.2,8.11,4.81,16.76-4.26l4-5.71a.52.52,0,0,1,.7-.12.5.5,0,0,1,.12.7l-4.09,5.76C99,91.51,94.65,92.73,91.34,92.73Z"/><path class="cls-2" d="M111,85a2.16,2.16,0,0,1-2-1.24.49.49,0,0,1,.14-.69.5.5,0,0,1,.69.14c.82,1.23,1.14,1.18,8.37-1.35l3.76-1.3c10.2-3.51,16.42-7.45,23.77-15,6.13-6.33,7.48-17.63,7.64-19.23l-30.88-40a.5.5,0,1,1,.79-.61L154.36,46l0,.19c0,.53-1.11,13-7.93,20C139,73.87,132.48,78,122.25,81.54l-3.76,1.31C114.31,84.31,112.22,85,111,85Z"/><path class="cls-2" d="M43.45,219.45c-12.65,0-25.47-1.9-32.07-6-4.19-2.6-11.2-7-11.38-12.78-.16-5.57,5.75-8.28,10.21-9.84,5.51-1.92,12.73-4.15,19.68-4.29h0a.5.5,0,0,1,0,1c-6.81.14-13.93,2.34-19.37,4.23C6.37,193.24.86,195.73,1,200.65c.16,5.29,6.89,9.46,10.91,12,9.78,6.06,40,8.4,57.56,2.5,1.81-.62,3.71-1.2,5.54-1.76,6.06-1.88,12.34-3.81,17.58-7.22a9.27,9.27,0,0,0,4.57-8.39,10.06,10.06,0,0,0-6-8.31c-5.77-2.82-13.35-4-22.53-3.44a.5.5,0,1,1-.06-1c9.36-.55,17.11.65,23,3.54a11.05,11.05,0,0,1,6.53,9.15,10.26,10.26,0,0,1-5,9.29c-5.35,3.48-11.7,5.44-17.83,7.33-1.82.56-3.71,1.15-5.51,1.75C63.19,218.28,53.37,219.45,43.45,219.45Z"/><path class="cls-2" d="M42.36,242.53c-13.06,0-26.18-3-36.17-12.11L6,230.28V209.19a.5.5,0,0,1,1,0v20.64c28.23,25.39,82,1.91,86.42-.1V206.29a.5.5,0,0,1,.5-.5.5.5,0,0,1,.5.5v24.08l-.29.14C93.77,230.69,68.2,242.53,42.36,242.53Z"/><path class="cls-2" d="M46.19,234.54a79.77,79.77,0,0,1-13.7-1.18c-15.89-2.77-26.14-9.45-26.24-9.52a.5.5,0,0,1-.15-.69.51.51,0,0,1,.7-.15c.4.27,40.61,26.11,86.86-4.4a.5.5,0,0,1,.69.15.49.49,0,0,1-.14.69C76.45,231.15,59.67,234.54,46.19,234.54Z"/><path class="cls-2" d="M77,33.91q-.58,0-1,0a1.29,1.29,0,0,1-1.21-1.33c.34-9.07,22.51-20.91,23.45-21.41a.5.5,0,0,1,.47.89c-.23.12-22.6,12.06-22.92,20.56a.28.28,0,0,0,.27.29c3.41.19,15.69-.33,31.08-15.34,3.39-2.92,8.6-8.3,8.22-10.38,0-.2-.15-.5-.68-.69a.5.5,0,0,1-.29-.65.5.5,0,0,1,.64-.29A1.89,1.89,0,0,1,116.35,7c.59,3.31-7.6,10.48-8.53,11.28C93.39,32.35,81.51,33.91,77,33.91Z"/><path class="cls-2" d="M7.61,199.62a.46.46,0,0,1-.23-.06.5.5,0,0,1-.21-.68,5.18,5.18,0,0,1,.91-1.21,11.36,11.36,0,0,1,3.09-2.11c6.44-3.2,17.74-4.37,18.21-4.42a.51.51,0,0,1,.55.45.5.5,0,0,1-.45.55c-.11,0-11.59,1.2-17.87,4.31a10.68,10.68,0,0,0-2.82,1.92,4.59,4.59,0,0,0-.74,1A.5.5,0,0,1,7.61,199.62Z"/><path class="cls-2" d="M46.85,214.31c-14.3,0-27.66-3.13-35.41-8.39a16.92,16.92,0,0,1-3-2.51.5.5,0,0,1,0-.71.51.51,0,0,1,.71,0A16.11,16.11,0,0,0,12,205.09c15.76,10.7,58.3,12.64,79-5.23a.5.5,0,0,1,.66.76C82.22,208.75,67,213.72,50,214.26,48.93,214.29,47.89,214.31,46.85,214.31Z"/><path class="cls-2" d="M90.87,195.68a.56.56,0,0,1-.27-.08,11.88,11.88,0,0,0-1.39-.77,32.89,32.89,0,0,0-5.8-2c-.65-.17-1.31-.33-2-.48l-2.38-.51c-2-.4-4.24-.77-6.53-1.08s-3.89-.47-3.9-.47a.5.5,0,0,1-.45-.55.52.52,0,0,1,.54-.45s1.61.16,4,.48,4.53.68,6.58,1.09c.8.16,1.61.33,2.41.51l2,.49a33.79,33.79,0,0,1,6,2.07,13,13,0,0,1,1.5.82.51.51,0,0,1,.15.7A.5.5,0,0,1,90.87,195.68Z"/><path class="cls-2" d="M58,55.27a3.58,3.58,0,0,1-.87-.11,3.33,3.33,0,0,1-2.12-1.77A.5.5,0,0,1,56,53h0a2.27,2.27,0,0,0,1.46,1.2c1,.27,2.44-.21,4-1.4a.51.51,0,0,1,.7.1.5.5,0,0,1-.1.7A6.87,6.87,0,0,1,58,55.27Z"/><path class="cls-1" d="M90.43,99a.91.91,0,0,1,1.58.3c1.15,3.86,9.48,13.92.46,16.23C87.82,116.74,84.8,106.34,90.43,99Z"/><path class="cls-2" d="M91.75,116.14a4,4,0,0,1-3.31-2.06c-2.27-3.44-2.31-10.29,1.59-15.37h0a1.41,1.41,0,0,1,1.36-.52,1.44,1.44,0,0,1,1.1,1,21.87,21.87,0,0,0,1.57,3.34c1.78,3.36,4,7.54,2.65,10.55-.63,1.43-2,2.43-4.12,3A3.44,3.44,0,0,1,91.75,116.14Zm-.93-16.82c-3.63,4.73-3.63,11.06-1.55,14.21a2.93,2.93,0,0,0,3.07,1.54c1.81-.47,3-1.25,3.46-2.41,1.13-2.56-1-6.5-2.62-9.67a22,22,0,0,1-1.65-3.53.4.4,0,0,0-.32-.28.37.37,0,0,0-.39.14Z"/><path class="cls-1" d="M89.43,109.9s.24,2.88,2.08,3.34"/><path class="cls-2" d="M91.51,113.74h-.12c-2.16-.55-2.45-3.66-2.46-3.79a.5.5,0,0,1,.46-.54.52.52,0,0,1,.54.45s.24,2.54,1.7,2.91a.5.5,0,0,1,.36.61A.49.49,0,0,1,91.51,113.74Z"/><path class="cls-1" d="M84.48,32.4c-.14-.09-.3-.21-.47-.34-.83-.31-1.66-.6-2.49-.89C80,30.59,78.45,30,77,29.25a4.62,4.62,0,0,1-.62-.37,40.08,40.08,0,0,0-2.11,3.49c-2.93,5.21.4,16.07,2.48,16.6s1.46-5.16,1.46-5.16c2.74,10.64,6,18,10.44,17.13S86,46.4,82.34,39.91A5.24,5.24,0,0,1,84.48,32.4Z"/><path class="cls-2" d="M87.89,61.51c-4.32,0-7.2-6.91-9.27-14.12a3,3,0,0,1-.8,1.79,1.32,1.32,0,0,1-1.25.27c-.93-.24-1.73-1.69-2.24-2.87-1.55-3.64-2.76-10.54-.55-14.46s3.47-4.2,7.71-5.27c1.75-.44,3.94-1,7-2,2.52-.82,4.85-1.49,6.9-2.09,6.55-1.89,10.87-3.15,13.16-6.47a.5.5,0,0,1,.83.57c-2.5,3.62-7,4.91-13.71,6.86-2,.6-4.37,1.27-6.87,2.08-3.05,1-5.35,1.57-7,2-4.12,1-5.1,1.29-7.08,4.79s-.87,10.12.6,13.58c.72,1.68,1.33,2.23,1.57,2.29a.34.34,0,0,0,.35-.06c.62-.54.66-3,.5-4.55a.5.5,0,0,1,.4-.55.51.51,0,0,1,.58.37c3.08,12,6.32,17.45,9.85,16.76a1.06,1.06,0,0,0,.81-.63c1.24-2.66-3-11.9-7.4-19.66a5.78,5.78,0,0,1-.43-5.27c.86-2,2.86-3.39,5.63-4a.5.5,0,1,1,.23,1c-2.46.57-4.21,1.8-4.94,3.46a4.79,4.79,0,0,0,.38,4.37c3.48,6.17,9.08,17,7.44,20.58a2,2,0,0,1-1.53,1.19A4.43,4.43,0,0,1,87.89,61.51Z"/><path class="cls-2" d="M76.65,45.28a.49.49,0,0,1-.38-.18c-1.79-2.13-1.71-7.17-1.7-7.38a.48.48,0,0,1,.51-.49.51.51,0,0,1,.49.51s-.08,4.87,1.47,6.72a.51.51,0,0,1-.06.71A.57.57,0,0,1,76.65,45.28Z"/><path class="cls-2" d="M86.84,59.47a2.19,2.19,0,0,1-.36,0,.5.5,0,0,1-.39-.59.48.48,0,0,1,.58-.39.91.91,0,0,0,.78-.23.5.5,0,1,1,.63.77A1.94,1.94,0,0,1,86.84,59.47Z"/><path class="cls-2" d="M85.77,57.88a.49.49,0,0,1-.37-.16,9.27,9.27,0,0,1-.75-1,15.44,15.44,0,0,1-.84-1.39,42.46,42.46,0,0,1-2.63-6.28.5.5,0,0,1,.95-.31,40.44,40.44,0,0,0,2.56,6.11,13.71,13.71,0,0,0,.79,1.31,8.23,8.23,0,0,0,.67.87.51.51,0,0,1-.05.71A.5.5,0,0,1,85.77,57.88Z"/><path class="cls-2" d="M44.49,239h0C16.89,238,6.62,228.1,6.19,227.68A.5.5,0,1,1,6.9,227c.1.1,10.46,10,37.61,11a.5.5,0,0,1,0,1Z"/><path class="cls-2" d="M56.31,237.8a.5.5,0,0,1-.05-1c27.06-2.43,36.89-12.87,37-13a.49.49,0,0,1,.7,0,.5.5,0,0,1,0,.71c-.4.44-10.14,10.83-37.64,13.29Z"/><path class="cls-2" d="M48.39,203.18c-12.9,0-19.59-5.8-19.88-6.05a.5.5,0,0,1,.66-.75c.07.06,7.25,6.28,20.85,5.76a.53.53,0,0,1,.52.49.49.49,0,0,1-.48.51C49.5,203.17,48.94,203.18,48.39,203.18Z"/><path class="cls-2" d="M39.44,198.06h-.09a22.26,22.26,0,0,1-10.53-5,.5.5,0,1,1,.69-.73,21.53,21.53,0,0,0,10,4.7.5.5,0,0,1-.09,1Z"/></g></g></svg>