<svg xmlns="http://www.w3.org/2000/svg" width="252.568" height="203.282" viewBox="0 0 252.568 203.282"><defs><style>.a{fill:#231f20;}</style></defs><path class="a" d="M246-198.471a4.162,4.162,0,0,0-3.949.495,3.456,3.456,0,0,0-1.072,3.209c.406,3.246-1.369,4.744-3.087,6.192a20.155,20.155,0,0,0-1.695,1.541c-.7.736-4.127,4.575-2.8,7.855a1.016,1.016,0,0,1,.037.2c.467.226.937.449,1.4.7.958.514,1.869,1.074,2.758,1.654a9.859,9.859,0,0,1,3.952-7.628c.53-.421,1.079-.79,1.609-1.147,1.868-1.249,2.837-1.988,2.677-3.872a5.638,5.638,0,0,1,2.161-5.043,6.648,6.648,0,0,1,6.318-.822c2.065.726,5.552-.294,7.883-2.265a67.874,67.874,0,0,0-6.626-4.729,1.041,1.041,0,0,1-.087.156C253.369-199.522,249.059-197.525,246-198.471Zm26.441,27.13c-2-1.221-3.931-1.535-5.433-.887-1.422.612-2.408,2.053-2.856,4.171-.647,3.046-3.2,4.578-5.664,6.058-2.747,1.649-5.117,3.116-5.064,6.451a71.648,71.648,0,0,1,29.837-11.521q-.834-2.356-1.787-4.564A7.85,7.85,0,0,1,272.44-171.341Zm-18.824-21.825a4.572,4.572,0,0,0-4.344.5,3.583,3.583,0,0,0-1.357,3.212c.271,3.2-1.784,4.575-3.6,5.788-.484.325-.988.659-1.469,1.044a7.32,7.32,0,0,0-2.982,7.455,1.065,1.065,0,0,1,.005.149,35.4,35.4,0,0,1,3.279,2.857c.283-2.368,1.787-4.552,4.508-6.418.289-.2.582-.388.873-.577,1.861-1.2,2.906-1.976,2.831-3.961a6.138,6.138,0,0,1,3.1-5.43,6.936,6.936,0,0,1,6.969-.3c1.764.971,5.673.518,8.163-1.5a65.122,65.122,0,0,0-5.8-5.68c-.01.009-.014.025-.026.035C260.885-193.417,256.426-192.179,253.616-193.165Zm-45.842-14.6a2.719,2.719,0,0,0-1.541,1.82,3.544,3.544,0,0,0,.715,3.039c1.3,1.73.773,3.957.217,6.315-.941,3.992-2.111,8.961,3.971,14.656a1.1,1.1,0,0,1,.128.177c.957-.215,1.927-.392,2.913-.518-3.922-6.483-1.9-11.285-.4-14.823.8-1.882,1.434-3.368.908-4.456a5.648,5.648,0,0,1-.287-4.68,4.79,4.79,0,0,1,2.968-2.684c2.565-.848,2.81-1.4,3.171-3.606a54.341,54.341,0,0,0-8.8.937l.037.007C211.366-209.926,210.9-209.14,207.774-207.766Zm59.238,28.047c-2.058-1.114-4.057-1.345-5.495-.626-1.317.656-2.177,2.1-2.485,4.178-.474,3.219-2.763,4.666-4.781,5.941-.3.191-.607.383-.908.582-.463.3-4.325,3-3.62,6.628a30.747,30.747,0,0,1,1.913,5c.9-2.845,3.45-4.382,5.773-5.778,2.179-1.308,4.237-2.543,4.7-4.7.584-2.768,2.03-4.779,4.073-5.659,2.146-.925,4.758-.561,7.352,1.025a5.825,5.825,0,0,0,6.864-.3,1.038,1.038,0,0,1,.233-.107,70.494,70.494,0,0,0-3.76-7.037A9.226,9.226,0,0,1,267.011-179.719Zm-6.591-7.292a4.847,4.847,0,0,0-4.86.248,4.088,4.088,0,0,0-2.109,3.571c.128,3.272-1.952,4.615-3.786,5.8-.275.178-.551.357-.825.544-3.059,2.1-4.211,4.486-3.422,7.1a.97.97,0,0,1,.01.1,33.609,33.609,0,0,1,2.511,3.436,10.84,10.84,0,0,1,4.25-5.173c.313-.208.63-.407.944-.607,1.953-1.233,3.5-2.207,3.83-4.477.523-3.513,2.256-5.063,3.62-5.743,2.086-1.042,4.723-.806,7.425.659a7.173,7.173,0,0,0,7.649-.7.91.91,0,0,1,.129-.068,65.312,65.312,0,0,0-4.8-6.442C268.041-186.342,263.129-185.516,260.42-187.012Zm-82.181,3.47c1.621.526,2.009,2.252,2.42,4.08.841,3.758,2,8.906,13.048,10.04.033.005.063.024.1.031a24.868,24.868,0,0,1,1.752-2.621c-11.405-3.143-11.809-9.741-12.031-13.738-.1-1.749-.189-2.835-.787-3.13a5.109,5.109,0,0,1-2.494-2.92,50.3,50.3,0,0,0-3.665,5.825c-.093.173-.175.35-.264.523a1.052,1.052,0,0,1,.227.311A2.948,2.948,0,0,0,178.239-183.542Zm21.288-10.248c-.39,4.034-.873,9.055,6.383,13.651a.855.855,0,0,1,.091.087,29.133,29.133,0,0,1,2.962-1.1c-6.094-6.222-4.8-11.8-3.833-15.916.479-2.03.857-3.634.145-4.583a5.661,5.661,0,0,1-1.067-4.823,4.807,4.807,0,0,1,2.725-3.205,7.156,7.156,0,0,0,2.354-1.357,52.411,52.411,0,0,0-8.711,2.941,1.072,1.072,0,0,1-.131.416l-.079.156a6.931,6.931,0,0,1-2.413,2.6,2.434,2.434,0,0,0-.86,1.854A4.161,4.161,0,0,0,198.4-199.9C199.971-198.406,199.754-196.165,199.527-193.79Zm-15.87,3.031c1.73.848,1.838,2.812,1.955,4.891.224,3.989.532,9.447,11.433,12.1a25.093,25.093,0,0,1,2.074-2.02c-8.735-4.208-8.737-10.444-8.719-14.62.009-2.265-.031-3.681-.922-4.258a6.033,6.033,0,0,1-2.625-4.526,49.353,49.353,0,0,0-4.748,5,2.286,2.286,0,0,0,.016,1.481A3.09,3.09,0,0,0,183.656-190.759Zm44.352-14.032a3.093,3.093,0,0,0-2.4,1.369,3.576,3.576,0,0,0-.453,3.113c.621,1.91-.456,3.449-1.6,5.077-1.817,2.6-4.08,5.83-1.78,12.607a1.028,1.028,0,0,1,.038.3c1.138.122,2.282.308,3.424.547a10.97,10.97,0,0,1,1.4-9.129,18.029,18.029,0,0,1,2.408-3.2c1.242-1.4,1.876-2.177,1.593-3.062a5.349,5.349,0,0,1,1.095-5.2,5.467,5.467,0,0,1,5.12-1.8c2.87.505,5.11-2.436,6.187-4.241l0,0c-1.2-.467-2.4-.909-3.608-1.315-1.612-.54-3.244-.983-4.888-1.368l0,.014C233.767-208.957,232.3-205,228.009-204.791Zm8.482,2.677A3.378,3.378,0,0,0,233.313-201a3.28,3.28,0,0,0-.675,3.186c.661,2.06-.7,3.6-2.018,5.087a15.913,15.913,0,0,0-2.146,2.833c-1.294,2.322-2.429,4.893-.866,8.492a1.035,1.035,0,0,1,.049.215c1.131.325,2.261.7,3.382,1.145-.432-3.786,2.592-7.336,3.643-8.438a22.613,22.613,0,0,1,1.861-1.7c1.637-1.38,2.625-2.212,2.359-4.332a5.547,5.547,0,0,1,1.8-5.071,6.179,6.179,0,0,1,5.911-.89c1.952.6,5.307-.7,7.152-2.746a74.53,74.53,0,0,0-8.819-4.417,1.043,1.043,0,0,1-.1.29C242.5-203.42,239.535-201.57,236.49-202.114ZM335.019-162c-2.467-1.479-5.019-3.011-5.664-6.058-.449-2.118-1.436-3.559-2.861-4.171-1.506-.649-3.435-.334-5.425.887a7.867,7.867,0,0,1-9.038-.292q-.965,2.248-1.815,4.641A70.913,70.913,0,0,1,340.068-155.2C340.3-158.783,337.861-160.292,335.019-162ZM218.028-206.934a2.723,2.723,0,0,0-1.7,1.513,3.593,3.593,0,0,0,.241,2.957c.941,1.943.063,4-.866,6.185-1.53,3.6-3.267,7.675.687,13.618a1.209,1.209,0,0,1,.075.178c.588-.031,1.177-.051,1.771-.051.463,0,.93.024,1.4.042-2.328-7.423.388-11.337,2.21-13.941,1.065-1.52,1.607-2.354,1.322-3.23a5.672,5.672,0,0,1,.721-4.947,5.162,5.162,0,0,1,4.015-2.27c2.343-.114,3.51-1.861,4.571-4.643a54.854,54.854,0,0,0-9.842-1.025.988.988,0,0,1,.007.143C222.171-209.443,221.62-208.119,218.028-206.934Zm-27.415,10.51c1.9,1.228,1.889,3.559,1.878,6.023-.018,4.223-.04,9.475,8.371,13.13a.765.765,0,0,1,.087.059,27.245,27.245,0,0,1,2.894-1.806c-7.326-5.138-6.78-11.022-6.4-14.973.215-2.233.306-3.639-.486-4.389a6.276,6.276,0,0,1-1.953-4.8,4.7,4.7,0,0,1,.92-2.621,49.818,49.818,0,0,0-6.574,4.473,3.126,3.126,0,0,0-.441,1.847A3.934,3.934,0,0,0,190.613-196.423ZM409.98-185.751c-.222,4-.626,10.6-12.03,13.738a24.842,24.842,0,0,1,1.751,2.621c.035-.007.065-.026.1-.031,11.05-1.133,12.2-6.282,13.049-10.04.407-1.827.8-3.554,2.424-4.08a2.946,2.946,0,0,0,1.691-1.6,1.028,1.028,0,0,1,.229-.311c-.091-.173-.17-.35-.262-.523a51.766,51.766,0,0,0-3.665-5.825,5.116,5.116,0,0,1-2.494,2.92C410.171-188.585,410.081-187.5,409.98-185.751ZM389.3-206.477a5.666,5.666,0,0,1-1.065,4.823c-.712.95-.334,2.553.145,4.583.969,4.115,2.259,9.693-3.837,15.916a29.16,29.16,0,0,1,2.964,1.1.747.747,0,0,1,.094-.087c7.25-4.6,6.77-9.616,6.379-13.651-.227-2.375-.442-4.617,1.126-6.108a4.161,4.161,0,0,0,1.308-3.171,2.429,2.429,0,0,0-.862-1.854,6.92,6.92,0,0,1-2.411-2.6l-.081-.156a1.112,1.112,0,0,1-.131-.416,52.116,52.116,0,0,0-8.7-2.94,7.026,7.026,0,0,0,2.345,1.355A4.809,4.809,0,0,1,389.3-206.477Zm6.766,12.486c.378,3.95.92,9.835-6.4,14.971a27.185,27.185,0,0,1,2.894,1.808c.033-.017.052-.045.089-.059,8.41-3.655,8.387-8.906,8.371-13.13-.009-2.464-.021-4.8,1.875-6.023a3.921,3.921,0,0,0,1.705-3.057,3.11,3.11,0,0,0-.441-1.847,49.753,49.753,0,0,0-6.572-4.473,4.731,4.731,0,0,1,.92,2.621,6.28,6.28,0,0,1-1.952,4.8C395.756-197.63,395.848-196.224,396.063-193.991Zm7.044,3.583c.014,4.176.014,10.412-8.721,14.62a25.1,25.1,0,0,1,2.074,2.02c10.9-2.653,11.21-8.111,11.432-12.1.119-2.079.227-4.043,1.955-4.891a3.073,3.073,0,0,0,1.535-1.95,2.3,2.3,0,0,0,.019-1.479,49,49,0,0,0-4.748-5,6.036,6.036,0,0,1-2.627,4.526C403.134-194.089,403.1-192.672,403.107-190.408Zm15.91,18.908c-1.42,3.328-3.7,8.672-13.551,8.672-.934,0-1.959-.061-3.034-.164q.412,1.445.68,2.922a.752.752,0,0,1,.087.005c11.794,2.875,14.632-1.528,16.7-4.746.834-1.3,1.586-2.4,2.756-2.864a53.034,53.034,0,0,0-1.224-6.6,3.281,3.281,0,0,1-.946.4C419.971-173.733,419.507-172.647,419.018-171.5Zm-4.132-7.5c-.848,3.8-2.3,10.106-14.17,11.566.365.769.7,1.548,1,2.343a1.015,1.015,0,0,1,.318-.03c11.435,1.282,13.534-3.618,15.062-7.2.722-1.7,1.348-3.164,2.837-3.569a1.532,1.532,0,0,0,.672-.338l.483.665a51.152,51.152,0,0,0-2.826-7.714,4.872,4.872,0,0,1-2.345,1.724C415.424-181.395,415.174-180.286,414.885-179Zm-94.907,5.879c2.588-1.583,5.2-1.948,7.345-1.027,2.044.88,3.494,2.891,4.08,5.661.455,2.156,2.515,3.389,4.692,4.7,2.322,1.392,4.869,2.929,5.773,5.769a30.9,30.9,0,0,1,1.913-5c.7-3.629-3.157-6.317-3.616-6.621-.3-.2-.609-.392-.909-.582-2.016-1.275-4.305-2.721-4.785-5.941-.311-2.076-1.168-3.522-2.485-4.178-1.432-.717-3.438-.488-5.495.626a9.224,9.224,0,0,1-9.853-.845,69.749,69.749,0,0,0-3.756,7.037,1.261,1.261,0,0,1,.233.107A5.828,5.828,0,0,0,319.978-173.125Zm19.215-22.015a6.655,6.655,0,0,1,6.32.824,5.644,5.644,0,0,1,2.161,5.043c-.157,1.883.81,2.623,2.676,3.872.533.357,1.079.726,1.611,1.147a9.843,9.843,0,0,1,3.949,7.63c.892-.582,1.8-1.142,2.761-1.656.463-.248.932-.472,1.4-.7a1.02,1.02,0,0,1,.038-.2c1.326-3.281-2.1-7.119-2.8-7.855a19.6,19.6,0,0,0-1.691-1.541c-1.717-1.448-3.491-2.947-3.087-6.191a3.461,3.461,0,0,0-1.07-3.211,4.158,4.158,0,0,0-3.952-.495c-3.064.948-7.371-1.053-9.482-3.5a1.355,1.355,0,0,1-.089-.154,68.257,68.257,0,0,0-6.624,4.727C333.643-195.432,337.126-194.411,339.193-195.14Zm-7.119,6.3a6.917,6.917,0,0,1,6.965.3,6.132,6.132,0,0,1,3.106,5.43c-.079,1.985.972,2.761,2.829,3.961.289.189.582.378.873.577,2.723,1.866,4.225,4.052,4.508,6.42a34.934,34.934,0,0,1,3.279-2.859.847.847,0,0,1,0-.149,7.314,7.314,0,0,0-2.98-7.455c-.483-.385-.983-.719-1.469-1.044-1.813-1.214-3.868-2.59-3.6-5.788a3.592,3.592,0,0,0-1.352-3.212,4.583,4.583,0,0,0-4.349-.5c-2.812.99-7.27-.254-10.155-2.821-.012-.012-.016-.026-.028-.037a65.19,65.19,0,0,0-5.8,5.684C326.394-188.323,330.311-187.865,332.074-188.841Zm44.058-20.081a4.788,4.788,0,0,1,2.966,2.688,5.627,5.627,0,0,1-.285,4.68c-.526,1.088.108,2.574.909,4.456,1.506,3.538,3.527,8.34-.4,14.823.99.126,1.959.3,2.915.518a.992.992,0,0,1,.126-.177c6.084-5.7,4.912-10.664,3.973-14.656-.556-2.357-1.079-4.585.22-6.317a3.547,3.547,0,0,0,.712-3.038,2.715,2.715,0,0,0-1.541-1.82c-3.12-1.375-3.59-2.16-3.984-3.748a.609.609,0,0,1,0-.08,54.448,54.448,0,0,0-8.781-.93C373.322-210.314,373.569-209.766,376.133-208.922Zm-50.639,27.365c2.709-1.467,5.342-1.7,7.425-.659,1.366.68,3.1,2.23,3.616,5.741.339,2.272,1.882,3.246,3.837,4.479.315.2.631.4.946.607a10.819,10.819,0,0,1,4.246,5.171,33.536,33.536,0,0,1,2.513-3.435c.007-.033,0-.066.007-.1.794-2.611-.36-5-3.421-7.095-.271-.189-.549-.367-.824-.546-1.833-1.184-3.912-2.527-3.786-5.8a4.09,4.09,0,0,0-2.111-3.571,4.838,4.838,0,0,0-4.86-.247c-2.709,1.5-7.625.668-10.564-1.763a65.6,65.6,0,0,0-4.8,6.444.825.825,0,0,1,.129.068A7.168,7.168,0,0,0,325.494-181.557Zm40.1-25.322a5.16,5.16,0,0,1,4.017,2.27,5.666,5.666,0,0,1,.721,4.947c-.287.876.255,1.71,1.32,3.23,1.82,2.6,4.542,6.518,2.21,13.941.469-.017.936-.042,1.4-.042.595,0,1.184.019,1.773.051a.916.916,0,0,1,.073-.178c3.956-5.942,2.216-10.02.687-13.618-.93-2.182-1.806-4.242-.864-6.185a3.6,3.6,0,0,0,.241-2.957,2.736,2.736,0,0,0-1.7-1.514c-3.59-1.184-4.139-2.508-4.615-5.468a.981.981,0,0,1,.007-.143,54.835,54.835,0,0,0-9.84,1.025C362.088-208.74,363.253-206.993,365.6-206.879Zm-8.952,2.707a5.465,5.465,0,0,1,5.12,1.8,5.349,5.349,0,0,1,1.095,5.2c-.282.885.351,1.66,1.595,3.062a18.071,18.071,0,0,1,2.408,3.2,10.966,10.966,0,0,1,1.4,9.127,34.313,34.313,0,0,1,3.424-.547,1.03,1.03,0,0,1,.037-.3c2.3-6.776.039-10.01-1.78-12.607-1.138-1.628-2.214-3.167-1.595-5.077a3.582,3.582,0,0,0-.453-3.113,3.093,3.093,0,0,0-2.4-1.369c-4.295-.206-5.757-4.166-6.542-6.294l-.005-.014c-1.644.385-3.275.827-4.884,1.368-1.207.406-2.408.848-3.611,1.315v0C351.533-206.608,353.775-203.653,356.644-204.172Zm-9.755,3.7a6.176,6.176,0,0,1,5.913.89,5.544,5.544,0,0,1,1.8,5.073c-.264,2.118.726,2.95,2.363,4.33a23.18,23.18,0,0,1,1.857,1.7c1.051,1.1,4.078,4.653,3.644,8.44,1.121-.446,2.252-.82,3.384-1.145a.847.847,0,0,1,.047-.215c1.562-3.6.43-6.17-.864-8.492a16.159,16.159,0,0,0-2.144-2.833c-1.32-1.488-2.683-3.027-2.023-5.087A3.282,3.282,0,0,0,360.2-201a3.394,3.394,0,0,0-3.179-1.119c-3.05.558-6.017-1.3-8.354-5.225a.968.968,0,0,1-.1-.29,74.042,74.042,0,0,0-8.821,4.419C341.586-201.175,344.95-199.875,346.89-200.468ZM380-125.883a12.3,12.3,0,0,1-7.261-3.412,2.428,2.428,0,0,0-1.541-.775c-1.07,0-1.5,1.464-.64,3.277,1.71,3.564,5.463,6.208,10.008,7.686a8.141,8.141,0,0,1-.976-2.725A7.333,7.333,0,0,1,380-125.883Zm13.254,1.13a9.521,9.521,0,0,1-2.244-5.082c-.794.575-1.625,1.114-2.49,1.623a5.64,5.64,0,0,0,.248,5.3,8.911,8.911,0,0,0,6.822,4.386l.026.005a22.659,22.659,0,0,0,4.591-1.635A14.966,14.966,0,0,1,393.251-124.754Zm-6.313,2.861a7.9,7.9,0,0,1-1-4.968,13.524,13.524,0,0,1-3.468.922,4.5,4.5,0,0,0-.824,3.765,4.979,4.979,0,0,0,3.087,4.059,29.079,29.079,0,0,0,4.514.355c.588,0,1.17-.058,1.752-.094A10.871,10.871,0,0,1,386.938-121.893Zm8.209-11.514c-.633.663-1.317,1.3-2.022,1.91a6.976,6.976,0,0,0,1.744,5.414,12.125,12.125,0,0,0,8.238,4.332,37.211,37.211,0,0,0,4.477-3.284,15.866,15.866,0,0,1-8.205-2.747A10.9,10.9,0,0,1,395.147-133.407Zm11.621,2.058a15.114,15.114,0,0,1-8.186-6.4q-.8,1.23-1.731,2.391a8.562,8.562,0,0,0,3.734,5.862,13.044,13.044,0,0,0,9.267,2.224.848.848,0,0,1,.149,0,40.05,40.05,0,0,0,2.975-3.37,13.177,13.177,0,0,1-1.376.075A15.741,15.741,0,0,1,406.768-131.348Zm-5.64-11.2c-.4.93-.839,1.841-1.326,2.735a13.114,13.114,0,0,0,7.612,6.474c3.382,1.1,6.3.658,7.341.119a.883.883,0,0,1,.11-.033,45.048,45.048,0,0,0,2.728-4.615,12.763,12.763,0,0,1-4.569.867C409.833-137,405.8-138.277,401.128-142.547ZM290.246-39.631c-.012-1.765-.026-3.471-.042-5.057a40.016,40.016,0,0,0-7.952,5.636A60.566,60.566,0,0,1,290.246-39.631ZM402.707-147.346c-.219.908-.483,1.806-.782,2.695,8.543,8.244,14.387,5.224,16.9,3.921l.051.1a48.6,48.6,0,0,0,2.079-5.764,10.6,10.6,0,0,1-7.2,2.747C410.972-143.647,407.373-144.606,402.707-147.346ZM287.976-28.556a17.343,17.343,0,0,1-1.752-.115c-.532-.052-1.067-.107-1.59-.107a1.045,1.045,0,0,1-1.046-1.046,1.044,1.044,0,0,1,1.046-1.046c.591,0,1.2.058,1.8.117,1.817.182,2.948.226,3.879-.755-.014-2-.031-4.024-.047-6a.428.428,0,0,0-.117-.017h-.005c-5.676.084-10.043.719-11.8,1.742a1.025,1.025,0,0,1-.526.143,1.049,1.049,0,0,1-.9-.518,1.045,1.045,0,0,1,.376-1.43,7.957,7.957,0,0,1,1.294-.591,36.122,36.122,0,0,1,11.6-8.784c-.03-3.47-.052-6.108-.061-7.135a22.3,22.3,0,0,1-2.866-1.85c-1.226-.892-2.193-1.6-3.171-1.6a1.047,1.047,0,0,1-1.048-1.046,1.048,1.048,0,0,1,1.048-1.048c1.66,0,2.992.974,4.4,2a13.317,13.317,0,0,0,5.307,2.681c.075.014.149.031.219.042.128.024.268.037.4.054.4.051.757.082,1.074.1l.042-71.218c.065-12.066-.444-31.058-2.113-33.937-1.978-3.4-4.307-4.921-7.556-4.921a13.465,13.465,0,0,0-2.106.178c-11.136,1.716-20.945,5.334-28.573,10.461a12.372,12.372,0,0,1,6.873,7.013,1.045,1.045,0,0,1-.672,1.317,1.044,1.044,0,0,1-1.319-.67c-.757-2.333-3.342-5.2-7.41-6.359-.019-.005-.04,0-.059,0a35.932,35.932,0,0,0-5.094-1.028c-1.418-.189-2.788-.317-4.069-.43a36.587,36.587,0,0,1-6.222-.892,30.089,30.089,0,0,1-10.024-5.308,70.888,70.888,0,0,1,4.4,7.751c.271.535.528,1.044.778,1.527,6.178,11.874,12.161,11.591,17.946,11.316.888-.044,1.766-.084,2.63-.084A1.044,1.044,0,0,1,253.994-139a1.045,1.045,0,0,1-1.046,1.046c-.831,0-1.675.04-2.532.08-.922.045-1.862.089-2.819.089-5.411,0-11.306-1.429-17.08-12.528-.254-.488-.514-1.006-.789-1.551a61,61,0,0,0-9.1-13.829c-.873-.693-1.772-1.4-2.73-2.135-.668-.514-1.308-.988-1.925-1.432-.136-.1-.262-.184-.4-.28-.463-.329-.916-.642-1.35-.929-.17-.112-.331-.215-.493-.32-.378-.245-.745-.472-1.1-.682-.17-.1-.338-.2-.5-.292-.325-.185-.637-.353-.937-.507-.157-.08-.313-.161-.463-.233-.3-.142-.574-.259-.845-.367-.047-.019-.1-.04-.145-.061-.077-.028-.159-.066-.234-.093a7.91,7.91,0,0,0-.862-.257c-.063-.016-.133-.042-.192-.054a4.175,4.175,0,0,0-.92-.1h0a2.342,2.342,0,0,0-.748.129,1.643,1.643,0,0,0-.285.138c-.019.011-.04.026-.061.04a2.253,2.253,0,0,0-.63.661c-.023.037-.045.082-.07.121-.068.115-.135.245-.2.385-.037.08-.073.161-.108.25-.049.121-.094.257-.14.4-.04.121-.082.236-.121.374-.028.1-.052.215-.079.32-.046.18-.091.357-.133.563-2.586,12.887.937,20.845,4.347,25.256a21.181,21.181,0,0,0,9.256,6.974,1.973,1.973,0,0,1,.378-.072c.038,0,.079,0,.117,0,2.866.156,5.215.208,7.287.252,4.709.1,7.572.17,10.062,1.4a8.815,8.815,0,0,1,1.124.462c.016.009.025.024.04.033.031.019.066.038.1.059l.418.308a1.049,1.049,0,0,1,.359,1.217c-.011.026-.018.054-.028.082a2.1,2.1,0,0,1-.115.983,31.8,31.8,0,0,0-1.728,6.6c-.082.71-.152,1.425-.185,2.14v.166c0,.082,0,.18,0,.3v.024c-.011.8-.084,2.359-.187,4.582-.465,9.968-1.565,33.54.654,46.687-.045.009-.089.014-.133.023.434,2.88.908,5.269,1.24,6.649l.129.567A92.694,92.694,0,0,0,258.878-24.2c7.018,7.88,16.078,13.376,24.24,14.7a16.213,16.213,0,0,0,2.576.241c3.226,0,4.727-1.413,4.727-4.445,0-2.319-.038-8.455-.091-15.289A5.8,5.8,0,0,1,287.976-28.556Zm3.064-122.559a1.045,1.045,0,0,1,1.046-1.046,1.046,1.046,0,0,1,1.046,1.046v3.706a1.046,1.046,0,0,1-1.046,1.046,1.045,1.045,0,0,1-1.046-1.046Zm-1.324,20.31a1.045,1.045,0,0,1,1.046-1.046,1.045,1.045,0,0,1,1.046,1.046v3.7a1.045,1.045,0,0,1-1.046,1.046,1.045,1.045,0,0,1-1.046-1.046Zm0,10.563a1.045,1.045,0,0,1,1.046-1.046,1.045,1.045,0,0,1,1.046,1.046v3.7a1.044,1.044,0,0,1-1.046,1.044,1.044,1.044,0,0,1-1.046-1.044Zm0,9.746a1.045,1.045,0,0,1,1.046-1.046,1.045,1.045,0,0,1,1.046,1.046v3.706a1.045,1.045,0,0,1-1.046,1.046,1.045,1.045,0,0,1-1.046-1.046Zm0,9.576a1.044,1.044,0,0,1,1.046-1.046,1.044,1.044,0,0,1,1.046,1.046v3.7a1.045,1.045,0,0,1-1.046,1.046,1.045,1.045,0,0,1-1.046-1.046Zm0,9.571a1.046,1.046,0,0,1,1.046-1.048,1.046,1.046,0,0,1,1.046,1.048v3.7a1.045,1.045,0,0,1-1.046,1.046,1.045,1.045,0,0,1-1.046-1.046Zm0,9.571a1.044,1.044,0,0,1,1.046-1.046,1.044,1.044,0,0,1,1.046,1.046v3.7a1.046,1.046,0,0,1-1.046,1.048,1.046,1.046,0,0,1-1.046-1.048ZM287.6-159.773a1.044,1.044,0,0,1,1.046-1.046,1.045,1.045,0,0,1,1.046,1.046v3.707a1.045,1.045,0,0,1-1.046,1.046,1.044,1.044,0,0,1-1.046-1.046Zm-.644,17.505A1.045,1.045,0,0,1,288-143.313a1.048,1.048,0,0,1,1.048,1.046v3.706A1.047,1.047,0,0,1,288-137.516a1.044,1.044,0,0,1-1.044-1.046Zm-3.6-9.036a1.045,1.045,0,0,1,1.046-1.046,1.045,1.045,0,0,1,1.046,1.046v3.706a1.046,1.046,0,0,1-1.046,1.046,1.046,1.046,0,0,1-1.046-1.046Zm0,19.27a1.046,1.046,0,0,1,1.046-1.046,1.046,1.046,0,0,1,1.046,1.046v3.7a1.046,1.046,0,0,1-1.046,1.046,1.046,1.046,0,0,1-1.046-1.046Zm-3.734-27.4a1.047,1.047,0,0,1,1.047-1.046,1.046,1.046,0,0,1,1.046,1.046v3.706a1.046,1.046,0,0,1-1.046,1.046,1.047,1.047,0,0,1-1.047-1.046Zm-.154,17.164a1.048,1.048,0,0,1,1.048-1.046,1.046,1.046,0,0,1,1.046,1.046v3.706a1.045,1.045,0,0,1-1.046,1.046,1.047,1.047,0,0,1-1.048-1.046Zm-1.5,9.8v3.7a1.047,1.047,0,0,1-1.047,1.046,1.046,1.046,0,0,1-1.046-1.046v-3.7a1.045,1.045,0,0,1,1.046-1.046A1.046,1.046,0,0,1,277.973-132.468ZM275.5-150.849a1.046,1.046,0,0,1,1.048-1.046,1.045,1.045,0,0,1,1.046,1.046v3.7a1.048,1.048,0,0,1-1.046,1.048,1.048,1.048,0,0,1-1.048-1.048Zm-4.078-6.733a1.047,1.047,0,0,1,1.048-1.046,1.046,1.046,0,0,1,1.044,1.046v3.706a1.046,1.046,0,0,1-1.044,1.046,1.047,1.047,0,0,1-1.048-1.046Zm0,15.314a1.047,1.047,0,0,1,1.048-1.046,1.046,1.046,0,0,1,1.044,1.046v3.706a1.045,1.045,0,0,1-1.044,1.046,1.046,1.046,0,0,1-1.048-1.046Zm-1.163,10.234v3.7a1.047,1.047,0,0,1-1.048,1.046,1.046,1.046,0,0,1-1.046-1.046v-3.7a1.046,1.046,0,0,1,1.046-1.046A1.047,1.047,0,0,1,270.259-132.034Zm-2.586-17.948a1.046,1.046,0,0,1,1.046-1.044,1.046,1.046,0,0,1,1.048,1.044v3.7a1.046,1.046,0,0,1-1.048,1.046,1.045,1.045,0,0,1-1.046-1.046Zm-1.46,8.427v3.7a1.045,1.045,0,0,1-1.046,1.044,1.044,1.044,0,0,1-1.046-1.044v-3.7a1.045,1.045,0,0,1,1.046-1.046A1.046,1.046,0,0,1,266.212-141.554Zm-3.456-13A1.046,1.046,0,0,1,263.8-155.6a1.047,1.047,0,0,1,1.048,1.046v3.7A1.047,1.047,0,0,1,263.8-149.8a1.046,1.046,0,0,1-1.046-1.046Zm-2.265,22.9a1.046,1.046,0,0,1,1.046-1.046,1.045,1.045,0,0,1,1.046,1.046v3.7a1.044,1.044,0,0,1-1.046,1.046,1.045,1.045,0,0,1-1.046-1.046Zm-4.5-7a1.045,1.045,0,0,1,1.046-1.046,1.045,1.045,0,0,1,1.046,1.046v2.838a1.046,1.046,0,0,1-1.046,1.046,1.046,1.046,0,0,1-1.046-1.046Zm-3.37,8.471a1.047,1.047,0,0,1,1.046-1.048,1.046,1.046,0,0,1,1.046,1.048v3.7a1.044,1.044,0,0,1-1.046,1.046,1.045,1.045,0,0,1-1.046-1.046Zm-4.082-4.694a1.046,1.046,0,0,1,1.046-1.046,1.045,1.045,0,0,1,1.046,1.046v2.84a1.046,1.046,0,0,1-1.046,1.048,1.047,1.047,0,0,1-1.046-1.048Zm-2.609,8.27a1.045,1.045,0,0,1,1.046-1.046,1.044,1.044,0,0,1,1.046,1.046v3.7a1.045,1.045,0,0,1-1.046,1.046,1.046,1.046,0,0,1-1.046-1.046Zm-3.863-6.848a1.046,1.046,0,0,1,1.046-1.046,1.048,1.048,0,0,1,1.048,1.046v2.838a1.048,1.048,0,0,1-1.048,1.046,1.046,1.046,0,0,1-1.046-1.046Zm.465,20.711a1,1,0,0,1,.063-.21c.037-.075.091-.147.131-.222a5.959,5.959,0,0,1,1.236-1.834.983.983,0,0,1,.238-.152c4.166-4.265,13.124-6.357,17.89-6.894,5.356-.61,21.912-.031,22.615-.005a.529.529,0,0,1,.091.021.823.823,0,0,1,.11-.023,1.047,1.047,0,0,1,1.048,1.046q0,2.828-.025,5.519a1.021,1.021,0,0,1,.019.254c0,.023-.017.038-.021.063-.245,27.428-2.135,44.277-2.154,44.455a1.172,1.172,0,0,1-.058.243l-2.492,6.728a1.044,1.044,0,0,1-.979.684.977.977,0,0,1-.364-.066,1.042,1.042,0,0,1-.617-1.341l2.445-6.609c.171-1.565,1.861-17.722,2.12-43.359-4.7-.5-26.022-2.384-39.45,2.751a8.128,8.128,0,0,0-.234,3.776,4.6,4.6,0,0,0,2.24,3.583,1.047,1.047,0,0,1,.519,1.385,1.046,1.046,0,0,1-.953.612,1.05,1.05,0,0,1-.432-.093,6.6,6.6,0,0,1-3.435-5.134A10.026,10.026,0,0,1,242.536-112.741ZM265.32-85.317c2.081-.29,3.991-1.583,5.836-2.833,2.114-1.432,4.3-2.912,6.806-2.912a1.046,1.046,0,0,1,1.046,1.046,1.046,1.046,0,0,1-1.046,1.046c-1.864,0-3.7,1.24-5.633,2.551-2.044,1.385-4.157,2.816-6.722,3.172a1.015,1.015,0,0,1-.145.01,1.047,1.047,0,0,1-1.035-.9A1.045,1.045,0,0,1,265.32-85.317ZM253.682-97.989a.834.834,0,0,1-.255-.8.835.835,0,0,1,.574-.617,20.835,20.835,0,0,0,2.413-1.006,18.171,18.171,0,0,1,7.716-2.163,11.312,11.312,0,0,1,1.929.164,19.866,19.866,0,0,1,10,4.807,10.56,10.56,0,0,0,1.53,1.13c1.406.715,1.375,1.551,1.3,1.876-.073.3-.376,1-1.649,1l-.238,0a11.378,11.378,0,0,0-3.541.624,25.242,25.242,0,0,1-8.125,1.121l-.757-.005C260.4-91.933,256.36-95.577,253.682-97.989Zm25.006-2.588c0-2.795-1.969-4.844-5.853-6.093-7.348-2.359-18.11-.61-19.448,1.259a1.048,1.048,0,0,1-1.46.24,1.044,1.044,0,0,1-.24-1.458c2.31-3.223,14.529-4.363,21.786-2.032,4.781,1.537,7.306,4.332,7.306,8.085a1.046,1.046,0,0,1-1.046,1.046A1.045,1.045,0,0,1,278.688-100.577Zm-38.994-22.638a1.046,1.046,0,0,1,1.046-1.046,1.047,1.047,0,0,1,1.048,1.046v3.7a1.047,1.047,0,0,1-1.048,1.046,1.046,1.046,0,0,1-1.046-1.046Zm6.337,23.787a1.045,1.045,0,0,1,1.046,1.046,1.044,1.044,0,0,1-1.046,1.046c-4.368,0-4.924.18-4.924,3.251,0,5.288,6.289,18.224,17.944,18.224,7.7,0,11.222-3.045,14.627-5.986a21.28,21.28,0,0,1,5.654-3.912,1.045,1.045,0,0,1,1.368.561,1.046,1.046,0,0,1-.563,1.368,19.784,19.784,0,0,0-5.089,3.566c-3.526,3.045-7.52,6.495-16,6.495-12.43,0-20.036-13.154-20.036-20.315C239.015-99.428,242.111-99.428,246.031-99.428ZM242.8-73.209a1.047,1.047,0,0,1-1.046,1.048,1.047,1.047,0,0,1-1.046-1.048v-3.7a1.045,1.045,0,0,1,1.046-1.046,1.045,1.045,0,0,1,1.046,1.046Zm4.772,4a1.046,1.046,0,0,1-1.046,1.046,1.047,1.047,0,0,1-1.048-1.046v-3.7a1.047,1.047,0,0,1,1.048-1.048,1.047,1.047,0,0,1,1.046,1.048Zm3.178,11.348a1.047,1.047,0,0,1-1.048,1.046,1.046,1.046,0,0,1-1.046-1.046v-3.223a1.047,1.047,0,0,1,1.046-1.048,1.047,1.047,0,0,1,1.048,1.048Zm1.927-8.324a1.045,1.045,0,0,1-1.046,1.046,1.045,1.045,0,0,1-1.046-1.046v-3.7a1.045,1.045,0,0,1,1.046-1.046,1.045,1.045,0,0,1,1.046,1.046Zm4.159,10.862a1.047,1.047,0,0,1-1.048,1.046,1.046,1.046,0,0,1-1.046-1.046V-59.03a1.046,1.046,0,0,1,1.046-1.046,1.047,1.047,0,0,1,1.048,1.046Zm1.261-8.6a1.045,1.045,0,0,1-1.046-1.046v-3.7A1.046,1.046,0,0,1,258.1-69.72a1.045,1.045,0,0,1,1.046,1.046v3.7A1.044,1.044,0,0,1,258.1-63.925Zm2.847,17.454a1.045,1.045,0,0,1-1.046,1.046,1.045,1.045,0,0,1-1.046-1.046v-3.7A1.045,1.045,0,0,1,259.9-51.22a1.045,1.045,0,0,1,1.046,1.046Zm2.092-8.854a1.046,1.046,0,0,1-1.046,1.046,1.046,1.046,0,0,1-1.046-1.046V-59.03a1.046,1.046,0,0,1,1.046-1.046,1.046,1.046,0,0,1,1.046,1.046Zm1.3-8.856a1.045,1.045,0,0,1-1.046-1.046v-3.7a1.045,1.045,0,0,1,1.046-1.046,1.045,1.045,0,0,1,1.046,1.046v3.7A1.045,1.045,0,0,1,264.332-64.18Zm2.85,18.5a1.045,1.045,0,0,1-1.046,1.046,1.045,1.045,0,0,1-1.046-1.046v-3.7a1.046,1.046,0,0,1,1.046-1.048,1.046,1.046,0,0,1,1.046,1.048Zm2.433-10.771A1.046,1.046,0,0,1,268.57-55.4a1.047,1.047,0,0,1-1.048-1.046v-3.706A1.046,1.046,0,0,1,268.57-61.2a1.045,1.045,0,0,1,1.046,1.046Zm.591-10.909v-3.7a1.046,1.046,0,0,1,1.046-1.046A1.046,1.046,0,0,1,272.3-71.06v3.7a1.046,1.046,0,0,1-1.046,1.046A1.046,1.046,0,0,1,270.206-67.356Zm2.553,19.032a1.048,1.048,0,0,1-1.047,1.046,1.045,1.045,0,0,1-1.044-1.046V-52.03a1.045,1.045,0,0,1,1.044-1.046,1.048,1.048,0,0,1,1.047,1.046Zm2.716-10.428a1.046,1.046,0,0,1-1.046,1.046,1.047,1.047,0,0,1-1.048-1.046v-3.7A1.047,1.047,0,0,1,274.43-63.5a1.047,1.047,0,0,1,1.046,1.048Zm1.17-16.309a1.048,1.048,0,0,1,1.046-1.048,1.048,1.048,0,0,1,1.046,1.048v3.7a1.046,1.046,0,0,1-1.046,1.046,1.046,1.046,0,0,1-1.046-1.046Zm7.2-41.491q.011-1.695.014-3.443c-3.387-.11-16.972-.5-21.533.019-4.5.509-11.577,2.3-15.475,5.248C260.546-118.682,278.971-117.075,283.849-116.552Zm71.561-18.824.43-.317a1.26,1.26,0,0,1,.131-.08l.017-.014a8.747,8.747,0,0,1,1.133-.465c2.485-1.228,5.348-1.3,10.052-1.4,2.072-.044,4.421-.1,7.289-.252.037,0,.079,0,.115,0a2,2,0,0,1,.378.072,20.62,20.62,0,0,0,7.665-5.129l0,0a22.175,22.175,0,0,0,1.486-1.726c.264-.338.526-.677.78-1.039.007-.014.017-.03.025-.042.276-.4.539-.81.794-1.236.065-.1.124-.2.184-.306.241-.413.469-.836.693-1.275.026-.052.056-.1.082-.154.233-.479.456-.978.672-1.49.058-.15.117-.31.182-.463.15-.39.3-.789.434-1.2.079-.236.156-.465.229-.708.119-.383.222-.775.324-1.168.082-.317.159-.638.231-.969.1-.444.187-.894.266-1.348.042-.234.07-.476.1-.717q.094-.637.163-1.287c.021-.233.044-.467.063-.7.037-.477.066-.958.082-1.446.01-.2.017-.4.021-.609.012-.57.007-1.147-.007-1.73,0-.136,0-.273-.011-.411-.026-.717-.072-1.445-.142-2.181a.321.321,0,0,0,0-.058,46.734,46.734,0,0,0-.717-4.844c-.07-.344-.143-.649-.226-.927-.024-.089-.052-.166-.077-.248-.056-.17-.112-.331-.171-.474-.033-.089-.07-.173-.108-.254-.058-.122-.114-.236-.173-.339a1.889,1.889,0,0,0-.1-.173,2.488,2.488,0,0,0-.285-.371l-.044-.044a2.219,2.219,0,0,0-.264-.217c-.037-.023-.07-.045-.1-.065a1.478,1.478,0,0,0-.261-.124,2.234,2.234,0,0,0-.741-.131l-.021,0a4.183,4.183,0,0,0-.845.089c-.077.016-.164.037-.247.058a7.566,7.566,0,0,0-.836.248c-.063.023-.121.04-.189.065q-.551.21-1.179.514l-.208.107c-.4.2-.817.423-1.257.68-.044.024-.089.049-.135.077q-.745.435-1.569.976l-.17.114c-.528.35-1.076.727-1.653,1.138-.032.023-.063.044-.091.065-.637.455-1.3.946-1.985,1.476-.958.736-1.855,1.443-2.728,2.135a60.709,60.709,0,0,0-9.111,13.843c-.269.54-.528,1.051-.782,1.535-5.776,11.1-11.669,12.53-17.082,12.53-.953,0-1.894-.044-2.819-.089-.853-.04-1.7-.08-2.531-.08A1.045,1.045,0,0,1,339.519-139a1.038,1.038,0,0,1,.308-.742,1.038,1.038,0,0,1,.738-.308c.873,0,1.759.042,2.653.086.734.035,1.479.07,2.23.082l.262,0c.273,0,.539,0,.81-.005s.553-.024.831-.044c.082-.005.164-.007.245-.014,4.407-.365,8.92-2.441,13.548-11.332.248-.479.505-.981.771-1.514a70.747,70.747,0,0,1,4.407-7.761,30.036,30.036,0,0,1-10.024,5.306,36.54,36.54,0,0,1-6.22.892,57.878,57.878,0,0,0-7.285,1c-.638.138-1.271.278-1.922.463l-.086.028c-4.024,1.17-6.588,4.015-7.34,6.334a1.04,1.04,0,0,1-1.317.67,1.048,1.048,0,0,1-.677-1.317,12.338,12.338,0,0,1,6.574-6.862,69.43,69.43,0,0,0-28.828-11,83.021,83.021,0,0,0-18.619-.741,12.118,12.118,0,0,1,4.653,4.827c2.488,4.293,2.413,31.864,2.4,34.993l0,4.626c0,.021.01.038.01.061v54.247a18.968,18.968,0,0,0,5.776-1.144,1.046,1.046,0,0,1,1.443.331,1.051,1.051,0,0,1-.329,1.441c-1.156.722-4.409,1.32-6.89,1.464v8.27a11.306,11.306,0,0,0,3.44-1.74,16.551,16.551,0,0,1,9.755-3.3,3.816,3.816,0,0,0,.677-2.266,2.979,2.979,0,0,0-1.289-2.471,1.043,1.043,0,0,1-.233-1.46,1.043,1.043,0,0,1,1.462-.231,5.329,5.329,0,0,1,1.834,6.157c-.376,1.144-1.152,2.363-2.2,2.363-.049,0-.086,0-.131,0a14.558,14.558,0,0,0-8.735,2.962,11.88,11.88,0,0,1-4.578,2.118v.859a1.027,1.027,0,0,1-.11.449,1.044,1.044,0,0,1-.892.734,12.629,12.629,0,0,1-4.407-.525c.012,1.271.028,3.244.049,5.647.609.2,1.369.839,1.8,2.739a9.476,9.476,0,0,1-.178,5h3.312c4.549,0,12.7.262,16.143,2.018a1.044,1.044,0,0,1,.458,1.406,1.05,1.05,0,0,1-.936.572,1.041,1.041,0,0,1-.47-.114c-2.2-1.121-7.878-1.791-15.2-1.791h-4.465a9.2,9.2,0,0,1-.334,6.712c.056,7.548.1,14.6.1,17.126a8.355,8.355,0,0,1-.387,2.569h1.791c18.888-.2,23.309-1.67,29.575-9.846a35.877,35.877,0,0,0,3.982-6.794,75.3,75.3,0,0,1,8.681-14.127l.262-.359c9.5-12.827,15.669-21.991,16.493-24.507,4.358-10.911,3.945-42.932,3.812-53.454.056-.9.07-1.637.07-2.371a31.993,31.993,0,0,0-2.111-11.39,1.053,1.053,0,0,1,.063-.876A1.057,1.057,0,0,1,355.41-135.376Zm-45.879,22.059.512,42.462a1.049,1.049,0,0,1-1.035,1.058H309a1.045,1.045,0,0,1-1.044-1.034l-.624-51.987a1.046,1.046,0,0,1,1.032-1.056h.014a.953.953,0,0,1,.119.024,1.079,1.079,0,0,1,.122-.024h22.458c5.171,0,13.7,2.994,16.818,8.614a1.015,1.015,0,0,1,.509.252c1.621,1.565,2.375,4.556,1.882,7.443a6.61,6.61,0,0,1-3.435,5.134,1.07,1.07,0,0,1-.434.093c-.019,0-.038-.014-.056-.014-.045.021-.082.056-.128.077a1.047,1.047,0,0,1-.434.094,1.047,1.047,0,0,1-.95-.612,1.048,1.048,0,0,1,.516-1.387,4.083,4.083,0,0,0,1.973-2.875,9.188,9.188,0,0,0-.722-6.283C324.4-116.461,310.536-113.539,309.531-113.317Zm10.517,20.333a11.361,11.361,0,0,0-3.543-.624l-.177,0h0c-1.333,0-1.637-.7-1.709-1-.077-.325-.107-1.161,1.294-1.876a10.312,10.312,0,0,0,1.537-1.133,19.859,19.859,0,0,1,9.992-4.8,11.317,11.317,0,0,1,1.931-.164,18.173,18.173,0,0,1,7.719,2.163,20.731,20.731,0,0,0,2.408,1.006.843.843,0,0,1,.575.617.842.842,0,0,1-.257.8c-2.674,2.412-6.722,6.056-10.891,6.121l-.757.005A25.247,25.247,0,0,1,320.048-92.984Zm7.889,8.845a1.048,1.048,0,0,1-1.035.9,1.009,1.009,0,0,1-.143-.01c-2.562-.357-4.673-1.787-6.717-3.171-1.941-1.313-3.77-2.553-5.64-2.553a1.049,1.049,0,0,1-1.046-1.046,1.049,1.049,0,0,1,1.046-1.046c2.509,0,4.7,1.481,6.811,2.913,1.843,1.25,3.753,2.541,5.832,2.831A1.044,1.044,0,0,1,327.937-84.139Zm11.042-21.272c-1.341-1.869-12.1-3.62-19.446-1.259-3.888,1.249-5.853,3.3-5.853,6.093a1.049,1.049,0,0,1-1.048,1.046,1.044,1.044,0,0,1-1.044-1.046c0-3.753,2.525-6.547,7.3-8.085,7.266-2.329,19.476-1.191,21.786,2.032a1.044,1.044,0,0,1-.236,1.458A1.046,1.046,0,0,1,338.978-105.411Zm-5.664,31.64c-8.473,0-12.469-3.45-15.992-6.493a19.817,19.817,0,0,0-5.094-3.567,1.046,1.046,0,0,1-.563-1.368,1.048,1.048,0,0,1,1.369-.561,21.239,21.239,0,0,1,5.655,3.914c3.4,2.941,6.927,5.984,14.625,5.984,11.659,0,17.946-12.936,17.946-18.224,0-3.071-.556-3.251-4.926-3.251a1.046,1.046,0,0,1-1.047-1.046,1.047,1.047,0,0,1,1.047-1.046c3.921,0,7.018,0,7.018,5.342C353.351-86.924,345.748-73.77,333.314-73.77Zm32.424-61.251a38.588,38.588,0,0,0-7.138.518l-.04.009c-.222.054-.427.115-.63.182l-.579.423-.182.037a33.846,33.846,0,0,1,1.855,7.095l.434-.1c7.759,0,6.81-6.226,12.764-8.371C369.744-135.112,367.62-135.061,365.738-135.021ZM345.1-115.658c-3.216-3.835-9.891-6.124-14.03-6.124H309.431l.073,6.331C312.217-116.013,324.958-118.261,345.1-115.658ZM222.311-130.07a2.431,2.431,0,0,0-1.544.775,12.276,12.276,0,0,1-7.259,3.412,7.333,7.333,0,0,1,.409,4.052,8.144,8.144,0,0,1-.978,2.725c4.545-1.478,8.3-4.122,10.008-7.686C223.815-128.606,223.378-130.07,222.311-130.07Zm-30.729-14.581q-.454-1.333-.783-2.695c-4.666,2.74-8.266,3.7-11.049,3.7a10.586,10.586,0,0,1-7.2-2.747,49.385,49.385,0,0,0,2.018,5.624c.028.012.056.011.082.025C177.19-139.429,183.037-136.409,191.582-144.651Zm-5.493,11.313a13.111,13.111,0,0,0,7.614-6.474,30.048,30.048,0,0,1-1.326-2.735c-4.671,4.274-8.714,5.549-11.9,5.549a12.714,12.714,0,0,1-4.561-.866,44.989,44.989,0,0,0,2.723,4.613.791.791,0,0,1,.11.031C179.793-132.683,182.707-132.237,186.089-133.338Zm10.566-2.016q-.929-1.159-1.731-2.391a15.114,15.114,0,0,1-8.186,6.4,15.732,15.732,0,0,1-4.83.782,13.177,13.177,0,0,1-1.376-.075,40.6,40.6,0,0,0,2.971,3.368.88.88,0,0,1,.152.005,13.038,13.038,0,0,0,9.265-2.224A8.544,8.544,0,0,0,196.655-135.355Zm-6.374-14.107c.021-.012.044-.014.066-.024q-.239-1.422-.348-2.861a20.442,20.442,0,0,1-8.523,2.167c-5.593,0-8.674-3.389-10.613-5.524l-.133-.145a52.694,52.694,0,0,0,.985,6.133,5.412,5.412,0,0,1,1.436,1.063C175.359-146.641,179.473-142.892,190.281-149.462Zm221.747-.719a20.466,20.466,0,0,1-8.523-2.167q-.1,1.437-.345,2.861c.019.01.044.01.066.024,10.806,6.574,14.919,2.821,17.131.808a5.379,5.379,0,0,1,1.434-1.063,52.346,52.346,0,0,0,.985-6.133c-.046.049-.093.1-.133.145C420.7-153.57,417.622-150.181,412.028-150.181Zm-239.618-6.93c2.623,2.887,7.009,7.691,17.488,2.492a30.662,30.662,0,0,1,.178-3.258,29.749,29.749,0,0,1-6.474.818c-7.5,0-10.071-4-11.757-6.621a11.027,11.027,0,0,0-1.224-1.675,54.3,54.3,0,0,0-.1,6.509A8.587,8.587,0,0,1,172.41-157.111Zm1.2-7.7c2.071,3.216,4.909,7.619,16.7,4.746a.813.813,0,0,1,.091-.005,29.478,29.478,0,0,1,.68-2.922c-1.079.1-2.1.164-3.038.164-9.851,0-12.129-5.343-13.551-8.672-.49-1.147-.951-2.233-1.465-2.371a3.328,3.328,0,0,1-.95-.4,53.642,53.642,0,0,0-1.222,6.595C172.018-167.216,172.77-166.11,173.606-164.811Zm62.52,30.9-.54-.4c-.1-.033-.21-.065-.317-.094-.152-.042-.306-.082-.467-.117-.126-.028-.255-.054-.386-.077-.168-.031-.337-.061-.518-.087-.131-.021-.269-.037-.407-.054-.2-.025-.4-.049-.607-.068-.114-.01-.234-.017-.353-.028-.259-.021-.519-.04-.8-.058l-.047,0c-1.128-.061-2.419-.089-3.915-.122-1.868-.04-3.98-.091-6.477-.212,5.955,2.146,5.007,8.37,12.762,8.37l.43.1a33.387,33.387,0,0,1,.964-4.989c.042-.154.1-.3.14-.453C235.756-132.775,235.931-133.349,236.126-133.914ZM173.57-175.891c1.492.406,2.118,1.873,2.84,3.569,1.528,3.58,3.623,8.482,15.059,7.2a1.017,1.017,0,0,1,.32.031c.3-.8.635-1.576,1-2.345C180.916-168.9,179.472-175.2,178.618-179c-.289-1.282-.537-2.391-1.028-2.548a4.875,4.875,0,0,1-2.347-1.726,51.406,51.406,0,0,0-2.6,6.932.945.945,0,0,1,.234.1A1.583,1.583,0,0,0,173.57-175.891Zm249.313,10.536a11.363,11.363,0,0,0-1.224,1.675c-1.684,2.616-4.262,6.621-11.755,6.621a29.762,29.762,0,0,1-6.474-.818,30.21,30.21,0,0,1,.18,3.258c10.475,5.2,14.859.4,17.486-2.492a8.508,8.508,0,0,1,1.889-1.735A54.306,54.306,0,0,0,422.882-165.355Zm-215.32,38.494a7.907,7.907,0,0,1-1,4.968,10.866,10.866,0,0,1-4.064,4.038c.584.037,1.166.094,1.75.094a29.1,29.1,0,0,0,4.514-.355,4.977,4.977,0,0,0,3.085-4.059,4.491,4.491,0,0,0-.824-3.765A13.494,13.494,0,0,1,207.562-126.861Zm-8.926.778a6.981,6.981,0,0,0,1.745-5.412c-.707-.616-1.389-1.247-2.023-1.911a10.909,10.909,0,0,1-4.234,5.624,15.861,15.861,0,0,1-8.2,2.747,37.355,37.355,0,0,0,4.477,3.284A12.125,12.125,0,0,0,198.636-126.083Zm6.1,3.174a5.65,5.65,0,0,0,.25-5.3c-.866-.509-1.7-1.048-2.492-1.623a9.52,9.52,0,0,1-2.244,5.082,14.94,14.94,0,0,1-6.953,4.6,22.683,22.683,0,0,0,4.589,1.635c.009,0,.016-.005.026-.005A8.914,8.914,0,0,0,204.74-122.909Z" transform="translate(-170.469 212.547)"/><g transform="translate(146.835 111.709)"><path class="a" d="M266.476-148.668l-.082,0a9.7,9.7,0,0,0-1.635.152,18.066,18.066,0,0,0-9.143,4.508c-.437.364-.822.684-1.182.943a14.563,14.563,0,0,1,3.16.633,23.112,23.112,0,0,0,7.313.993h.343l.745-.012c3.011-.072,6.185-2.6,8.581-4.748-.383-.163-.778-.343-1.182-.526A16.709,16.709,0,0,0,266.476-148.668Z" transform="translate(-254.434 148.668)"/></g><g transform="translate(85.562 111.709)"><path class="a" d="M238.407-143.962a18.126,18.126,0,0,0-9.191-4.552,9.7,9.7,0,0,0-1.635-.152l-.08,0a16.669,16.669,0,0,0-6.915,1.943c-.407.185-.8.364-1.189.528,2.391,2.139,5.57,4.676,8.6,4.748l.741.012h.331a23.043,23.043,0,0,0,7.3-.99,14.648,14.648,0,0,1,3.176-.637C239.185-143.317,238.813-143.626,238.407-143.962Z" transform="translate(-219.396 148.668)"/></g></svg>