<svg xmlns="http://www.w3.org/2000/svg" viewBox="0 0 86.71 118.56"><defs><style>.cls-1{fill:#fff;}</style></defs><g id="Layer_2" data-name="Layer 2"><g id="Layer_1-2" data-name="Layer 1"><path class="cls-1" d="M76,118.56a.5.5,0,0,1-.44-.25.49.49,0,0,1,.16-.66A4.79,4.79,0,0,0,78,114.32c.35-2.64-1.89-5.22-1.91-5.24a.5.5,0,0,1,0-.69.49.49,0,0,1,.69,0c3.81,3.64,8.34.49,9,0l.08-.06a.48.48,0,0,1,.69.09.5.5,0,0,1-.08.7l0,0c-3.21,2.46.12,8.23.16,8.29a.5.5,0,0,1-.81.59c-2.47-2.8-9.55.43-9.62.47A.52.52,0,0,1,76,118.56Zm2.26-8a6.87,6.87,0,0,1,.77,3.89,5,5,0,0,1-.89,2.28c2-.62,4.75-1.21,6.83-.43-.65-1.57-1.32-4-.58-6A7.56,7.56,0,0,1,78.26,110.55Z"/><path class="cls-1" d="M5.74,108.32H5.66a.49.49,0,0,1-.42-.53c.13-2.07-3.5-3.87-4.91-4.39a.49.49,0,0,1-.31-.6.5.5,0,0,1,.58-.36A3.19,3.19,0,0,0,3.28,102a5.43,5.43,0,0,0,1.6-3.44.49.49,0,0,1,.49-.47h0a.5.5,0,0,1,.49.49c.08,3.58,3.79,4.24,4.32,4.32h.07a.5.5,0,0,1,.42.56.5.5,0,0,1-.55.43h0c-2.69-.36-3.87,4-3.88,4.08A.51.51,0,0,1,5.74,108.32Zm-3.09-4.94a8.15,8.15,0,0,1,3.17,2.77,6.26,6.26,0,0,1,2.33-2.88,5.49,5.49,0,0,1-2.79-2.55,4.75,4.75,0,0,1-1.47,2A3.64,3.64,0,0,1,2.65,103.38Z"/><path class="cls-1" d="M75.76,9.34a.5.5,0,0,1-.31-.1.51.51,0,0,1-.12-.66c1.09-1.77-1.26-5.06-2.27-6.18a.51.51,0,0,1,0-.68.48.48,0,0,1,.67,0,3.19,3.19,0,0,0,2.59.84,5.33,5.33,0,0,0,3-2.28A.5.5,0,0,1,80,.06a.52.52,0,0,1,.2.67C78.62,3.92,81.58,6.25,82,6.57l0,0a.5.5,0,0,1,.11.69.49.49,0,0,1-.69.12l0,0c-2.2-1.58-5.32,1.75-5.35,1.78A.46.46,0,0,1,75.76,9.34Zm-.64-5.87a8.3,8.3,0,0,1,1.49,3.94A6.28,6.28,0,0,1,80,6,5.47,5.47,0,0,1,78.76,2.4a4.78,4.78,0,0,1-2.25,1.11A3.61,3.61,0,0,1,75.12,3.47Z"/></g></g></svg>