<svg xmlns="http://www.w3.org/2000/svg" width="239.046" height="407.121" viewBox="0 0 239.046 407.121"><defs><style>.a{fill:#221f20;}.b{fill:#fff;}.c{fill:#111821;}</style></defs><g transform="translate(-5500.282 -504.461)"><g transform="translate(5543.463 822.081)"><path class="a" d="M5526.146,686.623l-1.713,77.764a4.633,4.633,0,0,0,4.523,4.735l105.847,2.47a4.635,4.635,0,0,0,4.738-4.39l4.111-78.471a4.635,4.635,0,0,0-4.554-4.876l-108.245-1.763A4.633,4.633,0,0,0,5526.146,686.623Z" transform="translate(-5524.432 -682.092)"/></g><g transform="translate(5538.761 823.568)"><path class="b" d="M5592.16,731.53a7.422,7.422,0,0,1-4.239-1.336l-65.733-45.641a.894.894,0,1,1,1.019-1.47l65.736,45.643a5.613,5.613,0,0,0,6.684-.182l19.081-14.984a.893.893,0,1,1,1.1,1.405l-19.082,14.986A7.412,7.412,0,0,1,5592.16,731.53Z" transform="translate(-5521.802 -682.923)"/></g><g transform="translate(5635.323 847.641)"><path class="b" d="M5576.7,701.291a.895.895,0,0,1-.55-1.6l4-3.115a.9.9,0,0,1,1.1,1.411l-4,3.115A.9.9,0,0,1,5576.7,701.291Z" transform="translate(-5575.805 -696.386)"/></g><g transform="translate(5642.934 827.157)"><path class="b" d="M5580.956,704.656a.9.9,0,0,1-.55-1.6l23.031-17.936a.894.894,0,1,1,1.1,1.411l-23.03,17.938A.908.908,0,0,1,5580.956,704.656Z" transform="translate(-5580.062 -684.931)"/></g><g transform="translate(5500.282 504.461)"><g transform="translate(46.433 129.47)"><path class="a" d="M5526.25,600.126s6.99,36.708,40.1,50.487l16.709-14.848-2.46-58.9s-48.435,4.753-47.115,5.81S5526.25,600.126,5526.25,600.126Z" transform="translate(-5526.25 -576.868)"/></g><g transform="translate(99.88 198.219)"><path class="a" d="M5561.684,749.046l-2.366-2.081c-3.553-3.122-3.336-9.577-3.006-19.349.138-4.152.3-8.86.173-14.04-.175-7.39,9.728-26.374,21.126-45.689,1.241-16.715,1.458-30.941,1.46-31.258a.9.9,0,0,1,.9-.882h.013a.891.891,0,0,1,.881.907c-.015,1.18-.2,13.112-1.181,27.748,14.185-23.726,29.843-46.921,31.04-48.693a.895.895,0,0,1,1.481,1c-.311.456-17.821,26.4-32.805,51.712-1.57,20.872-4.79,45.541-11.35,52.554-11.134,11.9-7.323,24.926-7.284,25.057Zm15.6-77.038c-10.461,17.929-19.17,34.911-19.013,41.527.123,5.23-.037,9.965-.175,14.142-.176,5.252-.326,9.647.178,12.9a29.581,29.581,0,0,1,8.464-20.817C5572.557,713.539,5575.652,691.728,5577.287,672.007Z" transform="translate(-5556.141 -615.316)"/></g><g transform="translate(100.113 217.045)"><path class="a" d="M5559.8,738.89a.9.9,0,0,1-.629-.258c-4.553-4.5-2.865-10.051-.914-16.481a53.7,53.7,0,0,0,2.531-11.356c.944-11.846,54.334-81.636,56.608-84.6a.894.894,0,1,1,1.418,1.089c-19.138,24.971-55.522,74.59-56.244,83.652a55.252,55.252,0,0,1-2.6,11.733c-1.858,6.119-3.324,10.952.46,14.689a.9.9,0,0,1-.628,1.531Z" transform="translate(-5556.271 -625.845)"/></g><g transform="translate(61.365 198.217)"><path class="a" d="M5574.061,732.389a.9.9,0,0,1-.895-.865c-.075-2.26-.3-4.6-.519-6.859-.155-1.645-.312-3.288-.419-4.926-.735-11.354-1.9-23.456-5.4-35.031-2.732-9.037-6.966-17.861-11.058-26.392l-1.592-3.322c-5.995-12.583-12.546-25.488-19.472-38.36a.894.894,0,1,1,1.575-.846c6.936,12.9,13.5,25.827,19.512,38.435l1.586,3.321c4.125,8.592,8.389,17.477,11.161,26.648,3.55,11.746,4.728,23.969,5.47,35.431.1,1.618.261,3.245.417,4.873.219,2.287.446,4.653.524,6.97a.9.9,0,0,1-.865.923Z" transform="translate(-5534.601 -615.315)"/></g><g transform="translate(100.936 208.948)"><path class="a" d="M5557.719,730.432a.892.892,0,0,1-.877-.73c-1.026-5.464,5.384-103.386,5.66-107.552a.868.868,0,0,1,.952-.833.9.9,0,0,1,.833.951c-2.312,35.209-6.476,102.908-5.688,107.105a.893.893,0,0,1-.713,1.043A.874.874,0,0,1,5557.719,730.432Z" transform="translate(-5556.731 -621.317)"/></g><g transform="translate(102.343 214.456)"><path class="a" d="M5558.413,721.478a.894.894,0,0,1-.646-1.513c37.848-39.587,56.158-94.4,56.341-94.953a.894.894,0,0,1,1.7.56c-.183.552-18.622,55.754-56.748,95.629A.886.886,0,0,1,5558.413,721.478Z" transform="translate(-5557.519 -624.397)"/></g><g transform="translate(85.636 203.113)"><path class="a" d="M5564.359,735.552a.912.912,0,0,1-.139-.011.9.9,0,0,1-.746-1.021c7.071-45.285-15.032-114.6-15.256-115.3a.893.893,0,1,1,1.7-.549c.226.7,22.46,70.417,15.323,116.122A.9.9,0,0,1,5564.359,735.552Z" transform="translate(-5548.175 -618.054)"/></g><g transform="translate(0.898 0.893)"><path class="a" d="M5724.346,581.259l.152.088c27.351-44.245,2.347-65.04-30.155-69.661s-39.307,29.59-39.305,29.59a46.514,46.514,0,0,0-23.669-4.4q-3.641.668-6.929,1.525s-21.529-55.749-59.938-23.281-3.958,58.286-3.958,58.286l-.163.967c-14.111,2.793-29.344,10.459-31.922,30.292l-.384-.456c-13.5.265-21.977,8.513-25.221,19.8-3.707,12.9-2.419,30.8,3.757,43.365,4.2,8.531,11.336,15.413,18.891,21a102.821,102.821,0,0,0,23.316,12.944c3.079,1.214,10.534,4.906,13.937,3,5.777-3.24,7.6-50.015,7.6-50.015l-.261-.309a75.453,75.453,0,0,0,13.55.549,42.368,42.368,0,0,0,.333,16.645s12.182,51.79,43.9,52.781c12.188.381,21.186-8.351,27.3-18.871l4.739,7.653-4.826-7.5s-1.293,18.088,9.7,15.09c20.388-5.559,43-12.29,59.185-26.787a45.622,45.622,0,0,0,14.424-28.216c1.064-8.474,1.34-21.992-7.159-27.065a11.3,11.3,0,0,0-6.212-1.11c5.724-6.832,9.878-14.552,11.165-23.465C5738.427,598.235,5732.946,587.682,5724.346,581.259Z" transform="translate(-5500.785 -504.961)"/></g><g transform="translate(82.21 112.487)"><path class="b" d="M5592.689,675.687c-.228,0-.455,0-.681-.011-31.844-1-44.227-51.322-44.738-53.462v-.009c-3.128-13.3,1.166-29.891,10.686-41.287,7.746-9.271,17.967-14.051,28.64-13.505,6.989.365,14.356,3.353,22.521,9.134,19.554,13.842,26.022,33.888,19.229,59.581C5620.62,665.336,5605,675.687,5592.689,675.687ZM5549.008,621.8v0a119.768,119.768,0,0,0,10.1,26.031c6.272,11.614,17.081,25.564,32.961,26.061,8.493.243,16.211-4.047,22.806-12.819,6.748-8.974,10.255-19.767,11.745-25.4,6.583-24.9.35-44.3-18.533-57.663-7.882-5.581-14.94-8.461-21.583-8.808-10.123-.538-19.795,4.039-27.171,12.867-9.179,10.984-13.326,26.95-10.321,39.73Z" transform="translate(-5546.259 -567.371)"/></g><g transform="translate(149.985 68.41)"><path class="b" d="M5600.182,636.656a.894.894,0,0,1-.129-1.779c.635-.093,63.588-9.81,69.545-51.072,3.122-21.611-9.276-31.165-16.945-34.934-14.158-6.963-34.154-5.259-42.792,3.639-14.625,15.067-24.874,36.271-23.843,49.325a.9.9,0,0,1-.821.962.918.918,0,0,1-.962-.821c-1.068-13.513,9.4-35.313,24.344-50.71,9.281-9.563,29.833-11.392,44.865-4,8.1,3.986,21.208,14.063,17.925,36.8-6.15,42.582-70.409,52.49-71.059,52.584A.782.782,0,0,1,5600.182,636.656Z" transform="translate(-5584.162 -542.72)"/></g><g transform="translate(83.435 31.75)"><path class="b" d="M5558.393,617.631a.9.9,0,0,1-.8-.488c-.2-.386-19.543-38.991-5.612-67.18,7.106-14.378,21.519-23.653,42.846-27.567.817-.095,18.958-2.055,31.991,9.77,8.678,7.875,12.927,19.951,12.625,35.9a.893.893,0,0,1-.894.878h-.016a.9.9,0,0,1-.878-.91c.29-15.406-3.76-27.027-12.039-34.539-12.438-11.285-30.343-9.348-30.525-9.328-20.679,3.8-34.662,12.745-41.5,26.587-13.536,27.379,5.408,65.2,5.6,65.582a.9.9,0,0,1-.8,1.3Z" transform="translate(-5546.944 -522.218)"/></g><g transform="translate(154.299 200.482)"><path class="c" d="M5595.853,634.935a7.149,7.149,0,0,1-4.676-1.631c-5.355-4.4-4.578-16.222-4.542-16.722l1.785.127c-.009.113-.75,11.4,3.9,15.215,1.53,1.257,3.47,1.547,5.921.876l.472,1.724A10.842,10.842,0,0,1,5595.853,634.935Z" transform="translate(-5586.576 -616.582)"/></g><g transform="translate(0 99.243)"><path class="b" d="M5560.688,662.4c-3.255,0-7.348-1.729-10.307-2.979-.566-.24-1.072-.454-1.5-.62a103.137,103.137,0,0,1-23.518-13.057c-9.174-6.786-15.443-13.763-19.16-21.328-6.119-12.442-7.688-30.537-3.815-44,3.659-12.738,13.159-20.191,26.062-20.445a.9.9,0,0,1,.91.878.892.892,0,0,1-.876.91c-12.064.238-20.95,7.217-24.379,19.151-3.759,13.078-2.237,30.646,3.7,42.723,3.591,7.3,9.679,14.067,18.618,20.679a101.385,101.385,0,0,0,23.114,12.831c.433.17.952.39,1.535.637,3.178,1.343,9.094,3.839,11.635,2.412,3.892-2.182,6.445-31.379,7.142-49.269a.87.87,0,0,1,.93-.858.893.893,0,0,1,.858.928c0,.116-.469,11.859-1.637,23.844-2.15,22.1-4.693,25.947-6.418,26.915A5.888,5.888,0,0,1,5560.688,662.4Z" transform="translate(-5500.282 -559.964)"/></g><g transform="translate(27.275 67.894)"><path class="b" d="M5568.2,626.015c-8.072,0-26.906-1.355-39.826-12.99-8.179-7.363-12.491-17.593-12.817-30.4-.308-12.168,3.385-21.786,10.976-28.586,16.8-15.05,46.465-11.215,47.718-11.045a.89.89,0,0,1,.763,1.007.9.9,0,0,1-1,.765c-.3-.041-30.113-3.889-46.287,10.609-7.179,6.435-10.672,15.587-10.376,27.2.313,12.3,4.426,22.1,12.225,29.121,15.923,14.337,42.1,12.436,42.363,12.415a.894.894,0,0,1,.142,1.783C5571.833,625.911,5570.424,626.015,5568.2,626.015Z" transform="translate(-5515.537 -542.432)"/></g><g transform="translate(45.561)"><path class="b" d="M5540.858,574.693a.885.885,0,0,1-.535-.179c-.575-.429-14.077-10.73-14.548-26.732-.327-11.229,5.885-22.316,18.466-32.953,10.44-8.822,20.656-12.037,30.362-9.557,19.927,5.092,30.544,32.053,30.987,33.2a.894.894,0,0,1-1.669.644c-.1-.272-10.734-27.252-29.765-32.112-9.113-2.324-18.79.765-28.758,9.193-12.141,10.262-18.142,20.867-17.835,31.521.435,15.133,13.7,25.268,13.831,25.37a.893.893,0,0,1-.536,1.608Z" transform="translate(-5525.763 -504.462)"/></g><g transform="translate(82.855 201.632)"><path class="c" d="M5547.609,621.116a3.887,3.887,0,0,1-.989-.118l.457-1.729c1.458.39,4.442-1.051,5.985-2.044l.967,1.5C5553.611,619,5550.24,621.116,5547.609,621.116Z" transform="translate(-5546.62 -617.225)"/></g><g transform="translate(124.006 125.196)"><g transform="translate(28.147 19.386)"><path class="b" d="M5588.952,591.241a.892.892,0,0,1-.769-.44c-.832-1.4-1.72-2.768-2.646-4.07A.9.9,0,0,1,5587,585.7c.949,1.341,1.867,2.752,2.719,4.195a.894.894,0,0,1-.767,1.35Z" transform="translate(-5585.374 -585.32)"/></g><path class="b" d="M5594.979,590.966a.889.889,0,0,1-.688-.324c-6.741-8.134-14.341-12.708-23.919-14.392a.892.892,0,0,1-.724-1.035.908.908,0,0,1,1.035-.726c10.019,1.763,17.957,6.534,24.985,15.015a.892.892,0,0,1-.688,1.463Z" transform="translate(-5569.634 -574.478)"/></g><g transform="translate(136.234 40.921)"><path class="b" d="M5604.389,549.658a.89.89,0,0,1-.823-.549c-7.487-17.911-26.1-19.962-26.292-19.98a.894.894,0,0,1-.8-.978.9.9,0,0,1,.979-.8c.2.02,19.867,2.185,27.76,21.071a.892.892,0,0,1-.825,1.237Z" transform="translate(-5576.471 -527.346)"/></g><g transform="translate(170.529 13.644)"><path class="b" d="M5596.545,521.056a.894.894,0,0,1-.6-1.552c.413-.377,10.3-9.234,30.631-7.072a.892.892,0,0,1,.794.983.9.9,0,0,1-.983.794c-19.492-2.063-29.139,6.525-29.233,6.612A.893.893,0,0,1,5596.545,521.056Z" transform="translate(-5595.651 -512.092)"/></g><g transform="translate(67.469 9.357)"><path class="b" d="M5538.911,519.359a.892.892,0,0,1-.638-1.516c.151-.157,15.455-15.458,34.562-3.723a.894.894,0,0,1-.937,1.523c-17.875-10.982-31.763,2.856-32.346,3.447A.9.9,0,0,1,5538.911,519.359Z" transform="translate(-5538.016 -509.694)"/></g><g transform="translate(221.729 85.122)"><g transform="translate(2.211 28.282)"><path class="b" d="M5626.416,573.845a.849.849,0,0,1-.266-.041.892.892,0,0,1-.584-1.121c.429-1.371.806-2.752,1.119-4.105a.895.895,0,0,1,1.744.4c-.326,1.4-.714,2.823-1.159,4.238A.9.9,0,0,1,5626.416,573.845Z" transform="translate(-5625.523 -567.883)"/></g><path class="b" d="M5629.463,577.042a.948.948,0,0,1-.142-.011.9.9,0,0,1-.744-1.023c1.422-8.987.109-16.152-4.141-22.553a.894.894,0,1,1,1.491-.989c4.509,6.8,5.913,14.365,4.417,23.821A.894.894,0,0,1,5629.463,577.042Z" transform="translate(-5624.286 -552.066)"/></g><g transform="translate(36.377 106.641)"><g transform="translate(14.851 24.3)"><path class="b" d="M5533.3,582.052a.891.891,0,0,1-.506-.156c-1.208-.828-2.4-1.706-3.529-2.614a.893.893,0,1,1,1.117-1.395c1.1.878,2.25,1.731,3.422,2.532a.894.894,0,0,1-.5,1.633Z" transform="translate(-5528.932 -577.691)"/></g><path class="b" d="M5532.489,586.758a.89.89,0,0,1-.607-.238c-7.022-6.509-10.6-13.327-11.252-21.455a.893.893,0,0,1,1.781-.143c.614,7.655,4.011,14.1,10.686,20.286a.894.894,0,0,1-.608,1.55Z" transform="translate(-5520.626 -564.101)"/></g></g></g></svg>